<?xml version="1.0" encoding="UTF-8"?>
<svg id="Layer_1" xmlns="http://www.w3.org/2000/svg" version="1.1" viewBox="0 0 1366 768">
  <!-- Generator: Adobe Illustrator 29.8.2, SVG Export Plug-In . SVG Version: 2.1.1 Build 3)  -->
  <defs>
    <style>
      .st0 {
        font-family: Sailec-Bold, Sailec-Bold;
        font-size: 37.94px;
        font-weight: 700;
      }
    </style>
  </defs>
  <text class="st0" transform="translate(247.09 162.45)"><tspan x="0" y="0">Honoring the</tspan><tspan x="3.7" y="45.53">Constitution</tspan></text>
  <g id="muq66Y.tif">
    <path d="M506.22,112.21c6.6,10.08,11.75,21.61,14.82,33.29,19.11,72.8-38.25,130.31-104.15,147.82-32.51,8.64-67.53,5.42-100.91,1.13-18.4,9.94-38.21,18.73-59.03,22.16-4.56.75-20.33,2.79-23.86,1.16s-1.47-4.78.03-7.12c1.91-2.98,4.56-5.54,6.65-8.39,4.66-6.36,18.6-27.64,19.3-34.61.13-1.32.1-5.01-.71-6.02-.16-.2-.71-.38-1.01-.7-17.66-18.37-32.17-33.89-39.42-59.33-21.74-76.37,41.57-135.35,110.48-151.09,62.23-14.22,141.64,6.44,177.82,61.71ZM244.65,309.8c7.61-.45,15.36-.78,22.82-2.41,16.62-3.62,31.53-12.72,46.65-20.06,56.18,9.24,116.19,6.56,161.7-31.13,52.47-43.45,57.34-113.67,6.91-161.1-57.05-53.67-158.69-55.83-219.12-6.57-47.81,38.98-58.42,103.17-17.08,151.52,5.57,6.52,11.63,10.51,17.71,16.14,3.24,3,5.42,4.32,4.05,9.08-1.42,4.95-4.86,10.28-6.87,15.07l-16.78,29.45Z"/>
  </g>
</svg>