<svg width="40" height="109" viewBox="0 0 40 109" fill="none" xmlns="http://www.w3.org/2000/svg">
<path d="M12.1626 5.25552C11.9268 6.35802 11.6986 7.46049 11.4628 8.55539C11.4019 8.83671 11.3411 9.12566 11.2117 9.37657C11.1053 9.58186 10.9607 9.76435 10.8238 9.94683C10.1925 10.7832 9.69049 11.7184 9.34059 12.7069C9.20368 13.0871 9.08954 13.4825 8.86895 13.817C8.70161 14.0679 8.47345 14.2808 8.24526 14.4861C7.68238 15.0031 7.1271 15.5126 6.56422 16.0296C6.17629 16.3793 5.78836 17.0104 6.1839 17.3526C5.29394 17.4818 4.86798 18.7973 5.51452 19.4207C5.68187 19.588 5.89486 19.6945 6.10024 19.8009C6.762 20.1431 7.42375 20.4928 8.08551 20.835C8.72445 21.1619 9.37862 21.5041 10.0936 21.5725C10.7478 21.6333 11.3943 21.4661 12.0333 21.3064C12.6342 21.1467 13.2427 20.9946 13.8436 20.835C14.4749 20.6677 15.1291 20.4852 15.5931 20.029C16.1788 19.4359 16.4222 18.4171 17.236 18.2118C17.2513 17.6339 16.9774 17.0637 16.5287 16.7063C16.3537 16.5694 16.156 16.463 16.0419 16.2805C15.9202 16.0752 15.9278 15.8243 15.9201 15.5886C15.8517 13.528 14.1174 11.5816 14.7488 9.61228C14.9313 9.04202 15.3117 8.44894 15.0911 7.89389C14.9846 7.62017 14.7335 7.39207 14.7412 7.09554C14.7412 6.87504 14.9009 6.68495 14.9085 6.47205C14.9085 6.28196 14.8096 6.10707 14.7107 5.9398C14.049 4.87532 12.6646 2.98208 12.1854 5.25552H12.1626Z" fill="#441A19"/>
<path d="M10.9531 47.9944C10.9531 47.9944 9.15036 98.0935 9.11993 105.796L11.2422 105.902C11.2422 105.902 17.1752 59.8786 20.1265 57.5748C20.1265 57.5748 21.3435 57.3999 21.8151 57.5748C22.2867 57.7497 24.4926 103.439 23.7015 106.298H25.8998C25.8998 106.298 32.6847 59.2932 32.2664 48.3062C32.2664 48.3062 32.5402 42.786 23.1538 43.2879C13.7751 43.7821 11.8887 42.5199 10.9455 47.9944H10.9531Z" fill="#333333"/>
<path d="M12.8852 104.77C11.3334 104.587 9.75132 104.564 8.192 104.686C6.94454 105.325 5.59058 105.842 4.18338 106.207C3.77263 106.313 3.33905 106.419 3.02719 106.648C2.71532 106.883 2.55561 107.294 2.81423 107.568C3.03482 107.811 3.46075 107.856 3.83347 107.879C6.71631 108.054 9.61438 108.009 12.4896 107.742C12.6646 107.727 12.8471 107.704 12.9764 107.613C13.0829 107.545 13.1362 107.438 13.1818 107.332C13.5393 106.495 13.4328 105.537 12.8928 104.762L12.8852 104.77Z" fill="#682D2C"/>
<path d="M22.728 105.028C22.728 105.028 26.5312 104.823 27.1397 105.028C27.7482 105.233 28.699 107.545 27.8167 107.971C26.9343 108.396 18.0424 108.396 18.0424 108.396C18.0424 108.396 17.0231 107.507 19.5332 106.663C22.0434 105.819 22.4541 105.781 22.7203 105.02L22.728 105.028Z" fill="#682D2C"/>
<path d="M15.6843 22.6598C11.7441 37.8135 10.8466 54.1228 3.00435 67.6646C2.49472 68.5466 1.94703 69.6643 2.5023 70.5311C2.70007 70.8428 3.01956 71.0558 3.33142 71.261C7.97136 74.2492 13.3111 76.1424 18.7954 76.7507C20.8795 76.9788 23.0169 77.0245 25.0554 76.5378C26.8125 76.1197 28.4479 75.3213 30.0605 74.5229C31.0113 74.0515 32.0001 73.5573 32.6619 72.7209C33.7192 71.3903 33.7192 69.5274 33.666 67.8243C33.3085 56.3963 32.9509 44.9379 31.1786 33.6468C30.7375 30.8259 30.1746 27.9442 28.6609 25.5187C27.809 24.1577 26.6832 22.9867 25.5651 21.831C24.4545 20.6829 23.2983 19.5044 21.8151 18.9189C18.5976 17.6567 16.4449 19.7477 15.6843 22.6598Z" fill="#F2F2F2"/>
<path d="M12.0713 23.3745C12.7939 22.5533 13.6154 21.7778 14.5662 21.5041C15.517 21.2304 16.6199 21.6181 16.985 22.6446C17.3197 23.5798 16.9774 24.7128 16.5895 25.686C15.6006 28.1723 14.338 30.5142 13.0829 32.8408C11.7594 35.2967 10.4359 37.7526 9.11233 40.2086C8.70919 40.9537 8.27565 41.7368 7.6215 42.1474C6.48053 42.8698 3.87152 41.965 3.67375 40.3986C3.4988 38.992 5.37759 35.5172 5.91005 34.1714C7.47697 30.248 9.37857 26.4159 12.0713 23.3821V23.3745Z" fill="#F2F2F2"/>
<path d="M13.3035 6.57086C13.5165 3.64353 16.2396 1.45374 19.3887 1.68185C22.5378 1.90995 24.9186 4.46472 24.7132 7.39204C24.6752 7.87867 24.5687 8.35009 24.4014 8.78349C24.3862 8.89754 24.3785 9.01917 24.3709 9.14083C24.3101 10.1977 24.1884 11.2546 23.9069 12.2887C23.3593 14.2884 22.1727 16.098 20.1037 17.1092C19.4115 17.4438 18.6357 17.6871 17.8446 17.6187C16.7797 17.5351 15.8441 16.9192 15.1519 16.1892C12.87 13.7713 12.9004 10.3878 13.3035 7.22474C13.2883 7.01185 13.2883 6.79137 13.3035 6.57847V6.57086Z" fill="#D1AC9D"/>
<path d="M3.29346 23.9904C3.07287 23.2605 2.66972 22.3708 2.04599 22.4317C1.40705 22.4925 1.24731 23.4886 1.23971 24.2641C1.22449 25.9749 1.20928 27.6933 1.19407 29.4041C1.16364 32.7496 1.14841 36.1635 2.03076 39.4102C2.38826 40.7332 3.0272 42.155 4.11492 42.6036C4.79189 42.885 5.51452 42.7177 6.17629 42.5124C9.5003 41.4783 7.49982 38.1252 6.61747 35.1598C5.50693 31.4341 4.39639 27.7085 3.28584 23.9828L3.29346 23.9904Z" fill="#F2F2F2"/>
<path d="M24.8729 37.1139C23.9982 38.7715 22.7203 40.1781 21.3891 41.5011C19.2669 43.5997 16.9698 45.5158 14.5357 47.2266C13.9805 47.6143 13.3872 48.0401 13.159 48.6788C12.9308 49.3175 13.3187 50.1995 14.0033 50.1919C14.2239 50.1919 14.4369 50.093 14.6422 49.9942C17.4338 48.6636 20.2178 47.3406 23.0093 46.01C25.0403 45.0443 27.094 44.0635 28.8131 42.6189C33.3237 38.8324 34.7993 31.8752 32.2131 26.5832C31.346 24.8116 29.9692 23.1616 28.0752 22.5914C26.881 22.234 25.0098 22.4241 24.1427 23.4353C22.8724 24.918 24.4241 25.8076 25.1087 27.3283C26.4855 30.4001 26.4626 34.1182 24.8881 37.1139H24.8729Z" fill="#EAEAEA"/>
<path d="M12.1017 23.3061C11.8202 23.998 11.5388 24.8116 11.9344 25.4503C12.1702 25.8305 12.5961 26.0358 13.0069 26.2106C16.3993 27.6173 20.7655 27.7389 22.7355 30.8336C23.7168 32.3694 23.8232 34.2855 23.8993 36.1027C24.2036 43.3184 24.4774 50.7469 22.0433 57.552C21.914 57.9094 21.7771 58.3124 21.9444 58.6622C22.127 59.0575 22.6062 59.1944 23.0398 59.2704C24.5002 59.5213 26.0139 59.4985 27.4667 59.2172C27.9231 59.126 28.3947 58.9967 28.7218 58.6698C29.1249 58.2668 29.2086 57.6585 29.2694 57.0882C29.9692 50.5265 29.878 43.8811 28.988 37.3421C28.6533 34.8406 28.2274 32.1641 29.3532 29.9059C30.0682 28.4765 31.3765 27.3055 31.6275 25.7316C31.7264 25.1233 31.6503 24.4998 31.4906 23.9068C30.7071 21.0707 27.9383 19.1318 25.0631 18.4855C19.7918 17.2918 14.3076 18.0065 12.1093 23.3289L12.1017 23.3061Z" fill="#82B88D"/>
<path d="M16.7949 6.68494C17.4034 6.55568 17.9434 6.21352 18.5291 6.01583C19.1148 5.81814 19.8374 5.80291 20.2862 6.2287C20.522 6.4492 20.6513 6.76858 20.9023 6.97387C21.3891 7.36165 22.1041 7.17154 22.7051 7.33121C23.8612 7.64295 24.2492 9.17124 23.9221 10.3194C23.6863 11.1481 23.2527 12.1822 23.9069 12.7373C24.0514 12.8665 24.2416 12.9426 24.3709 13.087C24.987 13.8018 23.5494 14.9955 24.1199 15.7406C24.2796 15.9459 24.5535 16.0372 24.7436 16.2196C25.3141 16.7899 24.8273 17.9912 25.5043 18.4475C25.6792 18.4779 25.8617 18.5007 26.0367 18.5311C26.0519 18.9797 26.3866 19.3522 26.7061 19.6716C27.4135 20.3863 28.4023 21.1543 29.3075 20.7285C30.7071 22.3936 33.0575 23.1996 35.1873 22.7434C36.0392 22.2036 36.8835 21.6713 37.7354 21.1315C37.7734 20.5992 38.1157 20.0898 38.6102 19.8693C38.4656 19.1698 38.6786 18.4018 39.1578 17.8696C39.0817 16.691 39.0057 15.5202 38.9296 14.3416C38.8992 13.855 38.8612 13.3455 38.6178 12.9197C38.42 12.5776 38.1158 12.3191 37.8115 12.0681C37.2182 11.5739 36.6249 11.0797 36.0316 10.5931C35.3926 10.0608 34.7385 9.52101 33.9778 9.18646C33.8181 9.11803 33.6355 9.04198 33.5519 8.88991C33.4454 8.71503 33.4986 8.48695 33.4378 8.28926C33.3769 8.12198 33.24 7.99274 33.1031 7.87869C32.5935 7.44529 32.0838 7.01188 31.5742 6.57848C30.9961 6.09186 30.4104 5.59001 30.0225 4.94372C29.4596 4.0085 29.3531 2.80715 28.6153 2.00119C28.0296 1.3625 27.1549 1.08116 26.3029 0.89868C23.8993 0.381645 21.412 0.404498 18.9627 0.609791C17.5859 0.731447 16.1787 0.921516 14.9693 1.59062C14.1098 2.06964 12.0408 4.08456 12.9384 5.2631C13.1057 5.4836 14.1554 5.84096 14.4825 6.06906C15.1899 6.54808 15.9201 6.86741 16.7949 6.67733V6.68494Z" fill="#441A19"/>
<path d="M3.62051 18.82C3.64333 19.2534 3.5977 19.6944 3.52924 20.1278C3.43036 20.7437 3.26299 21.352 3.21735 21.9678C3.18692 22.386 3.20977 22.8118 3.01201 23.1996C2.92834 23.3669 2.799 23.5342 2.60884 23.595C2.4415 23.6482 2.25894 23.6026 2.12202 23.5114C1.9851 23.4201 1.89384 23.2908 1.80256 23.154L1.60479 22.7966C1.2701 21.4736 0.943026 20.1506 0.608343 18.8276C0.539884 18.5615 0.48663 18.265 0.646365 18.0217C0.790888 17.8012 1.06473 17.7023 1.32335 17.6111C1.84059 17.4362 2.41867 17.2537 2.88266 17.4514C3.3999 17.6719 3.58247 18.265 3.6129 18.8048L3.62051 18.82Z" fill="#D1AC9D"/>
<path d="M10.7173 49.5379C11.0825 49.3022 11.4856 49.1197 11.8963 48.9601C12.482 48.7396 13.0905 48.5799 13.6458 48.3138C14.0185 48.1313 14.3836 47.9032 14.8172 47.8728C15.0073 47.8576 15.2127 47.8956 15.3573 48.0249C15.4866 48.1465 15.5398 48.329 15.5322 48.4887C15.517 48.6483 15.4561 48.8004 15.3801 48.9448L15.1671 49.2946C14.1859 50.2375 13.2046 51.1879 12.2234 52.1307C12.0256 52.3208 11.7974 52.5185 11.5084 52.4957C11.2498 52.4805 11.0216 52.2904 10.8162 52.1155C10.4054 51.7582 9.9643 51.3476 9.90345 50.8381C9.83499 50.2831 10.261 49.8269 10.7173 49.5303V49.5379Z" fill="#D1AC9D"/>
</svg>
