<svg width="30" height="114" viewBox="0 0 30 114" fill="none" xmlns="http://www.w3.org/2000/svg">
<path d="M27.5689 46.3835C27.4319 44.84 26.968 44.8172 26.7702 43.2813C26.5344 41.4793 26.5572 39.6469 26.4963 37.8297C26.3822 34.3473 26.078 31.6708 25.9563 28.1884C25.865 25.7477 25.7509 22.2654 22.8909 20.8359C21.4837 20.1364 19.8255 20.4938 18.3118 20.6763C16.1896 20.9348 14.075 21.2237 11.9604 21.5279C11.9148 21.4974 11.8691 21.4822 11.8083 21.4746C10.7434 21.3606 9.94471 21.8852 9.55678 22.7064C8.65161 24.6149 9.05476 27.2532 8.32454 28.8652C7.89858 29.8004 7.73883 30.7965 7.71601 31.7925C7.55627 39.1222 6.035 41.2436 6.28601 46.2238C6.42293 48.847 7.98225 50.2005 11.0629 50.5502C14.9345 50.9836 18.8747 50.5958 22.7312 50.2157C23.9254 50.094 26.1845 50.1396 27.0744 49.3717C27.8351 48.7178 27.6449 47.1819 27.5765 46.3759L27.5689 46.3835Z" fill="#B4C7BA"/>
<path d="M27.5689 37.6548C28.4208 38.3772 29.0902 38.5064 29.7139 37.5104C29.7367 37.4724 29.7443 37.442 29.7519 37.404C29.8128 37.3888 29.8736 37.3431 29.8736 37.2747C29.9345 33.1612 29.2043 29.0249 27.8579 25.0711C27.4167 23.7786 26.968 21.5508 25.1272 21.0869C23.9558 20.7904 23.4234 21.4367 22.8757 22.2807C21.9629 23.6721 22.7388 25.208 23.4234 26.531C24.4807 28.5763 25.3174 30.6521 25.789 32.8495C26.1236 34.4158 26.1389 36.4231 27.5765 37.6397L27.5689 37.6548Z" fill="#B4C7BA"/>
<path d="M10.2642 21.7788C9.35902 20.8968 7.25204 21.8852 6.58267 22.9877C5.96655 24.0066 5.71554 25.2764 5.35804 26.3713C5.00814 27.451 4.68105 28.5382 4.36919 29.6331C3.76828 31.7317 2.962 33.9139 2.66535 36.0581C2.53604 36.9781 2.30023 38.1946 3.22061 38.6128C3.23582 38.7041 3.77588 38.5368 3.88998 38.5824C5.571 39.2819 5.61666 36.7043 6.23278 35.7995C7.53348 33.8987 7.38895 32.2107 8.43864 30.2034C9.48073 28.2037 12.4549 23.9077 10.2718 21.7712L10.2642 21.7788Z" fill="#B4C7BA"/>
<path d="M22.8909 33.8607C22.8072 33.8379 22.7235 33.8455 22.6551 33.8683C22.6323 33.8455 22.5942 33.8303 22.5258 33.8455C19.9776 34.3397 17.4447 34.8796 14.8813 35.313C12.4396 35.7312 9.97513 36.0125 7.54106 36.4459C6.08062 36.7044 4.14097 37.1606 3.37272 38.0502C2.90873 38.59 3.09889 39.1147 3.97364 39.2896C5.40365 39.5861 7.56387 38.955 9.02431 38.6281C11.3975 38.1034 13.7251 37.4723 16.0527 36.8412C17.2773 36.5067 18.4943 36.1721 19.719 35.8376C20.5633 35.6095 21.5293 35.4194 22.3204 35.1229C23.2027 34.7883 23.8949 34.1572 22.8985 33.8607H22.8909Z" fill="#C2A091"/>
<path d="M7.46501 52.9986C7.46501 52.9986 5.76117 103.318 5.73074 111.059L7.73883 111.165C7.73883 111.165 13.3524 64.9436 16.144 62.6246C16.144 62.6246 17.3002 62.4497 17.7413 62.6246C18.1825 62.7995 20.2743 108.686 19.5288 111.56H21.613C21.613 111.56 28.0328 64.3506 27.6373 53.318C27.6373 53.318 27.8959 47.7751 19.0192 48.2769C10.1425 48.7787 8.35497 47.5013 7.46501 53.0062V52.9986Z" fill="#333333"/>
<path d="M8.0127 111.172C6.87934 111.036 5.72315 111.013 4.58218 111.104C3.66941 111.598 2.68056 111.994 1.65369 112.283C1.35704 112.366 1.03758 112.442 0.809388 112.625C0.581195 112.807 0.467104 113.127 0.649659 113.339C0.809395 113.53 1.12124 113.56 1.39508 113.583C3.50206 113.72 5.61666 113.682 7.71604 113.476C7.84535 113.461 7.97466 113.446 8.07354 113.377C8.1496 113.324 8.18765 113.241 8.22568 113.157C8.4919 112.511 8.40823 111.766 8.0127 111.165V111.172Z" fill="#333333"/>
<path d="M18.6161 111.051C18.6161 111.051 21.3924 110.891 21.8412 111.051C22.29 111.211 22.9822 112.997 22.3356 113.332C21.6891 113.667 15.2008 113.667 15.2008 113.667C15.2008 113.667 14.4553 112.975 16.2885 112.321C18.1217 111.667 18.4183 111.636 18.6161 111.051Z" fill="#333333"/>
<path d="M24.3589 35.9059C23.6743 35.0847 22.0161 34.9555 20.936 34.811C19.0116 34.5525 17.0644 34.5677 15.1247 34.5601C14.1054 34.5601 13.0786 34.5525 12.0593 34.5069C11.0933 34.4612 10.0588 34.2103 9.10039 34.2332C8.70485 34.2408 8.38538 34.256 8.1724 34.3472C7.95942 34.3092 7.73123 34.332 7.53346 34.4156C7.19117 34.5601 6.80325 34.9403 6.68916 35.3053C6.6283 35.3509 6.58266 35.4041 6.56745 35.4877C6.46857 36.0656 7.40415 36.0276 7.8149 35.8983C8.11155 35.8071 8.48427 35.579 8.67443 35.3053C12.7135 36.0428 16.7145 36.9172 20.7611 37.6243C21.826 37.8144 23.218 38.1642 24.1307 37.4418C24.6556 37.0236 24.7849 36.423 24.3589 35.9211V35.9059Z" fill="#C2A091"/>
<path d="M29.7975 35.7006C29.5617 35.1532 28.9989 35.138 28.3447 34.9935C27.2494 34.7578 25.6901 34.1191 24.7849 34.5753C24.8001 34.5373 24.8077 34.4993 24.8001 34.4537C24.5719 32.6821 22.3889 33.4196 21.864 34.6362C21.4761 35.5258 20.2819 38.6888 21.9857 38.9929C22.792 39.1374 23.6668 39.1298 24.1003 38.4987C24.1688 38.4074 24.2068 38.2934 24.2448 38.1717C25.4543 38.225 26.7321 38.4379 27.9187 38.3543C28.5729 38.3086 29.1586 38.111 29.5161 37.6319C29.8812 37.1529 30.0334 36.2405 29.8052 35.7006H29.7975Z" fill="#B4C7BA"/>
<path d="M8.6288 35.6019C8.393 35.3206 7.97464 35.2826 7.60192 35.3206C7.01623 35.389 6.3925 35.7996 6.46857 36.2482C5.28957 36.4991 3.61614 36.3471 2.89353 37.3431C2.42953 37.9894 2.52081 39.3656 3.34231 39.7838C3.81391 40.0271 4.45286 39.9283 4.9701 39.8751C5.55579 39.8143 6.43052 39.7534 6.97819 39.4949C7.20638 39.9663 7.69319 40.126 8.49948 39.8979C8.90262 39.7838 9.41988 39.7154 9.58722 39.3428C9.78499 38.9018 9.43508 38.2631 9.31337 37.8373C9.13082 37.2062 9.07758 36.1418 8.6288 35.6095V35.6019Z" fill="#B4C7BA"/>
<path d="M21.3924 13.3237C21.3696 13.9244 21.3468 14.5326 21.2175 15.1181C20.9056 16.5095 19.9776 17.7565 18.7226 18.4256C17.4675 19.0947 15.893 19.1708 14.5923 18.5853C13.3068 18.0151 12.356 16.8821 11.6029 15.696C10.0208 13.2096 9.10042 10.2595 9.32101 7.32457C9.35143 6.89117 9.41988 6.42741 9.69371 6.08525C10.0816 5.59103 10.7738 5.47696 11.3976 5.40092C13.4437 5.15001 19.1333 3.39361 20.822 4.73943C22.4878 6.07003 21.4837 11.4608 21.3924 13.3161V13.3237Z" fill="#C2A091"/>
<path d="M15.3377 7.17263C16.1896 7.1118 17.0491 7.14222 17.9011 7.08139C17.9847 7.08139 18.0836 7.06615 18.1369 6.99772C18.1901 6.93689 18.1977 6.84566 18.1977 6.76963C18.1825 5.84961 17.5664 5.06647 16.9274 4.41258C16.7677 4.2453 16.6004 4.08562 16.4026 3.97156C15.9082 3.67503 15.2616 3.68262 14.7292 3.91072C14.1967 4.13883 13.7631 4.54943 13.4209 5.02084C12.9416 5.67474 12.607 6.44268 12.5385 7.24865C12.5233 7.38551 12.5233 7.52996 12.5765 7.65922C12.7059 7.97856 12.8884 7.84172 13.109 7.72767C13.3296 7.60601 13.5806 7.52238 13.824 7.44635C14.3184 7.29428 14.828 7.22582 15.3453 7.18781L15.3377 7.17263Z" fill="#333333"/>
<path d="M11.2302 13.8636C11.5497 12.2744 12.2723 10.7994 12.9873 9.34712C13.2839 8.73884 13.5882 8.12298 13.9837 7.56033C14.1891 7.2714 14.4173 6.99005 14.5922 6.68591C14.7596 6.38938 14.8813 6.06243 14.9954 5.73548C15.3453 4.76984 15.6876 3.80421 16.0375 2.83857C16.1059 2.65609 16.1668 2.47361 16.144 2.27592C16.1211 2.07823 15.9842 1.89573 15.7941 1.87292C15.6724 1.86531 15.5583 1.91856 15.4518 1.98699C14.7596 2.38997 14.1587 2.945 13.573 3.48484C12.5613 4.42007 11.5421 5.35532 10.7282 6.45782C9.90668 7.56032 8.50709 8.41951 8.39299 9.78813C8.29411 10.9895 9.35901 12.6242 9.7013 13.7799C9.8154 14.1677 10.074 15.1105 10.5912 15.1562C11.1465 15.2094 11.1617 14.2437 11.2454 13.856L11.2302 13.8636Z" fill="#332F2C"/>
<path d="M22.5714 3.31C21.0729 2.16188 19.217 1.61442 17.3914 1.16582C16.395 0.92251 15.3833 0.694403 14.3488 0.6868C13.322 0.679196 10.9716 2.02502 10.1197 2.60288C9.15364 3.25678 8.52231 4.32884 8.14959 5.43134C7.29767 7.92528 8.91025 9.66649 10.2794 11.9247C10.3707 12.0768 10.4924 12.244 10.6673 12.2668C10.9412 12.3049 11.1313 12.0159 11.2454 11.765C12.2799 9.56003 13.5122 7.45386 14.9346 5.47696L16.4939 6.81518C16.7373 7.18014 16.935 7.57552 17.1556 7.95569C18.4411 10.1303 20.685 11.765 21.3772 14.1981C21.4305 14.3806 21.4837 14.5783 21.6434 14.6772C22.3584 13.3922 23.0735 12.1072 23.7809 10.8222C24.2449 9.98583 24.7164 9.12662 24.861 8.18379C25.1424 6.32094 24.0699 4.45812 22.5714 3.31Z" fill="#332F2C"/>
<path d="M15.4749 3.71301C15.4749 3.71301 15.459 3.7368 15.4749 3.7368C15.4907 3.7368 15.4907 3.71301 15.4749 3.71301Z" fill="#44403D"/>
<path d="M15.3985 3.6598C15.2616 4.51139 15.0106 5.35537 14.6303 6.13092C14.288 6.83804 13.8316 7.48431 13.4208 8.14581C12.5385 9.54484 11.7094 10.9819 10.9868 12.4646C10.9335 12.571 11.0933 12.6622 11.1465 12.5558C11.9528 11.0123 12.7971 9.49924 13.7327 8.02417C14.6151 6.64034 15.3225 5.32495 15.4746 3.6598C15.4746 3.62178 15.4137 3.61417 15.4061 3.65219L15.3985 3.6598Z" fill="#44403D"/>
<path d="M21.4685 10.7462C20.4188 9.60564 19.2931 8.52596 18.2053 7.42346C17.3458 6.54906 16.4787 5.45419 15.2845 5.0284C15.2312 5.00559 15.1856 5.09684 15.2464 5.12725C16.4635 5.70511 17.3458 6.80001 18.2738 7.74284C19.2931 8.78451 20.2895 9.8642 21.3468 10.8755C21.4305 10.9591 21.5522 10.8298 21.4761 10.7462H21.4685Z" fill="#44403D"/>
<path d="M22.3889 10.0087C21.4152 8.86813 20.2058 7.97094 19.0116 7.07373C18.3802 6.60232 17.7641 6.10807 17.1404 5.62906C16.5927 5.21087 16.007 4.8231 15.3377 4.64062C15.292 4.62541 15.2768 4.69386 15.3149 4.70907C16.6764 5.25652 17.7641 6.33619 18.9279 7.21059C20.1145 8.10779 21.2707 9.01261 22.2824 10.1151C22.3508 10.1835 22.4497 10.0847 22.3889 10.0087Z" fill="#44403D"/>
<path d="M22.83 9.2939C21.7271 8.1838 20.4568 7.21058 19.2017 6.27535C18.0836 5.44658 16.8209 4.36688 15.3833 4.22241C15.3605 4.22241 15.3529 4.25282 15.3833 4.26042C16.8209 4.6482 18.0151 5.57583 19.1941 6.45783C20.4264 7.37785 21.5598 8.4043 22.7312 9.39275C22.7996 9.45358 22.8985 9.35473 22.83 9.2939Z" fill="#44403D"/>
<path d="M24.0547 7.75044C22.6855 6.82282 21.1338 6.16891 19.6505 5.44658C18.9051 5.08161 18.1749 4.70146 17.4142 4.37451C16.7829 4.10079 16.1288 3.92588 15.4442 4.05513C15.4137 4.05513 15.4214 4.11597 15.4442 4.10836C16.2885 4.03233 17.0491 4.3441 17.7946 4.70907C18.5172 5.06643 19.2398 5.42377 19.97 5.78113C21.3164 6.44263 22.7235 7.04329 23.9558 7.91009C24.0547 7.97852 24.1536 7.81127 24.0547 7.74283V7.75044Z" fill="#44403D"/>
<path d="M15.2388 1.3103C15.2388 1.3103 15.1856 1.31033 15.1932 1.33314C15.9614 2.98308 14.8661 4.56458 14.0066 5.91799C13.2231 7.14215 12.5005 8.68563 11.1846 9.42317C11.0857 9.47639 11.177 9.62847 11.2758 9.57525C12.7135 8.76928 13.4969 7.05089 14.3336 5.71268C15.1323 4.44291 16.1592 2.78537 15.2388 1.3103Z" fill="#44403D"/>
<path d="M15.1551 1.76645C14.8204 4.71658 12.1506 6.47302 11.0553 9.08101C11.0096 9.17985 11.1846 9.25587 11.2302 9.15702C12.3712 6.63268 15.1475 4.71658 15.2464 1.76645C15.2464 1.70562 15.1627 1.70562 15.1551 1.76645Z" fill="#44403D"/>
<path d="M14.6835 3.46211C13.1546 4.41254 11.0628 5.21851 10.4467 7.08136C10.4087 7.19541 10.5836 7.24103 10.6217 7.12698C11.2454 5.20331 13.3524 4.73188 14.714 3.50773C14.7368 3.48492 14.714 3.4469 14.6759 3.46211H14.6835Z" fill="#44403D"/>
<path d="M15.0562 2.79305C13.6262 3.69786 11.8919 4.14646 10.6673 5.35541C10.5836 5.43905 10.713 5.56069 10.7966 5.48466C12.0441 4.31372 13.7175 3.82711 15.1095 2.87668C15.1551 2.84626 15.1095 2.76264 15.0638 2.79305H15.0562Z" fill="#44403D"/>
<path d="M15.0563 2.51929C14.3413 2.86144 13.6262 3.15038 12.8808 3.4241C12.4168 3.59138 11.9832 3.79665 11.6942 4.21484C11.6257 4.31369 11.7855 4.39732 11.8463 4.30608C12.2343 3.75863 12.8884 3.61415 13.4817 3.38604C14.0446 3.17315 14.5922 2.91466 15.1095 2.61052C15.1627 2.58011 15.1095 2.49644 15.0638 2.52685L15.0563 2.51929Z" fill="#44403D"/>
<path d="M24.0091 6.09286C22.7007 5.38574 21.3012 4.82311 19.8711 4.40492C18.464 3.99433 16.9503 3.64457 15.4822 3.63696C15.4442 3.63696 15.4366 3.6902 15.4746 3.6978C16.9122 3.95632 18.3422 4.14641 19.7494 4.557C21.1947 4.98279 22.579 5.56064 23.9178 6.25255C24.0319 6.31338 24.1232 6.14612 24.0167 6.0853L24.0091 6.09286Z" fill="#44403D"/>
<path d="M19.4908 14.4415C19.4756 14.3274 19.4071 14.2057 19.293 14.1677C19.1789 14.1221 19.0344 14.1906 19.0116 14.3046C19.042 14.1982 19.2094 14.1906 19.2702 14.2818C19.3311 14.373 19.2854 14.5023 19.2018 14.5783C19.1181 14.6468 19.004 14.6772 18.8975 14.6924C18.4639 14.7532 18.0152 14.6924 17.5968 14.5403C17.4523 14.4871 17.3154 14.4187 17.1708 14.3959C16.9655 14.3579 16.5699 14.3959 16.4406 14.5936C16.2961 14.8065 16.5167 14.9813 16.7373 14.9585C16.8362 14.9433 16.9274 14.9129 17.0263 14.8977C17.361 14.8521 17.6729 15.0497 17.9923 15.141C18.1521 15.1866 18.3194 15.2094 18.4792 15.2094C18.7226 15.2094 18.9736 15.179 19.1713 15.0421C19.3767 14.9129 19.5212 14.6696 19.4832 14.4339L19.4908 14.4415Z" fill="#333333"/>
<path d="M15.505 14.5022C15.0258 14.6315 14.828 15.2322 14.3716 15.4223C14.2652 15.4679 14.1587 15.4831 14.0446 15.4983C13.9761 15.5059 13.9001 15.5211 13.8316 15.4983C13.7631 15.4831 13.7023 15.4299 13.6871 15.3614C13.6719 15.255 13.7784 15.1714 13.8848 15.1257C13.7479 15.0497 13.5654 15.1866 13.5578 15.3463C13.5502 15.4983 13.6719 15.6428 13.8164 15.696C13.9609 15.7568 14.1206 15.7492 14.2804 15.7416C14.4401 15.734 14.5998 15.7112 14.7368 15.6352C14.8965 15.5364 14.9954 15.3691 15.1323 15.2474C15.2996 15.1029 15.505 15.0497 15.718 15.0649C15.8777 15.0725 16.1135 15.2094 16.22 15.0269C16.4406 14.6543 15.7408 14.4414 15.505 14.5022Z" fill="#333333"/>
<path d="M15.2007 18.0759C15.5278 18.1899 15.9234 18.2432 16.2048 18.0455C16.4939 17.8478 16.5015 17.3079 16.1668 17.2091C16.4178 17.0342 16.7068 16.8442 17.0187 16.8746C17.3306 16.905 17.5892 17.3004 17.3914 17.5361C18.0912 17.8326 18.9279 17.6577 19.5364 17.2015C20.145 16.7453 20.5329 16.0458 20.7383 15.3158C20.9056 14.7076 20.9817 14.0157 21.438 13.5823C21.7803 14.5783 21.7347 15.696 21.324 16.6617C20.9817 17.4524 20.4036 18.1367 20.1297 18.9579C20.0765 19.1252 20.0308 19.2925 19.932 19.4369C19.7342 19.7107 19.3691 19.8019 19.0344 19.8627C17.6348 20.1212 16.2124 20.2353 14.79 20.1973C14.5542 20.1973 14.3184 20.182 14.113 20.0604C13.6795 19.8095 13.6262 19.2164 13.4893 18.7298C13.0557 17.2471 11.4356 16.4031 10.827 14.9889C10.7282 14.7684 10.6597 14.5099 10.7358 14.2818C11.1009 13.088 12.394 15.696 12.6374 16.0154C13.3067 16.905 14.1435 17.7034 15.216 18.0607L15.2007 18.0759Z" fill="#333333"/>
</svg>
