<svg width="50" height="113" viewBox="0 0 50 113" fill="none" xmlns="http://www.w3.org/2000/svg">
<path d="M34.3336 37.421C31.5268 35.1628 30.6597 29.5895 30.4087 26.5633C30.287 25.1567 30.4467 23.4535 31.6866 22.7768C31.8995 22.6627 32.1429 22.5791 32.3863 22.5791C33.36 22.5791 33.862 23.712 34.1358 24.6472C35.041 27.8026 35.9386 30.9809 36.4862 34.2048C36.7829 34.1363 37.1024 34.1667 37.4066 34.2048C40.9056 34.6153 44.4806 34.4557 47.9035 35.2693C48.4664 35.4061 49.0597 35.581 49.4628 35.9992C49.8736 36.4097 50.0257 37.132 49.653 37.5806C48.976 38.379 46.9071 38.2878 45.9715 38.3106C43.6819 38.3715 41.3924 38.4323 39.0952 38.4855C38.0151 38.5159 36.9122 38.5388 35.8701 38.2346C35.3072 38.0673 34.7976 37.786 34.3412 37.421H34.3336Z" fill="#E6DCCF"/>
<path d="M3.35251 96.0589C3.66437 96.7052 4.2881 99.0242 5.14003 99.1307C5.50514 99.1763 5.85503 99.009 6.18211 98.8417C12.5639 95.6027 21.1668 91.9074 24.1409 84.9426C26.8108 78.6926 25.9209 71.5378 25.86 64.938C25.86 64.7175 25.8524 64.4741 25.7155 64.2992C25.5557 64.0863 25.2667 64.0332 25.0005 63.9876C23.1141 63.7062 21.2049 63.5466 19.2956 63.5085C18.3676 70.344 19.6912 77.035 18.7632 83.8705C18.5882 85.1479 17.0517 86.0831 15.4087 87.6875C14.7318 88.3566 12.4574 90.0825 11.674 90.6148C8.56293 92.7057 6.78302 93.2989 3.58832 95.2682C3.4514 95.3518 3.29927 95.4582 3.25363 95.6179C3.2156 95.7624 3.28405 95.9144 3.3449 96.0512L3.35251 96.0589Z" fill="#F0E5D4"/>
<path d="M33.0557 24.0161C30.4315 24.784 28.5071 24.8449 25.9209 23.9705C24.3311 33.9842 30.1272 49.1531 30.112 59.2733C30.0892 77.2174 24.7038 90.0444 27.1911 107.852C27.2824 108.513 27.503 108.947 28.256 108.84C29.4198 108.681 30.363 108.84 30.8955 107.89C31.3595 107.046 31.2226 105.206 31.3138 104.248C31.5724 101.685 31.7474 99.123 31.9147 96.553C32.2418 91.375 32.4852 86.1895 33.0861 81.0419C33.7783 75.1265 34.5238 68.922 35.0106 62.9837C36.0907 49.6701 36.973 36.8051 33.0633 24.0313L33.0557 24.0161Z" fill="#F0E5D4"/>
<path d="M26.0426 82.9885C29.3438 83.3307 31.6865 83.3611 35.0258 82.9885C35.0714 82.5019 35.1247 61.9954 35.1627 61.5088C36.3113 47.9898 37.2545 34.9195 33.0861 21.948C30.287 22.7312 29.0471 22.8376 26.286 21.948C24.5973 32.1138 18.1927 44.8572 18.1775 55.1371C18.1775 57.2432 10.495 80.0612 10.6395 82.1065C12.7085 82.9124 23.8367 82.768 26.0426 82.9961V82.9885Z" fill="#C0B8A5"/>
<path d="M25.5101 20.2219C24.8636 19.3247 24.4452 18.1386 24.3539 16.7168C24.1866 14.086 24.3235 11.3715 25.4036 8.96884C26.6435 6.20119 29.8078 3.44872 33.0862 4.15585C36.9274 4.98462 36.6764 9.93446 36.4178 13.2268C36.2124 15.8423 35.2692 18.4959 33.3372 20.2676C30.4467 22.9136 27.2064 22.5714 25.5101 20.2219Z" fill="#F0E5D4"/>
<path d="M34.4477 3.32704C35.1323 3.96573 35.6191 4.78688 36.0983 5.58525C36.646 6.49766 37.2012 7.43288 37.3686 8.48216C37.4675 9.09043 37.4294 9.71395 37.3534 10.3222C37.224 11.4019 36.9883 12.4664 36.646 13.5005C36.4634 13.5005 36.2809 13.5005 36.0983 13.5005C36.1896 12.3752 36.2809 11.2422 36.3721 10.1169C36.4026 9.77476 36.4254 9.43259 36.3493 9.09803C36.1592 8.26166 35.3225 7.67621 34.4705 7.60018C33.6186 7.52414 32.7743 7.8815 32.0897 8.39853C31.4051 8.91556 30.8575 9.58465 30.2946 10.2309C29.5111 11.1434 28.6896 12.0254 27.8377 12.877C27.5639 13.1583 27.1683 13.4548 26.8184 13.2799C26.6739 13.2039 26.575 13.067 26.4457 12.9606C26.0502 12.6413 25.396 12.7781 25.107 13.1963C24.8256 13.6221 24.9016 14.2304 25.2439 14.6105C25.5862 14.9907 26.1338 15.1504 26.6359 15.0744C26.537 16.5038 26.4381 17.9332 26.3392 19.3551C26.2099 21.2103 24.2475 20.8302 23.2967 19.6288C22.6577 18.8153 22.4219 17.766 22.2165 16.7471C21.5396 13.4472 20.9767 9.80518 22.6729 6.89306C24.2246 4.22425 27.2292 1.81396 30.4011 1.81396C31.8767 1.81396 33.3676 2.31578 34.4401 3.32704H34.4477Z" fill="#534741"/>
<path d="M27.1835 107.905C28.6364 107.791 30.1044 107.852 31.542 108.087C32.6526 108.916 33.862 109.593 35.1475 110.11C35.5202 110.262 35.9081 110.406 36.1896 110.695C36.4634 110.984 36.5775 111.479 36.3189 111.79C36.0983 112.056 35.6952 112.087 35.3453 112.094C32.6602 112.125 29.9675 111.897 27.3281 111.41C27.1683 111.38 27.001 111.349 26.8869 111.235C26.7956 111.144 26.75 111.015 26.7196 110.893C26.4533 109.889 26.6207 108.772 27.1835 107.897V107.905Z" fill="#534741"/>
<path d="M3.24604 95.5417C4.01429 96.7126 4.64564 97.9824 5.10963 99.3054C4.92708 100.621 4.91186 101.959 5.0716 103.282C5.11724 103.662 5.17808 104.065 5.05638 104.43C4.93468 104.795 4.56956 105.122 4.19685 105.046C3.86216 104.985 3.6568 104.658 3.48945 104.369C2.22678 102.119 1.16949 99.7463 0.355599 97.2904C0.309961 97.146 0.25671 96.9863 0.302349 96.8342C0.332774 96.7126 0.424051 96.6213 0.515328 96.5377C1.23794 95.8458 2.25721 95.4733 3.25366 95.5493L3.24604 95.5417Z" fill="#534741"/>
<path d="M17.318 6.1936C17.1734 7.33412 17.5462 8.67996 18.6035 9.12096C19.5086 9.49353 20.5279 9.07535 21.4102 8.65716C22.3382 8.22376 23.2814 7.77516 24.0421 7.09085C24.8027 6.40654 25.3732 5.43328 25.3428 4.40681C25.1678 4.48285 25.0842 4.19394 25.0994 4.00385C25.2135 2.42234 23.7682 0.909243 22.1861 0.954864C21.1212 0.985277 20.1552 1.60873 19.3869 2.35387C18.322 3.38794 17.5081 4.72614 17.318 6.1936Z" fill="#534741"/>
<path d="M29.4122 26.5937C28.9254 26.0082 28.3625 25.7421 27.7616 25.6889C27.7236 25.6737 27.6779 25.6737 27.6323 25.6889C26.6206 25.6509 25.5405 26.1984 24.6354 26.8142C24.5441 26.723 24.392 26.6774 24.2703 26.7914C22.8859 28.0764 22.1481 30.6311 21.5548 32.3875C20.7637 34.7142 20.3682 37.1245 20.0411 39.5576C19.676 42.2416 19.5086 44.9484 19.3337 47.6552C18.9457 49.6853 18.786 51.6623 18.8317 53.7076C18.8164 53.8597 18.7936 54.0117 18.7708 54.1638C18.7328 54.1714 18.6947 54.1791 18.6567 54.1943C18.6035 54.2171 18.5578 54.2398 18.5122 54.2551C18.5122 54.0422 18.1927 53.8977 18.0406 54.1258C17.0822 55.6008 16.6029 57.2432 16.4052 58.9768C15.9944 60.4822 15.8347 62.1246 15.5685 63.288C15.2718 64.6186 16.2911 65.5082 17.3332 65.5994C17.6602 65.7667 18.0177 65.8276 18.3752 65.8047C18.573 65.8352 18.7784 65.8579 18.9762 65.8731C19.6227 66.0632 20.3073 66.1544 21.0299 66.1924C23.3042 66.3217 25.5938 66.2989 27.8757 66.3522C28.3549 66.3598 28.7961 66.1697 29.1536 65.8731C29.2905 65.9036 29.4579 65.8199 29.4807 65.6298C29.4807 65.5918 29.4883 65.5538 29.4959 65.5082C29.7393 65.1736 29.8914 64.763 29.8914 64.3448C29.8686 62.1703 29.8686 59.9957 29.8914 57.8135C30.6977 56.9163 30.4239 55.3196 29.4198 54.5592C29.4046 54.4223 29.3894 54.2855 29.3666 54.1486C29.3514 54.0345 29.2221 53.9585 29.1156 53.9585C29.0927 53.9585 29.0775 53.9585 29.0547 53.9585C30.0207 47.4652 30.576 40.911 30.6521 34.3417C30.6749 31.9694 31.0628 28.5782 29.4198 26.5937H29.4122ZM29.7773 38.0825C29.5111 43.3973 28.9634 48.6893 28.1267 53.9433C27.2063 53.9281 26.286 53.9205 25.3656 53.9205C25.3047 53.9205 25.2515 53.9205 25.1906 53.9205C24.5669 53.9205 23.9356 53.9205 23.3118 53.9205C22.4219 53.9282 21.3798 53.8369 20.3834 53.8825C20.1552 53.8597 19.9346 53.8825 19.714 53.9433C19.714 53.9433 19.7064 53.9433 19.6988 53.9433C20.003 51.8371 20.1856 49.6854 20.4138 47.5792C20.5887 45.9597 20.8321 44.3477 21.0527 42.7282C21.3494 41.6029 21.6232 40.4928 21.8438 39.3903C22.3306 36.9039 22.4675 33.6725 23.4031 30.9733C24.2702 29.3005 25.4645 27.8255 26.8793 26.5785C27.1379 26.4492 27.4117 26.3276 27.7084 26.2211C27.7768 26.2287 27.8529 26.2439 27.9213 26.2592C29.5948 26.6849 29.8458 29.0876 29.9295 30.4791C30.0892 32.9882 29.9066 35.5581 29.7773 38.0673V38.0825Z" fill="#213833"/>
<path d="M22.3762 52.0727C22.285 51.7686 22.1557 51.472 21.9959 51.1983C21.859 50.9626 21.6993 50.6889 21.8058 50.4456C21.8438 50.3543 21.9275 50.2707 21.9351 50.1718C21.9427 50.0806 21.8894 49.9894 21.8286 49.9134C21.6917 49.7309 21.5395 49.5483 21.3798 49.3811C21.3494 49.0617 21.2657 48.7424 21.1668 48.4306C20.1704 45.3892 18.3372 42.69 16.9985 39.7855C16.8768 39.5346 16.7551 39.2685 16.5573 39.0708C18.8012 37.1091 24.8255 32.5243 26.8488 30.3193C27.4498 29.6654 28.0811 28.7377 27.6171 27.9774C27.503 27.7873 27.328 27.6428 27.1303 27.5288C26.0121 26.8977 24.6202 27.582 23.5857 28.3423C21.3646 29.9771 13.4615 35.6796 13.0431 38.9339C12.9747 39.4662 12.9975 39.9909 13.142 40.5079C13.4006 41.4583 13.9483 42.3023 14.4808 43.131C15.6217 44.8798 16.7551 46.6286 17.8961 48.3774C18.2764 48.9705 18.9762 50.1871 19.7292 50.6813C19.9726 51.4721 20.2921 52.24 20.8169 52.8711C20.9843 53.0688 21.1744 53.2588 21.4179 53.3576C21.6537 53.4565 21.9503 53.4641 22.1633 53.3197C22.536 53.0688 22.5132 52.5061 22.3839 52.0803L22.3762 52.0727Z" fill="#F0E5D4"/>
</svg>
