<svg width="43" height="111" viewBox="0 0 43 111" fill="none" xmlns="http://www.w3.org/2000/svg">
<path d="M4.58778 105.868C4.68667 105.618 4.78556 105.367 4.87683 105.116C4.81598 105.1 4.74752 105.078 4.68667 105.062C4.68667 102.675 4.68667 100.28 4.68667 97.8924C4.68667 94.7598 4.83885 91.7488 5.11268 88.6466C5.3713 85.7345 5.78205 82.7615 5.78205 79.819C5.93418 77.8877 6.08634 75.9565 6.19283 74.0176C6.43623 69.6456 5.21157 63.5628 5.40173 59.1833C5.493 57.0011 6.88498 56.522 7.10556 54.3551C7.21206 53.3058 7.33377 52.2489 7.4935 51.2148C7.55435 50.8347 7.53152 50.2872 7.8586 50.2568C7.93466 50.2492 8.08675 50.7358 8.29212 50.7358C13.0233 50.8879 17.9752 49.6865 22.5999 50.9943C22.6303 68.832 21.6262 88.601 20.0821 106.317C19.968 106.317 19.854 106.317 19.7475 106.317C20.6679 107.1 21.71 107.746 22.8281 108.21C23.102 108.324 23.3909 108.431 23.6039 108.644C24.0527 109.077 23.9767 109.921 23.467 110.278C22.9878 110.613 22.3413 110.499 21.7708 110.377C20.1507 110.02 18.5305 109.663 16.9103 109.313C16.6136 109.244 16.3017 109.168 16.0887 108.948C15.8377 108.682 15.8225 108.279 15.8149 107.914C15.8073 107.382 15.7998 106.857 15.7922 106.325C15.7389 106.325 15.6932 106.325 15.64 106.325C14.4306 96.6987 14.7804 87.5821 14.4914 77.941C13.9513 82.427 12.9245 85.0046 11.8444 90.6007C11.3423 93.1859 10.7567 95.7178 10.3383 98.3258C10.1253 99.6564 9.88949 100.987 9.63087 102.302C9.41028 103.435 8.9996 104.621 9.03763 105.8C8.95396 105.815 8.87785 105.815 8.79417 105.823C9.35705 106.918 10.0873 107.921 10.9696 108.781C11.1826 108.993 11.4108 109.199 11.5325 109.472C11.7835 110.043 11.4032 110.795 10.7947 110.932C10.2242 111.062 9.66893 110.719 9.18973 110.385C7.82056 109.45 6.45138 108.514 5.08222 107.579C4.83121 107.404 4.56502 107.222 4.45853 106.933C4.32922 106.591 4.45848 106.211 4.5954 105.868H4.58778Z" fill="#97A8B2"/>
<path d="M20.8277 21.455C21.923 21.341 23.0411 20.938 24.106 21.2193C26.2206 21.7668 26.8216 24.4432 27.0117 26.6178C28.3809 42.7447 28.7916 58.9552 28.2288 75.1278C28.1907 76.1618 28.0918 77.3252 27.3083 77.9943C26.7683 78.4581 26.0228 78.5721 25.323 78.6634C17.7014 79.6442 9.93524 79.4617 2.36682 78.1387C0.640158 62.3616 -1.07128 46.3335 1.71268 30.7084C2.15385 28.2525 2.71674 25.7586 4.00223 23.622C5.28772 21.4778 7.40992 19.7138 9.89723 19.4173C13.6092 18.9839 17.1158 21.8428 20.8353 21.455H20.8277Z" fill="#585973"/>
<path d="M36.0405 26.5645C35.4853 25.7129 34.8995 24.8689 34.4812 23.9413C34.291 23.5155 34.9223 23.1809 35.1353 23.6067C35.5917 24.5191 35.972 25.4544 36.4817 26.3364C36.6414 26.6177 36.2079 26.823 36.0405 26.5569V26.5645Z" fill="#666666"/>
<path d="M37.615 26.1691C37.8584 25.3632 38.2159 24.6332 38.756 23.9869C39.0602 23.6296 39.6839 24.0022 39.3873 24.3975C38.9157 25.0362 38.4746 25.6977 38.1247 26.4048C37.9801 26.7014 37.5237 26.4581 37.615 26.1691Z" fill="#666666"/>
<path d="M38.8931 27.3552C39.6233 26.5493 40.6273 25.903 41.5173 25.2871C41.9052 25.021 42.3996 25.538 42.0117 25.8422C41.137 26.5265 40.1938 27.3096 39.1821 27.781C38.9007 27.9103 38.6953 27.5681 38.8931 27.3552Z" fill="#666666"/>
<path d="M15.4726 31.1569C13.0005 27.1119 11.2587 22.6183 10.3535 17.965C14.3165 20.1396 19.0173 20.9455 23.4823 20.2232C20.8124 23.8652 18.1501 27.5149 15.4803 31.1569H15.4726Z" fill="#E6E6E6"/>
<path d="M25.962 26.5036C26.0076 24.9449 25.6881 23.3786 25.0339 21.9643C24.6308 21.09 23.6876 20.1471 22.8432 20.6261C19.968 24.1389 17.2297 27.7658 14.6436 31.4991C17.4579 29.986 20.4245 28.7694 23.4899 27.8722C22.9802 27.2639 22.3185 26.7925 21.5806 26.496C23.0411 26.496 24.5015 26.496 25.962 26.496V26.5036Z" fill="#ABBCC4"/>
<path d="M12.8256 21.5386C14.6664 24.4659 15.5107 28.0091 15.1912 31.4535C13.2896 29.545 10.9088 28.1156 8.33779 27.34C8.60402 25.6749 10.1177 24.2987 11.7988 24.1922C10.2699 24.0173 8.72571 23.9717 7.18921 24.0629C7.31852 22.7171 7.46302 21.3029 8.20845 20.17C8.95388 19.0371 10.5133 18.3147 11.7075 18.9458C11.7075 19.8963 12.316 20.725 12.8256 21.531V21.5386Z" fill="#ABBCC4"/>
<path d="M16.6517 30.716C16.2409 36.1829 16.6744 41.7182 17.9219 47.0558C22.6607 46.5996 27.3996 46.151 32.1384 45.6948C34.3138 45.4895 36.5272 45.269 38.5353 44.4174C38.8396 39.6501 38.6875 34.8523 38.079 30.1154C31.3929 30.4347 24.7068 30.754 18.0284 31.0658C17.534 31.0886 16.9711 31.081 16.6517 30.716Z" fill="#4D4D4D"/>
<path d="M24.3951 42.6914C24.4787 42.5013 24.5472 42.296 24.5928 42.0907C24.6613 42.2808 23.9691 43.6646 24.3951 42.6914Z" fill="#E0CDB3"/>
<path d="M13.8677 19.3413C13.282 18.5201 12.8941 17.4404 12.8104 16.1326C12.6583 13.7299 12.7876 11.2436 13.7688 9.04622C14.9022 6.51427 17.7926 3.99753 20.7896 4.64382C24.3038 5.40417 24.0756 9.92822 23.8322 12.9392C23.642 15.3343 22.7825 17.7598 21.0102 19.3793C18.3632 21.7972 15.4042 21.4855 13.8601 19.3337L13.8677 19.3413Z" fill="#EADDD0"/>
<path d="M13.6928 15.3266C13.1604 15.798 12.3237 15.8056 11.7836 15.3494C11.2435 14.8932 11.0609 14.0112 11.3652 13.3497C10.4676 12.5818 10.2851 11.0154 10.9697 10.0346C10.1025 9.72286 10.1253 8.40747 10.3155 7.44183C10.3916 7.08447 10.4601 6.7195 10.5361 6.36214C10.6198 5.94395 10.7035 5.52576 10.8176 5.11517C10.9621 4.57533 11.1751 4.03548 11.563 3.66291C11.8216 3.4196 12.415 3.50324 12.278 3.83779C11.9814 3.01662 12.5518 2.0814 13.3049 1.72404C14.0503 1.37428 14.9098 1.45031 15.7161 1.53395C15.9595 1.07774 16.5072 0.918069 16.994 0.956086C17.4808 0.994104 17.9524 1.17659 18.4392 1.22221C19.352 1.30585 20.2343 0.902862 21.1395 0.735586C22.0446 0.56831 23.14 0.74319 23.5812 1.60998C23.6953 1.83048 23.5888 2.24107 23.3834 2.12702C24.0604 2.11181 24.7982 2.43116 25.0644 3.10026C25.3307 3.76936 24.8667 4.71219 24.1973 4.65136C24.8819 4.55252 25.6653 4.85666 25.924 5.54097C26.1826 6.22528 25.5817 7.1681 24.92 6.96281C25.0949 6.82595 25.3611 7.05405 25.3535 7.28215C25.3535 7.51786 25.1709 7.70795 24.9884 7.83721C24.0528 8.51391 22.6304 8.20978 22.0066 7.19852C21.8165 7.76878 21.1395 8.01209 20.5918 7.88283C20.0366 7.75357 19.5802 7.35059 19.1466 6.96281C18.2947 7.52547 17.1537 7.51786 16.3018 6.96281C16.2105 7.52547 15.5488 7.88283 15.0772 7.62431C15.1076 8.21738 15.138 8.80285 15.1684 9.39592C14.9326 9.40352 14.7044 9.41112 14.4686 9.41872C15.0467 9.79129 15.3891 10.5516 15.3054 11.274C15.0848 11.4793 14.7577 11.274 14.4838 11.1599C13.7764 10.871 12.8865 11.4564 12.7952 12.2624C12.7039 13.0684 13.4494 13.8591 14.1948 13.7527C13.533 13.7755 13.1832 14.8628 13.6928 15.319V15.3266Z" fill="#333333"/>
<path d="M24.0984 40.5016C23.5736 39.8173 22.425 39.7564 21.459 39.8401C18.5762 40.0986 15.777 41.0186 13.4418 42.4785C13.9818 43.9307 14.5219 45.3906 15.062 46.8428C17.7394 45.976 20.28 44.7975 22.5847 43.3605C23.6877 42.6685 24.8439 41.4672 24.0984 40.494V40.5016Z" fill="#EADDD0"/>
</svg>
