<svg width="44" height="109" viewBox="0 0 44 109" fill="none" xmlns="http://www.w3.org/2000/svg">
<path d="M21.8388 52.99C21.7475 51.4998 21.4813 49.903 20.4164 48.8538C19.0928 47.5536 17.0086 47.546 15.1603 47.7056C13.2587 47.8653 11.0984 48.2759 10.1172 49.903C9.50109 50.9219 8.78606 55.2027 8.81649 56.3888C9.03708 64.707 9.84336 73.0099 11.2201 81.214C11.9808 85.7305 12.9088 90.2089 13.601 94.7406C13.9432 96.9684 14.2247 99.2114 14.3996 101.462C14.4377 101.918 14.8865 103.256 15.1527 104.093C15.6775 104.055 15.7764 104.032 16.3012 104.017C16.7272 103.424 16.7881 102.641 16.8261 101.903C17.4346 90.6575 18.5376 79.4424 20.1349 68.2958C20.7206 64.2203 22.0898 57.0883 21.8464 52.9824L21.8388 52.99Z" fill="#4A4E31"/>
<path d="M32.967 50.4429C31.9705 49.3404 30.4568 48.8766 29.004 48.58C27.7261 48.3139 26.433 48.139 25.1323 48.0402C23.2839 47.9109 21.1085 48.1086 20.0892 49.6597C19.4883 50.5721 19.4579 51.7279 19.4503 52.8228C19.4199 55.3167 19.3971 57.8259 19.8002 60.2894C20.0664 61.9165 20.5152 63.5132 20.7054 65.1555C20.9792 67.4898 20.7281 69.8469 20.7662 72.204C20.8042 74.0592 21.0248 75.8992 21.2226 77.7469C21.6562 81.6854 21.3671 85.8369 21.6257 89.7907C21.8539 93.2883 22.0137 96.7935 22.1125 100.299C22.1354 101.036 22.2799 103.302 22.9188 104.123C23.2915 104.1 23.6567 104.078 24.0294 104.062C24.4629 103.165 24.9954 100.983 24.9954 100.344C24.9573 93.6685 26.935 87.1675 28.6617 80.7426C30.7306 73.0403 31.8184 65.3152 33.6667 57.5597C34.2448 55.1418 34.6404 52.2905 32.9746 50.4429H32.967Z" fill="#4A4E31"/>
<path d="M31.9629 50.0246C31.286 48.7929 29.8255 48.253 28.4564 47.8956C23.2764 46.5574 17.7617 46.527 12.5665 47.8044C12.2166 47.888 11.8515 47.9945 11.6081 48.2606C11.3266 48.58 11.3038 49.0514 11.2886 49.4772C11.2658 50.5188 11.2582 51.6061 11.7298 52.5262C12.498 54.0088 14.2627 54.6171 15.8601 55.0961C18.0811 55.7576 20.3327 56.4267 22.645 56.4495L24.1207 57.2555C25.9919 57.4988 27.9695 57.2555 29.5821 56.2823C31.1947 55.309 32.3661 53.5222 32.3432 51.6442C32.3356 51.0815 32.2215 50.5113 31.9477 50.017L31.9629 50.0246Z" fill="#3A3A3A"/>
<path d="M8.77082 22.3709C6.07813 25.7013 3.53758 29.176 1.49905 32.9473C0.94378 33.9814 0.41134 35.0611 0.274423 36.2244C0.129901 37.3877 0.441769 38.6651 1.32412 39.4407C2.07716 40.1022 3.2029 40.2999 4.13849 39.9425C4.55685 39.7828 4.92197 39.5243 5.29469 39.2734C7.99498 37.3877 10.6952 35.5097 13.4031 33.624C14.6506 32.7572 15.9057 31.8752 16.9021 30.7271C17.891 29.579 18.606 28.1115 18.5451 26.5985C18.4843 25.0778 17.678 23.6863 16.7576 22.4698C14.0801 18.9038 11.4103 19.1242 8.77082 22.3937V22.3709Z" fill="#AA6A64"/>
<path d="M2.32816 53.8416C2.29013 58.1528 2.76173 59.1793 4.94478 61.9621C6.45086 63.8858 8.52742 64.3268 10.4823 64.6766C16.5066 65.741 22.5994 64.0987 28.6465 64.783C29.8103 64.9123 31.0045 65.0415 32.1378 64.5853C35.8802 63.0874 37.0897 62.6769 37.5689 56.8678C38.7555 42.4821 38.1393 46.702 34.7545 33.1451C33.4994 28.1192 30.8295 24.4087 27.901 21.375C24.539 17.8926 15.1603 18.5313 11.2582 20.3181C7.72115 21.9376 6.77033 28.1572 5.25665 33.1451C1.43061 45.7592 2.45747 40.0262 2.32816 53.8493V53.8416Z" fill="#AA6A64"/>
<path d="M39.4553 53.583C39.3792 53.6134 39.2956 53.6438 39.2499 53.7047C39.2043 53.7655 39.1967 53.8492 39.189 53.9252C39.1358 54.5183 39.2195 55.1265 39.4325 55.6816C39.4629 55.7576 39.4933 55.8336 39.5618 55.8792C39.6378 55.9325 39.7443 55.9325 39.8356 55.9249C40.9385 55.8717 42.0263 55.6816 43.0835 55.3622C43.1748 55.3318 43.2737 55.3014 43.3421 55.2406C43.4791 55.1265 43.5171 54.9364 43.5323 54.7616C43.5779 54.2749 43.5399 53.7807 43.4258 53.3093C43.3954 53.1953 43.3574 53.0736 43.2661 53.0052C43.1596 52.9291 43.0227 52.9367 42.901 52.9519C41.7296 53.0736 40.5734 53.1801 39.4705 53.583H39.4553Z" fill="#BFBFBF"/>
<path d="M15.8372 18.0445C16.7424 18.3031 17.6932 18.3563 18.6288 18.3639C21.253 18.4019 24.1587 18.0141 25.9082 16.0525C27.5055 14.2656 27.6957 11.6652 27.7641 9.27014C27.787 8.46418 27.8022 7.62779 27.4675 6.89026C26.8285 5.46081 25.1475 4.86017 23.6262 4.50281C20.964 3.87172 18.1039 3.51433 15.5254 4.42675C9.38695 6.60133 9.41738 16.2121 15.8372 18.0369V18.0445Z" fill="#F9E9DE"/>
<path d="M20.9868 37.2433C21.0096 37.327 21.0324 37.4182 21.1009 37.4714C21.1465 37.5094 21.2074 37.5246 21.2683 37.5322C21.93 37.6615 22.607 37.6919 23.2764 37.6235C23.4285 37.6083 23.5806 37.5855 23.7023 37.4866C23.8316 37.3802 23.8773 37.2053 23.9229 37.038C24.3336 35.312 24.5771 33.5404 24.6531 31.7612C23.1318 31.7004 21.177 31.5711 19.7241 32.0501C19.9447 33.7761 20.5761 35.5401 20.9944 37.2357L20.9868 37.2433Z" fill="white"/>
<path d="M19.4731 31.5179C19.6785 31.3582 19.9523 31.3354 20.2109 31.3126C20.4924 31.2897 20.7738 31.267 21.0552 31.2441C21.9148 31.1757 22.7819 31.0997 23.6415 31.0312C23.9305 31.0084 24.2348 30.9856 24.501 31.0845C24.7672 31.1833 25.0106 31.4418 24.9878 31.7308C24.9878 31.784 24.9726 31.8372 24.9269 31.8676C24.8889 31.898 24.8281 31.8904 24.7824 31.8904C23.6186 31.7916 22.4472 31.8068 21.2834 31.936C20.8499 31.9817 20.1197 32.2706 19.7089 32.2022C19.3514 32.1414 19.0015 31.8904 19.4655 31.5255L19.4731 31.5179Z" fill="#3A3A3A"/>
<path d="M16.4685 5.99309C19.2069 5.11869 22.2114 5.49126 24.9117 6.47211C25.7408 6.77624 26.5623 7.13361 27.4371 7.24006C28.3118 7.34651 29.2778 7.16403 29.8863 6.52534C29.3386 6.25922 28.9736 5.7346 28.5932 5.26318C26.8133 3.02017 24.2576 1.3702 21.4508 0.822749C18.644 0.275301 15.5938 0.868361 13.289 2.57153C10.9843 4.2671 9.49344 7.08038 9.53907 9.93928C9.53907 10.4335 9.86615 12.3191 10.7029 11.9694C11.1288 11.7945 11.5928 9.88606 11.8895 9.42225C12.9468 7.79511 14.6202 6.58616 16.461 6.0007L16.4685 5.99309Z" fill="#7C6C61"/>
<path d="M13.5477 105.94C13.2663 106.404 12.9772 106.898 12.9848 107.431C12.9848 107.537 13 107.651 13.0533 107.75C13.137 107.894 13.2891 107.978 13.4488 108.039C14.2855 108.381 15.2668 108.374 16.0959 108.009C16.2936 107.917 16.4914 107.811 16.6359 107.644C16.8413 107.4 16.9097 107.073 16.9478 106.762C17.0391 105.971 16.963 105.165 16.7348 104.404C16.6968 104.268 16.6435 104.123 16.5294 104.04C16.4458 103.971 16.3393 103.948 16.2404 103.918C15.9437 103.842 15.6471 103.766 15.3428 103.804C14.4605 103.91 13.9508 105.302 13.5553 105.948L13.5477 105.94Z" fill="#4A4E31"/>
<path d="M24.4934 104.169C24.7748 104.397 24.8661 104.777 24.9497 105.135C25.0258 105.461 25.0943 105.788 25.1704 106.123C25.254 106.488 25.3073 106.937 25.0335 107.187C24.8737 107.332 24.6455 107.37 24.4325 107.4C24.2043 107.431 23.9685 107.461 23.7403 107.499C23.4361 107.545 23.1014 107.583 22.8276 107.438C22.5918 107.317 22.4396 107.081 22.3179 106.845C21.9985 106.207 21.5725 104.83 22.1886 104.23C22.6298 103.796 24.037 103.812 24.501 104.184L24.4934 104.169Z" fill="#4A4E31"/>
<path d="M21.6257 34.7113C21.6714 33.989 21.0781 33.2819 20.3554 33.2058C19.6557 33.1298 18.9559 33.6544 18.8113 34.3387C18.644 34.3539 18.4843 34.392 18.3169 34.4376C14.8408 35.3652 11.2962 36.1331 7.6983 36.1179C6.8692 36.1179 6.0249 36.0723 5.21862 36.2928C4.41233 36.5133 3.65168 37.0532 3.40828 37.8515C3.26375 38.3305 3.3322 38.8476 3.49194 39.319C3.59082 39.6003 3.72775 39.874 3.93312 40.0869C4.35908 40.5279 4.96759 41.5164 5.58371 41.4859C6.29111 41.4479 6.97569 41.2426 7.65267 41.0298C9.44018 40.4747 12.0568 39.5319 13.7454 38.7259C15.7003 37.7983 17.0466 36.4296 19.0015 35.4944C19.1156 35.4412 19.2373 35.3728 19.3362 35.2968L19.4123 35.4184C20.1957 35.4184 20.9792 35.1751 21.6181 34.7189L21.6257 34.7113Z" fill="#F9E9DE"/>
<path d="M1.45343 39.7677C1.41539 40.0946 1.40778 40.4444 1.56752 40.7333C1.80332 41.1743 2.32055 41.3644 2.79976 41.4936C3.24854 41.6153 3.74298 41.6989 4.15373 41.4936C4.73943 41.1895 4.86874 40.4367 5.10454 39.8209C5.3023 39.2886 5.62936 38.7944 6.0325 38.399C6.42804 38.0112 6.91487 37.7071 7.26477 37.2813C7.61466 36.8479 7.81241 36.2168 7.53097 35.7378C6.77033 34.4452 4.54926 35.4717 3.69734 36.08C2.49552 36.9392 1.62837 38.3002 1.45343 39.7752V39.7677Z" fill="#AA6A64"/>
<path d="M42.186 53.583C42.0034 53.2181 41.6307 52.9215 41.2428 52.8303C41.471 49.9638 41.3721 47.0744 40.9461 44.2384C40.8777 43.7822 40.8016 43.326 40.6418 42.9002C40.543 42.6417 40.4061 42.3831 40.1855 42.2083C39.8432 41.9345 39.364 41.9117 38.9304 41.9649C38.3979 42.0334 37.8807 42.193 37.4091 42.4363L36.7626 43.4705C36.8919 44.3296 36.7626 44.6185 37.1429 46.0556C37.3255 46.7551 38.048 47.4927 38.3067 48.1618C38.5577 48.8157 38.9456 49.4087 39.2727 50.0246C39.5998 50.6557 39.8736 51.3096 40.0714 51.9939C40.155 52.2828 40.2311 52.5946 40.4213 52.8303C40.4517 52.8683 40.4897 52.9063 40.5353 52.9367C40.4441 53.0051 40.368 53.0888 40.3376 53.1952C40.3072 53.3017 40.3224 53.4081 40.3376 53.5146C40.4441 54.0924 40.7027 54.6399 41.0754 55.0885L40.7788 54.7387C40.8624 55.1341 41.0298 55.5067 41.2732 55.8261C41.4557 56.0694 41.7524 56.3127 42.0415 56.1986C42.3305 56.0922 42.3913 55.712 42.4142 55.4003C42.4446 54.7768 42.475 54.1152 42.1936 53.5602L42.186 53.583Z" fill="#F9E9DE"/>
<path d="M40.6723 41.4327C40.4898 41.3491 40.2768 41.3339 40.0714 41.3491C39.402 36.9315 38.2002 32.6052 36.3214 28.5525C35.3554 26.4768 34.1992 24.4391 32.5258 22.8804C31.4381 21.8615 28.7226 19.8314 27.1024 20.6373C25.3301 21.5117 25.9158 24.766 26.4254 26.1878C27.787 29.9744 30.8448 32.8485 33.1723 36.1255C34.5947 38.1253 35.7357 40.2923 36.6637 42.5581C36.5116 42.5429 36.3747 42.6569 36.3138 42.7938C36.2453 42.9307 36.2454 43.0903 36.2454 43.2424C36.2454 43.4933 36.2454 43.7823 36.4431 43.9495C36.6409 44.1244 36.9452 44.0864 37.1962 44.0179C37.9492 43.8278 38.6642 43.5161 39.3716 43.1967C39.6911 43.0523 40.0182 42.9078 40.3376 42.7633C40.6723 42.6113 41.0602 42.3908 41.0831 42.0258C41.0983 41.7749 40.9081 41.5392 40.6723 41.4327Z" fill="#AA6A64"/>
<path d="M17.503 15.4061C18.2713 14.9575 19.1993 14.8891 20.0892 14.8511C20.3022 14.8435 20.5304 14.8359 20.7206 14.9499C20.8575 15.0336 20.9488 15.1628 21.0401 15.2997C21.3063 15.7103 21.5497 16.1437 21.6714 16.6151C21.7246 16.8128 21.7551 17.0257 21.6942 17.2234C21.6333 17.4211 21.4584 17.5959 21.2454 17.5959C20.8803 17.5959 20.7282 17.1473 20.5608 16.828C20.2642 16.2501 19.61 15.8851 18.9635 15.9308C18.3169 15.9764 17.7236 16.4402 17.5107 17.0561C17.3129 17.6415 16.6587 18.0445 16.4153 17.2766C16.2023 16.5999 16.9858 15.7255 17.503 15.4213V15.4061Z" fill="#7C6C61"/>
</svg>
