<svg width="39" height="117" viewBox="0 0 39 117" fill="none" xmlns="http://www.w3.org/2000/svg">
<path d="M22.0816 100.21C22.0056 100.484 22.0208 100.773 22.036 101.062C22.2185 104.727 22.4087 108.384 22.5912 112.049C22.5988 112.262 22.6141 112.482 22.7434 112.649C22.9031 112.855 23.1922 112.908 23.4508 112.938C24.3864 113.045 25.3371 113.068 26.2803 112.999C25.8696 111.669 25.4589 110.323 25.3144 108.931C25.2307 108.133 25.2383 107.319 25.2231 106.513C25.1927 104.727 25.0785 102.94 24.8656 101.168C24.8047 100.636 24.7135 100.073 24.3636 99.678C23.7246 98.9708 22.3326 99.2978 22.074 100.218L22.0816 100.21Z" fill="#EDDBCC"/>
<path d="M15.2054 100.21C15.2815 100.484 15.2663 100.773 15.2511 101.062C15.0685 104.727 14.8783 108.384 14.6958 112.049C14.6882 112.262 14.673 112.482 14.5437 112.649C14.3839 112.855 14.0949 112.908 13.8363 112.938C12.9007 113.045 11.9499 113.068 11.0067 112.999C11.4174 111.669 11.8282 110.323 11.9727 108.931C12.0564 108.133 12.0487 107.319 12.064 106.513C12.0944 104.727 12.2085 102.94 12.4215 101.168C12.4823 100.636 12.5736 100.073 12.9235 99.678C13.5624 98.9708 14.9544 99.2978 15.213 100.218L15.2054 100.21Z" fill="#EDDBCC"/>
<path d="M33.5065 64.9835C31.8864 58.4597 29.8859 51.9512 29.7185 45.1917C29.612 40.8957 30.2434 36.5313 29.3991 32.3418C28.7373 29.0724 26.1815 24.1529 22.6369 24.0237C21.1461 23.9704 20.0812 24.9665 18.461 24.746C16.5442 24.4951 14.8175 23.7804 13.0148 24.9741C10.6644 26.5328 9.12026 29.4525 8.53456 32.3418C7.68264 36.5389 7.96409 40.9033 8.2151 45.1917C8.45851 49.4192 8.72474 53.738 7.9793 57.9275C7.2643 61.9497 5.37788 65.2952 4.56399 69.325C3.30132 75.5675 2.30489 81.8707 1.58227 88.1968C1.20956 91.4131 0.912904 94.6369 0.677104 97.8607C0.563008 99.4727 0.0761964 100.552 1.77244 101.206C3.01989 101.685 4.41186 101.701 5.72778 101.708C14.3459 101.746 23.0249 101.594 31.5289 100.043C33.2707 99.7236 36.397 99.5943 37.8727 98.5907C39.1049 97.7467 38.2758 94.6369 38.1541 93.1543C37.7814 88.7138 37.2489 84.281 36.5491 79.8786C35.7504 74.8755 34.7464 69.9029 33.5218 64.9759L33.5065 64.9835Z" fill="#4D4D4D"/>
<path d="M20.5451 22.2597C21.146 21.3777 21.5264 20.2219 21.5872 18.8381C21.6937 16.291 21.4959 13.6602 20.4006 11.3563C19.1379 8.70273 16.0193 6.10993 12.855 6.87028C9.15067 7.75988 9.50817 12.5501 9.83525 15.7283C10.0939 18.2527 11.0599 20.8074 12.9767 22.4802C15.8367 24.9817 18.963 24.5787 20.5527 22.2597H20.5451Z" fill="#EDDBCC"/>
<path d="M36.6784 29.0875C36.7317 29.3232 36.7469 29.5666 36.7012 29.7947C36.5567 30.593 36.0243 31.2621 35.6591 31.9921C35.005 33.2922 35.1571 34.7293 34.6551 36.0979C33.9705 37.9684 33.2099 39.816 32.4188 41.6408C31.4832 43.8002 28.7144 43.5189 29.0415 41.0098C29.2165 39.6792 30.2814 38.2421 30.8671 37.056C31.5973 35.5885 32.3275 34.121 33.0578 32.6536C33.4077 31.9388 33.7651 31.2241 33.9553 30.4562C34.0846 29.9391 34.1379 29.3993 34.3509 28.9203C34.5714 28.4336 35.0126 28.0002 35.5451 28.0002C36.1232 28.0002 36.5415 28.5097 36.6784 29.0951V29.0875Z" fill="#EDDBCC"/>
<path d="M11.0295 40.2266C11.2881 35.0943 11.5391 29.9696 11.7977 24.8372C12.14 24.7764 12.4747 24.708 12.817 24.6472C13.3951 28.7682 13.6461 32.9349 13.5472 37.094C16.0421 38.8428 19.4118 38.3866 22.4087 37.8239C23.1009 37.6947 23.892 37.4818 24.1658 36.8431C24.3027 36.5237 24.2799 36.1588 24.2495 35.809C23.9224 31.7412 23.5877 27.6657 23.2606 23.5979C23.7094 23.4078 24.2115 23.3394 24.6907 23.3926C25.1166 30.0608 26.0142 36.6986 27.3757 43.2376C27.8549 45.5338 28.395 47.8301 29.3838 49.9514C30.5096 52.3617 32.183 54.4983 33.1643 56.9694C34.754 60.9916 34.3509 65.5233 35.4842 69.69C36.0243 71.6669 36.899 73.5373 37.4315 75.5066C37.9183 77.3163 38.1236 79.1943 38.3214 81.0571C38.3518 81.3613 38.3823 81.6806 38.291 81.9772C38.0096 82.8668 36.8458 83.034 35.9102 83.0416C26.3489 83.1177 16.7875 83.2013 7.22623 83.2773C5.88749 83.2849 4.54116 83.3002 3.21764 83.1025C2.71561 83.0264 2.19078 82.9124 1.82567 82.5702C1.23236 82.0304 1.21714 81.118 1.28559 80.312C1.75719 75.058 4.26733 70.1842 5.0508 64.9682C5.2866 63.4095 5.37027 61.828 5.74299 60.2997C6.03203 59.1364 6.49603 58.0187 6.8155 56.8554C7.2871 55.137 7.34793 53.4034 7.56092 51.647C7.72065 50.3316 8.80838 49.6017 9.41689 48.4231C10.71 45.9292 10.8925 42.9867 11.0295 40.2342V40.2266Z" fill="#BC8057"/>
<path d="M5.31705 51.2669C5.48439 51.3809 5.68976 51.457 5.95599 51.5026C7.79675 51.8143 8.83122 49.252 9.46255 47.9822C10.5122 45.8684 11.5619 43.7547 12.6116 41.6485C13.0452 40.7741 13.4864 39.8921 13.6994 38.9417C14.498 39.1546 15.4184 38.6376 15.6542 37.8392C15.89 37.0484 15.4108 36.1132 14.635 35.8243C13.8591 35.5354 12.9007 35.9307 12.5356 36.6759C12.3682 37.018 12.3226 37.4058 12.2085 37.7632C11.8358 38.9949 10.8013 39.8921 9.91894 40.835C8.11621 42.7738 6.86116 45.1385 5.62892 47.4804C5.09647 48.4916 4.2065 50.5217 5.30944 51.2669H5.31705Z" fill="#EDDBCC"/>
<path d="M29.0568 60.1704C29.0263 59.0299 29.2241 58.011 27.9234 57.9806C22.7738 57.8438 17.6395 57.8286 12.4899 57.494C12.4367 57.494 12.3986 57.5016 12.3606 57.5168C12.3606 57.5168 12.353 57.5168 12.3454 57.5168C9.75158 58.4521 9.50818 63.0597 10.4742 65.2039C11.0827 66.5649 12.2541 67.1124 13.6385 67.4241C15.5401 67.8575 17.4949 68.1388 19.4422 68.2073C21.3058 68.2757 23.1846 68.1236 24.9873 67.637C26.3184 67.2721 27.8093 66.7474 28.4634 65.432C29.2165 63.9189 29.0948 61.7976 29.0491 60.1552L29.0568 60.1704Z" fill="#A36F4B"/>
<path d="M23.2835 11.9115C23.2835 11.6073 23.2759 11.3108 23.2683 11.0143C23.215 8.92333 21.2145 6.6195 19.3357 5.82113C17.9514 5.22807 16.4073 5.09119 14.9012 5.09119C12.7714 5.09879 10.4894 5.44855 8.93012 6.90081C7.55335 8.18579 6.97526 10.1779 7.10457 12.0636C7.23388 13.9492 8.00212 15.736 8.96814 17.3556C9.26479 17.8574 9.87331 18.4124 10.3449 18.0627C10.5046 17.9486 10.5807 17.7509 10.6416 17.5684C11.0447 16.2454 10.5731 14.702 9.49299 13.8276C10.421 12.6566 11.5163 11.5845 12.8626 10.9382C14.209 10.2843 15.8292 10.1019 17.1983 10.6949C19.2064 11.5693 20.1953 13.7972 20.8798 15.8729C21.108 16.5572 21.4427 17.6141 22.2642 17.5304C22.3479 16.8689 22.3555 16.1694 22.5609 15.5155C22.675 15.143 22.8423 14.7932 22.9716 14.4282C23.2455 13.6223 23.2987 12.7707 23.2987 11.9115H23.2835Z" fill="#4D4D4D"/>
<path d="M14.2926 3.29674C14.3459 4.55131 15.5477 5.44092 16.7191 5.88952C17.4189 6.15564 18.2252 6.33811 18.9098 6.01877C19.5791 5.70702 19.9595 4.97709 20.1496 4.26237C20.3778 3.40318 20.3854 2.46037 20.0279 1.6392C19.6704 0.825626 18.9021 0.164113 18.0198 0.0576649C17.1831 -0.0335764 16.3692 0.354205 15.6998 0.871239C14.9316 1.46431 14.2546 2.32349 14.2926 3.28913V3.29674Z" fill="#4D4D4D"/>
<path d="M12.1476 110.802C12.8474 110.749 15.2054 110.3 15.6846 110.954C16.1562 111.585 15.2587 112.756 14.9772 113.303C14.498 114.254 14.1481 115.143 13.1669 115.676C12.7637 115.896 10.6796 116.504 10.3981 116.086C9.93416 115.41 10.0711 114.49 10.3905 113.737C10.7024 112.984 11.174 112.285 11.349 111.486C11.387 111.327 11.4098 111.152 11.5163 111.03C11.6608 110.855 11.9194 110.825 12.14 110.809L12.1476 110.802Z" fill="#4D4D4D"/>
<path d="M25.8697 110.802C24.782 110.718 23.6943 110.703 22.6142 110.733C22.2719 110.749 22.9184 114.087 23.177 114.467C24.1963 115.942 25.9686 116.238 27.6115 116.079C28.0755 115.402 27.9386 114.482 27.6192 113.729C27.3073 112.976 26.8357 112.277 26.6607 111.479C26.6227 111.319 26.5999 111.144 26.4934 111.022C26.3489 110.848 26.0903 110.817 25.8697 110.802Z" fill="#4D4D4D"/>
</svg>
