<svg width="34" height="112" viewBox="0 0 34 112" fill="none" xmlns="http://www.w3.org/2000/svg">
<path d="M24.3142 46.8056C23.622 48.8661 23.5839 51.1699 24.2153 53.2609C24.2761 53.4586 24.3446 53.6639 24.3218 53.8692C24.2761 54.2721 23.911 54.5383 23.5687 54.7284C21.8497 55.656 19.8491 55.7472 17.9171 55.7548C14.8137 55.7548 11.7103 55.5799 8.62205 55.215C8.26454 54.7816 8.50799 54.1277 8.66773 53.5802C9.16215 51.9379 8.78938 50.1587 8.61443 48.4403C8.59161 48.2426 8.57645 48.0373 8.66773 47.8624C8.74379 47.7028 8.89592 47.6039 9.04805 47.5051C11.2311 46.1365 13.7564 45.3989 16.2969 45.3989C17.3314 45.3989 18.3583 45.513 19.3776 45.6803C21.0434 45.9464 22.694 46.3189 24.3142 46.8132V46.8056Z" fill="#EDD5BE"/>
<path d="M30.0723 19.4864C29.6844 20.1783 29.304 20.8702 28.9998 21.6077C28.878 21.9119 28.4521 21.7142 28.5358 21.4176C28.764 20.6573 28.9693 19.8893 29.2583 19.1518C29.4637 18.612 30.3461 19.0073 30.0723 19.494V19.4864Z" fill="#666767"/>
<path d="M32.7725 26.4587C32.4378 26.3827 32.1335 26.2078 31.8293 26.0557C31.5098 25.896 31.1066 25.7516 30.848 25.4931C30.7187 25.3638 30.7263 25.0673 30.9621 25.0673C31.312 25.0673 31.6543 25.2117 31.989 25.3106C32.3541 25.4246 32.7497 25.5235 33.0767 25.7288C33.419 25.9417 33.1604 26.5423 32.7725 26.4587Z" fill="#666767"/>
<path d="M33.0844 22.5658C32.7193 22.7939 32.3085 22.9384 31.9053 23.0828C31.5478 23.2121 31.1904 23.3718 30.8024 23.3566C30.6199 23.3566 30.5362 23.098 30.6427 22.9688C30.8633 22.7103 31.1675 22.5658 31.4566 22.4137C31.8521 22.2084 32.2476 21.9575 32.6736 21.8359C33.092 21.7142 33.5103 22.2845 33.0844 22.5582V22.5658Z" fill="#666767"/>
<path d="M18.6245 20.6421C18.1073 20.7638 17.5672 20.7942 17.0196 20.6953C14.0302 20.1783 13.0338 16.4982 12.9273 14.2324C12.8208 11.997 12.9273 9.69315 13.9389 7.65542C14.7224 6.07391 16.1601 5.13108 18.0845 5.06265C18.48 5.04744 18.8755 5.10066 19.2558 5.1843C23.8653 6.11953 23.7893 12.2935 23.2112 15.6314C22.8766 17.5779 20.9597 20.0871 18.6169 20.6421H18.6245Z" fill="#EDD5BE"/>
<path d="M18.6473 107.359C20.0317 107.245 21.4388 107.306 22.808 107.534C23.8653 108.325 25.0291 108.971 26.2461 109.466C26.6036 109.61 26.9763 109.747 27.2349 110.028C27.4935 110.31 27.6 110.781 27.3566 111.07C27.1437 111.328 26.7634 111.351 26.4287 111.359C23.8653 111.389 21.2943 111.169 18.7765 110.705C18.6244 110.675 18.4647 110.644 18.3582 110.538C18.2746 110.454 18.2289 110.332 18.1984 110.211C17.9398 109.253 18.1072 108.188 18.6473 107.352V107.359Z" fill="#363636"/>
<path d="M6.79645 106.485C8.0439 106.629 9.26857 106.926 10.44 107.367C11.2386 108.249 12.1438 109.025 13.1403 109.671C13.4293 109.861 13.7336 110.051 13.9162 110.34C14.0987 110.629 14.1139 111.062 13.84 111.283C13.6042 111.473 13.2695 111.427 12.9729 111.374C10.7062 110.948 8.47748 110.31 6.33246 109.466C6.20315 109.412 6.06627 109.359 5.99021 109.245C5.92936 109.154 5.91416 109.04 5.90655 108.926C5.8457 108.036 6.18032 107.124 6.79645 106.485Z" fill="#363636"/>
<path d="M12.8665 8.4081C13.6804 6.25633 15.9319 4.81927 18.229 4.6672C18.8223 4.62919 19.4157 4.66721 19.9861 4.83448C21.5531 5.29069 22.7016 6.69733 23.2797 8.22562C23.8578 9.75391 23.9414 11.4191 24.0251 13.0462C24.0327 13.2743 24.0479 13.51 23.9415 13.7077C23.835 13.9054 23.5764 14.0423 23.3786 13.9358C23.1276 12.4303 22.8614 10.8868 22.1463 9.53341C21.4313 8.18 20.1687 7.02428 18.6474 6.83419C17.2478 6.65931 15.8406 7.34362 14.8974 8.38529C13.9466 9.42697 13.5359 10.5371 13.4218 11.8677C13.3533 12.6964 12.9578 13.7533 12.5775 12.3011C12.2656 11.1225 12.4481 9.52581 12.874 8.4005L12.8665 8.4081Z" fill="#514943"/>
<path d="M15.2624 4.66723C15.7264 4.93335 16.2893 4.95617 16.8294 4.94856C17.8335 4.93336 18.8375 4.84211 19.8263 4.66723C20.3511 4.57599 20.8837 4.45434 21.3325 4.17301C21.7812 3.89168 22.1387 3.40506 22.1387 2.87282C22.1387 2.3786 21.8344 1.92239 21.4769 1.58024C20.5413 0.675425 19.1874 0.295253 17.8867 0.333271C17.1261 0.356081 16.3502 0.50815 15.6961 0.903529C15.0419 1.29891 14.5246 1.9452 14.3953 2.69794C14.2736 3.45068 14.6007 4.28706 15.2624 4.66723Z" fill="#514943"/>
<path d="M7.91469 82.4506C8.25698 74.8775 7.53434 67.1524 7.6028 59.5338C7.3746 56.8954 7.73973 54.2038 8.66772 51.7174C8.72857 51.5654 8.78937 51.4057 8.90347 51.284C9.26097 50.9191 9.8695 51.1092 10.3411 51.3069C14.8745 53.1773 20.2219 52.7363 24.3522 50.0979C25.1661 51.3373 25.4019 52.8656 25.6073 54.333C25.9344 56.7129 26.2918 59.0928 26.3755 61.4803C26.3755 61.4803 26.3755 61.4879 26.3755 61.4955C26.3907 62.0125 26.4059 62.5219 26.3983 63.039C26.3451 66.0195 25.767 68.9545 25.3183 71.8894C25.0216 73.8055 24.7706 75.7367 24.7402 77.6756C24.7173 79.2647 24.9455 80.717 24.588 82.2757C23.7132 86.1078 23.7132 90.2821 23.3405 94.1979C22.945 98.3874 22.5495 102.585 22.23 106.782C22.2148 106.949 22.2071 107.116 22.1919 107.283C21.9789 107.337 18.7539 108.082 18.7539 107.245C18.4953 99.0945 18.2366 90.9512 17.978 82.8003C17.8715 79.3712 17.7498 75.8964 16.8826 72.6269C16.5251 72.6649 16.1677 72.6954 15.8102 72.7334C13.8401 83.5151 11.87 94.2967 9.89996 105.078C9.72501 106.029 9.51958 107.055 8.88824 107.664C8.26451 108.272 7.09314 108.105 6.91058 107.154C7.48867 98.912 7.55711 90.6775 7.92982 82.4354L7.91469 82.4506Z" fill="#65627D"/>
<path d="M21.7202 20.5433C21.1726 20.8474 20.5869 21.1059 19.9708 21.3036C17.5215 22.0792 14.5245 21.7218 12.4936 20.3988C10.8506 20.8322 9.67924 21.9575 9.07833 23.2197C8.47742 24.4743 8.36336 25.8353 8.26448 27.1735C7.78527 33.4311 7.30605 39.6964 6.82685 45.954C6.80403 46.2657 6.78125 46.5927 6.9638 46.874C7.32891 47.4443 8.2949 47.5583 9.1164 47.5963C14.6691 47.8396 20.2523 47.7408 25.7898 47.3074C26.018 47.2922 26.2538 47.2694 26.4515 47.1782C26.8775 46.9729 26.9383 46.5166 26.9459 46.1289C27.0752 40.183 26.6797 34.2295 25.7669 28.3216C25.4322 26.1622 25.0138 23.9648 23.8196 21.9955C23.5762 21.5925 23.2796 21.1896 22.808 20.9386C22.3288 20.6877 22.1995 20.2924 21.7355 20.5509L21.7202 20.5433Z" fill="#94A6D4"/>
<path d="M15.9622 24.8239C19.872 24.6034 23.8121 24.3829 27.699 24.9608C27.9196 29.1427 27.8816 33.3474 27.6002 37.5217C21.728 36.9666 15.5591 36.9742 9.67169 36.9818C9.67169 33.2333 9.95313 28.9146 9.96074 25.1585C11.9612 25.0444 13.9694 24.9304 15.9699 24.8163L15.9622 24.8239Z" fill="#B1B1B0"/>
<path d="M26.5732 39.5899C26.9155 40.1601 27.273 40.6467 27.6153 40.8825C28.0489 41.179 28.703 41.103 29.0529 40.7C29.9809 39.6355 28.2999 36.3052 27.8816 35.2331C27.1133 33.2486 26.1929 31.3325 25.2725 29.4165C24.9455 28.7397 24.413 27.9414 23.6676 28.063C23.4774 28.0935 23.31 28.1847 23.1579 28.3064C22.2984 28.9907 22.4049 30.3137 22.6787 31.3705C23.1807 33.3246 24.0023 35.2027 25.0976 36.9059C25.4855 37.5065 26.0179 38.6546 26.5732 39.5823V39.5899Z" fill="#EDD5BE"/>
<path d="M0.756958 31.3554C0.764564 31.1045 0.863463 30.8688 0.962347 30.6407C2.06528 28.0631 3.73872 25.7288 5.83049 23.8584C6.65199 23.1285 7.77774 22.4289 8.77419 22.8851C8.94914 22.9612 9.10885 23.0752 9.22294 23.2273C9.67172 23.8356 9.20774 24.6719 8.75896 25.2726C7.22246 27.3027 5.67075 29.3481 3.92127 31.1957C4.10382 31.3478 4.23309 31.5607 4.35479 31.766C5.73156 34.1306 7.50392 36.2672 8.59164 38.7763C8.7742 39.1945 8.93393 39.6355 8.87308 40.0841C8.80462 40.5327 8.43187 40.9661 7.98309 40.9357C7.61798 40.9129 7.3289 40.6164 7.0931 40.3427C5.99777 39.0957 4.90248 37.8487 3.80715 36.6094C2.78028 35.446 1.72298 34.1991 1.33506 32.7088C1.06883 32.2754 0.756973 31.8572 0.772186 31.363L0.756958 31.3554Z" fill="#EDD5BE"/>
<path d="M24.1544 7.55652C24.3902 7.9367 24.626 8.33968 24.7172 8.78068C24.9454 9.88318 24.2457 10.9629 24.162 12.0882C24.1087 12.7649 24.2228 13.5785 23.6904 14.0042C23.9414 12.4607 23.9946 10.8412 23.4622 9.37375C22.6331 7.0623 20.3055 5.37433 17.8486 5.2983C17.4911 5.2907 17.1336 5.3059 16.7837 5.38954C15.8177 5.61764 15.0266 6.29435 14.3192 6.97866C13.6042 7.67057 12.8968 8.45373 12.6534 9.42697C12.334 10.7348 12.9196 12.0882 12.9196 13.4416C12.6534 13.51 12.3872 13.2971 12.2807 13.0462C12.1742 12.7953 12.1742 12.514 12.1438 12.2402C12.0373 11.4039 11.5429 10.5979 11.6722 9.76152C11.7863 9.00118 12.3948 8.3929 12.5393 7.64016C12.6306 7.14594 12.5165 6.63651 12.6077 6.14228C12.7827 5.16904 13.726 4.50754 14.6768 4.24902C15.6276 3.99051 16.6392 4.03613 17.6128 3.88406C18.5941 3.73199 19.6057 3.38983 20.5642 3.66356C21.4921 3.92968 22.1615 4.71283 22.732 5.48839C23.234 6.16509 23.7056 6.85701 24.1468 7.56413L24.1544 7.55652Z" fill="#8A2833"/>
</svg>
