<svg width="37" height="111" viewBox="0 0 37 111" fill="none" xmlns="http://www.w3.org/2000/svg">
<path d="M32.3952 106.396C33.4297 106.488 34.4946 106.221 35.3617 105.651C33.8632 102.268 32.3572 98.8765 30.8587 95.4929C30.3871 94.4208 29.9079 93.3411 29.6265 92.2082C29.2766 90.8092 29.2309 89.3569 29.1777 87.9199C28.9951 82.3389 28.805 76.758 28.6224 71.1771C28.6072 70.7057 28.5844 70.2266 28.3866 69.8009C27.8085 68.5843 26.1503 68.4702 24.8116 68.5387C24.5149 68.5539 24.1955 68.5767 23.9825 68.782C23.7391 69.0101 23.7162 69.3903 23.7086 69.7248C23.6326 74.1272 22.872 70.1506 22.7959 74.553C22.7655 76.1041 23.4196 86.0494 23.7315 87.5625C24.2943 90.2389 25.131 93.037 26.5687 95.3636C28.7897 98.9449 30.197 102.176 32.3952 106.404V106.396Z" fill="#999999"/>
<path d="M20.5292 72.1048C18.6732 71.8691 16.8096 71.6333 14.9537 71.4052C14.8624 71.1543 15.3263 71.4052 15.2959 71.679C14.3375 80.1036 14.2539 88.6271 15.0449 97.0669C15.3872 100.701 15.8892 104.359 15.5469 107.993C16.3152 108.069 17.0758 108.145 17.8441 108.214C19.2285 96.8692 20.6204 85.5248 22.0048 74.1729C22.0733 73.6026 22.1189 72.9335 21.7081 72.5306C21.4115 72.2264 20.9551 72.158 20.5368 72.1048H20.5292Z" fill="#999999"/>
<path d="M15.8892 109.757C15.547 109.993 15.9577 110.244 16.1631 110.289C16.5358 110.365 16.9313 110.38 17.3116 110.327C17.4105 110.312 17.517 110.297 17.6007 110.236C17.6692 110.19 17.7224 110.13 17.768 110.069C17.9049 109.901 18.2244 109.643 18.2929 109.43C18.3461 109.263 18.2624 109.08 18.194 108.913C18.0571 108.556 17.7909 108.183 17.8441 107.78C17.015 107.788 16.262 107.43 15.5546 107.582C15.4709 107.864 15.2351 108.077 15.3111 108.305C15.2579 108.153 13.2346 108.449 12.9912 108.472C12.6033 108.51 12.2229 108.533 11.835 108.533C11.5307 108.533 10.9755 108.335 10.7777 108.616C10.7092 108.715 10.6788 108.837 10.656 108.959C10.6408 109.05 10.6332 109.141 10.656 109.232C10.694 109.384 10.8233 109.514 10.9678 109.582C12.5348 110.342 14.2463 109.559 15.8969 109.749L15.8892 109.757Z" fill="#826F5F"/>
<path d="M34.0686 108.092C33.8328 108.472 34.3501 108.548 34.5706 108.495C34.9738 108.404 35.3693 108.252 35.7192 108.031C35.8105 107.97 35.9018 107.909 35.9626 107.818C36.0083 107.75 36.0311 107.658 36.0539 107.582C36.1148 107.354 36.3201 106.959 36.2973 106.731C36.2745 106.541 36.1147 106.396 35.9778 106.267C35.6812 105.978 35.1716 105.453 35.0499 105.035C34.236 105.408 33.0189 105.811 32.3876 106.267C32.6766 106.526 32.6919 106.731 32.8668 106.929C32.7527 106.799 30.8815 107.978 30.6533 108.107C30.2882 108.312 29.9231 108.502 29.5352 108.67C29.2385 108.799 28.5996 108.852 28.5311 109.21C28.5083 109.339 28.5311 109.476 28.5615 109.597C28.5844 109.696 28.6148 109.795 28.6756 109.871C28.7821 110.008 28.9571 110.076 29.132 110.076C31.0108 110.145 32.3571 108.624 34.0686 108.084V108.092Z" fill="#826F5F"/>
<path d="M19.7305 19.9146C21.5256 18.7513 23.3587 18.3939 25.0169 19.4508C26.234 20.2264 27.0783 21.4657 27.7857 22.7203C32.3268 30.7572 32.6918 40.4211 32.6918 49.6517C32.6918 58.8823 32.4865 68.4398 36.0996 76.9329C31.6117 79.1151 26.5383 79.328 21.6549 78.8718C17.5246 78.4916 12.4891 78.5296 8.51094 77.602C10.0018 77.9517 8.62505 66.9876 8.28276 66.136C6.6854 62.129 6.39634 58.5097 7.1722 54.2138C7.86438 50.3893 9.07382 46.6636 9.515 42.801C9.84207 39.9269 9.7432 37.0072 10.2833 34.1635C10.8994 30.9244 15.197 22.8572 19.7381 19.9222L19.7305 19.9146Z" fill="#D9924E"/>
<path d="M20.9247 10.9501C20.6889 10.3038 20.4151 9.66513 20.0576 9.07966C18.8025 7.03433 15.4253 4.5328 13.0444 6.34242C12.4892 6.76061 12.0936 7.35368 11.7361 7.94675C11.3634 8.55503 11.0135 9.17851 10.7549 9.84001C10.2757 11.0946 10.1235 12.562 10.443 13.8774C10.7397 15.1016 11.4851 16.2573 12.1773 17.2914C13.0977 18.66 14.2614 20.0362 15.8664 20.424C18.0038 20.941 20.2553 19.4127 21.1073 17.3902C21.9592 15.3677 21.6625 13.0182 20.9247 10.9501Z" fill="#F2E7D6"/>
<path d="M1.8553 46.4888C1.94658 46.7169 2.2204 46.983 2.08349 47.2339C1.99982 47.3936 1.8477 47.5076 1.71078 47.6141L1.04902 48.1311C0.638274 48.4505 0.197096 48.8382 0.18949 49.3553C0.174277 51.4006 4.92073 49.112 5.68137 48.7926C9.62912 47.1807 14.5049 48.0855 17.943 45.5536C18.9851 44.7856 19.8066 43.7591 20.5596 42.7023C24.051 37.8361 26.4698 32.2019 27.6031 26.3168C26.8805 25.5413 25.6787 25.2523 24.6899 25.6173C23.6934 25.9823 22.9632 26.9707 22.91 28.0276C20.6052 32.7189 18.1864 37.3494 15.6382 41.9039C15.3872 42.3525 15.1285 42.8087 14.7178 43.1129C14.3527 43.3866 13.8963 43.5158 13.4475 43.6375C10.4202 44.4739 6.99728 44.8692 4.28938 46.4508C4.16768 46.5192 4.03836 46.5952 3.90144 46.618C3.68846 46.6561 3.47548 46.58 3.27771 46.4964C2.99627 46.3899 2.70723 46.2759 2.42579 46.1694C2.27366 46.1086 2.0835 46.0554 1.95419 46.1542C1.82488 46.2455 1.82489 46.3595 1.87053 46.4736L1.8553 46.4888Z" fill="#F2E7D6"/>
<path d="M27.702 26.4612C27.3522 26.0582 26.8425 25.8301 26.3405 25.6552C25.7852 25.4651 25.2071 25.3131 24.6214 25.3511C23.4881 25.4195 22.4916 26.1722 21.8527 27.1075C21.2137 28.0427 20.8715 29.1452 20.5444 30.2249C20.1869 31.3958 19.8294 32.5592 19.4719 33.7301C21.267 34.7337 23.1686 35.5549 25.1311 36.1556C25.7776 34.8554 26.4242 33.5476 27.0707 32.2474C27.8238 30.7343 28.592 29.0464 28.1736 27.4116C28.0824 27.0695 27.9379 26.7273 27.7097 26.4536L27.702 26.4612Z" fill="#D9924E"/>
<path d="M14.5657 0.586588C12.3598 0.905933 10.6027 2.71556 9.72039 4.75328C8.83804 6.79861 8.67068 9.06443 8.51855 11.2846C10.2452 12.3263 12.2837 12.8586 14.2994 12.7825C14.3983 11.3379 16.0641 10.2354 17.4333 10.6992C18.0038 13.3832 18.483 16.0824 18.8862 18.7892C21.7386 18.1125 24.5149 17.1469 27.1772 15.9151C26.8425 13.2767 26.2872 10.6688 25.5266 8.12161C24.9713 6.25876 24.2563 4.35029 22.8339 3.02729C21.3583 1.65867 19.3273 1.09602 17.3496 0.738658C16.4369 0.571382 15.4937 0.442124 14.5733 0.578986L14.5657 0.586588Z" fill="#BE9F3E"/>
<path d="M18.871 73.0855C13.4476 74.264 7.91006 74.9331 2.36496 75.0852C1.88575 68.2117 1.64998 61.3153 1.68041 54.4266C6.87561 54.3202 12.0708 54.0388 17.2508 53.5826C17.7909 60.0836 18.3385 66.5921 18.8786 73.0931L18.871 73.0855Z" fill="#7C6C61"/>
<path d="M15.0754 48.5947C14.8776 46.0856 14.2767 43.5917 12.5044 41.7364C11.2493 40.4134 9.01301 39.904 7.37002 40.7784C5.1109 41.9721 4.08405 44.1011 3.63527 46.5418C3.52117 47.1425 4.43393 47.4086 4.56324 46.8003C5.05005 44.4889 5.92479 42.3371 8.32083 41.4551C11.546 40.2689 13.3867 44.2227 13.942 46.6026C14.444 48.7392 14.5049 50.967 14.3832 53.1492C14.2843 54.8676 13.4932 56.7836 14.0333 58.4792C14.1093 58.7073 14.4212 58.6085 14.3832 58.3804C14.1474 56.9053 14.8244 55.3542 14.9917 53.9019C15.1895 52.1303 15.2199 50.3815 15.083 48.6023L15.0754 48.5947Z" fill="#7C6C61"/>
<path d="M4.21332 49.6592C4.23614 49.0813 3.34619 49.0889 3.31577 49.6592C3.14843 52.7234 3.5744 55.8104 4.80665 58.6389C4.91314 58.8898 5.29346 58.7073 5.23261 58.4564C4.50239 55.5367 4.07641 52.6778 4.21332 49.6592Z" fill="#7C6C61"/>
</svg>
