<svg width="33" height="107" viewBox="0 0 33 107" fill="none" xmlns="http://www.w3.org/2000/svg">
<path d="M10.9761 48.1654C9.7667 44.7894 8.99085 41.3299 8.67899 37.741C8.67899 37.2012 8.69419 36.6689 8.71701 36.1367C8.75504 35.3003 8.79307 34.4944 8.30626 33.8253C7.39348 32.5859 5.93306 33.9545 5.42343 34.9962C4.71603 36.4332 4.77688 38.3265 4.9214 39.9917C4.3357 43.763 6.97514 47.7776 9.07452 50.5833C9.63739 51.336 10.6338 50.2791 10.071 49.534C9.96447 49.3895 9.85037 49.2298 9.73627 49.0778C9.80473 49.0474 9.85798 48.9941 9.90362 48.9333C9.95686 48.9637 10.0101 48.9941 10.071 49.0093C10.2383 49.2679 10.398 49.5264 10.5502 49.7925C10.5273 49.534 10.4969 49.2831 10.4665 49.0322C10.8392 48.9561 11.1511 48.6292 10.9761 48.1502V48.1654Z" fill="#AF9784"/>
<path d="M31.0115 36.4712C30.3726 35.5512 28.684 34.4639 27.8016 35.7945C27.33 36.5092 27.4365 37.2771 27.5506 38.0755C27.7103 39.2084 27.8092 40.3565 27.8777 41.5123C27.5582 45.4204 26.4857 49.359 26.7595 53.2292C26.8356 54.3089 27.5658 56.0957 28.9958 55.3886C30.7301 54.537 30.8518 52.1419 31.0572 50.4919C31.3995 47.7471 31.9243 45.1011 31.9547 42.3182C31.9775 40.4782 32.1069 38.0451 31.0115 36.4712Z" fill="#AF9784"/>
<path d="M27.9157 55.7536C27.7027 55.4875 25.2915 55.6395 24.8579 55.5939C23.9527 55.4951 23.2225 55.2594 22.3782 54.9933C20.7504 54.4838 18.5978 54.4002 16.932 54.7423C15.4411 55.0465 14.11 55.1986 12.5887 55.3506C12.0791 55.4038 11.5847 55.5407 11.0902 55.6852C10.4665 55.86 10.0862 55.9817 9.85038 56.149C9.41681 56.111 8.89958 56.4911 8.97564 57.0766C9.72868 62.5359 9.71346 68.056 10.0862 73.5457C10.3676 77.6819 11.1891 81.689 11.8661 85.7416C12.2769 91.1705 12.718 96.5917 13.2733 102.005C13.0375 102.249 12.8093 102.507 12.5963 102.781C13.8894 102.88 15.0988 103.344 16.1105 104.089C18.1186 101.777 17.1678 97.1392 17.2667 93.8393C17.4112 89.0643 17.5633 84.2969 17.7079 79.522C17.7383 78.5259 17.2895 68.0788 18.6358 68.1472C19.4269 68.1852 19.7616 82.6622 19.8148 84.2133C19.9518 88.2431 19.9898 92.273 19.9442 96.3028C19.9137 99.2453 19.1226 102.386 20.6668 104.454C21.4883 104.104 22.3782 103.899 23.3138 103.899C23.8843 103.899 24.432 103.982 24.9644 104.119C24.6069 103.617 24.2342 103.123 23.8082 102.697C23.5952 102.484 24.1049 99.6255 24.1429 99.2073C24.2646 97.8995 24.3787 96.5917 24.4852 95.2839C24.7362 92.273 24.9568 89.262 25.1546 86.251C25.7327 77.3246 27.041 68.4361 28.1895 59.5705C28.2276 59.2816 28.2656 59.0003 28.3036 58.7113C28.4329 57.6925 28.5318 56.5444 27.9005 55.7536H27.9157Z" fill="#999999"/>
<path d="M17.4568 17.896C18.2327 18.0633 19.0542 18.1545 19.8224 17.9644C20.5679 17.7744 21.1992 17.3258 21.7088 16.8087C23.367 15.136 23.9223 12.8017 24.044 10.5511C24.1429 8.68824 23.968 6.76456 23.1008 5.04618C21.359 1.60943 16.5212 -0.359865 13.3265 2.68151C11.8661 4.07295 11.6607 6.14869 11.5238 8.06476C11.2195 12.4519 11.9422 16.7175 17.4644 17.9036L17.4568 17.896Z" fill="#AF9784"/>
<path d="M16.6201 101.26C15.4639 101.237 14.5283 100.956 13.395 101.245C13.2961 101.268 13.2048 101.321 13.1287 101.397C12.1703 102.332 10.5045 103.511 9.41681 104.15C9.08973 104.34 8.73981 104.53 8.51923 104.857C8.29864 105.184 8.253 105.693 8.51923 105.982C8.75503 106.233 9.12775 106.218 9.45483 106.187C11.9574 105.936 14.4295 105.419 16.8331 104.659C16.9776 104.613 17.1297 104.56 17.221 104.431C17.2971 104.332 17.3199 104.195 17.3351 104.066C17.4492 103.161 17.5405 102.348 17.1602 101.602C17.0537 101.389 16.8331 101.26 16.6125 101.26H16.6201Z" fill="#666666"/>
<path d="M19.6475 101.709C20.9862 101.656 22.3402 101.777 23.6789 102.081C24.7362 102.948 25.8848 103.67 27.0866 104.241C27.4365 104.408 27.8016 104.568 28.0678 104.864C28.3341 105.168 28.4558 105.655 28.2276 105.951C28.0298 106.21 27.6647 106.218 27.3452 106.21C24.8655 106.119 22.3782 105.784 19.9137 105.191C19.7692 105.153 19.6095 105.115 19.503 104.993C19.4117 104.902 19.3736 104.773 19.3356 104.644C19.0466 103.64 19.1683 102.545 19.6475 101.701V101.709Z" fill="#666666"/>
<path d="M12.2084 9.98079C13.9655 9.54739 15.8975 9.28127 17.5861 8.62737C19.2976 7.96587 20.6591 6.64287 21.0927 5.03094C21.3589 4.98532 21.6023 4.9321 21.8153 4.84846C22.7813 4.46068 23.2377 3.46463 22.8878 2.47618C22.4314 1.19881 20.72 0.674166 19.5714 0.392839C17.0917 -0.223041 13.3722 -0.0481619 12.0943 2.59023C11.9421 2.9552 11.8281 3.33537 11.7444 3.72315C11.2804 4.30861 10.7099 4.74201 10.0329 5.00813C9.48527 5.3731 8.91477 5.72286 8.54205 6.29312C7.8879 7.29677 7.89551 8.57415 8.76264 9.44855C9.71345 10.4142 11.0218 10.2773 12.216 9.98839L12.2084 9.98079Z" fill="#463D27"/>
<path d="M20.8721 4.87893L23.6257 9.25851C23.7626 9.47141 24.0973 9.38777 24.1125 9.13686C24.2114 7.19798 24.3026 2.42301 22.7966 2.26334C20.9102 2.06565 20.4538 4.65082 20.8721 4.87893Z" fill="#463D27"/>
<path d="M31.5135 34.4183C31.0191 31.7343 30.2281 27.925 29.3001 25.0737C27.9537 20.9298 24.5993 19.6676 23.6104 19.3787C23.4431 19.3255 23.2606 19.3483 23.1008 19.4395C19.2748 21.5076 15.9051 19.8881 15.0836 19.4243C14.9543 19.3483 14.8022 19.3179 14.6576 19.3407C10.9533 19.9261 8.5953 23.7279 7.14247 27.5828C7.08162 27.636 7.02838 27.6969 6.98274 27.7729C5.59076 30.1984 4.76927 32.8292 4.20639 35.5588C3.76522 37.7106 3.81085 38.2124 5.97868 39.0944C6.95231 39.4898 8.93 40.1741 10.36 39.9536C9.79713 46.5154 9.04408 55.9437 8.85392 58.3616C8.8311 58.6961 9.05171 59.0003 9.37118 59.0687C17.4873 60.8403 26.0369 58.7645 28.2428 58.1563C28.5623 58.0726 28.76 57.7685 28.7296 57.4415L26.8812 38.9043C27.832 38.8663 28.7828 38.8207 29.7184 38.7219C30.5399 38.6382 31.6961 38.6306 31.9851 37.703C32.3046 36.6765 32.0232 35.5284 31.5059 34.4183H31.5135Z" fill="#463D27"/>
<path d="M23.9832 49.3667C23.4431 47.884 22.8726 46.4089 22.3174 44.9338C21.7621 43.4588 21.2068 41.9761 20.6515 40.501C20.469 40.022 20.2864 39.178 19.7768 38.8815C18.4609 38.1212 15.8823 39.5278 14.6424 40.06C14.5588 40.098 14.4979 40.1437 14.4447 40.1893C13.8818 40.4022 13.3646 40.6075 12.9766 40.7291C11.1054 41.3146 9.36356 42.1206 7.62169 42.9874C7.5228 43.033 7.45435 43.0938 7.3935 43.1622C5.12678 43.9682 2.97415 45.0251 1.25509 46.3101C0.996471 46.5078 0.813907 46.7891 0.912791 47.1236C0.966036 47.2833 1.01168 47.4506 1.06493 47.6103C1.06493 47.6407 1.06492 47.6711 1.08013 47.7091C1.69626 50.2411 2.63186 52.6589 3.79564 55.0008C4.41177 56.2402 4.98986 58.5744 6.70131 58.6124C7.91835 58.6353 9.35597 58.0878 10.6491 57.4339C14.5436 56.4911 18.6434 54.6815 22.0283 52.6209C23.04 52.332 23.9984 51.8834 24.3331 51.1078C24.5841 50.5224 24.2038 49.9217 24.006 49.3743L23.9832 49.3667Z" fill="#99BA9F"/>
<path d="M5.14198 42.0977C5.42342 41.0865 7.04361 39.6798 8.29868 40.4402C8.97565 40.8508 9.14298 41.4286 9.31033 42.1358C9.54613 43.1318 9.83517 44.1355 10.1622 45.1087C11.7596 48.2261 14.072 51.0698 15.1141 54.3849C15.4031 55.3125 15.3423 57.0765 13.7905 57.0537C11.9193 57.0309 10.999 55.092 10.2611 53.7994C9.02889 51.6553 7.65972 49.6708 6.6937 47.3745C6.05476 45.8614 4.66278 43.8313 5.14198 42.0977Z" fill="#AF9784"/>
<path d="M16.9095 13.5772L16.6278 13.7599C16.3614 13.935 16.6126 14.3689 16.8791 14.1862L17.1607 14.0035C17.4272 13.8284 17.1759 13.3945 16.9095 13.5772Z" fill="#463D27"/>
<path d="M17.8524 13.6C17.7459 13.8585 17.647 14.1171 17.5405 14.3756C17.4188 14.6721 17.898 14.8014 18.0197 14.5048C18.1262 14.2463 18.2251 13.9878 18.3316 13.7293C18.4533 13.4328 17.9741 13.3035 17.8524 13.6Z" fill="#463D27"/>
<path d="M19.4117 14.3832C19.29 14.1627 19.1683 13.9498 19.039 13.7293C18.8793 13.448 18.4533 13.6989 18.613 13.9803C18.7347 14.2008 18.8564 14.4137 18.9781 14.6342C19.1379 14.9155 19.5638 14.6646 19.4041 14.3832H19.4117Z" fill="#463D27"/>
<path d="M20.0968 13.798C20.0207 13.7371 19.9522 13.6762 19.876 13.6153C19.6324 13.4098 19.2822 13.76 19.5258 13.9655C19.602 14.0264 19.6705 14.0873 19.7466 14.1482C19.9902 14.3537 20.3404 14.0035 20.0968 13.798Z" fill="#463D27"/>
</svg>
