<svg width="30" height="109" viewBox="0 0 30 109" fill="none" xmlns="http://www.w3.org/2000/svg">
<path d="M28.7567 105.319C28.8328 105.213 28.9013 105.091 28.9318 104.954C28.2168 96.5373 28.1331 88.1278 27.6767 79.7032C27.2507 71.9705 28.1407 64.0782 28.0646 56.2998C28.3461 53.6006 27.8897 50.8558 26.7411 48.3162C26.6726 48.1565 26.589 47.9969 26.4521 47.8752C26.0109 47.5026 25.2578 47.7003 24.6721 47.898C19.0737 49.8065 12.4562 49.3579 7.35227 46.6663C6.34061 47.936 6.05154 49.4947 5.80814 50.9926C5.40499 53.4257 4.96382 55.8512 4.85733 58.2919C4.85733 58.2919 4.85733 58.2995 4.85733 58.3071C4.83451 58.8318 4.81928 59.3564 4.83449 59.8811C4.90295 62.9224 5.61796 65.9258 6.17323 68.9292C6.53834 70.8832 6.85777 72.8602 6.88819 74.837C6.91101 76.4566 6.63718 77.9469 7.07835 79.536C8.15847 83.4517 8.1661 87.7097 8.62249 91.7091C9.1093 95.9898 9.59616 100.271 9.9993 104.559C10.0145 104.726 10.0297 104.901 10.0449 105.068C10.1133 105.084 10.4633 105.152 10.9349 105.228C10.8816 105.228 10.8284 105.236 10.7752 105.243C9.83958 105.859 8.81271 106.376 7.73259 106.764C7.42073 106.878 7.08602 106.984 6.85783 107.205C6.62964 107.425 6.53074 107.79 6.75133 108.026C6.94149 108.231 7.27614 108.247 7.57279 108.254C9.83952 108.277 12.1139 108.102 14.3426 107.745C14.4795 107.722 14.6164 107.699 14.7153 107.616C14.7913 107.547 14.8294 107.448 14.8598 107.357C15.088 106.604 14.9435 105.768 14.4643 105.114C14.4034 105.114 14.3426 105.114 14.2817 105.106C14.2817 105.084 14.3045 105.068 14.3045 105.038C14.624 96.7121 14.9434 88.394 15.2629 80.0682C15.3998 76.563 15.088 64.732 16.1681 61.3941C16.6093 61.4322 17.0505 61.4702 17.4992 61.5006C19.9333 72.518 22.8161 91.8079 25.2502 102.818C25.4632 103.791 25.7218 104.833 26.4976 105.456C26.1478 105.509 25.8055 105.578 25.4632 105.661C24.7025 106.285 23.843 106.825 22.9227 107.251C22.6564 107.372 22.3749 107.501 22.1924 107.714C22.0098 107.927 21.9718 108.269 22.1924 108.459C22.3825 108.627 22.6868 108.619 22.953 108.604C24.9839 108.452 26.9844 108.125 28.9393 107.638C29.0534 107.608 29.1827 107.578 29.2588 107.494C29.3196 107.425 29.3425 107.342 29.3577 107.251C29.4718 106.574 29.2512 105.859 28.772 105.312L28.7567 105.319Z" fill="#4D4D4D"/>
<path d="M29.1371 39.9981C29.0915 37.5802 29.0002 35.1547 28.8557 32.7368C28.6655 29.5813 28.5515 26.3347 27.9734 23.2096C27.6083 21.2403 26.8552 19.1494 25.0221 17.9937C24.5657 17.0509 23.9039 16.2601 22.8922 15.8115C22.5804 15.3553 21.9871 15.2945 21.5079 15.5074C21.1352 15.3173 20.6407 15.2868 20.23 15.6062C19.9105 15.8495 19.629 16.1232 19.3628 16.397C18.1534 16.2905 16.9363 16.0852 15.7269 16.2829C14.4947 16.4882 12.7605 16.1993 11.2316 16.2449C11.0262 15.5986 10.1134 15.1576 9.53535 15.8267C9.10939 16.3133 8.72904 16.8227 8.37154 17.3474C8.05207 17.7123 7.78579 18.1457 7.55759 18.6248C6.09716 21.1263 5.23004 23.8864 4.72802 26.7148C3.00135 32.9877 2.87971 39.6711 3.16875 46.1873C3.16875 46.2329 3.16875 46.2709 3.16875 46.3165L3.36643 51.6617C3.42728 53.3117 3.36643 55.0073 3.74676 56.6268C4.32485 59.0903 7.1621 61.4474 9.88521 59.8507C10.2731 59.6226 10.3948 59.212 10.3187 58.8242C10.5774 58.8394 10.836 58.847 11.1022 58.8546C11.1935 58.8546 11.2924 58.8546 11.3837 58.8622C11.4065 58.8622 11.4369 58.8622 11.4597 58.8622C12.5246 58.8926 13.5896 58.885 14.5556 58.8622C14.6545 58.8622 14.7457 58.8622 14.837 58.8622C15.1032 59.2652 15.6965 59.5009 16.1985 59.364C16.4723 59.288 16.7539 59.2196 17.0277 59.1435C17.1266 59.174 17.233 59.1968 17.3547 59.1968C17.5829 59.212 17.8111 59.2196 18.0393 59.2272C18.4272 59.4629 18.9369 59.5085 19.3096 59.2272C21.1884 59.174 23.0519 58.885 24.8547 58.3832L26.3759 58.2159C26.5433 58.2007 26.7183 58.1475 26.8704 58.0715C27.4104 58.1323 28.0114 57.8814 28.1635 57.2959C29.7076 51.5553 29.8369 45.7691 29.1523 40.0133L29.1371 39.9981Z" fill="#998675"/>
<path d="M20.5571 5.32623C20.5571 2.71824 18.0621 0.604492 14.9815 0.604492C11.9009 0.604492 9.40601 2.71824 9.40601 5.32623C9.40601 5.75962 9.48209 6.17781 9.61139 6.58079C9.61139 6.67964 9.61139 6.78609 9.61139 6.90015C9.59618 7.84297 9.64177 8.78579 9.84715 9.71341C10.2427 11.523 11.2696 13.2034 13.2092 14.2299C13.8558 14.572 14.6012 14.8305 15.3694 14.8305C16.4115 14.8305 17.3624 14.3363 18.085 13.7356C20.4734 11.7359 20.6787 8.74018 20.5114 5.9041C20.5418 5.71401 20.5571 5.52392 20.5571 5.32623Z" fill="#EDD5BE"/>
<path d="M21.949 6.01059C21.8882 5.25025 21.7665 4.51271 21.5687 3.77518C21.5687 3.77518 21.5687 3.76758 21.5687 3.75998C21.447 3.00724 21.3253 2.2621 21.2036 1.50936C21.1732 1.30407 21.0515 1.12158 20.8309 1.07596C19.9942 0.916288 19.165 0.79464 18.3207 0.703399C17.7578 0.406865 17.0352 0.262399 16.4115 0.323227C15.9627 0.262399 15.4911 0.27759 15.1032 0.330814C14.8674 0.361228 14.6088 0.414469 14.3654 0.490503C13.9318 0.4829 13.4983 0.498089 13.0571 0.54371C12.1215 -0.330687 9.96126 -0.0797682 9.32232 0.999921C9.19301 1.22042 9.12452 1.42572 9.1017 1.62341C8.25738 1.83631 7.42825 2.34573 7.16963 3.21253C7.04032 3.64592 7.09357 4.10974 7.36741 4.4747C7.51953 4.68 7.74014 4.79404 7.96073 4.89288C8.0444 5.00694 8.15092 5.11339 8.27262 5.20463C8.37151 5.3719 8.516 5.51637 8.72138 5.63042C8.80505 5.67604 8.88877 5.69125 8.96483 5.68365C9.02569 5.72167 9.07891 5.75208 9.13215 5.7825C9.50487 6.0106 9.86997 5.5772 9.7863 5.22744C9.83194 5.12099 9.84719 5.00694 9.82437 4.89288C9.9841 4.7028 10.1286 4.48991 10.2807 4.33024C10.4557 4.2466 10.6306 4.15536 10.8132 4.07172C10.8284 4.06412 10.8512 4.05652 10.8664 4.04891C10.8969 4.04131 10.9197 4.0337 10.9425 4.01849C11.2239 3.91965 11.4825 3.90445 11.7487 3.93486C11.7715 3.94247 11.802 3.95007 11.8248 3.95767C12.0378 4.0185 12.2432 4.07173 12.4638 4.12495C12.5931 4.17817 12.73 4.2314 12.8593 4.29223C12.9963 4.35306 13.1331 4.33783 13.2548 4.27701C14.5099 4.46709 15.8182 4.47471 17.0885 4.40627C17.6666 4.92331 18.7239 4.78644 19.302 4.29982C19.302 4.29982 19.302 4.29983 19.3096 4.29223C19.3248 4.51273 19.2791 4.74083 19.1498 4.95372C19.0737 5.07538 19.0737 5.30347 19.1726 5.41752C19.4313 5.72926 19.5529 6.07902 19.5301 6.482C19.5149 6.80895 19.88 6.95343 20.1387 6.9002C20.2223 6.885 20.2148 7.1511 20.1844 7.43243C20.1539 7.364 20.0778 7.31078 19.9713 7.34119C19.3933 7.51607 18.8075 7.69855 18.2218 7.85822C18.161 7.66814 18.0392 7.50848 17.8187 7.41723C17.4992 7.29558 17.0885 7.34119 16.7538 7.34119C16.0693 7.34119 15.3846 7.3488 14.7 7.34119C14.6088 7.34119 14.5555 7.38683 14.5327 7.44765C14.4338 7.44765 14.3349 7.44765 14.2437 7.44765C14.1372 7.44765 14.0459 7.52367 14.0459 7.62252C14.0459 7.85823 14.0459 8.08634 14.0459 8.32205C13.9166 8.31444 13.7949 8.30684 13.6732 8.29924C13.407 8.29924 13.1332 8.29163 12.8669 8.29924C12.8669 8.16237 12.8517 8.03312 12.8365 7.91906C12.8365 7.81262 12.8593 7.70616 12.8593 7.59971C12.8593 7.50086 12.768 7.42484 12.6616 7.42484H12.6159C12.6159 7.42484 12.5931 7.42484 12.5779 7.42484C11.9618 7.39443 11.3532 7.36401 10.7371 7.326C10.3111 7.30319 9.73307 7.16632 9.32993 7.30319C8.75184 7.50088 8.83547 8.18518 8.90392 8.74784C8.85068 8.99115 8.83552 9.21925 8.95722 9.36371C9.0561 9.47777 9.19302 9.49298 9.33754 9.51579C9.79393 9.59183 10.3263 9.52338 10.7903 9.52338C11.2391 9.52338 12.2279 9.72108 12.6006 9.40933C12.7756 9.26487 12.8365 8.99114 12.8517 8.69461C12.8593 8.69461 12.8669 8.69461 12.8821 8.69461C12.8897 8.75544 12.9278 8.80106 13.0114 8.81627C13.3613 8.87709 13.7112 8.8999 14.0687 8.88469C14.1524 9.15842 14.3501 9.40173 14.7077 9.52338C15.1869 9.69066 15.841 9.56141 16.3507 9.58422C16.6397 9.59943 16.9135 9.58421 17.1569 9.50057C17.3623 9.47776 17.5677 9.44735 17.7807 9.40933C17.8339 9.40173 17.872 9.36372 17.8948 9.3181C17.9557 9.30289 18.0088 9.27248 18.0317 9.20405C18.1229 8.93793 18.2447 8.53493 18.2447 8.16997C18.8456 7.98749 19.4465 7.82021 20.055 7.65294C20.093 7.64534 20.1235 7.62252 20.1463 7.59971C20.1235 7.7898 20.0931 7.94948 20.0778 7.98749C19.9638 8.42089 19.7659 8.78586 19.5301 9.15843C19.4312 9.3105 19.4769 9.60702 19.629 9.71347C19.7355 9.7895 19.842 9.85034 19.9409 9.88835C19.7964 10.5575 19.4541 11.1886 19.1042 11.7968C18.7087 12.4735 17.7198 13.0666 17.1113 13.5912C16.5028 14.1235 15.6737 14.5036 14.8218 14.4428C14.7077 14.4428 14.5935 14.42 14.5023 14.3744C14.2969 14.2679 14.2132 14.0475 14.1524 13.8422C14.0915 13.6369 14.0155 13.4088 13.8178 13.2947C13.62 13.1807 13.2624 13.2871 13.2929 13.5C13.3081 13.6369 13.4678 13.7357 13.4678 13.8726C13.4678 14.0322 13.2472 14.1235 13.0722 14.0854C12.9049 14.0398 12.7833 13.9106 12.6692 13.7889C12.4029 13.4924 12.1367 13.1958 11.8705 12.8993C11.7564 12.7701 11.627 12.6712 11.4673 12.7396C11.6803 13.2035 12.1215 13.6521 12.4333 14.0779C12.6919 14.4276 12.9581 14.785 13.3461 15.0207C13.8101 15.302 14.3958 15.3781 14.9511 15.3857C15.6357 15.4009 16.3506 15.3096 16.8983 14.9523C17.2938 14.6937 18.2522 13.9182 18.5033 13.5456C19.3324 12.291 19.8572 11.4243 20.2984 10.0176C20.2984 10.0024 20.306 9.98721 20.3136 9.972C21.0362 9.98721 21.4698 9.09 21.6523 8.32966C21.8045 7.69857 21.8653 7.02185 21.7436 6.41357C21.8653 6.33754 21.9414 6.20069 21.9262 6.003L21.949 6.01059ZM12.3497 8.82388C12.3497 8.82388 12.3192 8.88469 12.304 8.9075C11.7183 8.96833 11.1098 9.04438 10.5317 9.02157C10.2427 9.00637 10.0145 8.95314 9.85473 8.83149C9.85473 8.83149 9.85473 8.83148 9.85473 8.82388C9.85473 8.48172 9.85474 8.13956 9.86234 7.79741C10.2503 7.79741 10.6306 7.79741 11.0185 7.79741C11.4749 7.81261 11.9237 7.82021 12.3801 7.84303C12.3953 8.0103 12.4181 8.20799 12.4181 8.39047C12.4029 8.53494 12.3725 8.68702 12.3497 8.83149V8.82388ZM17.5221 8.47412C17.446 8.80107 17.3395 9.02916 17.0429 9.16602C16.5256 9.22685 16.0084 9.24206 15.4911 9.19644C15.0576 9.15842 14.913 9.15843 14.875 8.75545C14.875 8.68702 14.8674 8.61857 14.8598 8.55014C14.8827 8.49692 14.8827 8.4361 14.8598 8.39047C14.8598 8.2156 14.8674 8.04833 14.8826 7.88106C15.7269 7.88106 16.5713 7.88104 17.408 7.88864C17.4688 7.92666 17.5144 7.97989 17.5372 8.04072C17.5372 8.16238 17.5372 8.28403 17.5372 8.41328C17.5372 8.43609 17.5297 8.4589 17.5221 8.48171V8.47412Z" fill="#333333"/>
<path d="M9.13981 25.0725C8.58454 24.1601 7.93032 23.3389 7.26856 22.4949C6.68286 21.7498 6.62207 20.7309 5.81579 20.1379C5.02472 19.56 4.01299 19.5524 3.07739 19.6436C2.90245 19.6588 2.74272 19.7197 2.61341 19.8109C2.52213 19.8565 2.44611 19.9098 2.37005 19.9782C2.08861 20.039 1.79956 20.1379 1.51051 20.2519C0.932422 20.4876 0.75747 21.0579 1.0313 21.5977C2.29397 24.1145 3.60993 26.616 5.64086 28.6081C5.90708 28.8742 6.26456 28.8894 6.56121 28.7602C6.72855 28.821 6.9111 28.859 7.12408 28.859C7.64892 28.859 8.19656 28.7602 8.7138 28.6689C9.24625 28.5777 9.74826 28.4788 10.0221 27.9618C10.5165 27.0418 9.59618 25.8328 9.12458 25.0725H9.13981Z" fill="#909294"/>
<path d="M10.6078 26.9733C8.98001 24.6163 7.36743 22.244 5.74725 19.8793C5.53427 19.5676 5.17681 19.5752 4.9334 19.7424C4.08148 19.7044 3.22958 19.6968 2.38526 19.7272C1.92887 19.7425 1.41919 19.7272 1.191 20.1835C1.12254 20.3203 1.22902 20.4648 1.37354 20.4648C2.44605 20.48 3.51864 20.4952 4.59115 20.5104C4.63679 20.594 4.73562 20.6016 4.81929 20.5712C6.42425 22.9207 8.03688 25.2549 9.63423 27.612C10.0526 28.2355 11.0414 27.5968 10.6154 26.9809L10.6078 26.9733Z" fill="#606060"/>
<path d="M19.4922 35.3447C18.2219 34.4779 16.9212 33.6568 15.5749 32.904C14.586 31.8319 13.4451 30.9119 12.1672 30.1668C11.7564 29.9235 11.3761 30.0071 11.1099 30.2428C11.049 30.2504 10.9882 30.2656 10.9273 30.2884C10.7296 30.1592 10.5318 30.0527 10.3416 29.9995C10.2199 30.0603 10.0982 30.1212 9.97652 30.1972C9.96131 30.2048 9.87766 30.2656 9.81681 30.3036C9.75596 30.3493 9.63427 30.4481 9.63427 30.4481C9.58102 30.4937 9.52771 30.5393 9.47447 30.585C9.45925 31.064 9.74069 31.7255 10.0373 32.2653L10.8284 33.7024C10.8589 33.7632 10.8893 33.8316 10.9273 33.8925C10.9349 33.9077 10.9502 33.9305 10.9578 33.9457L12.2128 36.2343C12.2964 36.2647 12.3802 36.3104 12.4638 36.356C12.7377 36.7666 13.0115 37.1772 13.3081 37.5649C13.7569 38.8423 14.7458 39.8992 16.0009 40.6139C17.6058 41.5263 20.5342 42.8569 21.7132 40.69C22.8618 38.5762 21.1276 36.4776 19.4694 35.3523L19.4922 35.3447Z" fill="#A59384"/>
<path d="M24.7634 21.3695C24.5276 20.9133 23.942 20.7384 23.478 20.8981C23.1129 20.8829 22.7173 20.9589 22.2837 21.149C19.8192 22.2363 19.2564 25.3461 18.7316 27.6804C17.9861 30.9879 17.4993 34.3942 18.0241 37.7702C18.085 38.1655 18.3208 38.4164 18.6022 38.5381C18.5794 38.9107 18.5794 39.2908 18.587 39.6634C18.6022 40.2869 19.0511 40.5606 19.5227 40.5454C19.6976 40.6291 19.8649 40.6671 20.017 40.6747C20.2148 40.8343 20.4658 40.9256 20.7473 40.8876C23.8051 40.5226 23.5845 36.584 24.0713 34.3258C24.3908 32.8431 24.8395 31.4137 25.3796 29.9918C25.8892 28.6612 26.4064 27.3002 26.4901 25.8632C26.5738 24.4185 25.9881 22.2971 24.7634 21.3619V21.3695Z" fill="#A59384"/>
<path d="M9.57337 30.8511C9.66465 30.8283 9.76353 30.7978 9.85481 30.7446C10.2732 30.5241 10.4405 30.0983 10.5166 29.6573C10.6231 29.0186 10.5622 28.3648 10.5166 27.7185C10.2579 27.3003 9.95374 26.9201 9.52778 26.654C9.45172 26.7452 9.37561 26.8365 9.29955 26.9277L9.52778 27.5132C9.17028 27.1178 8.74431 26.768 8.28793 26.4791C7.84675 26.2054 7.23058 25.9925 6.9035 26.3118C6.57642 26.6236 6.77421 27.2014 7.01761 27.6348C7.67938 28.821 8.58453 29.8702 9.57337 30.8435V30.8511Z" fill="#EDD5BE"/>
</svg>
