<svg width="33" height="114" viewBox="0 0 33 114" fill="none" xmlns="http://www.w3.org/2000/svg">
<path d="M2.8001 35.2998C2.37413 36.2047 1.96337 37.3528 2.59471 38.1283C2.85333 38.4477 3.24124 38.6302 3.62917 38.7822C5.02115 39.3373 6.49679 39.6794 7.98765 39.7859C8.32234 39.8087 8.67227 39.8163 8.96892 39.6718C9.56222 39.3829 9.73709 38.6378 9.84358 37.9915C10.6575 32.996 11.5323 27.9321 11.9126 22.8834C12.0039 21.6821 11.3421 18.6939 9.86643 20.5872C8.4212 22.4348 7.59976 25.2025 6.59571 27.3162C5.33304 29.9774 4.06277 32.6386 2.8001 35.3075V35.2998Z" fill="#662E2A"/>
<path d="M24.4859 58.2242C24.0752 57.8592 23.6493 57.5171 23.2005 57.1977L23.1168 56.7795L24.4859 58.2242Z" fill="#E8CBB3"/>
<path d="M11.4485 53.0386C11.6083 51.1302 13.1448 49.503 14.9703 48.9176C16.7959 48.3245 18.8268 48.659 20.5534 49.4802C21.1772 49.7767 21.7628 50.1265 22.3257 50.5295C23.3526 55.6846 24.3795 60.8398 25.4064 66.0025C25.6422 67.181 25.878 68.3672 25.8856 69.5685C25.8932 70.5037 25.7714 71.4314 25.6421 72.3514C24.6837 79.4302 23.6644 93.2533 22.706 100.332C22.6756 100.53 22.6452 100.75 22.493 100.88C22.3257 101.024 22.0823 101.016 21.8693 101.001C21.413 100.971 20.9565 100.943 20.5001 100.918C20.5534 92.6906 20.0514 80.4262 21.0782 73.0585C21.1391 72.6023 21.2075 72.1081 20.987 71.6975C20.85 71.439 20.1427 68.025 20.059 67.7437C17.45 59.2202 17.6098 60.2695 15.1529 56.3841C14.0652 54.6582 11.2736 55.084 11.4485 53.0538V53.0386Z" fill="#E8CBB3"/>
<path d="M16.7882 102.644C16.0656 102.651 15.343 102.666 14.6204 102.674C12.4145 95.4279 12.0343 81.0346 10.6803 73.5832C10.0262 70.0096 9.16661 66.4664 8.76346 62.8547C8.36793 59.2431 8.44393 55.5098 9.65336 52.0883C10.0413 50.9858 10.589 49.868 11.5626 49.2294C12.3917 48.6819 14.0119 48.5679 14.7345 49.4042C15.5028 50.2938 15.1148 52.2023 15.1224 53.2668C15.1529 56.7187 15.2213 60.1707 15.3202 63.6227C15.518 70.5798 15.845 77.5294 16.2177 84.4713C16.271 85.4446 16.7122 102.644 16.7882 102.644Z" fill="#E8CBB3"/>
<path d="M29.4986 65.0749C29.704 66.7552 29.7801 68.3976 29.7725 69.8118C29.7725 70.2832 22.0139 71.4922 21.2076 71.5606C17.8379 71.8343 14.4455 72.0472 11.0606 72.2297C9.02207 72.3438 6.66406 72.3285 5.34815 70.7622C4.38974 69.6217 4.30605 67.9642 4.66355 66.5195C5.02105 65.0748 5.76652 63.7594 6.31418 62.3832C6.93031 60.8321 7.31059 59.205 7.70613 57.5855C7.91911 56.7035 8.17011 55.7758 8.83187 55.1524C9.50124 54.5213 10.4672 54.3312 11.38 54.1943C14.2553 53.7685 17.1762 53.6241 20.0818 53.7685C21.7096 53.8446 23.4059 54.0422 24.7674 54.9471C27.7264 56.9087 29.0042 61.0982 29.4986 65.0672V65.0749Z" fill="#333333"/>
<path d="M13.0079 7.0454C13.0079 4.14088 15.5409 1.78381 18.6672 1.78381C21.7934 1.78381 24.3263 4.14088 24.3263 7.0454C24.3263 7.53202 24.2503 7.99583 24.1209 8.44443C24.1209 8.55848 24.1209 8.67253 24.1209 8.79418C24.1362 9.84346 24.0906 10.8927 23.8852 11.9268C23.4897 13.9341 22.4476 15.8046 20.4775 16.9527C19.8234 17.3329 19.0703 17.6218 18.2869 17.6218C17.2296 17.6142 16.2635 17.0743 15.5333 16.3976C13.1145 14.1774 12.9014 10.8319 13.0764 7.68408C13.0459 7.47119 13.0308 7.25829 13.0308 7.0454H13.0079Z" fill="#E8CBB3"/>
<path d="M13.0307 18.7851C11.9049 18.8231 10.6575 18.9448 9.92727 19.6519C9.53174 20.0321 9.34912 20.5339 9.19699 21.0129C5.35573 32.8971 8.43637 45.5112 6.93789 57.7452C6.89226 58.133 6.84658 58.5587 7.08999 58.8933C7.29536 59.1746 7.66815 59.3419 8.02566 59.4864C13.5327 61.7294 20.2187 61.9499 25.9312 60.0947C26.3647 59.9502 26.8136 59.7905 27.1331 59.5092C27.5286 59.1594 27.6807 58.6652 27.7948 58.1938C30.1376 48.8416 26.1898 39.2916 25.3607 29.7721C25.1705 27.5595 26.1974 22.0014 24.5316 20.2069C22.7821 18.3213 15.6397 18.7015 13.0231 18.7851H13.0307Z" fill="#662E2A"/>
<path d="M22.6072 16.1391C22.7213 15.8122 22.9267 15.5308 23.1321 15.2495C23.4364 14.8389 23.7482 14.4207 24.0524 14.0101C24.197 13.8201 24.3415 13.6224 24.5545 13.5083C24.7599 13.3943 25.0489 13.3867 25.2163 13.5615C25.3988 13.7516 25.3608 14.0558 25.2923 14.3067C25.1478 14.8541 24.9424 15.3864 24.661 15.8806L23.5961 17.3633C23.307 17.5534 22.881 17.4241 22.6832 17.1352C22.4855 16.8538 22.4855 16.4661 22.5996 16.1391H22.6072Z" fill="#E8CBB3"/>
<path d="M25.4672 11.3261C25.4749 11.2349 25.4901 11.1437 25.452 11.0524C25.3912 10.8699 25.1858 10.7939 25.0033 10.7407C24.8055 10.6799 24.5925 10.619 24.4023 10.7027C24.2958 10.7483 24.2046 10.8395 24.1361 10.9384C23.6037 11.6227 23.4972 12.5275 23.231 13.3563C22.9572 14.2078 22.4931 14.991 21.9455 15.6981C21.8161 15.8654 21.6793 16.0327 21.6108 16.2304C21.5424 16.4281 21.5728 16.6714 21.7249 16.8158C21.8923 16.9603 22.1585 16.9375 22.3486 16.831C22.5388 16.717 22.6757 16.5345 22.805 16.352C23.4211 15.4852 24.1133 14.6336 24.6761 13.7288C25.0641 13.0901 25.4672 12.0941 25.4672 11.3414V11.3261Z" fill="#333333"/>
<path d="M25.0185 9.9499C24.7751 9.70659 24.5089 9.47848 24.2351 9.28079C23.908 10.0031 23.5809 10.7255 23.2538 11.4402C23.1853 11.5846 23.0865 11.7595 22.9268 11.7519C22.8355 11.7519 22.7595 11.6835 22.6758 11.6759C22.478 11.6455 22.3182 11.866 22.3258 12.0637C22.3258 12.2613 22.4399 12.4438 22.5236 12.6263C22.8279 13.303 22.7518 14.1014 22.4552 14.7781C22.1585 15.4548 21.6565 16.0175 21.1164 16.5193C20.4395 17.1352 19.6636 17.675 18.7888 17.9639C17.9141 18.2529 16.9405 18.2909 16.0886 17.9335C15.6626 17.7586 15.2899 17.4925 14.9248 17.2112C14.4836 16.8614 14.0576 16.4813 13.7533 16.0174C13.3958 15.4852 13.2057 14.8693 13.0155 14.2611C12.3081 11.9268 11.6768 9.53931 11.5323 7.09861C11.4791 6.16338 11.4942 5.20535 11.7605 4.30814C12.2777 2.58216 13.723 1.21354 15.4192 0.597656C17.1078 -0.018223 19.0094 0.0730281 20.7209 0.643287C21.2762 0.82577 21.8163 1.06907 22.2879 1.41883C24.6915 3.21324 25.1859 7.20506 25.0262 9.9499H25.0185Z" fill="#EDD082"/>
<path d="M9.7448 1.69254C8.14744 2.43768 7.10536 4.08003 6.70222 5.79841C6.29907 7.51679 6.44358 9.3112 6.68699 11.0524C6.92279 12.8012 7.25742 14.5424 7.20417 16.3064C7.16614 17.599 6.89236 18.9372 6.1165 19.9712C5.49277 20.8 4.58759 21.3779 3.62918 21.7809C2.51864 22.2523 1.25596 22.5184 0.107388 22.1534C0.00850414 23.4992 0.700676 24.8603 1.80361 25.6434C2.90655 26.419 4.38217 26.6242 5.67527 26.2441C7.014 25.8563 8.11693 24.9059 9.08295 23.9022C9.95769 22.9822 10.7716 21.9557 11.1899 20.7544C11.8973 18.7167 11.3801 16.4889 11.0987 14.3447C10.8248 12.2005 10.9009 9.7598 12.4374 8.25432C13.7229 6.99215 16.4232 5.82122 15.2062 3.5858C14.1869 1.70015 11.6768 0.802942 9.73718 1.70775L9.7448 1.69254Z" fill="#EDD082"/>
<path d="M31.8186 33.4902C32.1153 34.6535 32.2598 36.1438 31.2634 36.8053C30.4267 37.3604 29.2781 36.9498 28.4719 36.3415C26.4257 34.7752 25.5129 32.1976 24.2274 29.9622C22.9419 27.742 21.1392 25.5142 21.3902 22.967C21.4815 22.0242 22.1889 20.9293 23.1169 21.1346C23.5885 21.241 23.9156 21.6516 24.2883 21.9558C24.661 22.2599 25.2467 22.4576 25.5966 22.1306C25.8096 21.2791 25.3988 20.3971 24.8892 19.6899C24.3795 18.9828 23.7406 18.3365 23.4059 17.5306C23.3147 17.3101 23.2462 17.0668 23.3223 16.8463C23.5124 16.2988 24.3643 15.6981 24.8815 15.911C25.3912 16.1239 25.7792 17.5914 25.9922 18.0704C26.768 19.7736 27.5362 21.4844 28.2589 23.2103C29.6661 26.5559 30.9135 29.9698 31.8186 33.4826V33.4902Z" fill="#662E2A"/>
<path d="M14.7346 100.826C14.514 100.849 14.2706 100.887 14.1033 101.032C13.8294 101.26 13.8218 101.663 13.837 102.02C13.9815 105.662 14.3771 109.297 15.0236 112.885C15.0997 113.136 15.5028 113.121 15.6625 112.916C15.8223 112.71 15.8147 112.422 15.7995 112.155C15.7387 111.197 15.6778 110.239 15.617 109.289C16.2559 109.935 16.5753 110.893 16.4536 111.798C16.4232 112.026 16.3776 112.292 16.5373 112.46C16.6438 112.566 16.8036 112.589 16.9481 112.604C17.4729 112.672 18.1575 112.65 18.3553 112.155C18.4161 112.011 18.4085 111.851 18.4085 111.692C18.3856 109.707 18.3705 107.723 18.3476 105.738C18.3324 104.423 18.3096 103.062 17.8608 101.807C17.6935 101.336 17.4957 100.712 16.9861 100.568C16.408 100.401 15.3355 100.75 14.7346 100.819V100.826Z" fill="#666666"/>
<path d="M20.3101 99.6402C20.1883 99.6402 20.0591 99.6478 19.9678 99.7314C19.8461 99.8303 19.8461 100.013 19.8461 100.165C19.8917 102.393 19.9374 104.613 19.983 106.841C20.0135 108.194 20.0439 109.57 20.4318 110.87C20.6676 110.87 20.911 110.87 21.1468 110.87C21.1773 109.73 21.1468 108.589 21.0403 107.457C21.299 107.35 21.588 107.304 21.8618 107.342C21.9226 108.11 21.9759 108.878 22.0367 109.639C22.0519 109.859 22.0824 110.095 22.2345 110.247C22.379 110.384 22.592 110.422 22.7898 110.437C23.5808 110.521 24.4024 110.566 25.1478 110.285C25.8933 110.004 26.5398 109.319 26.5398 108.529C26.5398 108.262 26.4637 107.996 26.2812 107.799C26.1138 107.624 25.878 107.533 25.6726 107.411C24.4404 106.727 23.9992 105.183 23.8775 103.784C23.7786 102.613 23.9003 101.206 23.3755 100.127C22.9039 99.1459 21.2532 99.6173 20.3024 99.6402H20.3101Z" fill="#666666"/>
</svg>
