<svg width="45" height="112" viewBox="0 0 45 112" fill="none" xmlns="http://www.w3.org/2000/svg">
<path d="M27.2223 40.6563C24.8035 40.8616 22.5368 39.1888 20.1103 39.3028C18.8857 39.3637 17.3568 39.7438 16.6722 38.725C16.3679 38.2764 16.3755 37.6909 16.3984 37.1435C16.6037 31.152 16.8091 25.1528 17.0145 19.1613C20.7416 20.1954 24.7807 20.0737 28.4318 18.8115C28.4089 25.5862 28.3861 32.3609 28.3709 39.1356C28.3709 39.5918 28.3405 40.1088 27.9906 40.4053C27.7852 40.5802 27.5038 40.6334 27.23 40.6487L27.2223 40.6563Z" fill="#98B99D"/>
<path d="M16.4896 109.521C17.4556 108.076 18.2924 106.517 18.7183 104.822C18.8933 104.122 18.9921 103.392 19.0226 102.67C19.0302 102.457 19.0226 102.229 18.8857 102.069C18.764 101.932 18.5662 101.895 18.3836 101.864C17.2427 101.689 15.9191 101.568 15.09 102.381C14.763 102.7 14.5576 103.134 14.3826 103.56C13.4699 105.765 13.1048 108.205 13.3406 110.585C13.7057 111.148 14.5272 111.224 15.1205 110.935C15.7138 110.646 16.1321 110.076 16.5048 109.521H16.4896Z" fill="#333333"/>
<path d="M29.3217 108.7C28.3557 107.255 27.519 105.696 27.093 104.001C26.9181 103.301 26.8192 102.571 26.7888 101.849C26.7812 101.636 26.7888 101.408 26.9257 101.248C27.0474 101.111 27.2451 101.073 27.4277 101.043C28.5687 100.868 29.8922 100.746 30.7213 101.56C31.0484 101.879 31.2537 102.313 31.4287 102.738C32.3415 104.943 32.7066 107.384 32.4708 109.764C32.1057 110.327 31.2842 110.403 30.6909 110.114C30.0976 109.825 29.6792 109.255 29.3065 108.7H29.3217Z" fill="#333333"/>
<path d="M34.0225 34.0108C35.9774 31.897 37.8333 29.6996 39.6285 27.4566C40.488 26.3769 41.3399 25.282 42.0473 24.1035C42.884 22.7044 43.5154 21.1837 44.1391 19.6782C44.3445 19.1764 44.5574 18.6517 44.4814 18.1195C44.4053 17.5873 43.9337 17.0626 43.4013 17.1463C43.0133 17.2071 42.7319 17.5417 42.4961 17.8534C39.5296 21.6475 36.0762 25.1451 33.4292 29.1293C32.9196 26.1944 31.809 21.8909 30.1736 21.4422C29.7933 21.3358 29.3826 21.4422 28.9414 21.83C28.3481 22.3546 28.2188 23.1074 28.2264 23.7385C28.2492 24.9626 28.5763 26.0651 28.8501 27.1905C29.4206 29.5779 29.8313 31.9274 30.6452 34.2009C30.7441 34.467 30.843 34.7482 31.0864 34.9003C31.1244 34.9231 31.1777 34.9384 31.2233 34.9536C31.5504 35.2045 32.0372 35.2957 32.4556 35.1816C33.0869 35.0068 33.5737 34.5049 34.0225 34.0259V34.0108Z" fill="#EDD5BE"/>
<path d="M32.4632 45.5299C31.5732 36.7251 29.2533 27.9356 30.2573 19.146C29.451 18.5681 28.4394 18.2792 27.4505 18.34C27.2832 24.5064 27.1158 30.6728 26.9485 36.8392C25.1686 36.8392 23.3887 36.8468 21.6088 36.8544C21.5936 36.9229 21.5631 36.9913 21.5403 37.0521C20.4069 37.0521 19.2736 37.0521 18.1478 37.0445C17.9805 30.8781 17.8132 24.7117 17.6458 18.5453C16.657 18.4844 15.6453 18.7734 14.839 19.3513C15.8431 28.1409 13.5231 36.9304 12.6332 45.7352C11.9029 52.9965 12.1387 60.311 12.3821 67.6103C12.7777 79.5173 13.1732 91.4243 13.5687 103.331L18.1098 103.385C18.1098 103.605 18.1098 103.826 18.1098 104.054C18.9161 103.704 19.73 103.354 20.5363 102.997C20.658 100.906 20.7873 98.8225 20.909 96.7316C21.6164 92.7246 22.164 88.6947 22.5596 84.6421C23.1757 90.8769 24.1569 97.0737 25.5109 103.195C27.519 103.172 29.5195 103.149 31.5276 103.126C31.9231 91.219 32.3187 79.312 32.7142 67.405C32.9576 60.1133 33.201 52.7912 32.4632 45.5375V45.5299Z" fill="#CFA8C6"/>
<path d="M26.8572 6.91202C26.5834 6.13647 26.2487 5.37612 25.8228 4.6766C24.3243 2.2359 20.2929 -0.744645 17.4557 1.40713C16.7939 1.90896 16.3223 2.60848 15.8887 3.3156C15.44 4.03793 15.0216 4.78305 14.7173 5.58142C14.1469 7.0793 13.9719 8.82811 14.3446 10.402C14.6945 11.8619 15.5845 13.2381 16.4136 14.4775C17.5165 16.1122 18.9009 17.747 20.8101 18.2108C23.3583 18.8267 26.0509 17.0094 27.0702 14.5915C28.0895 12.1736 27.732 9.38314 26.8496 6.91202H26.8572Z" fill="#EDD5BE"/>
<path d="M28.3253 21.3054C28.2188 21.1457 28.0286 21.0697 27.8461 21.0164C30.166 16.8878 29.6032 11.3601 29.0783 8.22747C28.7817 6.47107 28.2112 4.73748 27.1995 3.27762C26.1803 1.81776 24.6894 0.646819 22.9551 0.228629C22.1412 0.0309393 21.2969 0.000527334 20.4602 -0.00707611C19.8137 -0.0146796 19.0302 0.0613716 18.6499 0.532785C17.8436 0.228647 16.8776 0.494763 16.2006 1.04981C15.478 1.63528 15.014 2.48686 14.6108 3.32324C13.9719 4.65384 13.4318 6.03765 13.1276 7.4823C12.656 9.71772 12.7549 12.0672 13.2873 14.2874C13.4775 15.0782 13.7209 15.8613 14.1468 16.5608C14.7478 17.5569 15.6605 18.3172 16.5657 19.0548C16.733 19.1916 16.9004 19.3285 17.1134 19.3741C17.3187 19.4197 17.5774 19.3285 17.6382 19.1232C17.6991 18.9483 17.6002 18.7582 17.5013 18.591C15.5236 15.0934 15.5312 10.7898 16.3147 6.84364C16.6494 5.16328 17.1438 3.4373 18.2695 2.14471C18.376 2.02306 18.4977 1.90138 18.6575 1.88617C18.8781 2.23593 19.2204 2.5553 19.5398 2.81382C21.2589 4.19004 22.9779 5.55865 24.697 6.93488C25.6858 7.72563 26.7279 8.58482 27.1539 9.77856C27.6331 11.1092 27.2452 12.5766 27.0474 13.9757C26.8648 15.215 25.7619 19.0624 27.0018 20.872C26.8192 20.8568 26.629 20.8492 26.4465 20.8644C25.7163 22.8109 25.838 25.0463 26.7583 26.9091C26.6138 26.0575 27.3593 25.358 27.8385 24.6433C28.4242 23.7613 28.6447 22.6512 28.447 21.6171C28.4242 21.5107 28.4013 21.4042 28.3405 21.3206L28.3253 21.3054Z" fill="#333333"/>
<path d="M3.64234 10.2196C3.37612 9.4897 3.1251 8.74454 2.75239 8.06023C2.57744 7.74849 2.08302 7.98421 2.25036 8.31115C2.60026 9.01067 2.99579 9.67216 3.30766 10.3869C3.40654 10.615 3.73362 10.4401 3.64995 10.2196H3.64234Z" fill="#666666"/>
<path d="M2.67631 11.0027C2.0754 10.7822 1.45928 10.6682 0.81273 10.7062C0.455227 10.729 0.394376 11.2765 0.774699 11.2841C1.38321 11.2841 1.99173 11.3221 2.58503 11.4285C2.83605 11.4742 2.8969 11.0864 2.6687 11.0104L2.67631 11.0027Z" fill="#666666"/>
<path d="M2.81323 12.3257C1.98413 12.4093 1.1246 12.7211 0.341137 12.9872C0.00645291 13.1012 0.0901221 13.6411 0.455232 13.5499C1.27673 13.3294 2.1895 13.1088 2.94254 12.7059C3.15552 12.5918 3.03382 12.3105 2.81323 12.3333V12.3257Z" fill="#666666"/>
<path d="M13.4394 10.6531C14.0023 10.7368 14.3066 11.3526 14.5196 11.8849C15.3867 14.0367 16.3603 16.1504 17.4252 18.211C17.9729 19.2678 20.5287 22.2256 18.8628 23.0087C16.7178 24.02 14.4663 24.8031 12.154 25.343C11.7584 25.3049 11.515 24.902 11.3401 24.537C9.67425 21.0774 7.9552 17.595 5.93949 14.318C5.74172 13.9986 5.58198 13.5805 5.77975 13.2611C5.90906 13.0558 6.15247 12.957 6.37305 12.8657C8.36594 12.0902 10.3664 11.3146 12.3593 10.5391C12.7549 10.6227 13.0363 10.5923 13.4394 10.6531Z" fill="#666666"/>
<path d="M12.4278 18.0131C12.1159 18.3249 12.0627 18.7963 12.0247 19.2297L10.7848 33.3492C10.6099 35.3565 10.5034 37.6072 11.8117 39.1355C12.1464 39.5233 12.6104 39.8655 13.12 39.8046C14.9151 35.4403 15.2802 30.6348 15.6225 25.9207C15.7898 23.5788 15.9344 21.0925 14.839 19.0092C14.6032 18.5606 14.2914 18.1271 13.8426 17.8838C13.3938 17.6405 12.7853 17.6482 12.4278 18.0055V18.0131Z" fill="#EDD5BE"/>
</svg>
