<svg width="38" height="101" viewBox="0 0 38 101" fill="none" xmlns="http://www.w3.org/2000/svg">
<path d="M9.34777 32.6283C6.58663 30.6134 3.79502 32.1493 1.23165 33.8297C0.105896 34.5748 1.11001 36.6125 2.24337 35.8674C4.06892 34.6661 6.51816 32.8868 8.48062 34.8105C9.11956 35.4416 9.401 36.4377 9.5227 37.4717C9.49988 37.5706 9.48463 37.677 9.48463 37.7987V96.7254C9.48463 98.2461 11.4851 98.2461 11.4851 96.7254V40.4219C11.5612 40.2622 11.6069 40.0797 11.6069 39.8592C11.6449 37.3653 11.3483 34.073 9.34777 32.6132V32.6283Z" fill="#998675"/>
<path d="M18.0115 15.46C18.2321 14.4259 18.1408 13.2321 17.6692 11.9472C16.802 9.58249 15.6382 7.25587 13.7747 5.56791C11.622 3.62142 7.80357 2.42766 5.20217 4.31332C2.15959 6.51072 4.28179 10.7458 5.78026 13.5287C6.96687 15.7337 8.80771 17.6954 11.1809 18.5013C14.7255 19.7027 17.4334 18.1592 18.0039 15.4524L18.0115 15.46Z" fill="#F2E7D6"/>
<path d="M28.7745 96.7711C30.2502 79.9979 31.4064 60.6699 32.8744 43.8967C28.6072 43.4405 24.3096 43.3721 20.0196 43.4785C18.6885 43.5089 16.2696 42.9539 16.011 44.5354C15.8284 45.6151 16.7564 47.9037 16.9237 49.0366C18.0647 56.7922 20.765 64.274 21.2138 72.1359C21.3431 74.417 21.2822 76.698 21.3279 78.9866C21.4039 82.8644 21.807 86.7269 22.3167 90.5667C22.5144 92.0722 23.5109 94.8702 23.1382 96.3073C22.8187 97.5238 20.94 98.1929 19.7229 98.6795C19.3198 98.8468 18.8862 99.0065 18.5896 99.3259C18.2929 99.6452 18.1712 100.185 18.445 100.52C18.6884 100.816 19.122 100.847 19.5023 100.847C22.4308 100.877 25.3669 100.626 28.2497 100.101C28.4247 100.071 28.6072 100.033 28.7289 99.9113C28.8278 99.8125 28.8735 99.6756 28.9115 99.5387C29.1549 98.6263 29.0637 97.6303 28.6681 96.7711C28.7062 96.7711 28.7441 96.7711 28.7821 96.7711H28.7745Z" fill="#ACB18F"/>
<path d="M12.9227 32.2482C12.7098 32.2634 12.4968 32.3243 12.2838 32.3091C12.0632 32.2939 11.8503 32.2102 11.6373 32.1266C9.64441 31.3434 7.48415 30.796 5.43041 31.2674C5.19461 31.3206 4.95121 31.3967 4.76865 31.5639C4.53285 31.7768 4.43393 32.1266 4.44915 32.4611C4.47957 33.2139 5.02731 33.883 5.66625 34.2403C6.3128 34.5977 7.04293 34.7117 7.76555 34.8106C9.09668 35.0083 10.4278 35.1984 11.7665 35.3961C12.7934 35.5481 13.8811 35.685 14.8167 35.2516C14.8928 34.5673 14.9233 33.8374 14.6038 33.2215C14.2768 32.598 13.5921 32.2026 12.9227 32.2482Z" fill="#F2E7D6"/>
<path d="M14.0181 36.4531C12.4587 36.1565 10.8841 35.8828 9.302 35.6395C9.95616 33.9895 10.6104 32.332 11.2645 30.682C12.1241 30.9329 12.9911 31.1915 13.8506 31.4424C13.843 30.9253 13.8355 30.4083 13.8279 29.9141C13.8127 27.5722 13.8126 25.1467 14.8015 22.9721C18.8785 13.9316 25.0474 16.7905 29.8546 22.265C33.384 26.2796 36.1832 31.7085 36.883 34.8639C37.8947 39.4336 38.7086 65.0344 35.2857 69.0262C33.5286 71.0791 18.6351 73.5579 15.5089 66.2205C15.4633 57.8035 14.4288 46.1323 14.0028 36.4531H14.0181Z" fill="#565772"/>
<path d="M3.01141 6.60184C3.11791 5.73505 3.23209 4.86063 3.57438 4.06227C4.10683 2.8001 5.19447 1.81926 6.44193 1.26421C7.68939 0.709157 9.10422 0.579897 10.4658 0.739569C11.1199 0.815603 11.7741 0.96008 12.3826 1.2262C14.1777 2.02456 15.3491 3.80379 16.0793 5.62102C16.414 6.4574 16.6803 7.32418 16.9541 8.18337C18.7264 7.18732 21.267 7.96285 22.2862 9.68123C23.6098 11.909 22.0276 14.9732 19.7608 15.7564C19.7304 15.764 19.7076 15.7716 19.6848 15.7792C19.5859 15.8248 19.4946 15.8704 19.3881 15.9085C18.6199 16.205 17.6691 16.1366 17.0758 15.5663C16.8096 15.3078 16.6346 14.9808 16.4597 14.6539C15.8435 13.4753 15.2199 12.2968 14.6037 11.1183C15.0601 10.989 15.4708 10.6545 15.6154 10.1983C15.7599 9.74966 15.6077 9.19463 15.2046 8.94372C14.8014 8.69281 14.1929 8.82203 13.98 9.24022C13.9115 9.37708 13.8811 9.53678 13.7822 9.65083C13.5464 9.93216 13.1052 9.8257 12.7629 9.68884C11.7209 9.27826 10.6939 8.83726 9.68229 8.35824C8.95967 8.01608 8.24474 7.65113 7.46888 7.46865C6.69302 7.28617 5.84105 7.29375 5.14126 7.68152C4.44146 8.0693 3.95466 8.87529 4.10679 9.65845C4.16764 9.97019 4.31976 10.2515 4.47189 10.5328C4.97391 11.4604 5.47592 12.3881 5.97034 13.3081C5.81821 13.3765 5.66609 13.4449 5.50635 13.5134C4.82938 12.7606 4.22849 11.9471 3.71886 11.0727C3.42981 10.5785 3.16355 10.069 3.01903 9.51398C2.76802 8.56355 2.88972 7.55225 3.01903 6.57901L3.01141 6.60184Z" fill="#808080"/>
</svg>
