<svg width="87" height="119" viewBox="0 0 87 119" fill="none" xmlns="http://www.w3.org/2000/svg">
<path d="M6.26677 53.808C6.25917 51.9071 6.21353 49.9607 5.50613 48.1967C5.1182 47.2386 4.44883 46.2806 3.43717 46.0525C2.70695 51.5346 2.96557 57.1459 4.1902 62.5444C4.49446 62.8257 5.01931 62.7116 5.30835 62.4075C5.58979 62.1034 5.69628 61.6776 5.77235 61.267C6.24395 58.8187 6.28199 56.3019 6.26677 53.808Z" fill="#E0D0C1"/>
<path d="M2.40271 48.1739C3.53607 47.8394 4.94326 48.6149 5.84843 47.8546C6.1603 47.5885 6.32764 47.1855 6.47977 46.8053C9.19527 39.8634 11.1273 32.6249 12.2226 25.2495C12.3367 24.474 12.428 23.6148 11.9868 22.9609C11.3175 21.9724 9.72772 22.0561 8.81494 22.8164C7.89456 23.5768 7.48382 24.7781 7.11871 25.911C4.81395 33.1571 2.94277 40.5857 2.40271 48.1739Z" fill="#AA4A4D"/>
<path d="M10.3667 106.211C11.8347 105.633 11.4316 103.322 11.211 101.755C10.5112 96.8056 9.81901 91.8557 9.11921 86.9059C8.7541 84.3055 8.38899 81.6671 8.73128 79.0667C9.31697 74.6415 11.8803 70.779 14.0938 66.9012C16.5431 62.5976 18.6349 58.0888 20.3235 53.4355C20.681 52.4546 21.0233 51.413 20.8103 50.3865C20.7343 50.0063 20.5745 49.6414 20.3844 49.3068C19.1293 47.041 16.4899 45.832 13.9037 45.6191C12.0021 45.4671 7.59031 45.4519 6.16791 47.041C4.79874 48.5693 5.04976 52.8044 4.7455 54.7813C3.78709 60.9553 2.60048 67.0989 1.20089 73.1892C0.9727 74.1777 0.736895 75.1661 0.660831 76.1698C0.55434 77.4624 0.706477 78.7626 0.858606 80.0552L6.96659 105.276C6.96659 105.276 7.75766 107.245 10.3667 106.219V106.211Z" fill="#4D4D4D"/>
<path d="M25.1232 75.7896C25.9295 70.1327 26.7434 64.4681 27.0172 58.7579C27.1313 56.3476 27.1465 53.9221 26.7662 51.5498C26.538 50.1356 26.1273 48.6605 25.1004 47.6569C21.7612 44.4102 15.9194 46.1134 14.497 50.2496C13.2571 53.8689 13.9265 57.8151 14.322 61.6168C14.6871 65.1448 14.8012 68.6956 14.8697 72.2464C15.0751 83.3018 14.8241 94.3648 14.1091 105.39C14.0634 106.089 14.0634 106.911 14.6187 107.344C14.8241 107.504 15.0751 107.587 15.3261 107.656C15.3261 107.656 17.8058 108.173 18.4371 107.656C19.0685 107.139 24.8494 77.6981 25.1232 75.782V75.7896Z" fill="#4D4D4D"/>
<path d="M11.3707 110.461C11.751 110.332 12.1618 110.294 12.5345 110.15C13.6907 109.686 14.1699 108.332 14.5046 107.131C14.5426 106.987 14.5882 106.834 14.7099 106.743C14.824 106.652 14.9762 106.644 15.1207 106.637C15.6912 106.606 16.2616 106.576 16.8321 106.553C17.182 106.538 17.5776 106.538 17.821 106.789C18.034 107.009 18.0416 107.344 18.0492 107.656C18.0492 108.386 18.0492 109.108 18.0568 109.838C18.0568 110.233 18.0568 110.629 17.9275 111.001C17.7373 111.541 17.3037 111.952 16.9386 112.393C16.4442 113.001 16.0639 113.716 15.4554 114.202C14.9533 114.598 14.3372 114.803 13.7135 114.97C12.4204 115.312 10.1004 115.464 9.5984 113.799C9.21047 112.529 10.1461 110.872 11.3631 110.469L11.3707 110.461Z" fill="#3B3B3B"/>
<path d="M7.93261 105.93C7.68921 105.968 7.43058 106.006 7.23281 106.15C6.70036 106.538 6.8677 107.367 6.61669 107.975C6.38089 108.538 5.78759 108.88 5.18668 109.017C4.58577 109.154 3.96964 109.123 3.36113 109.176C3.08729 109.199 2.80586 109.252 2.57006 109.389C1.89309 109.792 1.83984 110.727 1.87027 111.511C1.87027 111.647 1.87788 111.792 1.95394 111.906C2.08325 112.119 2.36469 112.172 2.6157 112.195C5.35402 112.469 8.13798 112.309 10.8231 111.731C11.1197 111.67 11.4468 111.579 11.6293 111.336C11.8195 111.085 11.7967 110.735 11.7739 110.423C11.675 109.26 11.9108 107.146 11.1958 106.158C10.4427 105.116 8.96708 105.914 7.94021 105.914L7.93261 105.93Z" fill="#3B3B3B"/>
<path d="M22.9935 78.5269C22.9935 78.5269 22.9704 78.5654 22.9935 78.5654C23.0166 78.5654 23.0166 78.5269 22.9935 78.5269Z" fill="#3B3B3B"/>
<path d="M22.3849 80.7775C21.784 82.4654 21.2363 84.1914 20.9549 85.963C20.9092 86.2367 21.3124 86.3584 21.3732 86.0771C21.7535 84.3207 22.073 82.5567 22.5446 80.8155C22.575 80.7166 22.4229 80.6786 22.3925 80.7699L22.3849 80.7775Z" fill="#3B3B3B"/>
<path d="M20.7723 89.4834C20.7419 89.7419 20.7191 90.0004 20.6962 90.259C20.681 90.4795 21.0233 90.4795 21.0385 90.259C21.0613 90.0004 21.0765 89.7419 21.0918 89.4834C21.107 89.2781 20.7951 89.2857 20.7723 89.4834Z" fill="#3B3B3B"/>
<path d="M20.7268 91.8406C20.6963 92.0081 20.6658 92.1756 20.6354 92.3506C20.6049 92.5105 20.8486 92.5485 20.8562 92.3811C20.8714 92.206 20.879 92.0385 20.8942 91.8635C20.8942 91.7721 20.742 91.7493 20.7268 91.8406Z" fill="#3B3B3B"/>
<path d="M20.5518 93.9846C20.3767 93.9846 20.3767 94.251 20.5518 94.251C20.7269 94.251 20.7269 93.9846 20.5518 93.9846Z" fill="#3B3B3B"/>
<path d="M18.4676 20.2844C19.3727 20.1019 20.4224 19.9118 21.145 20.4821C21.5101 20.771 21.7231 21.2044 21.9285 21.6302C23.0618 23.9873 24.1952 26.3519 25.0547 28.8231C26.5152 33.043 27.3215 37.6507 27.5649 42.1063C27.7094 44.6762 28.0441 47.231 28.1353 49.801C28.2114 51.968 27.7246 53.9525 27.5725 56.0358C22.4001 56.1879 17.1288 55.7469 11.9336 55.7925C10.6557 55.8001 9.36262 55.8153 8.13798 56.1879C6.94377 56.5452 5.73434 57.2447 4.52491 56.9178C3.97725 53.3746 3.63496 50.1355 4.43364 46.5391C4.96609 44.1364 5.86365 41.7869 6.17551 39.331C6.54823 36.4037 7.26324 33.5372 7.97825 30.6783C8.42703 28.8915 8.8758 27.1047 9.32458 25.3179C9.67448 23.9036 9.80379 21.8583 10.6253 20.6417C11.4392 19.4328 12.4889 20.1399 13.6298 20.3984C15.2044 20.7558 16.8854 20.6037 18.4599 20.292L18.4676 20.2844Z" fill="#CBCFCB"/>
<path d="M12.5725 3.82293C11.8195 4.25632 11.0589 4.73534 10.5416 5.43486C9.88746 6.31686 9.6973 7.44977 9.62123 8.53707C9.52235 10.0197 9.60602 11.5176 9.84943 12.9851C10.1765 14.9848 10.8535 17.0225 12.3063 18.4292C13.7592 19.8358 16.1552 20.4289 17.8743 19.3416C19.4412 18.3531 20.004 16.3686 20.3387 14.5514C20.6202 13.0307 20.8256 11.5024 20.9625 9.95891C21.0614 8.87162 21.1146 7.76152 20.8864 6.69703C20.643 5.57172 20.0801 4.53765 19.3803 3.62524C17.5624 1.24536 14.7176 2.58357 12.5725 3.82293Z" fill="#E0D0C1"/>
<path d="M16.2616 8.68163C16.7256 8.99337 17.2809 9.15304 17.7525 9.45718C18.3154 9.82975 18.7185 10.4152 18.8631 11.0767C18.8935 11.2136 18.9543 11.3809 19.0912 11.3732C19.2282 11.3732 19.2738 11.1908 19.3803 11.0995C19.5476 10.9551 19.8215 11.0919 19.9051 11.2896C19.9888 11.4873 19.9356 11.7154 19.8823 11.9283C19.5248 13.3273 19.1749 14.7264 18.8174 16.1254C19.9964 14.6655 20.9624 13.0384 21.6698 11.3048C21.822 10.9322 21.9665 10.5445 21.9969 10.1415C22.0654 9.28991 21.6242 8.47634 21.1678 7.75401C20.643 6.92523 20.0268 6.08885 19.1217 5.72389C18.5816 5.51099 17.9807 5.48818 17.4026 5.5262C16.6648 5.57942 15.539 5.87596 15.25 6.68192C14.9914 7.39665 15.7216 8.31666 16.2693 8.68923L16.2616 8.68163Z" fill="#D9AC7C"/>
<path d="M22.0045 5.63259C21.822 4.62133 21.5253 3.58727 20.8407 2.81171C20.3768 2.27947 19.753 1.91451 19.1293 1.58756C18.6121 1.32144 18.0796 1.07052 17.5091 0.948868C16.391 0.697954 15.2272 0.941266 14.109 1.18458C12.3672 1.57235 10.4808 2.06658 9.43867 3.51883C8.74648 4.48447 8.39659 6.00516 8.5259 7.1837C8.5259 7.22932 8.54111 7.26733 8.55632 7.30535C8.22164 7.42701 7.90217 7.60189 7.59791 7.79197C6.282 8.62835 4.9965 9.90573 4.37277 11.358C5.75715 10.6357 6.96658 9.92854 8.54872 9.65482C10.07 9.3963 11.6521 9.47233 13.1278 9.92094C13.4701 10.0198 13.8048 10.1414 14.1547 10.1795C14.2992 10.1947 14.4437 10.1947 14.573 10.1338C14.6947 10.073 14.786 9.96656 14.8773 9.86011C15.3337 9.34308 15.9042 8.91728 16.5355 8.63595C16.6344 8.59033 16.7409 8.54471 16.8397 8.48389C17.6765 8.79563 18.4751 9.1834 19.2282 9.66242C19.6465 9.92854 20.0573 10.2251 20.5365 10.3619C21.0157 10.4988 21.5862 10.438 21.9209 10.0806C22.2479 9.73085 22.286 9.21382 22.2784 8.7348C22.2784 7.69313 22.1795 6.65146 21.9893 5.62499L22.0045 5.63259Z" fill="#5B6C7F"/>
<path d="M22.4761 92.8821C22.6891 93.8781 22.8489 94.8666 22.8717 95.8322C22.8793 96.3416 22.8717 96.9195 23.2444 97.2769C23.6171 97.6342 24.4462 97.2997 24.2484 96.8283C24.6288 97.4365 25.0167 98.0372 25.397 98.6455C25.2525 98.5923 25.3818 98.349 25.5263 98.3718C25.6785 98.3946 25.7621 98.5466 25.8306 98.6835C26.0968 99.2386 26.363 99.7936 26.6293 100.356C28.0136 100.873 29.4056 101.39 30.79 101.915C32.6536 102.614 33.7413 103.869 35.8179 104.401C38.29 105.04 40.8457 105.306 43.3863 105.466C48.1707 105.77 53.0541 105.671 57.6332 104.257C60.4628 103.382 63.1326 102.021 65.9698 101.162C68.3507 100.44 70.8532 100.067 73.0743 98.942C75.2877 97.8167 77.235 95.6801 77.1817 93.1938C77.1665 92.2814 76.8775 91.3918 76.4896 90.5706C74.124 85.4915 68.2518 82.8835 62.661 82.4501C57.0703 82.0168 51.51 83.3093 45.9268 83.8492C44.1089 84.0241 42.1388 84.0849 40.6175 83.0736C39.933 82.6174 39.3701 81.9635 38.6247 81.6214C37.8792 81.2716 36.7991 81.3857 36.472 82.146C36.685 81.5073 35.8483 81.0055 35.1713 81.0283C34.5019 81.0511 33.7793 81.302 33.186 80.9903C32.8894 80.8382 32.6384 80.5493 32.3037 80.5341C31.6875 80.5113 31.33 81.4085 30.7139 81.3705C30.2043 81.3324 29.9381 80.6557 29.4284 80.5721C29.1546 80.5265 28.896 80.6709 28.645 80.7774C27.3367 81.3628 25.7317 81.2412 24.5299 80.4504C24.4234 81.0131 24.3093 81.5758 24.2028 82.1384C23.3281 81.5301 22.0274 82.2525 21.6623 83.2561C20.5365 86.3431 21.784 89.681 22.4761 92.8897V92.8821Z" fill="#BA9E80"/>
<path d="M13.6755 82.7695C13.1278 83.5603 12.9681 84.5868 12.3748 85.3471C11.5076 86.442 9.87224 86.7766 9.13441 87.9627C8.51068 88.9664 8.77691 90.3806 9.61362 91.217C10.4503 92.0534 11.7358 92.3423 12.8996 92.1218C13.4397 92.0229 13.9569 91.8176 14.5046 91.7644C17.182 91.4983 19.4488 94.745 22.0578 94.0759C23.3129 93.7565 24.18 92.5704 24.5375 91.3234C24.8874 90.0841 24.8265 88.7611 24.8265 87.4685C24.8265 85.8489 24.9178 84.123 24.0963 82.7315C23.3509 81.4617 21.9209 80.6786 20.4604 80.4733C19 80.268 17.5015 80.5797 16.1247 81.1044C15.1892 81.4617 14.2536 81.9484 13.6831 82.7695H13.6755Z" fill="#BA9E80"/>
<path d="M49.2356 109.009C49.3878 108.066 48.6804 107.07 47.7372 106.903C48.1555 106.736 48.5739 106.568 48.9922 106.401C47.1971 105.74 46.5734 103.573 45.3944 102.059C44.5805 101.018 43.4623 100.265 42.3518 99.5428C42.0475 99.3451 41.7357 99.1398 41.3858 99.0485C40.0546 98.6912 38.7844 100.121 38.7539 101.497C38.7235 102.881 39.507 104.128 40.2676 105.283C41.6824 107.435 43.0972 109.587 44.512 111.746C45.2879 112.932 46.1018 114.217 46.0257 115.632C45.478 115.715 44.9304 115.799 44.3751 115.883C43.9187 116.171 43.972 116.909 44.3523 117.304C44.7326 117.692 45.2955 117.821 45.828 117.935C46.7712 118.133 47.8589 118.293 48.5967 117.669C49.0835 117.259 49.2737 116.597 49.365 115.974C49.654 114.05 49.2508 112.028 48.2392 110.362C48.5663 110.355 48.8857 110.347 49.2128 110.332C49.3649 110.051 49.4334 109.724 49.4106 109.412C49.0683 109.374 48.7336 109.237 48.475 109.017C48.726 109.017 48.977 109.017 49.228 109.017L49.2356 109.009Z" fill="#BA9E80"/>
<path d="M63.4825 104.234C64.6311 105.755 66.6012 106.393 68.48 106.751C70.3588 107.108 72.3212 107.298 73.9718 108.256C76.5352 109.739 77.8435 113.1 76.9459 115.928C77.6533 116.324 78.5053 116.468 79.3039 116.324C80.5362 113.411 80.1102 109.861 78.2162 107.321C77.448 106.295 76.4287 105.344 76.2309 104.074C75.7213 104.029 75.2041 103.694 75.1204 103.192C75.0367 102.691 75.5844 102.151 76.0484 102.371C76.2918 102.174 76.1701 101.755 75.9191 101.565C75.6681 101.375 75.3486 101.314 75.0747 101.155C74.4662 100.797 74.2609 100.037 73.9718 99.3907C73.6828 98.7444 73.0819 98.0753 72.3973 98.2426C73.0286 97.7636 72.7548 96.5546 71.9789 96.3949C72.7776 96.5166 73.2492 95.3533 72.8384 94.6537C72.4277 93.9542 71.5834 93.6729 70.8075 93.4448C69.8948 93.1787 68.982 92.9126 68.0692 92.6388C67.1412 92.3651 66.1752 92.0914 65.2244 92.2358C63.4673 92.4944 62.1666 94.1443 61.7939 95.8855C61.4212 97.6191 61.7787 99.4287 62.2122 101.147C62.4861 102.234 62.8055 103.337 63.4749 104.234H63.4825Z" fill="#BA9E80"/>
<path d="M30.2271 99.0106L29.6262 98.8281C28.6145 100.554 29.2763 102.736 29.1318 104.728C28.9644 107.154 27.5877 109.298 26.2641 111.336C25.6176 112.332 24.8798 113.389 23.7388 113.738C23.2368 113.891 22.6435 113.913 22.286 114.301C21.8448 114.795 22.0806 115.647 22.6283 116.027C23.1759 116.407 23.8985 116.407 24.5527 116.278C26.2565 115.943 27.7018 114.856 29.0861 113.799C29.4969 113.488 29.9152 113.168 30.2727 112.796C31.0638 111.982 31.5734 110.94 32.0678 109.922C32.3721 109.298 32.6764 108.675 32.973 108.043C33.2697 107.435 33.9542 106.728 34.4715 107.154C34.2053 107.177 34.327 106.698 34.5856 106.629C34.8442 106.561 35.1941 106.599 35.3082 106.355C35.3234 105.838 35.0192 105.321 34.5476 105.101C35.2245 105.177 35.8787 104.721 36.221 104.135C36.5633 103.55 36.6545 102.85 36.7078 102.166C36.7991 100.835 36.7078 99.3907 35.8939 98.3339C34.8062 96.9196 32.6383 96.6459 31.041 97.4443C29.4436 98.235 30.6606 97.277 30.2119 99.003L30.2271 99.0106Z" fill="#BA9E80"/>
<path d="M85.0924 100.41C85.2826 100.775 85.5716 101.086 85.9139 101.307C85.1837 101.611 84.4459 101.915 83.7157 102.219C84.0352 102.432 84.3546 102.645 84.6817 102.858C83.4799 103.314 82.2476 103.778 80.9545 103.824C79.669 103.862 78.2847 103.405 77.5545 102.348C77.0752 101.664 76.9155 100.813 76.5048 100.083C75.9267 99.0562 74.8922 98.3719 74.1848 97.4366C73.3785 96.3798 73.021 95.0644 72.5494 93.825C71.2715 90.4567 69.0732 87.4381 66.2513 85.1951C68.305 84.1154 70.8608 84.0318 72.983 84.967C75.1052 85.9022 76.7634 87.8411 77.3567 90.0917C77.7142 91.4375 77.699 92.8518 77.9424 94.228C78.1858 95.6042 78.7563 97.0184 79.9353 97.7636C81.5707 98.8053 84.0732 97.9537 84.7349 96.1288C85.8683 96.2201 86.8343 97.2846 86.8039 98.4251C86.2486 98.4783 85.6934 98.5239 85.1381 98.5696C85.7086 99.0106 86.2791 99.4439 86.8495 99.8849C86.3931 100.326 85.7238 100.531 85.1 100.417L85.0924 100.41Z" fill="#BA9E80"/>
<path d="M59.086 115.267C59.8771 116.384 61.7178 116.171 62.7295 115.251C63.7487 114.324 64.1975 112.955 64.7528 111.701C65.27 110.545 65.9014 109.45 66.6468 108.431C67.3162 107.511 68.0768 106.66 68.6093 105.656C69.1493 104.66 69.446 103.466 69.1189 102.379C68.7462 101.147 67.6128 100.257 66.3882 99.8545C65.1635 99.4515 63.8476 99.4515 62.5621 99.4819C62.0449 99.4971 61.5124 99.5123 61.0561 99.748C60.5997 99.9761 60.2346 100.478 60.3334 100.987C60.9343 102.371 61.5353 103.763 62.1286 105.146C62.5013 106.006 62.874 106.88 62.9805 107.808C63.2011 109.845 62.0449 111.853 60.4399 113.122C59.7325 113.685 58.835 114.4 59.086 115.267Z" fill="#BA9E80"/>
<path d="M28.7058 65.7758C28.9264 65.6238 29.0253 65.35 29.0785 65.0839C29.2002 64.4985 29.185 63.8902 29.0405 63.3123C28.934 62.8865 28.7591 62.4759 28.6374 62.0578C28.3864 61.1986 28.3483 60.2938 28.3255 59.3966C28.2571 56.1423 28.4016 52.888 28.7667 49.6565C28.8656 48.7517 28.7743 47.5276 27.8843 47.3451C27.3519 47.2386 26.8194 47.634 26.5912 48.1282C26.363 48.6225 26.3783 49.1927 26.3935 49.7326C26.5304 53.5875 26.9183 57.4805 26.2946 61.2822C26.1348 62.2554 25.9067 63.2591 26.1577 64.2095C26.5912 64.2247 27.0248 64.1867 27.4432 64.0879C27.4127 64.5213 27.3975 64.9851 27.6029 65.3729C27.8083 65.7606 28.3407 66.0039 28.6982 65.7606L28.7058 65.7758Z" fill="#E0D0C1"/>
<path d="M20.1334 22.4058C20.7571 20.9916 22.4533 20.8471 23.8986 22.0485C25.2905 23.2042 25.8915 25.1127 26.713 26.6562C28.394 29.8268 29.3904 33.0735 29.6719 36.6699C29.9989 40.7986 29.5273 44.9425 29.0633 49.0483C28.0593 49.5273 26.9183 49.7174 25.8154 49.5806C25.184 45.9081 24.5527 42.2204 23.3585 38.6848C21.6851 33.735 19.6998 28.8688 19.8976 23.5464C19.9128 23.0978 19.9964 22.7176 20.141 22.3982L20.1334 22.4058Z" fill="#AA4A4D"/>
<path d="M27.4279 68.5587C27.4812 67.8972 27.6865 66.9696 27.6942 66.1028C29.5273 65.5934 31.5887 63.9358 31.9157 61.9894C31.9386 61.8753 31.8701 61.7537 31.7332 61.7537C29.7631 61.7689 28.0517 62.5824 26.8955 64.1335C26.8042 64.1031 26.7053 64.1335 26.6369 64.202C25.9447 64.795 26.3022 65.8595 27.0628 66.0952C27.0476 69.4788 26.4467 72.9687 25.8534 76.2839C25.8306 76.4283 25.8914 76.588 26.0436 76.626C27.9071 77.067 26.5912 78.9831 26.0055 80.0628C25.4655 81.0512 25.2373 82.1613 25.1004 83.2638C25.0547 83.6364 25.6328 83.6288 25.6784 83.2638C25.899 81.5606 26.5836 80.2148 27.4051 78.7398C27.8463 77.9566 27.9528 77.2343 27.6637 76.3903C27.6257 76.2762 27.5192 76.1774 27.3975 76.185C25.8762 76.2762 26.8574 73.6226 26.9563 72.8243C27.1465 71.41 27.2986 69.9882 27.4203 68.5587H27.4279ZM28.683 62.9018C28.7895 62.8333 31.6115 61.5484 31.467 62.3695C31.3301 63.1451 30.6455 63.7534 30.0902 64.2476C30.0217 64.3084 28.5385 65.3349 27.6713 65.6999C27.6257 65.1448 27.4736 64.6506 27.1085 64.2932C27.5572 63.7382 28.0136 63.3276 28.6754 62.8942L28.683 62.9018Z" fill="#505E6D"/>
<path d="M25.4579 83.6592C25.2677 83.5071 24.9254 83.644 25.0091 83.9177C25.5339 85.5981 25.648 87.248 25.4122 88.9816C25.3362 89.5519 25.0699 90.7228 24.6212 91.7797C24.2865 92.4412 23.8757 93.0571 23.3889 93.6273C23.0618 93.8782 22.7043 93.9923 22.3012 93.8858C22.0654 93.825 21.86 94.0379 21.9133 94.2736C21.9741 94.5169 22.073 94.6462 22.2023 94.707C22.1034 94.6766 21.9969 94.6918 21.9361 94.7983C21.7764 95.072 21.7003 95.3381 21.7992 95.5814C21.8068 95.8171 21.8828 96.0984 22.1186 96.1289C22.4457 96.1745 22.6891 95.9996 22.8032 95.7031C22.9173 95.4141 22.6891 95.1176 22.4685 94.9047C22.537 94.8743 22.5446 94.8059 22.5294 94.745C22.6891 94.7146 22.8641 94.6386 23.039 94.5473C23.077 94.5245 23.0999 94.5017 23.1227 94.4713C24.2789 94.0987 24.9558 92.5324 25.3666 91.4071C25.5111 91.0117 25.6252 90.6164 25.7241 90.221C25.8382 89.8484 25.9371 89.4682 26.0208 89.0805C26.3935 87.3849 26.9944 84.8986 25.4503 83.6592H25.4579Z" fill="#505E6D"/>
</svg>
