<svg width="30" height="116" viewBox="0 0 30 116" fill="none" xmlns="http://www.w3.org/2000/svg">
<path d="M1.25862 24.0991C1.31186 23.9242 1.38038 23.7342 1.50969 23.5973C1.63139 23.468 1.79107 23.4072 1.92799 23.3844C2.4148 23.6885 2.67344 24.3272 2.61259 25.0724C2.77993 24.8519 3.03855 24.601 3.18307 24.7226C3.27435 24.7986 3.24396 24.9811 3.22114 25.1332C3.11465 25.8023 3.12219 26.4486 3.24389 27.0265C3.2515 27.0797 3.26675 27.1329 3.28196 27.1861C4.2784 30.5468 4.56742 33.3677 6.10392 36.2646C7.00909 35.375 7.73177 34.1433 8.35549 32.9647C9.38997 30.9955 10.7667 28.0377 12.8508 27.9389C13.4365 27.9084 13.7104 28.6156 13.5887 29.3303C13.467 30.045 13.0638 30.7597 12.6759 31.4364C11.0025 34.341 8.80426 37.0174 6.7277 39.633C6.2561 40.226 5.29008 41.8075 4.63593 41.7923C3.94374 41.7695 3.8068 40.2793 3.56339 39.7622C3.49494 39.6178 3.45686 39.4429 3.42644 39.268C2.76467 35.7172 2.10293 32.1664 1.44878 28.6156C1.44878 28.6156 1.46401 28.6004 1.47162 28.5928C0.84789 27.4294 0.764204 25.7643 1.26623 24.1067L1.25862 24.0991Z" fill="#EADDD0"/>
<path d="M7.60996 48.012C8.33258 50.1638 8.37062 52.574 7.71646 54.7486C7.65561 54.9539 7.58714 55.1744 7.60996 55.3873C7.6556 55.8055 8.03595 56.0868 8.39345 56.2845C10.1886 57.2501 12.2804 57.349 14.2961 57.3566C17.5364 57.3566 20.7844 57.1741 24.0019 56.794C24.3746 56.3377 24.1236 55.6534 23.9487 55.0832C23.4315 53.3648 23.8193 51.5096 24.0019 49.7151C24.0247 49.5099 24.04 49.2893 23.9487 49.1069C23.865 48.9396 23.7053 48.8331 23.5531 48.7343C21.2788 47.3048 18.6317 46.5369 15.9847 46.5293C14.9046 46.5293 13.8321 46.651 12.7672 46.8182C11.0253 47.092 9.30621 47.4873 7.61758 48.0044L7.60996 48.012Z" fill="#EADDD0"/>
<path d="M13.7789 111.174C12.5923 111.075 11.3904 111.128 10.2114 111.326C9.30624 112.003 8.30979 112.558 7.2601 112.983C6.95584 113.105 6.63637 113.227 6.40818 113.462C6.17999 113.698 6.0887 114.101 6.30168 114.36C6.48423 114.58 6.81135 114.603 7.10039 114.611C9.29866 114.633 11.4969 114.443 13.6571 114.056C13.7865 114.033 13.9234 114.002 14.0146 113.911C14.0907 113.835 14.1212 113.729 14.1516 113.63C14.3722 112.809 14.2277 111.896 13.7713 111.181L13.7789 111.174Z" fill="#333333"/>
<path d="M26.2762 110.778C25.1201 110.915 23.9791 111.189 22.8838 111.6C22.1384 112.421 21.294 113.143 20.366 113.751C20.0998 113.926 19.8108 114.101 19.6434 114.375C19.4761 114.649 19.4609 115.052 19.7119 115.249C19.9325 115.424 20.2444 115.386 20.5182 115.333C22.6328 114.938 24.7018 114.344 26.7023 113.554C26.824 113.508 26.9456 113.455 27.0217 113.348C27.0825 113.265 27.0901 113.158 27.0977 113.052C27.151 112.223 26.8467 111.372 26.2686 110.778H26.2762Z" fill="#333333"/>
<path d="M25.1429 85.2537C24.7854 77.3461 25.5384 69.2788 25.47 61.318C25.7058 58.558 25.3254 55.7523 24.3518 53.1595C24.2909 52.9999 24.2301 52.8326 24.1084 52.7109C23.7357 52.3308 23.0968 52.5284 22.61 52.7337C17.8787 54.6802 12.288 54.224 7.97515 51.4716C7.12322 52.7717 6.87975 54.3609 6.66677 55.8968C6.32447 58.3831 5.95181 60.8618 5.86053 63.3633C5.86053 63.3633 5.86053 63.371 5.86053 63.3786C5.83771 63.9184 5.83008 64.4506 5.83769 64.9905C5.89854 68.1003 6.49944 71.1721 6.97104 74.2363C7.2753 76.236 7.54916 78.2509 7.57198 80.281C7.5948 81.9386 7.35897 83.4592 7.73169 85.0788C8.64446 89.0782 8.65204 93.4426 9.03236 97.5256C9.44311 101.905 9.85388 106.285 10.1962 110.664C10.2114 110.839 10.2266 111.014 10.2342 111.189C10.4548 111.25 13.8321 112.025 13.8321 111.151C14.1059 102.643 14.3721 94.1269 14.6459 85.6186C14.76 82.0374 14.8817 78.403 15.7869 74.989C16.1596 75.027 16.5324 75.065 16.9127 75.1031C18.9665 86.3638 21.0278 97.6245 23.0815 108.893C23.2641 109.881 22.8153 111.06 23.4695 111.698C24.1236 112.337 26.0176 112.048 26.2078 111.06C25.6069 102.453 25.5308 93.8532 25.1429 85.2385V85.2537Z" fill="#6D8699"/>
<path d="M23.8574 38.7815C23.2945 35.2154 22.762 31.7407 22.8228 28.129C22.4197 27.3307 21.9253 26.5627 21.6971 25.6959C21.4537 24.7911 21.4613 23.8407 21.5602 22.9207C21.6135 22.434 21.6819 21.9474 21.7807 21.4684C21.834 21.2023 22.0166 20.8525 21.8949 20.594C19.5977 22.0082 16.616 22.4568 13.9538 21.9246C13.5734 21.8486 13.1855 21.7345 12.8584 21.5368C12.6302 21.3924 12.4096 20.9742 12.1814 20.8982C11.5501 20.6929 11.0633 21.7725 10.9264 22.1755C8.21851 29.9767 5.48019 38.0135 6.07349 46.21C6.2028 48.012 6.61352 49.9965 8.13481 51.0914C8.19566 50.1866 9.30621 49.7456 10.2342 49.5479C14.1439 48.704 18.2362 48.5747 22.1991 49.183C22.9674 49.297 23.8117 49.5251 24.3974 49.9661C24.6104 46.2328 24.4431 42.4995 23.8574 38.7967V38.7815Z" fill="#FBB09A"/>
<path d="M29.2656 63.0517C29.0222 60.0331 28.4896 57.0297 27.6681 54.0948C26.9455 51.5096 26.8923 49.3807 26.3675 46.7575C25.9339 44.5677 24.907 41.9369 24.7701 39.7167C24.3822 33.4058 23.8801 27.0265 23.4922 20.7157C20.8908 20.4723 20.9593 20.7005 21.0277 23.0955C21.081 25.0344 21.1419 26.9657 21.1951 28.9046C18.259 29.4977 15.2545 29.7866 12.2499 29.7714C11.9533 29.7714 11.7175 22.1375 11.4588 21.4608C11.1318 20.6016 10.8808 20.7689 9.85388 20.8525C8.72052 20.9362 8.59117 22.4721 8.57596 23.7723C8.53032 29.5129 5.98223 34.5007 5.70079 40.2337C5.51824 43.929 5.26719 45.8603 4.71191 49.5099C4.07297 53.6766 4.12618 59.6529 3.06128 63.7436C2.9624 64.1618 2.87112 64.58 2.77223 64.9982C2.46797 66.2527 2.1181 67.5149 1.65411 68.7315C1.56283 69.0356 1.47156 69.3473 1.38028 69.6515C1.28901 69.9404 1.13692 70.1609 0.946758 70.3282C0.809842 70.5867 0.672881 70.8452 0.520752 71.1037C5.33564 70.8756 10.1505 70.6475 14.973 70.4194C17.3234 70.3054 19.6738 70.1989 22.0242 70.0849C23.8345 70.0012 25.9034 69.9784 27.6681 69.6819C29.585 69.3625 29.4329 68.3437 29.4253 66.6785C29.4253 65.4772 29.3721 64.2758 29.2732 63.0745L29.2656 63.0517Z" fill="#E6E6E6"/>
<path d="M17.9473 51.1447C18.2059 46.4534 18.2667 41.7621 18.1146 37.0707C18.0309 34.4856 18.2135 31.7103 18.0994 29.0187C17.7267 29.0643 17.3616 29.1251 16.9889 29.1631C16.8291 32.0525 16.9965 35.033 16.8671 37.8463C16.6846 41.762 16.6009 45.6854 16.3575 49.6012C15.9315 56.3911 15.2622 63.1886 15.6121 69.9861C16.0532 69.9633 16.4868 69.9404 16.928 69.9176C16.6922 63.6752 17.6126 57.3643 17.9473 51.1447Z" fill="#333333"/>
<path d="M21.5906 58.4896C22.1915 53.8211 22.4577 49.3502 22.4653 44.6513C22.4805 39.3821 23.0511 34.2878 23.8498 29.2087C23.652 26.2434 23.4542 23.2704 23.2869 20.3203C20.8224 20.077 20.8908 20.3051 20.9593 22.7002C21.0125 24.639 21.0657 26.5703 21.119 28.5092C20.9821 28.5396 20.8452 28.5548 20.7083 28.5852C20.8072 31.0944 20.6702 33.6491 20.7539 36.105C20.9136 40.7812 20.9288 45.4573 20.6778 50.1334C20.3279 56.5811 19.2631 63.2569 19.5521 69.7807C20.1834 69.7503 20.8148 69.7199 21.4537 69.6819C20.8376 65.9866 21.119 62.2305 21.5982 58.482L21.5906 58.4896Z" fill="#333333"/>
<path d="M26.7784 51.5325C26.4893 49.8293 26.36 48.2174 26.0101 46.3545C25.8047 45.2672 25.4624 44.0735 25.1582 42.8798C25.1506 43.4652 25.143 44.0583 25.143 44.6437C25.1734 49.3427 24.8387 53.8135 24.2682 58.482C23.8118 62.2001 23.4848 65.903 24.1466 69.5603C24.5269 69.5374 24.9148 69.5146 25.2875 69.4842C25.394 63.4623 26.0177 57.4936 26.7784 51.5249V51.5325Z" fill="#333333"/>
<path d="M28.7484 62.6563C28.6876 61.8199 28.5963 60.9836 28.4898 60.1548C28.216 63.1125 28.0334 66.0702 27.9725 69.0432C28.9918 68.5794 28.893 67.6442 28.8854 66.2604C28.8854 65.059 28.8321 63.8576 28.7408 62.6563H28.7484Z" fill="#333333"/>
<path d="M10.3864 20.4496C9.7322 20.5028 9.42798 21.0959 9.29107 21.8486C9.3291 22.5329 9.37469 23.2096 9.42793 23.9015C9.84629 29.5813 9.75502 35.2687 9.43555 40.9485C9.10086 46.978 8.72814 53.0075 8.00553 58.9991C7.67845 61.7135 7.43509 64.3671 7.38184 67.1043C7.35902 68.2296 7.30573 69.3322 7.146 70.4194L8.56078 70.351C8.71291 61.0444 9.755 51.8366 10.181 42.5452C10.508 35.3371 11.2078 28.2127 11.9 21.0655C11.5958 20.2215 11.3524 20.3811 10.3864 20.4648V20.4496Z" fill="#333333"/>
<path d="M4.75006 64.5647C4.88698 62.0404 5.28247 59.5313 5.56391 57.0145C6.20285 51.35 6.53755 45.6246 6.81138 39.9296C6.87223 38.6446 6.90266 37.3596 6.91027 36.067C6.68208 37.2912 6.51475 38.5381 6.4539 39.8231C6.27895 43.5184 6.04307 45.4497 5.51823 49.0993C4.91732 53.266 4.96301 59.2423 3.95896 63.333C3.86769 63.7512 3.77642 64.1694 3.68514 64.5876C3.3961 65.8421 3.06901 67.1043 2.62783 68.3209C2.53656 68.625 2.46052 68.9367 2.36924 69.2409C2.28557 69.5298 2.14102 69.7503 1.95846 69.9176C1.82915 70.1761 1.69982 70.4346 1.5553 70.6931L4.39249 70.5487C4.76521 68.587 4.64357 66.6025 4.75006 64.5647Z" fill="#333333"/>
<path d="M12.8585 42.5376C12.3869 51.7834 11.398 60.9455 11.2383 70.2065C11.8012 70.1761 12.3716 70.1457 12.9345 70.1229C12.5542 62.9604 13.3453 55.8056 13.7256 48.6355C13.9538 44.3776 14.0983 40.1197 14.2656 35.8617C14.3493 33.71 14.2808 31.5202 14.3569 29.3456C14.0983 29.3532 13.8321 29.3608 13.5735 29.3684C13.1552 33.748 13.079 38.1428 12.8508 42.5376H12.8585Z" fill="#333333"/>
<path d="M14.8286 7.42481C14.357 7.59969 13.9843 7.97224 13.6572 8.36002C12.1663 10.124 11.2688 12.3822 11.1547 14.6861C11.1242 15.2411 11.147 15.8038 11.322 16.3284C11.5121 16.8911 11.8849 17.3777 12.2804 17.8263C13.2008 18.868 14.281 19.7728 15.4752 20.4951C15.6805 20.6168 15.9011 20.7384 16.1369 20.7612C16.4336 20.7917 16.715 20.6624 16.9812 20.5331C17.7114 20.1834 18.4264 19.7956 19.1186 19.3774C19.7423 18.9973 20.3737 18.5715 20.7692 17.948C21.2408 17.2028 21.3169 16.2828 21.3549 15.4008C21.3854 14.7545 21.4005 14.1006 21.4081 13.4467C21.4081 12.9753 21.4082 12.5039 21.3245 12.0401C21.1343 11.0744 20.5639 10.2077 19.8413 9.53857C19.1186 8.86186 18.2591 8.36004 17.3844 7.90383C16.5933 7.49324 15.6653 7.10546 14.8286 7.4172V7.42481Z" fill="#EADDD0"/>
<path d="M12.3184 10.9757C12.0978 11.1506 11.9152 11.3787 11.8163 11.7512C11.6946 12.1998 11.7175 12.6788 11.7555 13.1427C11.8468 14.3972 11.9989 15.667 12.4781 16.8303C12.691 17.3398 13.2387 18.237 13.0562 18.8148C12.8356 19.4991 12.0293 18.5563 11.6946 18.2142C10.7362 17.2257 10.1125 15.9407 9.77022 14.6177C9.37468 13.1199 9.29859 11.5231 9.64849 10.01C10.006 8.49696 10.8046 7.0827 11.9912 6.07905C13.581 4.73324 15.8097 4.21622 17.8559 4.6192C19.902 5.02218 21.7351 6.29956 22.9217 8.01033C23.3325 8.6034 23.6748 9.26491 23.8269 9.97203C23.9638 10.5803 23.9562 11.219 23.8801 11.8425C23.5835 14.4429 22.1307 16.8836 19.9856 18.389C20.3203 16.5034 20.2899 14.5493 19.902 12.6712C19.8487 12.4203 19.7879 12.1694 19.6358 11.9641C19.4912 11.7664 19.2783 11.6372 19.0653 11.5155C18.3731 11.1278 17.62 10.854 16.9431 10.4358C16.2661 10.0252 15.6423 9.43978 15.4141 8.67944C14.8208 9.33334 14.1135 9.88078 13.3833 10.3674C13.003 10.6183 12.615 10.7552 12.3107 10.9909L12.3184 10.9757Z" fill="#333333"/>
<path d="M24.2377 4.50511C24.0019 5.98778 22.9217 7.31078 21.5145 7.82781C20.1073 8.35245 18.4264 8.05592 17.2778 7.09028C16.7834 5.25785 16.3726 3.04524 17.681 1.66901C18.4644 0.840239 19.6662 0.57411 20.792 0.35361C21.4309 0.224351 22.1307 0.102703 22.7164 0.38403C23.2489 0.634944 23.5911 1.15959 23.8269 1.69943C24.2149 2.57383 24.3898 3.56227 24.2377 4.5127V4.50511Z" fill="#333333"/>
<path d="M0.148128 23.9395C0.132915 24.9508 0.231829 26.0533 0.939228 26.768C1.62381 27.4599 2.68106 27.5816 3.64708 27.6728C4.53703 27.7564 5.51829 27.8096 6.2409 27.2774C7.13846 26.6159 7.25256 25.3461 7.2906 24.236C7.31342 23.5441 7.33621 22.8522 7.35903 22.1603C7.37424 21.7117 7.33617 21.1718 6.94064 20.9589C6.79611 20.8829 6.62125 20.8677 6.45391 20.8525C5.03911 20.7461 3.62424 20.632 2.20183 20.6244C1.55528 20.6244 0.787096 20.708 0.460018 21.2631C0.330709 21.4912 0.292676 21.7573 0.269857 22.0082C0.201399 22.6469 0.163348 23.2856 0.155742 23.9319L0.148128 23.9395Z" fill="#C69C6D"/>
<path d="M6.82662 20.7688C6.82662 20.7688 6.76578 20.746 6.73535 20.746C4.83374 20.5255 2.89407 20.3962 1.00767 20.7156C0.847935 20.746 0.680619 20.7764 0.558915 20.8905C0.444819 21.0045 0.414378 21.2174 0.543688 21.3239C1.36518 21.3771 2.17906 21.4227 3.00056 21.4759C4.24802 21.552 5.57152 21.6204 6.68967 21.0653C6.81137 21.0045 6.93311 20.8448 6.82662 20.7688Z" fill="#C7B299"/>
<path d="M6.08875 25.0115C5.81491 24.5629 5.53347 24.1295 5.22921 23.7037C5.13033 23.5669 4.97062 23.5745 4.87173 23.7037C4.5979 24.0611 4.30884 24.388 3.99697 24.7074C3.76117 24.3728 3.54822 24.0383 3.35806 23.6733C3.29721 23.5669 3.12232 23.5364 3.03865 23.6353C2.80285 23.9166 2.33119 24.791 1.93565 24.2512C1.79113 24.0535 1.77596 23.985 1.5934 23.8786C1.52494 23.8406 1.44886 23.8558 1.38801 23.9014C1.14461 24.0991 0.946871 24.4032 0.75671 24.6389C0.642613 24.7834 0.82509 24.9811 0.962006 24.8442C1.48685 24.312 1.57812 24.3044 2.00409 24.9355C2.07254 25.0419 2.20186 25.0571 2.29313 24.9735C2.59739 24.6998 2.87122 24.4108 3.14505 24.1067C3.34282 24.4565 3.55588 24.791 3.79929 25.118C3.87535 25.2168 4.01982 25.2624 4.1187 25.156C4.43817 24.829 4.72727 24.4945 5.02392 24.1523C5.25211 24.5097 5.47269 24.8747 5.67806 25.2472C5.83019 25.5209 6.25609 25.27 6.08875 25.0039V25.0115Z" fill="#FBB03B"/>
<path d="M1.87483 26.0836C1.69212 26.0836 1.69212 26.3653 1.87483 26.3653C2.05753 26.3653 2.05753 26.0836 1.87483 26.0836Z" fill="#FBB03B"/>
<path d="M3.54079 26.2737C3.34285 26.2737 3.34285 26.5782 3.54079 26.5782C3.73872 26.5782 3.73872 26.2737 3.54079 26.2737Z" fill="#FBB03B"/>
<path d="M5.58684 26.1979C5.58684 26.1979 5.58684 26.2436 5.58684 26.2664C5.59445 26.4948 5.92939 26.4948 5.937 26.2664C5.937 26.2436 5.937 26.2207 5.937 26.1979C5.94461 25.9695 5.5716 25.9695 5.57922 26.1979H5.58684Z" fill="#FBB03B"/>
<path d="M1.39562 20.6016C1.15982 20.3811 1.0761 20.0541 1.05328 19.7348C1.01524 19.1113 1.19784 18.4726 1.57056 17.9708C1.7455 17.7351 1.9661 17.5222 2.23993 17.4233C2.51376 17.3169 2.84081 17.3397 3.069 17.5222C3.15268 16.8759 3.79166 16.3513 4.44582 16.4045C5.09997 16.4577 5.64758 17.0736 5.62476 17.7275C5.97466 17.5298 6.45393 17.5982 6.73537 17.8796C7.01681 18.1685 7.0776 18.6475 6.87223 18.9973C7.08521 19.0885 7.21458 19.3318 7.21458 19.5599C7.21458 19.788 7.11564 20.0161 6.97112 20.2062C6.39303 20.9894 5.29771 21.1566 4.32409 21.149C3.60908 21.1414 2.90164 21.073 2.19424 20.9437C1.9052 20.8905 1.60099 20.8145 1.38801 20.6168L1.39562 20.6016Z" fill="#8CC67C"/>
<path d="M2.35431 19.7957C2.36953 19.5978 2.07261 19.6054 2.04977 19.7957C2.03455 19.9784 2.04981 20.1459 2.08788 20.321C2.12594 20.4732 2.38477 20.4428 2.36955 20.2829C2.34671 20.1155 2.3467 19.9556 2.35431 19.7881V19.7957Z" fill="#4C7940"/>
<path d="M2.30845 18.5107C2.2171 18.6325 2.18663 18.762 2.20186 18.9066C2.21708 19.0741 2.48352 19.0817 2.47591 18.9066C2.46069 18.8229 2.47597 18.7467 2.53687 18.6782C2.66629 18.5184 2.43788 18.3433 2.31607 18.5031L2.30845 18.5107Z" fill="#4C7940"/>
<path d="M4.11864 19.9555C4.11864 20.0773 4.09584 20.1914 4.06539 20.3132C4.01971 20.4807 4.25569 20.5416 4.32421 20.3817C4.38511 20.2371 4.41556 20.1077 4.41556 19.9555C4.41556 19.7652 4.13387 19.7652 4.11864 19.9555Z" fill="#4C7940"/>
<path d="M4.25581 18.5411C4.18729 18.3889 3.92085 18.5031 3.98176 18.6553C4.03505 18.7923 4.05786 18.9217 4.05025 19.074C4.03502 19.2338 4.30146 19.2719 4.3243 19.112C4.35475 18.9065 4.33954 18.7314 4.24819 18.5411H4.25581Z" fill="#4C7940"/>
<path d="M4.09589 17.5222C3.91318 17.5222 3.91318 17.8115 4.09589 17.8115C4.2786 17.8115 4.2786 17.5222 4.09589 17.5222Z" fill="#4C7940"/>
<path d="M5.49555 19.9478C5.47271 20.1001 5.45742 20.2523 5.43458 20.4045C5.41174 20.572 5.6402 20.6481 5.69349 20.4731C5.74678 20.3132 5.77723 20.1533 5.79246 19.9783C5.80769 19.8108 5.51838 19.7727 5.49555 19.9402V19.9478Z" fill="#4C7940"/>
<path d="M5.56411 18.8681C5.47275 18.7006 5.23679 18.8453 5.32054 19.0127C5.36621 19.1117 5.39665 19.1878 5.40427 19.302C5.41949 19.4847 5.69355 19.4847 5.68594 19.302C5.67833 19.1497 5.64024 19.0051 5.57173 18.8681H5.56411Z" fill="#4C7940"/>
<path d="M5.10771 17.6515C4.91739 17.6515 4.91739 17.9484 5.10771 17.9484C5.29803 17.9484 5.29803 17.6515 5.10771 17.6515Z" fill="#4C7940"/>
<path d="M2.69636 17.6895C2.51365 17.6895 2.51365 17.9787 2.69636 17.9787C2.87907 17.9787 2.87907 17.6895 2.69636 17.6895Z" fill="#4C7940"/>
<path d="M1.57106 18.3362C1.44925 18.222 1.31984 18.1078 1.19803 17.9936C1.05339 17.8642 0.855432 18.0621 0.984851 18.2068C1.09904 18.3286 1.21329 18.458 1.32749 18.5798C1.47975 18.7396 1.73093 18.4884 1.57106 18.3362Z" fill="#8CC67C"/>
<path d="M2.52164 16.914C2.49119 16.7618 2.23237 16.7999 2.25521 16.9521C2.27805 17.1272 2.29324 17.3099 2.31608 17.485C2.34653 17.6829 2.64344 17.5991 2.61299 17.4012C2.59015 17.2414 2.55209 17.0815 2.52164 16.914Z" fill="#8CC67C"/>
<path d="M4.53732 16.0701C4.53732 15.8798 4.25564 15.8798 4.24803 16.0701C4.24803 16.2299 4.23279 16.3974 4.23279 16.5573C4.23279 16.7628 4.56018 16.7628 4.55256 16.5573C4.55256 16.3974 4.54494 16.2299 4.53732 16.0701Z" fill="#8CC67C"/>
<path d="M6.17247 17.279C6.17247 17.4313 6.14959 17.5759 6.12675 17.7282C6.08868 17.9337 6.40083 18.0174 6.43128 17.8119C6.46173 17.6368 6.46938 17.4617 6.46176 17.279C6.45415 17.0964 6.17247 17.0887 6.17247 17.279Z" fill="#8CC67C"/>
<path d="M7.29882 18.5183C7.0552 18.5792 6.81916 18.6553 6.59077 18.7543C6.42329 18.8304 6.54513 19.1273 6.72023 19.0587C6.941 18.975 7.15415 18.8761 7.37493 18.7999C7.55002 18.739 7.48153 18.4726 7.29882 18.5183Z" fill="#8CC67C"/>
<path d="M7.56524 19.5906C7.3064 19.5144 7.04755 19.4459 6.78871 19.385C6.56032 19.3317 6.46897 19.6819 6.69736 19.7276C6.9562 19.7809 7.22268 19.8265 7.48913 19.8646C7.66423 19.8874 7.74795 19.6438 7.56524 19.5906Z" fill="#8CC67C"/>
<path d="M6.93306 24.236C6.87221 24.0535 6.81891 23.8635 6.87976 23.681C6.94062 23.5137 7.09273 23.3921 7.24486 23.3008C8.06636 23.3388 8.85741 23.7722 9.32141 24.4489C9.36704 24.1828 9.50404 23.8406 9.77787 23.8787C9.94521 23.9015 10.0441 24.0688 10.1277 24.2208C10.4776 24.8519 10.9568 25.4146 11.5273 25.8556C11.5805 25.8936 11.6338 25.9392 11.6871 25.9772C15.3762 28.4331 17.7874 30.7522 21.796 32.5618C22.2676 31.3681 22.2752 29.9538 22.1916 28.646C22.047 26.4562 21.6059 23.24 24.1236 22.1831C24.8386 21.8866 25.683 22.3732 26.0481 23.0499C26.4208 23.7266 26.4359 24.5326 26.4435 25.3081C26.474 28.608 25.6905 31.9611 25.0135 35.2078C24.8614 35.9453 24.8082 37.7702 23.9867 38.0591C23.1043 38.3632 21.8569 37.1315 21.1799 36.7893C20.9898 36.6905 20.8148 36.5612 20.6474 36.4243C17.2397 33.6415 13.8397 30.8662 10.432 28.0834C10.432 28.0758 10.4396 28.0682 10.4472 28.053C8.82706 27.3306 7.51114 25.924 6.92545 24.2436L6.93306 24.236Z" fill="#EADDD0"/>
</svg>
