<svg width="48" height="111" viewBox="0 0 48 111" fill="none" xmlns="http://www.w3.org/2000/svg">
<path d="M38.9016 21.161C38.7723 20.2029 38.605 19.1993 37.9812 18.4693C37.0837 17.4277 35.5472 17.2756 34.178 17.2224C33.501 17.1996 32.8165 17.192 32.1395 17.1843C32.0862 17.0019 32.0026 16.8346 31.8428 16.7281C31.607 16.5609 31.3028 16.5381 31.0137 16.5305C29.3099 16.4772 27.5528 16.6445 25.9403 16.0971C25.21 15.8461 24.0158 15.1466 23.2399 15.5724C22.7607 15.8309 22.35 16.6825 22.563 17.2376C21.0037 17.268 19.4596 17.344 17.9535 17.5493C15.2684 17.9143 14.8956 20.6363 15.063 22.9326C15.6335 30.8706 16.668 38.7705 18.1664 46.5869C18.4022 47.8415 18.6609 49.096 19.1172 50.2898C19.2846 50.7308 19.49 51.1718 19.8322 51.4987C20.0985 51.7572 20.4408 51.9321 20.7907 52.069C21.8404 52.4796 22.9889 52.5328 24.1223 52.5404C27.8342 52.5556 31.531 52.069 35.1897 51.4607C36.7566 51.2022 38.5517 50.746 39.2135 49.3089C39.4721 48.7539 39.5177 48.1228 39.5482 47.5069C40.0578 38.7325 40.073 29.8973 38.9169 21.1838L38.9016 21.161Z" fill="#662E2A"/>
<path d="M2.35261 54.5856C2.79378 55.4068 3.61529 56.0835 4.55089 56.0835C4.88557 56.0835 5.25067 55.9847 5.44844 55.711C5.64621 55.4448 5.63861 55.0799 5.54733 54.7605C5.45605 54.4412 5.28867 54.1522 5.17457 53.8481C5.05287 53.5136 4.99966 53.1638 4.92359 52.8216C4.83232 52.4111 4.70299 52.0081 4.47479 51.6583C4.2466 51.3086 3.89671 51.0272 3.48596 50.936C3.02197 50.8372 2.53517 51.0044 2.11681 51.2325C1.19643 51.742 1.95707 53.8481 2.345 54.5856H2.35261Z" fill="#F0DCCE"/>
<path d="M39.4949 53.6125C39.4949 53.6125 42.6516 102.525 42.18 109.711L38.0497 109.627C38.0497 109.627 32.2384 65.3978 29.9869 63.0788C29.9869 63.0788 29.0056 62.8431 28.6101 62.9799C28.2146 63.1168 26.1304 104.069 26.5868 106.776L22.1979 106.821C22.1979 106.821 16.4626 62.5998 17.5199 52.3731C17.5199 52.3731 19.703 47.3473 27.3018 48.3433C34.9006 49.3394 39.0766 48.4345 39.4949 53.6049V53.6125Z" fill="#3F5663"/>
<path d="M30.6486 23.4344C30.3139 24.5825 29.9792 25.7459 29.9184 26.9396C29.8575 28.1942 30.1009 29.4487 30.2987 30.6881C31.318 37.0674 31.1583 43.576 31.9341 49.9857C32.0254 50.7536 32.1395 51.5368 32.4285 52.2515C34.3682 51.9245 36.285 51.4987 38.179 50.9741C38.5137 50.8829 38.8636 50.7764 39.107 50.5255C39.4036 50.2214 39.4797 49.7652 39.5406 49.3394C40.7348 40.4661 40.7347 31.4713 40.362 22.522C40.324 21.526 40.2708 20.5071 39.8676 19.6023C39.1831 18.0512 37.5857 17.0932 35.9655 16.6065C35.319 16.4164 34.6344 16.2796 33.9726 16.3936C32.5807 16.6293 32.3372 17.671 32.0025 18.8267C31.5538 20.3626 31.105 21.9061 30.6562 23.442L30.6486 23.4344Z" fill="#998675"/>
<path d="M45.9832 34.4061C45.717 30.0037 44.1729 25.7914 42.644 21.6476C42.2484 20.5831 41.8301 19.4806 41.0238 18.6822C40.2175 17.8838 38.894 17.4809 37.9128 18.0587C36.924 18.6366 36.1329 19.6631 36.1937 20.8036C36.2698 22.1494 35.6765 23.1378 36.4219 24.2859C36.3687 24.5141 37.3195 25.2364 37.3803 25.5177C37.7607 27.3426 37.9204 28.8252 38.3996 30.6272C38.5517 31.1975 39.1298 32.0947 39.3884 32.6345C39.609 33.0984 39.9133 33.5166 40.1491 33.9728C40.9097 35.4402 41.1835 36.824 40.9249 38.4588C40.8489 38.9454 40.7424 39.432 40.6891 39.9262C40.537 41.3101 40.788 42.7015 41.039 44.0701C41.0771 44.2754 41.1151 44.4883 41.1683 44.6936C41.0999 45.4539 41.7084 46.5489 41.5943 47.3016C41.4954 47.9707 41.3813 48.6398 41.1683 49.2861C41.0086 49.7727 40.8184 50.936 40.8413 51.4455C40.9097 52.6012 41.3585 52.4263 42.18 52.4111C42.4386 52.4111 42.72 52.3807 42.9254 52.221C43.1004 52.0842 43.1917 51.8789 43.2753 51.6736C44.1273 49.5522 44.538 47.2788 44.9411 45.0282C45.5725 41.5154 46.2038 37.9646 45.9908 34.4061H45.9832Z" fill="#F0DCCE"/>
<path d="M39.1983 55.0798C39.0538 55.7718 39.1146 56.5854 39.6319 57.072C39.9894 57.4065 40.499 57.5282 40.9934 57.5586C41.6399 57.6042 42.2941 57.5206 42.9102 57.3153C43.0624 57.2696 43.2145 57.2012 43.3057 57.0796C43.3894 56.9655 43.4046 56.8134 43.4198 56.669C43.4731 56.0531 43.4959 55.4372 43.4959 54.8137C43.4959 54.426 43.4807 54.0154 43.2753 53.6808C43.0547 53.3159 42.6364 53.103 42.218 52.9889C41.6475 52.8368 40.5979 52.6316 40.1491 53.103C39.6547 53.62 39.3428 54.3955 39.1983 55.0798Z" fill="#F0DCCE"/>
<path d="M43.8762 50.3582C44.0512 50.6547 44.036 51.0121 44.0208 51.3542C43.9903 52.3731 44.0208 53.392 44.1197 54.4032C44.1501 54.6845 44.1197 55.0571 43.8534 55.1407C43.747 55.1712 43.6329 55.1407 43.5188 55.1255C43.0243 55.0343 42.5147 55.0799 42.0431 55.2548C41.929 55.2928 41.8149 55.346 41.7008 55.3232C41.5943 55.3004 41.5106 55.2092 41.4118 55.1559C41.2444 55.0571 41.0314 55.0647 40.8489 54.9963C40.712 54.9431 40.5979 54.8518 40.4838 54.7606C40.1111 54.4564 39.7307 54.1523 39.358 53.8558C39.2743 53.7873 39.1831 53.7113 39.1527 53.6124C39.0918 53.4224 39.2287 53.2323 39.3428 53.065C39.571 52.7457 39.746 52.3959 39.8601 52.0157C39.9057 51.8713 39.9361 51.7116 39.8981 51.5671C39.8677 51.4531 39.7916 51.3618 39.7536 51.2478C39.6014 50.784 40.1187 50.1985 40.3925 49.8792C40.674 49.5522 40.9249 49.4305 41.3509 49.499C41.8377 49.575 42.3321 49.6815 42.8265 49.7651C43.2297 49.8411 43.6709 49.978 43.8915 50.3506L43.8762 50.3582Z" fill="#262626"/>
<path d="M39.1603 52.1221C39.107 52.183 39.0538 52.2362 39.0157 52.3046C38.9397 52.4187 38.9092 52.5555 38.894 52.7C38.8788 52.8673 38.8864 53.0574 38.9853 53.1942C39.107 53.3615 39.358 53.4223 39.5558 53.3539C39.7535 53.2855 39.9133 53.1182 39.997 52.9281C40.0882 52.738 40.1187 52.5251 40.1415 52.3122C40.1643 52.0309 40.3088 51.3694 39.8981 51.3238C39.5253 51.2781 39.358 51.9092 39.1603 52.1373V52.1221Z" fill="#F0DCCE"/>
<path d="M44.3859 47.8339C44.3631 48.0848 42.9407 48.4422 42.7581 48.4954C42.5071 48.5714 42.2637 48.6475 42.0127 48.7083C41.7997 48.7615 41.3509 49.02 41.2749 48.7387C41.2596 48.6703 41.176 48.6779 41.1456 48.7311C41.0315 48.906 41.0314 48.8984 41.0391 49.0961C41.0391 49.1645 41.0847 49.2481 41.1532 49.2786C41.7237 49.5447 42.7353 49.0352 43.2906 48.8527C43.7165 48.7083 44.8195 48.5258 44.8803 47.9479C44.9107 47.6286 44.4239 47.5145 44.3935 47.8339H44.3859Z" fill="#5C5C5C"/>
<path d="M44.2033 49.248C44.2033 49.248 44.2793 49.248 44.3098 49.2404C44.3554 49.2176 44.3782 49.172 44.401 49.134C44.4695 48.9971 44.538 48.8602 44.5532 48.7158C44.5684 48.5637 44.5151 48.3965 44.3782 48.328C44.2793 48.2748 44.1576 48.2748 44.0435 48.2748C43.1308 48.2824 42.256 47.925 41.3508 47.7653C41.2672 47.7501 41.1683 47.7425 41.1075 47.7958C41.077 47.8186 41.0618 47.8566 41.0466 47.8946C40.9553 48.1075 40.7956 48.4345 41.001 48.5941C41.2292 48.7766 41.7616 48.8222 42.043 48.8907C42.7504 49.0655 43.473 49.1872 44.2033 49.2556V49.248Z" fill="#262626"/>
<path d="M41.0999 48.2142C41.1075 48.3056 41.1912 48.3817 41.2826 48.4045C41.3815 48.435 41.4881 48.4274 41.5718 48.3665C41.6556 48.3056 41.6861 48.1838 41.6328 48.1C41.5186 47.9097 41.077 47.9402 41.0999 48.2142Z" fill="#5C5C5C"/>
<path d="M42.0278 48.3053C42.0278 48.3053 42.0126 48.3815 42.0202 48.4195C42.0354 48.5033 42.0583 48.5946 42.1268 48.6479C42.1877 48.6936 42.2791 48.6936 42.34 48.6555C42.4085 48.6175 42.4465 48.5413 42.4541 48.4652C42.4618 48.2521 42.1496 48.0618 42.0278 48.3053Z" fill="#5C5C5C"/>
<path d="M42.7429 48.7086C42.7809 48.7619 42.8418 48.8 42.9028 48.8228C42.9713 48.838 43.0322 48.838 43.1007 48.838C43.1311 48.838 43.1616 48.838 43.192 48.8228C43.4813 48.7162 43.1692 48.3813 43.0169 48.3204C42.7961 48.229 42.621 48.5259 42.7352 48.7086H42.7429Z" fill="#5C5C5C"/>
<path d="M43.6404 48.8303C43.6404 48.8303 43.7242 48.876 43.7699 48.8836C43.9221 48.9064 44.0591 48.914 44.1124 48.739C44.1429 48.6324 44.1048 48.5334 44.0059 48.4801C43.9145 48.4269 43.7622 48.4269 43.6709 48.4801C43.5719 48.541 43.5567 48.739 43.6404 48.8227V48.8303Z" fill="#5C5C5C"/>
<path d="M44.3706 47.37C44.3478 47.4917 41.6627 47.408 41.5943 47.0659C41.5715 46.9746 41.4498 46.9746 41.427 47.0659C41.252 47.773 42.5603 47.6893 42.9559 47.7274C43.3742 47.7654 44.614 48.0315 44.7281 47.4232C44.7738 47.1951 44.4087 47.1419 44.3706 47.37Z" fill="#1F1F1F"/>
<path d="M25.6283 26.05C26.0467 26.5062 26.4955 26.9548 26.7084 27.5327C26.853 27.9129 26.8834 28.331 26.9138 28.734C27.4767 36.5428 27.6821 44.3743 27.5376 52.1983C27.5376 52.3579 27.5224 52.5252 27.4159 52.6393C27.317 52.7381 27.1572 52.7533 27.0127 52.7685C25.4001 52.8902 23.78 53.0194 22.1674 53.1411C21.1481 53.2171 20.106 53.2932 19.1096 53.0651C18.1132 52.8293 17.1471 52.2363 16.7288 51.301C16.5386 50.8829 16.4702 50.4191 16.4093 49.9629C15.5498 43.8801 14.9337 37.7669 14.5762 31.6385C14.4164 28.9545 14.3099 26.2401 14.9033 23.6169C15.4966 21.0013 16.8657 18.4542 19.1172 16.9867C19.4367 16.7738 20.2354 16.2644 20.6461 16.4621C20.996 16.6293 20.9808 17.154 21.0645 17.5037C21.3231 18.5682 21.6806 19.6099 22.1142 20.6135C22.9737 22.6056 24.1679 24.4533 25.6283 26.0576V26.05Z" fill="#998675"/>
<path d="M8.65837 22.4079C6.60462 24.8562 5.31914 27.8596 4.29227 30.8857C2.54279 36.0561 1.46269 41.4469 1.07476 46.891C1.03672 47.4688 1.03669 48.1227 1.46265 48.5105C2.13962 49.1188 3.27301 48.5409 4.10972 48.8983C4.3151 46.4804 4.99206 44.1005 6.095 41.9335C6.70351 40.7398 7.43373 39.6145 7.95097 38.3751C8.44539 37.1966 8.74202 35.9268 9.35815 34.8091C10.0884 33.4785 11.2294 32.4216 12.3855 31.4408C12.9636 30.9465 13.5569 30.4599 13.9677 29.8212C14.3632 29.213 14.561 28.4982 14.7588 27.8063C15.1391 26.4529 15.527 25.0995 15.9073 23.7461C16.3029 22.3547 17.8165 17.5113 14.8881 18.2564C12.4388 18.8723 10.2557 20.5146 8.65075 22.4231L8.65837 22.4079Z" fill="#F0DCCE"/>
<path d="M41.2368 102.647C41.5791 102.647 41.967 102.678 42.1724 102.959C42.2941 103.126 42.3093 103.339 42.3245 103.537C42.3702 104.122 42.4082 104.715 42.4538 105.301C42.5071 106.046 42.6364 106.92 43.2981 107.278C43.6176 107.452 43.9979 107.46 44.363 107.46C44.8727 107.46 45.3823 107.468 45.8843 107.475C46.2571 107.475 46.6374 107.483 46.9721 107.635C47.3904 107.825 47.6947 108.228 47.824 108.677C47.9533 109.118 47.9305 109.597 47.824 110.045C47.8012 110.144 47.7784 110.243 47.7175 110.319C47.6415 110.418 47.5197 110.471 47.398 110.509C47.0785 110.608 46.7363 110.623 46.4016 110.638C43.7926 110.73 41.1836 110.676 38.5822 110.479C38.1942 110.448 37.753 110.387 37.5172 110.083C37.4031 109.931 37.3499 109.741 37.3043 109.559C36.8707 107.749 36.3458 105.438 36.6501 103.575C36.7794 102.807 37.2586 102.67 37.9736 102.655C39.0613 102.632 40.1567 102.647 41.2444 102.655L41.2368 102.647Z" fill="#3D322B"/>
<path d="M21.3764 106.076C21.5133 105.848 21.6578 105.612 21.8708 105.453C22.1066 105.278 22.4033 105.209 22.6923 105.156C23.6279 104.989 24.6091 104.974 25.5219 105.255C26.4347 105.536 27.2638 106.152 27.6669 107.011C27.8799 107.46 27.9636 107.947 28.0472 108.433C28.1233 108.882 28.1842 109.391 27.9332 109.771C27.6821 110.152 27.1953 110.288 26.7466 110.38C25.7045 110.593 24.6471 110.722 23.5822 110.768C22.7455 110.798 21.4524 110.973 20.6842 110.57C19.2085 109.802 20.8211 107.034 21.384 106.084L21.3764 106.076Z" fill="#3D322B"/>
<path d="M32.4362 7.06413C32.3905 6.02246 31.9646 4.29647 31.4549 3.37645C31.1203 2.77578 30.2151 1.94702 29.7663 1.65809C27.9103 0.456743 25.1492 -0.121117 22.989 2.5629C20.3952 5.71833 20.6842 10.3564 22.6847 13.9148C23.2019 14.8273 23.8713 15.6788 24.7384 16.2643C25.6056 16.8498 26.6857 17.1691 27.7201 16.9942C28.8611 16.7965 29.8424 16.021 30.4813 15.063C31.1278 14.1049 31.8504 12.82 32.0786 11.687C32.3905 10.1663 32.5122 8.60762 32.4362 7.05652V7.06413Z" fill="#F0DCCE"/>
<path d="M29.8347 21.2598C29.6978 19.6327 29.7358 17.9979 29.9336 16.3784C29.9792 16.0134 30.0324 15.6409 29.9944 15.2683C29.964 14.9946 29.8879 14.7284 29.8119 14.4623C29.6902 14.0365 29.5609 13.6031 29.3022 13.2382C28.9828 12.7972 28.5036 12.531 28.0091 12.3409C27.5604 12.1737 26.9062 11.9076 26.4194 12.0064C25.4458 12.2041 24.5102 12.6907 24.0005 13.5727C23.5365 14.3787 23.4529 15.3747 23.7039 16.2719C23.8408 16.7434 24.0614 17.2072 24.0234 17.6938C23.9701 18.3021 23.5137 18.8267 23.4757 19.435C23.4605 19.6707 23.5137 19.9064 23.4985 20.1421C23.4757 20.5223 23.2855 20.8948 23.3388 21.2674C23.4529 22.0201 24.4493 22.3699 24.5862 23.1226C24.6167 23.2823 24.609 23.4572 24.7155 23.5712C24.8296 23.6929 25.0122 23.6853 25.1796 23.7157C25.4686 23.7765 25.7044 23.9742 25.9554 24.1339C26.2064 24.2936 26.5183 24.4152 26.7921 24.3088C26.9367 24.2479 27.0507 24.1339 27.1876 24.0655C27.4767 23.921 27.8494 23.997 28.1309 23.8298C28.2526 23.7537 28.3362 23.6473 28.4199 23.5332C28.861 22.9706 29.2794 22.3927 29.6826 21.7996C29.7358 21.7236 29.789 21.6476 29.8119 21.5563C29.8423 21.4499 29.8347 21.3434 29.8271 21.237L29.8347 21.2598ZM25.9858 15.1238C25.8033 15.1238 25.5903 15.0934 25.3925 15.025C25.2708 15.0326 25.1796 14.9717 25.1187 14.8805C25.0883 14.8577 25.0579 14.8425 25.035 14.8197C24.9057 14.7284 24.8297 14.5992 24.8753 14.4015C24.8753 13.9757 25.3469 13.8236 25.6512 13.6259C26.0543 13.3674 26.3509 12.8656 26.8986 12.9568C27.1496 13.0024 27.2789 13.1469 27.4083 13.3446C27.4311 13.3826 27.4615 13.413 27.4919 13.451C27.8798 13.6259 28.3134 13.8388 28.4275 14.1962C28.8154 15.4051 26.5715 15.1238 25.9934 15.1162L25.9858 15.1238Z" fill="#8F8D8B"/>
<path d="M4.52044 48.8603C4.84751 49.3393 4.61932 49.9096 4.7106 50.4418C4.78666 50.8676 5.06809 51.301 4.89314 51.6964C4.7182 52.0918 4.04885 52.2742 3.58486 52.0537C3.48597 52.0081 3.3795 51.9397 3.2654 51.9473C3.09806 51.9625 3.03719 52.1222 2.96112 52.2362C2.73293 52.5708 2.10158 52.6316 1.66802 52.4187C1.24205 52.2134 0.99864 51.818 0.899757 51.4303C0.800873 51.0425 0.82372 50.6471 0.785688 50.2517C0.709623 49.4838 0.13152 48.1836 1.48547 48.0163C2.345 47.9099 4.04884 48.1608 4.52044 48.8527V48.8603Z" fill="#262626"/>
<path d="M18.387 38.9683C18.3642 38.7934 18.098 38.7858 18.1132 38.9683C18.3566 42.6331 18.6685 46.2828 19.0032 49.94C19.0336 50.2822 19.5812 50.2898 19.5432 49.94C19.1933 46.2752 18.8282 42.6179 18.387 38.9683Z" fill="#1A1A1A"/>
<path d="M37.9584 37.3107C37.9736 37.2042 37.7835 37.1814 37.7683 37.2878C37.2434 40.8082 38.0117 44.3743 37.4184 47.8947C37.3575 48.2368 37.8824 48.3889 37.9508 48.0391C38.6582 44.4731 37.502 40.8995 37.9584 37.3183V37.3107Z" fill="#1A1A1A"/>
<path d="M24.5026 28.7112C22.0305 28.6275 19.4899 28.5743 17.0178 28.7644C16.8885 28.772 16.8885 28.9469 17.0178 28.9621C19.4823 29.2358 22.0229 29.2738 24.5026 29.2662C24.8677 29.2662 24.8601 28.7188 24.5026 28.7036V28.7112Z" fill="#1A1A1A"/>
<path d="M37.1369 28.2778C35.4102 28.4147 33.6988 28.658 31.9798 28.8329C31.8124 28.8481 31.8048 29.1066 31.9798 29.099C33.6988 29.0154 35.4178 29.0077 37.1369 28.8937C37.5324 28.8709 37.5324 28.2474 37.1369 28.2778Z" fill="#1A1A1A"/>
<path d="M24.7537 30.209C22.2283 30.0189 19.7942 30.8629 17.2689 30.8705C17.1396 30.8705 17.1472 31.0606 17.2689 31.0682C19.7714 31.1519 22.2435 30.6044 24.7537 30.8325C25.1492 30.8705 25.1568 30.2394 24.7537 30.209Z" fill="#1A1A1A"/>
<path d="M37.715 30.0798C35.8667 30.1862 33.9955 30.3307 32.1471 30.4903C32.0482 30.4979 32.0482 30.6272 32.1471 30.6424C33.965 30.8857 35.8895 30.9009 37.715 30.6652C38.0725 30.6196 38.103 30.057 37.715 30.0798Z" fill="#1A1A1A"/>
<path d="M9.92104 53.6353C11.4728 53.2095 13.0321 52.7913 14.5533 52.2667C16.2876 51.666 17.9839 50.9284 19.604 50.0693C19.8551 49.94 20.1365 49.7499 20.1289 49.4686C20.1289 49.1264 19.7181 48.9668 19.4671 48.7387C19.353 48.6322 19.2617 48.503 19.1705 48.3737C18.7597 47.773 18.349 47.1723 17.9458 46.5717C17.672 46.1687 17.3981 45.7657 17.0559 45.4159C16.3408 44.6784 15.3901 44.2222 14.4164 43.8953C12.8799 43.3706 11.2217 43.1121 9.61677 43.3934C8.01941 43.6748 6.48292 44.5339 5.58536 45.8874C4.99966 46.777 4.70299 47.8339 4.61171 48.8907C4.52043 49.9476 4.61933 51.0197 4.77146 52.069C4.84753 52.586 4.93118 53.1182 4.80187 53.6201C4.70299 53.9926 4.42917 54.5477 4.86273 54.8062C5.25827 55.0495 5.92005 54.7226 6.30798 54.6161L9.90582 53.6353H9.92104Z" fill="#1A1A1A"/>
<path d="M8.97024 61.3832C8.83332 60.562 8.55185 59.8625 8.22478 59.1402C8.11068 58.6383 8.00419 58.1289 7.79882 57.6575C7.776 57.6119 7.76077 57.5663 7.73795 57.513C7.4413 56.3573 7.25876 55.1788 7.28158 53.9546C7.28158 53.7113 7.06098 53.6201 6.88603 53.6733C6.74151 53.4832 6.36121 53.544 6.33839 53.8558C6.33839 53.8786 6.33839 53.9014 6.33839 53.9242C6.33839 53.909 6.33839 53.8862 6.33839 53.871C6.33078 53.6809 6.04934 53.6809 6.04934 53.871C6.02652 55.8099 6.31557 57.3229 7.0534 59.1174C7.4033 59.9766 7.776 60.8357 7.94334 61.7558C8.11068 62.7062 8.04224 63.6794 8.24762 64.6299C8.27044 64.7211 8.3465 64.7971 8.43778 64.8199C9.71566 65.1241 9.0843 61.9687 8.98542 61.3908L8.97024 61.3832Z" fill="#1A1A1A"/>
<path d="M20.068 55.8403C19.9387 53.5289 20.319 51.3543 18.7445 49.461C18.638 49.3318 18.4174 49.5066 18.5163 49.6359C18.6228 49.7728 18.7065 49.9173 18.7901 50.0617C18.6989 50.0009 18.5924 49.9933 18.4783 50.0465C18.4022 50.0845 18.3261 50.1149 18.2501 50.153C18.0903 50.229 18.0828 50.4267 18.1436 50.5635C19.2542 53.1411 18.8282 56.114 18.8358 58.8589C18.8358 58.8893 18.8358 58.9045 18.851 58.9349C18.7902 59.3075 18.7141 59.6801 18.6152 60.0526C18.4555 60.6685 17.9687 61.292 17.8622 61.8851C17.8165 62.1284 17.748 62.1968 17.8697 62.4173C18.1132 62.8355 18.9423 62.8431 19.3074 62.6302C20.0224 62.212 20.0604 60.9194 20.1365 60.1743C20.281 58.7372 20.1517 57.285 20.0756 55.8403H20.068Z" fill="#1A1A1A"/>
<path d="M9.47223 61.2996C9.39617 60.9802 9.33533 60.6381 9.0615 60.4252C8.56708 60.0374 7.85964 60.2655 7.35762 60.5848C7.15985 60.5468 6.90888 60.6989 6.96973 60.965C7.08382 61.444 7.1751 61.9231 7.30441 62.3945C7.38048 62.6834 7.50978 62.9571 7.82165 63.0484C8.28564 63.1852 9.48746 62.8887 9.62437 62.3488C9.70804 62.0295 9.5483 61.6037 9.47223 61.2996ZM9.09952 62.1359C9.03107 62.326 8.72681 62.364 8.52904 62.4021C8.24 62.4629 8.027 62.5313 7.89769 62.2272C7.73035 61.8166 7.67713 61.3148 7.58585 60.8738C7.91293 60.7597 8.29321 60.6533 8.59747 60.7597C8.88652 60.8662 8.91695 61.1627 8.98541 61.4288C9.03105 61.6113 9.16038 61.9534 9.09952 62.1359Z" fill="#3F3F3F"/>
<path d="M22.8825 8.76733C24.3809 8.2655 25.9935 8.24269 27.5756 8.22749C28.3743 8.21988 29.1806 8.21229 29.9488 8.40238C30.9681 8.65329 31.8885 9.24636 32.923 9.45165C32.9915 9.46686 33.0675 9.47446 33.136 9.45165C33.2348 9.40603 33.2653 9.28437 33.2805 9.17792C33.3794 8.62287 33.463 8.06022 33.4174 7.49756C33.3641 6.93491 33.1588 6.37225 32.7556 5.97687C32.2004 5.44463 31.3713 5.33057 30.603 5.27735C27.9027 5.07205 25.1416 5.23174 22.563 6.05291C21.5666 6.37226 20.4864 6.89689 20.1822 7.90054C20.0301 8.39477 20.0605 10.0523 20.8516 10.0143C21.1862 9.9991 21.4601 9.55809 21.7035 9.368C22.0534 9.10188 22.4717 8.9118 22.8901 8.77494L22.8825 8.76733Z" fill="#1F1F1F"/>
<path d="M20.7983 4.94275C20.7754 4.27365 20.7602 3.58936 20.958 2.94307C21.2698 1.94701 22.0837 1.16384 23.0193 0.715237C23.9625 0.266634 25.0198 0.12217 26.0619 0.0993599C27.0736 0.0765495 28.0928 0.160185 29.0893 0.357874C29.5533 0.449116 30.0249 0.563188 30.4356 0.806498C30.8996 1.08022 31.2571 1.506 31.5842 1.93179C31.8809 2.31197 32.1699 2.70736 32.3525 3.15596C32.748 4.1216 32.6263 5.20889 32.4894 6.24296C32.4666 6.40263 32.4437 6.57752 32.3372 6.69917C32.2231 6.83603 32.0482 6.88925 31.8733 6.92727C30.5725 7.2238 29.2186 7.13256 27.8875 7.11735C26.1608 7.10214 24.4341 7.2314 22.7303 7.49752C22.2283 7.57356 21.2394 7.99935 20.9199 7.4291C20.6005 6.85123 20.8059 5.59665 20.7906 4.94275H20.7983Z" fill="#1F1F1F"/>
<path d="M21.4524 7.87774C21.4448 7.75609 21.2623 7.75609 21.2623 7.87774C21.2623 8.10584 21.2623 8.33394 21.2699 8.56205C21.2699 8.71412 21.5133 8.71412 21.5057 8.56205C21.4905 8.33394 21.4676 8.10584 21.4524 7.87774Z" fill="#2E2E2E"/>
<path d="M22.5858 6.64591C22.5629 6.55467 22.3956 6.56988 22.4108 6.66872C22.4565 7.10212 22.4717 7.56592 22.5781 7.98411C22.6238 8.15899 22.9205 8.12857 22.8977 7.93849C22.8444 7.50509 22.6923 7.0641 22.5858 6.6383V6.64591Z" fill="#2E2E2E"/>
<path d="M23.6735 6.08331C23.6507 5.98446 23.4985 6.0301 23.5214 6.12134C23.6355 6.60036 23.6659 7.10219 23.8104 7.5736C23.8637 7.74848 24.1147 7.67244 24.0843 7.49756C23.993 7.01854 23.7952 6.55472 23.6735 6.08331Z" fill="#2E2E2E"/>
<path d="M25.7805 7.36828C25.6664 6.80562 25.5067 6.25817 25.3926 5.70312C25.3622 5.56626 25.1568 5.6271 25.1796 5.76396C25.2937 6.32661 25.3546 6.89688 25.4687 7.45954C25.5067 7.66483 25.8185 7.57358 25.7805 7.37589V7.36828Z" fill="#2E2E2E"/>
<path d="M27.1116 7.06413C26.9519 6.60032 26.8606 6.12891 26.7998 5.64228C26.7845 5.49782 26.5563 5.49782 26.5715 5.64228C26.6324 6.14411 26.7237 6.64595 26.8073 7.14778C26.8454 7.34547 27.1801 7.26182 27.1116 7.06413Z" fill="#2E2E2E"/>
<path d="M28.6329 5.73354C28.6177 5.55106 28.3363 5.55106 28.3515 5.73354C28.3895 6.21256 28.3819 6.7448 28.5188 7.20861C28.5721 7.38349 28.8611 7.36068 28.8459 7.16299C28.8155 6.68398 28.671 6.21256 28.6329 5.73354Z" fill="#2E2E2E"/>
<path d="M30.0173 6.16693C29.9945 6.00726 29.751 5.99966 29.7662 6.16693C29.7891 6.47868 29.8043 6.79042 29.8347 7.10217C29.8499 7.28465 30.1466 7.29225 30.1238 7.10217C30.0933 6.79042 30.0477 6.47868 30.0097 6.16693H30.0173Z" fill="#2E2E2E"/>
<path d="M31.7592 6.3875C31.7439 6.19741 31.4549 6.18981 31.4625 6.3875C31.4701 6.94255 31.4473 7.5128 31.4929 8.06785C31.5158 8.32637 31.9037 8.33397 31.9037 8.06785C31.8961 7.5052 31.8124 6.94255 31.7668 6.3875H31.7592Z" fill="#2E2E2E"/>
<path d="M32.6263 6.4179C32.6111 6.24302 32.3449 6.24302 32.3525 6.4179C32.3829 7.03378 32.2612 7.64207 32.2688 8.25795C32.2688 8.48605 32.6491 8.56209 32.6872 8.31118C32.7784 7.6953 32.6643 7.03378 32.6263 6.4179Z" fill="#2E2E2E"/>
</svg>
