<svg width="30" height="111" viewBox="0 0 30 111" fill="none" xmlns="http://www.w3.org/2000/svg">
<path d="M10.2639 107.043C8.91757 106.937 7.55597 106.99 6.22484 107.211C5.19797 107.979 4.07221 108.61 2.8856 109.089C2.54331 109.225 2.17828 109.362 1.91966 109.636C1.66865 109.91 1.56213 110.366 1.79793 110.647C2.0033 110.898 2.37597 110.921 2.69544 110.929C5.18275 110.951 7.67768 110.746 10.127 110.298C10.2715 110.267 10.4312 110.237 10.5377 110.13C10.6214 110.047 10.6594 109.925 10.6898 109.811C10.9408 108.883 10.7811 107.849 10.2563 107.036L10.2639 107.043Z" fill="#333333"/>
<path d="M21.7648 106.192C20.5554 106.329 19.3687 106.618 18.2278 107.043C17.4519 107.895 16.5696 108.655 15.6112 109.286C15.3298 109.469 15.033 109.651 14.8581 109.933C14.6831 110.214 14.668 110.64 14.9266 110.845C15.1548 111.028 15.4819 110.99 15.7709 110.936C17.9692 110.526 20.137 109.902 22.2135 109.081C22.3352 109.035 22.4722 108.975 22.5483 108.868C22.6091 108.777 22.6243 108.67 22.6319 108.564C22.6928 107.697 22.3657 106.815 21.7648 106.192Z" fill="#333333"/>
<path d="M20.8216 82.8568C20.8064 81.511 20.8064 80.1651 20.7988 78.8193C20.7988 74.5006 20.7835 70.1666 21.1639 65.8631C21.4681 62.4339 22.0006 58.8755 20.9053 55.6136C20.6162 54.7468 20.1978 53.9789 19.6502 53.2489C19.0949 52.5038 18.8971 52.2377 17.9083 52.6407C13.5117 54.4503 8.31653 54.0245 4.30793 51.4697C3.51686 52.6787 3.28869 54.1537 3.09092 55.5832C2.77145 57.8946 2.42917 60.1985 2.3455 62.5175V62.5251C2.33029 63.027 2.31506 63.5288 2.33027 64.023C2.38352 66.9123 2.9464 69.7636 3.37997 72.6149C3.66141 74.4778 3.91241 76.3482 3.94284 78.2339C3.96566 79.7774 3.74512 81.184 4.08741 82.6971C4.93933 86.4152 4.9393 90.4678 5.29681 94.2695C5.68474 98.3374 6.06509 102.405 6.37696 106.481C6.39217 106.64 6.39972 106.808 6.41493 106.967C6.62031 107.021 9.75418 107.743 9.75418 106.929C10.0052 99.0217 10.2562 91.1065 10.5072 83.1989C10.6137 79.8686 10.7278 76.4927 11.5721 73.322C11.922 73.3601 12.3632 74.1432 12.7131 74.1812C14.6223 84.6512 16.4403 94.3608 18.3571 104.831C18.5245 105.751 18.7298 106.747 19.3383 107.34C19.7947 107.781 20.6238 107.834 21.0497 107.309C21.5518 106.694 21.4073 105.249 21.4453 104.489C21.7191 99.1281 21.3617 93.8513 21.027 88.5213C20.9053 86.6357 20.8596 84.7424 20.8368 82.8492L20.8216 82.8568Z" fill="#662E2A"/>
<path d="M17.2161 8.3126C17.2313 7.76516 17.2389 7.18729 17.0184 6.68547C16.5163 5.55255 15.1091 5.29404 13.9225 5.17998C11.4428 4.94428 8.52189 4.89865 6.97017 6.93638C6.82565 7.12646 6.59747 7.34696 6.41492 7.2101C6.46056 8.88286 6.49862 10.548 6.54426 12.2208C6.5899 14.1064 6.68113 16.1213 7.73082 17.6572C8.35455 18.5697 9.25214 19.2159 10.1421 19.8394C10.8419 20.3261 11.6026 20.8279 12.4393 20.8127C13.6943 20.7823 14.6223 19.6417 15.383 18.6001C15.7709 18.0678 16.1588 17.5356 16.4326 16.9349C17.0412 15.6271 17.0868 14.1216 17.1249 12.6618C17.1553 11.2095 17.1933 9.75726 17.2237 8.305L17.2161 8.3126Z" fill="#EDD5BE"/>
<path d="M18.57 6.91357C18.5853 6.06198 18.4636 5.2256 18.0681 4.42724C17.8855 3.97103 17.6877 3.51483 17.4215 3.09664C15.3525 -0.165243 10.6062 0.161704 7.79938 2.04736C6.84097 2.69365 5.87495 3.43879 5.42617 4.49567C5.08388 5.30924 5.07621 6.21405 5.07621 7.09605C5.07621 8.40384 4.90129 11.9471 6.71923 12.0003C6.6812 11.468 6.27807 9.70403 6.5443 9.27064C6.92462 8.63955 8.99356 8.46467 9.67054 8.35822C11.5113 8.06169 13.7933 7.92483 15.596 8.50269C17.1249 8.98931 16.387 11.4148 17.2465 12.2512C17.8779 11.909 17.9996 11.1791 18.0908 10.51C18.2582 9.33146 18.5472 8.11491 18.57 6.92117V6.91357Z" fill="#333333"/>
<path d="M10.0813 20.8278C9.44239 20.4325 9.01642 19.6341 8.26338 19.5581C7.26694 19.4592 6.71921 20.6682 6.49102 21.649C3.9885 32.3547 2.33038 43.2656 1.53931 54.2298C7.94394 56.4804 15.0179 55.0053 21.7572 55.8265C23.2329 50.2304 24.2065 44.4594 23.9783 38.6807C23.7501 32.9021 22.2821 27.0931 19.1786 22.2193C18.456 21.0787 17.4824 19.9002 16.1437 19.7557C14.0291 19.5276 11.8841 21.9531 10.0813 20.8278Z" fill="#ABBCC4"/>
<path d="M25.2485 9.94734C25.3321 9.2098 25.393 8.45706 25.5832 7.73473C25.6745 7.40018 26.184 7.51423 26.108 7.84878C25.9406 8.57872 25.72 9.28584 25.5983 10.0234C25.5603 10.2591 25.218 10.1754 25.2408 9.94734H25.2485Z" fill="#666666"/>
<path d="M26.3287 10.4567C26.8383 10.1146 27.3859 9.86366 27.9944 9.74961C28.3367 9.68878 28.5117 10.1906 28.1618 10.2742C27.599 10.4111 27.0361 10.586 26.5112 10.8217C26.2906 10.9205 26.1461 10.5784 26.3363 10.4491L26.3287 10.4567Z" fill="#666666"/>
<path d="M26.5036 11.7265C27.2946 11.6125 28.1617 11.7113 28.9528 11.7798C29.2951 11.8102 29.3332 12.3348 28.9757 12.3272C28.1618 12.312 27.2566 12.312 26.4655 12.1067C26.2449 12.0535 26.2906 11.757 26.5036 11.7265Z" fill="#666666"/>
<path d="M16.2349 12.5933C15.7253 12.8062 15.5884 13.4449 15.5123 13.9847C15.2005 16.1897 14.7745 18.3719 14.2496 20.5389C13.9834 21.6414 12.2795 24.9869 14.0138 25.3291C16.2425 25.7777 18.5168 25.9906 20.7912 25.9678C21.1563 25.8461 21.2856 25.4051 21.3616 25.0325C22.1223 21.4361 22.921 17.794 24.0544 14.2889C24.1685 13.9467 24.2217 13.5209 23.9631 13.27C23.7957 13.1103 23.5523 13.0723 23.3165 13.0419C21.2779 12.7758 19.2471 12.5097 17.2085 12.2435C16.8587 12.4108 16.5924 12.4412 16.2349 12.5933Z" fill="#666666"/>
<path d="M20.8977 24.3331C21.0194 25.983 21.1183 27.633 21.2019 29.2905C21.3465 32.1494 21.4149 35.13 20.1902 37.7151C20.1142 37.8824 20.0305 38.0421 19.9012 38.1713C19.6425 38.4299 19.2318 38.4831 18.8743 38.4146C18.1365 38.2626 17.566 37.6315 17.2846 36.932C17.0032 36.2325 16.9575 35.4645 16.9195 34.7042C16.7141 30.834 16.5163 26.903 17.3454 23.1165C17.4975 22.4246 17.6953 21.7175 18.1441 21.1776C18.6005 20.6378 19.3764 20.3032 20.0381 20.5694C20.6923 21.6947 20.8064 23.0405 20.8977 24.3407V24.3331Z" fill="#EDD5BE"/>
<path d="M9.30542 25.1542C8.68169 26.6825 8.03512 28.2108 7.38096 29.7315C6.2476 32.3547 4.98495 35.0615 2.74105 36.8407C2.59652 36.9548 2.45201 37.0612 2.27706 37.122C1.92717 37.2361 1.53926 37.1068 1.25021 36.8863C0.656909 36.4225 0.421102 35.6089 0.481953 34.8562C0.542805 34.1035 0.839453 33.3963 1.14371 32.7044C2.68021 29.146 4.23954 25.5344 6.65839 22.5006C7.09956 21.9455 7.59395 21.3981 8.2405 21.1168C8.88704 20.8354 9.73133 20.8811 10.2029 21.4057C10.2866 22.7059 9.79984 23.9605 9.30542 25.1618V25.1542Z" fill="#EDD5BE"/>
</svg>
