<svg width="32" height="107" viewBox="0 0 32 107" fill="none" xmlns="http://www.w3.org/2000/svg">
<path d="M19.769 33.0822C20.2786 34.4737 20.7959 35.8803 21.6858 37.0664C22.5682 38.2526 23.8917 39.1954 25.3673 39.279C25.9911 39.317 26.6604 39.1726 27.1092 38.724C27.596 38.2373 28.9804 36.8839 29.1782 36.23C30.3724 32.3295 30.3191 29.3945 30.0301 26.5661C29.8171 24.4979 29.3531 22.8176 29.0945 20.757C28.9196 19.3352 28.2958 18.0198 27.8166 16.6664C27.3755 16.7196 26.7061 16.9401 26.3105 17.1378C27.0103 20.5593 27.2537 24.0721 27.0484 27.5545C26.9647 28.9611 26.805 30.383 26.2877 31.6984C26.0747 32.2534 25.7325 32.8313 25.162 32.9834C24.6676 33.1126 24.1275 32.8693 23.7776 32.4892C23.4277 32.109 23.2299 31.6224 23.0322 31.1509C22.2107 29.136 21.3892 27.1287 20.5753 25.1138C20.3623 24.5892 20.1189 24.0341 19.6473 23.7376C19.1072 23.403 18.3694 23.4943 17.8598 23.8744C17.3501 24.247 17.0459 24.8553 16.9242 25.4788C16.8329 25.9654 17.2361 26.3151 17.4338 26.7181C17.7533 27.3796 17.9511 28.1324 18.2021 28.8167C18.7193 30.2385 19.2442 31.6604 19.7614 33.0822H19.769Z" fill="#262626"/>
<path d="M27.558 17.6396C27.6797 17.5636 27.8014 17.4724 27.8623 17.3431C27.9155 17.2214 27.9155 17.0846 27.9155 16.9553C27.9003 16.1265 27.8851 15.2902 27.8699 14.4614C27.8547 13.7771 27.8471 13.0928 27.7177 12.4237C27.6569 12.1119 27.558 11.7774 27.307 11.5873C27.0484 11.382 26.6909 11.3744 26.3638 11.3744C25.9226 11.3744 25.4738 11.3744 25.0707 11.5417C24.9946 11.5721 24.9262 11.6101 24.8729 11.6709C24.8197 11.7394 24.7969 11.823 24.7893 11.9066C24.736 12.2336 24.736 12.5681 24.7436 12.9027C24.7588 13.6022 24.774 14.3093 24.8197 15.0088C24.8729 15.8832 24.987 16.7728 25.413 17.5332C25.6184 17.8982 25.9987 17.8753 26.379 17.9057C26.7898 17.9438 27.2157 17.8449 27.5732 17.632L27.558 17.6396Z" fill="#BFBFBF"/>
<path d="M25.6716 17.001C25.6792 17.0466 25.6868 17.0998 25.7172 17.1379C25.7705 17.2063 25.8618 17.2215 25.9454 17.2291C26.1888 17.2443 26.4323 17.2291 26.6757 17.1835C26.9267 17.1378 27.1853 17.039 27.3298 16.8337C27.4667 16.636 27.4667 16.3851 27.4591 16.1418C27.4439 14.91 27.4135 13.6783 27.2537 12.4541C27.2461 12.3857 27.2309 12.3173 27.1853 12.264C27.1396 12.2184 27.0788 12.2032 27.0179 12.1956C26.7593 12.1576 26.5007 12.1804 26.2421 12.1956C25.953 12.2184 25.626 12.264 25.4434 12.4921C25.3065 12.667 25.2837 12.9027 25.2761 13.1232C25.2076 14.4538 25.4358 15.7008 25.664 17.001H25.6716Z" fill="white"/>
<path d="M4.25184 103.042C3.23258 103.133 2.18289 102.867 1.33096 102.304C2.80661 98.9737 4.28227 95.6434 5.75792 92.3055C6.22191 91.2486 6.69351 90.1917 6.97495 89.074C7.31724 87.6978 7.37049 86.2684 7.41612 84.8541C7.59868 79.3644 7.78123 73.8748 7.96379 68.3851C7.979 67.9213 7.99422 67.4498 8.19198 67.0316C8.76247 65.8379 10.3902 65.7239 11.7138 65.7923C12.0028 65.8075 12.3223 65.8303 12.5353 66.028C12.7787 66.2561 12.8015 66.6211 12.8091 66.9556C12.8852 71.2896 13.6306 67.3738 13.7067 71.7002C13.7371 73.2208 13.0981 83.0065 12.7863 84.5044C12.2386 87.1428 11.4095 89.8876 9.99471 92.1763C7.80406 95.6967 6.42729 98.8825 4.25945 103.042H4.25184Z" fill="#363F4C"/>
<path d="M15.9277 69.3051C17.7533 69.077 19.5864 68.8413 21.412 68.6132C21.5033 68.3623 21.0469 68.6132 21.0773 68.8793C22.0205 77.1671 22.1042 85.5461 21.3207 93.8566C20.986 97.4379 20.4916 101.034 20.8339 104.608C20.0809 104.684 19.3278 104.752 18.5748 104.828C17.2132 93.6666 15.8441 82.5047 14.4825 71.3428C14.4141 70.7802 14.3684 70.1263 14.7716 69.7233C15.0682 69.4268 15.5094 69.3583 15.9277 69.3051Z" fill="#363F4C"/>
<path d="M20.4992 106.349C20.8415 106.577 20.4308 106.828 20.233 106.874C19.8679 106.95 19.48 106.965 19.1072 106.912C19.0084 106.897 18.9095 106.881 18.8258 106.828C18.7574 106.782 18.7117 106.722 18.6585 106.661C18.5215 106.494 18.2097 106.243 18.1412 106.037C18.088 105.87 18.1717 105.695 18.2401 105.528C18.377 105.178 18.6356 104.813 18.5824 104.418C19.3963 104.425 20.1417 104.076 20.8339 104.22C20.9176 104.494 21.1534 104.707 21.0773 104.935C21.1306 104.783 23.1235 105.079 23.3593 105.102C23.7396 105.14 24.1199 105.163 24.5002 105.155C24.7969 105.155 25.3445 104.958 25.5423 105.239C25.6108 105.338 25.6412 105.459 25.664 105.574C25.6792 105.665 25.6868 105.756 25.664 105.847C25.626 105.999 25.5043 106.121 25.3597 106.189C23.8156 106.935 22.1346 106.167 20.5144 106.349H20.4992Z" fill="#191919"/>
<path d="M2.61645 104.707C2.85225 105.079 2.34262 105.155 2.12203 105.102C1.7265 105.011 1.33857 104.859 0.988674 104.646C0.897396 104.593 0.806116 104.524 0.745265 104.433C0.699626 104.365 0.676807 104.281 0.653988 104.197C0.593136 103.969 0.395371 103.581 0.41819 103.353C0.441009 103.163 0.600743 103.026 0.73766 102.897C1.0267 102.616 1.52873 102.099 1.65043 101.688C2.44911 102.053 3.65093 102.456 4.26705 102.905C3.97801 103.163 3.9704 103.361 3.79545 103.551C3.90955 103.422 5.75031 104.585 5.9709 104.714C6.3284 104.912 6.69351 105.102 7.06623 105.269C7.36288 105.399 7.98661 105.444 8.05507 105.802C8.07788 105.931 8.05507 106.06 8.02464 106.189C8.00182 106.288 7.9714 106.38 7.91054 106.463C7.81166 106.6 7.62911 106.661 7.46176 106.668C5.6134 106.729 4.28987 105.239 2.60885 104.714L2.61645 104.707Z" fill="#191919"/>
<path d="M16.3841 18.4684C16.0266 18.0578 15.6843 17.6244 15.1747 17.2974C13.2351 16.0429 11.9191 16.788 10.6565 18.514C8.83853 21.0003 7.85729 23.958 6.91409 26.8245C6.2143 28.9459 5.51451 31.0749 4.95163 33.2342C1.34617 47.0801 3.54444 61.6103 2.94353 75.8592C6.94452 76.399 10.9531 76.9389 14.9541 77.4787C17.2893 77.7904 19.8679 78.1174 22.2031 77.9273C22.8268 77.8817 28.2882 76.4294 27.7558 75.3725C26.6604 73.1827 26.1736 70.7649 25.7629 68.3698C24.0438 58.2724 23.6179 47.9773 24.5078 37.7811C24.7893 34.5877 25.1924 31.3562 24.6599 28.1856C24.3101 26.1098 23.5114 24.0265 22.1346 22.3537C20.6666 20.5745 18.9323 20.4985 17.1828 19.2363C16.8633 19.0082 16.6123 18.7345 16.3689 18.4607L16.3841 18.4684Z" fill="#AA4A4D"/>
<path d="M18.9019 5.05596C17.4186 6.35615 16.483 8.18858 15.9582 10.097C15.3877 12.1728 15.2964 14.469 16.2244 16.4079C17.1524 18.3468 19.2746 19.8067 21.4044 19.4873C22.8268 19.2744 24.0438 18.3392 24.9718 17.2443C27.3602 14.4234 28.0296 10.31 26.8582 6.82757C26.379 5.41333 25.6336 3.67214 24.0971 3.30717C22.4313 2.91179 20.0961 4.00668 18.8866 5.05596H18.9019Z" fill="#F9E9DE"/>
<path d="M28.4936 6.48537C28.8435 6.18123 29.1249 5.76304 29.1173 5.29923C29.1173 4.90385 28.8967 4.54649 28.6762 4.22714C27.056 1.93851 24.2416 0.554677 21.4348 0.661125C20.7578 0.683935 20.0733 0.797987 19.4419 1.0413C17.8446 1.64957 16.6732 3.02581 15.7528 4.47046C14.1022 7.04803 13.0373 10.2947 14.0794 13.1688C14.2315 13.587 14.4445 14.0128 14.802 14.2789C15.1671 14.545 15.7148 14.5982 16.0418 14.3017C16.232 14.1268 16.3233 13.8759 16.4146 13.625C16.9927 11.9751 17.586 10.2947 18.3314 8.71317C18.8106 7.69431 19.4115 6.62224 20.6438 6.51579C23.2452 6.30289 26.0824 8.59913 28.4936 6.48537Z" fill="#191919"/>
<path d="M27.6417 43.1872C28.5316 43.1872 29.4824 43.2252 30.2127 43.6358C31.3841 44.2973 31.0342 45.6279 31.1102 46.776C31.3764 50.5929 32.0534 54.3719 31.9241 58.1964C31.9089 58.5233 31.8709 58.8883 31.5666 59.1088C31.3764 59.2457 31.1178 59.2913 30.8668 59.3369C24.1427 60.5459 17.2361 61.0933 10.3446 60.9488C10.1012 60.9488 9.84258 60.9336 9.6296 60.8348C9.2721 60.6675 9.158 60.3026 9.07433 59.9756C8.01703 55.7025 7.88012 51.4141 7.55304 47.0573C7.5074 46.4947 7.48458 45.9092 7.77363 45.3998C8.35933 44.3657 9.42423 44.5026 10.626 44.3201C12.406 44.054 15.1215 43.8335 16.9166 43.6586C20.4764 43.3165 24.059 43.1492 27.6493 43.172L27.6417 43.1872Z" fill="#537082"/>
<path d="M12.3907 36.4734C11.805 34.352 11.2802 32.2003 11.1357 30.0105C10.9912 27.8131 11.2498 25.5625 12.1701 23.5627C12.657 22.5135 13.6306 21.411 14.7563 21.6847C15.8136 21.9432 16.2016 23.213 16.3917 24.2851C17.2437 29.1133 17.7381 34.0023 18.1716 38.8837C18.3542 40.8986 18.5215 42.9135 18.8714 44.898C19.6853 49.4829 21.4576 53.8625 23.6863 57.9608C23.0474 58.3866 22.2107 58.8275 21.5717 58.4018C21.0469 58.052 21.0012 57.3753 20.6666 56.8963C20.2634 56.326 19.8451 55.9306 19.518 55.2615C18.7878 53.8093 18.1032 52.3418 17.449 50.8515C16.1331 47.8482 14.9769 44.7764 13.9577 41.6666C13.3948 39.9482 12.8776 38.2222 12.3983 36.481L12.3907 36.4734Z" fill="#262626"/>
<path d="M22.5377 60.7664C22.5606 60.8956 22.5834 61.0401 22.6899 61.1237C22.7659 61.1845 22.8648 61.1998 22.9637 61.215C23.3516 61.2682 23.7472 61.3214 24.1351 61.2225C24.5154 61.1313 24.8805 60.8576 24.9642 60.4774C25.0022 60.3254 24.987 60.1657 24.9642 60.006C24.7969 59.1696 24.0895 58.5766 23.4201 58.0519C22.9485 57.6794 22.0814 57.5957 22.1422 58.4169C22.2031 59.1924 22.4237 59.9984 22.5377 60.7664Z" fill="#F9E9DE"/>
<path d="M26.5312 17.4193C26.6149 17.3736 26.7976 17.3051 26.889 17.366C26.9651 17.4117 26.9499 17.4802 26.889 17.5182C26.8129 17.5639 26.7063 17.5715 26.6225 17.5715C26.5084 17.5715 26.3865 17.503 26.5388 17.4193H26.5312Z" fill="white"/>
</svg>
