<svg width="56" height="114" viewBox="0 0 56 114" fill="none" xmlns="http://www.w3.org/2000/svg">
<path d="M50.4018 108.56C51.6569 108.545 52.9044 108.096 53.878 107.305C51.6722 103.42 49.4662 99.5272 47.2604 95.6418C46.5606 94.4101 45.8608 93.1707 45.3816 91.8401C44.7959 90.2054 44.5601 88.4642 44.3319 86.7458C43.442 80.0624 42.5596 73.3865 41.6697 66.7031C41.5936 66.1405 41.5175 65.5626 41.2209 65.0836C40.3842 63.6921 38.3837 63.753 36.7711 63.9887C36.4212 64.0419 36.0333 64.1103 35.7975 64.3765C35.5313 64.6806 35.5465 65.1368 35.5769 65.5398C36.0028 70.8394 34.6261 66.148 35.0521 71.4477C35.2042 73.3105 37.1667 85.1795 37.7296 86.9663C38.7184 90.1217 40.0571 93.376 42.0728 95.9992C45.1686 100.037 47.2452 103.755 50.3867 108.568L50.4018 108.56Z" fill="#4D4D4D"/>
<path d="M31.2717 66.8779C29.0126 66.8171 26.7534 66.7563 24.4867 66.6955C24.3422 66.4065 24.9278 66.6575 24.9278 66.9768C24.7833 77.211 25.6961 87.4529 27.651 97.497C28.4953 101.823 29.5374 106.157 29.5526 110.567C30.4806 110.567 31.4085 110.567 32.3365 110.567C32.6484 96.7747 32.9678 82.982 33.2797 69.1894C33.2949 68.4899 33.2645 67.6915 32.7321 67.2505C32.3365 66.9236 31.7813 66.8932 31.2717 66.8856V66.8779Z" fill="#4D4D4D"/>
<path d="M30.1839 112.658C29.796 112.985 30.3208 113.236 30.5718 113.259C31.0282 113.305 31.5074 113.274 31.9562 113.168C32.0779 113.137 32.1996 113.099 32.2909 113.023C32.367 112.962 32.4202 112.879 32.4734 112.803C32.618 112.582 32.9678 112.232 33.0287 111.974C33.0743 111.761 32.945 111.556 32.8461 111.366C32.6332 110.955 32.2757 110.537 32.2909 110.05C31.2944 110.157 30.3436 109.815 29.5221 110.088C29.4537 110.438 29.195 110.719 29.3167 110.985C29.2407 110.803 26.837 111.411 26.5556 111.465C26.0992 111.556 25.6353 111.632 25.1713 111.67C24.8062 111.7 24.1139 111.533 23.9086 111.898C23.8401 112.027 23.8097 112.179 23.8021 112.324C23.7945 112.438 23.7945 112.552 23.8325 112.658C23.8934 112.841 24.0606 112.97 24.2432 113.038C26.2133 113.761 28.1834 112.62 30.1839 112.651V112.658Z" fill="#1A1A1A"/>
<path d="M52.6077 110.4C52.3719 110.887 52.9956 110.91 53.2542 110.826C53.7258 110.666 54.1822 110.438 54.5777 110.134C54.6842 110.05 54.7832 109.967 54.844 109.845C54.8896 109.754 54.9125 109.647 54.9277 109.549C54.9809 109.267 55.1711 108.773 55.1102 108.492C55.0646 108.264 54.8515 108.119 54.669 107.967C54.281 107.655 53.6041 107.085 53.414 106.598C52.4784 107.138 51.0636 107.777 50.3638 108.4C50.7441 108.674 50.7821 108.917 51.0179 109.13C50.8582 108.986 48.7588 110.628 48.5002 110.811C48.0894 111.1 47.6635 111.373 47.2223 111.617C46.88 111.807 46.1194 111.944 46.0814 112.392C46.0661 112.552 46.1042 112.712 46.165 112.856C46.2031 112.97 46.2563 113.084 46.34 113.175C46.4845 113.327 46.7051 113.388 46.9104 113.373C49.1696 113.229 50.6148 111.244 52.6 110.4H52.6077Z" fill="#1A1A1A"/>
<path d="M37.9804 14.4598C37.9804 14.2849 37.9119 14.1176 37.8511 13.9503C37.1817 12.1407 36.5048 10.3311 35.8355 8.52146C35.3562 7.22127 34.7705 5.80703 33.5307 5.19876C31.8649 4.37759 29.948 5.38125 28.1833 5.96671C28.2366 8.26295 28.13 10.5668 27.8638 12.8478C27.7193 14.1328 27.5215 15.433 27.6813 16.7256C27.841 18.0105 28.4191 19.3108 29.5068 20.0179C31.3476 21.2116 33.8957 20.2612 35.4703 18.7329C36.5428 17.6912 37.3719 16.3986 37.8663 14.992C37.9272 14.8247 37.9804 14.6498 37.9728 14.4674L37.9804 14.4598Z" fill="#C89A81"/>
<path d="M35.0443 13.4409C35.1432 12.9543 35.5312 12.5133 36.018 12.422C36.5124 12.3308 37.06 12.6501 37.1741 13.1368C37.311 13.7222 36.8394 14.2621 36.5428 14.7867C35.5767 16.4899 36.3298 18.6189 37.098 20.4285C37.8054 19.1739 38.7563 18.0638 39.8896 17.1742C40.7796 16.4823 41.8521 15.8056 42.0727 14.7031C42.1944 14.1024 42.027 13.4789 42.1411 12.8782C42.3008 12.0494 42.9854 11.3804 43.1071 10.544C43.2364 9.63159 42.666 8.77239 42.0803 8.05766C40.7111 6.39251 39.0909 4.94023 37.2882 3.7617C36.7709 3.42714 36.2004 3.05461 36.0331 2.46154C35.9494 2.1574 35.9799 1.83044 35.8429 1.54911C35.5995 1.0701 34.9758 0.963635 34.4358 0.918014C32.7776 0.773549 31.0737 0.629105 29.484 1.13093C29.0808 1.26019 28.6777 1.42743 28.2593 1.42743C27.4378 1.42743 26.7228 0.803985 25.9013 0.750761C24.981 0.689933 24.1442 1.38941 23.7715 2.2334C23.3988 3.07738 23.3988 4.03543 23.4521 4.95544C24.015 5.19875 24.5778 5.44969 25.1407 5.693C24.6387 6.44574 24.6083 7.48738 25.0647 8.27054C26.1828 8.4074 27.3389 8.22491 28.3506 7.7459C29.0504 7.41134 29.7654 6.93235 30.526 7.06161C31.3019 7.19087 31.8116 7.89799 32.3897 8.43784C32.9602 8.97768 33.911 9.36547 34.4891 8.83323C35.0215 10.3083 35.2117 11.9126 35.0367 13.4713L35.0443 13.4409Z" fill="#333333"/>
<path d="M38.4444 20.208C40.9089 20.5273 42.8258 21.9264 43.7842 23.4851C44.7426 25.0514 44.9099 26.7698 45.0696 28.4578C45.2674 30.6247 45.4728 32.7917 45.6706 34.9587C46.1498 40.1442 46.629 45.3374 46.4084 50.5305C46.3095 52.8952 46.0585 55.2599 45.8075 57.6246C45.2979 62.4832 44.7882 67.3418 44.271 72.2004C37.5165 71.7594 30.7695 71.3108 24.015 70.8698C23.2087 70.8165 22.3492 70.7481 21.7026 70.4136C20.5388 69.7977 20.6073 68.6191 20.7899 67.6307C23.1175 55.2751 24.9734 42.9119 26.084 30.4499C26.2361 28.7315 25.7873 23.5079 26.8446 22.2153C28.0844 20.7022 36.1169 19.9038 38.4368 20.2004L38.4444 20.208Z" fill="#B4C7BA"/>
<path d="M5.40208 52.0512C5.75958 52.0512 6.11702 51.9752 6.47452 51.8991C7.41772 51.6938 8.35336 51.4581 9.28135 51.192C9.40305 51.154 9.54759 51.1008 9.58563 50.9792C9.60844 50.9031 9.5856 50.827 9.56278 50.751C9.41065 50.3024 9.19008 49.8843 8.90864 49.5117C8.69566 49.2228 8.43698 48.9566 8.08708 48.8654C7.68394 48.7589 7.24283 48.9034 6.81687 48.9794C6.01058 49.1315 5.18141 49.0403 4.46641 48.7285C4.28385 48.8274 4.25351 49.1011 4.36 49.2608C4.46649 49.428 4.64904 49.5117 4.83159 49.5877C4.38281 49.8234 3.85796 49.679 3.59174 49.7854C3.24945 49.9223 2.88434 50.0059 2.54966 50.1732C2.45838 50.2188 2.35944 50.272 2.3062 50.3633C2.16168 50.5914 2.3975 50.8347 2.61048 50.9715C3.45479 51.5114 4.35999 52.0664 5.39446 52.0512H5.40208Z" fill="#C89A81"/>
<path d="M37.5698 33.9246C38.1783 32.9362 38.7716 31.8944 38.9313 30.7463C39.0911 29.5982 38.7336 28.3056 37.7828 27.6441C36.9308 27.0587 35.767 27.0815 34.8162 27.4768C33.8654 27.8722 33.082 28.5946 32.3746 29.3549C29.3472 32.6016 27.3011 36.6846 24.114 39.7792C19.436 44.3185 12.8793 46.189 6.90059 48.7817C6.73324 48.8502 6.55824 48.9338 6.46697 49.0858C6.36047 49.2607 6.38334 49.4812 6.41376 49.6865L6.74088 51.9296C10.468 51.5494 14.1724 50.9715 17.8387 50.2036C21.7256 49.3824 25.7342 48.2647 28.6855 45.5959C29.8188 44.577 30.7544 43.3604 31.6824 42.1515C33.7361 39.4751 35.7975 36.7987 37.5698 33.9322V33.9246Z" fill="#BFD1C4"/>
<path d="M34.7249 12.825C33.9262 12.8478 33.0972 12.9846 32.3061 13.1519C32.3061 12.9542 32.2984 12.7641 32.268 12.6121C32.1996 12.2091 31.8877 11.8821 31.5074 11.7301C31.4085 11.6921 31.3096 11.6616 31.2107 11.654C30.7087 11.5856 30.1915 11.7985 29.8264 12.1559C29.7199 12.2623 29.621 12.3763 29.5602 12.5132C29.4993 12.6349 29.4689 12.7641 29.4537 12.8934C29.3092 12.8934 29.1722 12.8934 29.0277 12.8934C29.0809 12.574 29.0733 12.2243 29.0277 11.9733C28.9592 11.5704 28.6473 11.2434 28.267 11.0914C28.1681 11.0533 28.0692 11.0229 27.9704 11.0077C27.4683 10.9393 26.9511 11.1522 26.586 11.5095C26.4795 11.616 26.3807 11.7301 26.3198 11.8669C26.1981 12.1178 26.1905 12.4144 26.1829 12.6957C26.1829 12.8325 26.1829 12.977 26.2285 13.1139C26.4872 13.7754 28.2746 13.9731 28.7538 13.5245C28.8908 13.3952 28.9592 13.1975 29.0124 12.9922C29.1494 13.0607 29.2939 13.1291 29.4384 13.1899C29.4384 13.2431 29.4384 13.2888 29.4308 13.342C29.4308 13.4789 29.4308 13.6233 29.4764 13.7602C29.735 14.4217 31.5226 14.6194 32.0018 14.1708C32.1539 14.0263 32.23 13.7982 32.2756 13.5549C32.5038 13.6081 32.8233 13.5549 32.9906 13.5549C33.5687 13.5549 34.1544 13.5701 34.7325 13.5093C35.1509 13.4636 35.1737 12.8249 34.7325 12.8325L34.7249 12.825Z" fill="#333333"/>
<path d="M7.47104 54.5983C6.14752 53.435 4.83922 52.2565 3.48527 51.1236C3.2875 50.9563 2.99845 51.2376 3.19622 51.4125C5.02938 53.0625 7.3493 54.5223 8.85538 56.4916C9.41065 57.2216 8.50548 57.0695 8.09473 56.9402C7.53185 56.7729 7.01465 56.4916 6.51262 56.1951C5.39447 55.5336 4.52731 54.5223 3.91118 53.397C3.83512 53.2601 3.62221 53.3818 3.69827 53.5186C4.87727 55.7236 6.93861 57.1531 9.3955 57.5561C9.5172 57.5789 9.63122 57.4877 9.60079 57.3508C9.28132 56.1343 8.38382 55.3815 7.47104 54.5755V54.5983Z" fill="#333333"/>
<path d="M2.7322 51.6636C2.15411 61.6926 1.6901 71.7367 1.28696 81.7809C0.868602 92.1824 0.282854 102.668 0.473015 113.077C0.473015 113.411 0.876201 113.396 0.899021 113.077C1.72052 103.078 1.91824 92.9732 2.37463 82.9366C2.85383 72.5047 3.39392 62.088 3.92637 51.656C3.97201 50.736 2.77783 50.7436 2.72459 51.656L2.7322 51.6636Z" fill="#666666"/>
<path d="M4.19266 51.8231C4.22308 51.595 4.21549 51.3745 4.109 51.1844C3.74389 50.5609 3.1202 50.7814 2.81594 51.2452C2.78551 51.2833 2.7551 51.3289 2.73228 51.3821C2.73228 51.3897 2.72466 51.4049 2.71705 51.4125C2.71705 51.4277 2.70182 51.4353 2.69421 51.4505C2.679 51.519 2.66382 51.5874 2.641 51.6558C2.641 51.6634 2.641 51.6787 2.641 51.6863C2.54973 51.8079 2.48881 51.96 2.48121 52.1501C2.42796 52.9028 2.34437 53.6555 2.27591 54.4083C2.18463 55.4119 2.22264 56.1571 3.39404 56.2255C3.60702 56.2407 3.84283 56.0658 3.88086 55.8529C4.12427 54.6136 4.26111 53.3742 4.28393 52.112C4.28393 51.9828 4.2459 51.8915 4.18504 51.8155L4.19266 51.8231Z" fill="#333333"/>
<path d="M3.13527 58.4533C3.00596 58.4609 2.87673 58.4533 2.74742 58.4229C2.12369 58.3089 1.97912 59.13 2.50396 59.3049C2.50396 59.3049 2.50396 59.3201 2.50396 59.3277C2.542 59.3353 2.57243 59.3278 2.61047 59.343C2.61047 59.343 2.61809 59.343 2.62569 59.343C2.67133 59.343 2.71692 59.3429 2.76256 59.3581C2.88426 59.3733 3.00596 59.3962 3.13527 59.3962C3.74378 59.3886 3.74378 58.4457 3.13527 58.4533Z" fill="#333333"/>
<path d="M2.72459 69.7673C2.47357 69.7369 2.23779 69.6913 1.98678 69.7293C1.64449 69.7749 1.48476 70.33 1.89551 70.3908C2.17695 70.4364 2.44315 70.4212 2.72459 70.4136C3.14294 70.4516 3.12012 69.8281 2.72459 69.7749V69.7673Z" fill="#903600"/>
<path d="M2.07807 83.5522C1.82706 83.5218 1.59119 83.4762 1.34018 83.5142C0.997885 83.5598 0.838153 84.1149 1.2489 84.1757C1.53034 84.2213 1.79663 84.2061 2.07807 84.1985C2.49643 84.2366 2.47361 83.6054 2.07807 83.5598V83.5522Z" fill="#333333"/>
<path d="M1.49995 97.2539C1.24893 97.2235 1.01306 97.1778 0.762051 97.2159C0.41976 97.2615 0.260028 97.8165 0.670777 97.8774C0.952216 97.923 1.21851 97.9078 1.49995 97.9001C1.9183 97.9382 1.89548 97.3071 1.49995 97.2615V97.2539Z" fill="#333333"/>
</svg>
