<svg width="43" height="113" viewBox="0 0 43 113" fill="none" xmlns="http://www.w3.org/2000/svg">
<path d="M12.8711 19.1897C12.2245 18.2925 11.8061 17.1064 11.7149 15.6769C11.5475 13.0461 11.6844 10.3165 12.7646 7.9138C14.012 5.13854 17.1763 2.38609 20.4623 3.09321C24.3112 3.92199 24.0602 8.88704 23.8015 12.1869C23.5886 14.8101 22.653 17.4713 20.7134 19.2429C17.8153 21.8965 14.5673 21.5544 12.8711 19.1973V19.1897Z" fill="#F2E7D6"/>
<path d="M9.66116 108.272C8.22354 91.9243 7.09778 73.083 5.66016 56.7356C9.82088 56.2946 14.012 56.2261 18.188 56.325C19.4887 56.3554 21.8391 55.8155 22.0977 57.3514C22.2726 58.4083 21.375 60.6361 21.2077 61.7386C20.0895 69.2965 17.4653 76.5958 17.0318 84.2524C16.9101 86.4726 16.9709 88.7005 16.9253 90.9283C16.8492 94.7072 16.4614 98.4709 15.9669 102.219C15.7768 103.687 14.8031 106.416 15.1682 107.816C15.4801 109.002 17.3132 109.648 18.4998 110.127C18.8954 110.287 19.3137 110.439 19.6027 110.75C19.8918 111.062 20.0135 111.587 19.7397 111.914C19.5039 112.203 19.078 112.233 18.7052 112.233C15.8452 112.264 12.9927 112.02 10.1783 111.511C10.011 111.48 9.82845 111.442 9.70675 111.321C9.60786 111.222 9.56224 111.085 9.53181 110.956C9.29601 110.066 9.38734 109.101 9.76766 108.257C9.72963 108.257 9.69158 108.257 9.65354 108.257L9.66116 108.272Z" fill="#ACB18F"/>
<path d="M41.2812 21.0753C42.0038 21.1134 42.3386 21.8281 41.9278 22.4288C39.0222 26.7171 36.337 30.937 33.8573 35.0885C33.5378 35.6207 33.1423 36.2138 32.5185 36.3431C32.1154 36.4267 31.7123 36.2822 31.3396 36.1454L26.4259 34.3205C25.9467 34.1457 25.7565 33.5906 26.0151 33.1344C28.3731 28.9677 31.1343 24.8238 34.3138 20.7408C34.58 20.4062 35.0211 20.239 35.4167 20.315C37.2878 20.7028 39.2503 20.9613 41.2812 21.0753Z" fill="#666666"/>
<path d="M39.197 22.5733C39.699 22.6037 39.9272 23.1055 39.6458 23.5237C37.6377 26.5271 35.7513 29.5076 34.0018 32.473C33.7736 32.8531 33.4922 33.2789 33.051 33.3778C32.7619 33.4386 32.4729 33.3474 32.2067 33.2485L28.662 31.9863C28.3121 31.8647 28.1752 31.4693 28.3654 31.1348C30.0768 28.1314 32.0621 25.1736 34.3288 22.2843C34.5114 22.0486 34.8308 21.9346 35.1047 21.9954C36.4206 22.2843 37.7898 22.4744 39.197 22.5733Z" fill="white"/>
<path d="M32.2904 19.243C31.5297 19.0681 30.7615 18.9084 30.0389 18.6119C29.7042 18.475 29.8867 17.958 30.229 18.0797C30.9593 18.3382 31.6667 18.6575 32.4197 18.878C32.6555 18.9465 32.5262 19.2886 32.2904 19.2354V19.243Z" fill="#666666"/>
<path d="M32.9521 18.1861C32.663 17.6159 32.4728 17.0228 32.4348 16.3765C32.412 16.0192 32.952 15.8899 32.9977 16.2701C33.0737 16.8707 33.1803 17.4714 33.3628 18.0493C33.4389 18.2926 33.0586 18.399 32.9521 18.1861Z" fill="#666666"/>
<path d="M34.2832 18.1709C34.2604 17.3345 34.4733 16.4525 34.6407 15.6389C34.7167 15.2892 35.2644 15.312 35.2111 15.6846C35.0894 16.5285 34.983 17.4562 34.6711 18.2545C34.5874 18.475 34.2908 18.3914 34.2832 18.1709Z" fill="#666666"/>
<path d="M33.264 24.5577C33.2716 24.1396 33.6443 23.805 34.0398 23.691C34.443 23.5769 34.869 23.6377 35.2722 23.7062C36.1773 23.843 37.0748 23.9799 37.98 24.1167C37.9115 24.5045 37.6225 24.8163 37.3487 25.0976C37.265 25.1812 37.1737 25.2725 37.0596 25.3181C36.8543 25.3941 36.6336 25.3181 36.4283 25.2421C35.409 24.8695 34.3442 24.6414 33.264 24.5653V24.5577Z" fill="#B3B3B3"/>
<path d="M35.8121 27.1049C34.9298 26.6107 33.9638 26.2533 32.9825 26.01C32.8228 25.972 32.7543 26.2153 32.914 26.2609C33.8724 26.5346 34.7701 26.9072 35.6524 27.3786C35.835 27.4775 35.9947 27.2037 35.8121 27.1049Z" fill="#B3B3B3"/>
<path d="M35.2494 27.7284C34.2149 27.3482 33.1272 27.1809 32.0242 27.1505C31.8721 27.1505 31.8797 27.371 32.0242 27.3786C33.1119 27.4394 34.1388 27.6675 35.1657 28.0173C35.3559 28.0781 35.4319 27.7892 35.2494 27.7208V27.7284Z" fill="#B3B3B3"/>
<path d="M34.3213 28.9754C33.3781 28.618 32.3968 28.3215 31.4232 28.0249C31.2862 27.9793 31.233 28.1922 31.3623 28.2378C32.3131 28.5876 33.2715 28.9525 34.2451 29.2415C34.4201 29.2947 34.481 29.0438 34.3213 28.9754Z" fill="#B3B3B3"/>
<path d="M33.6975 30.1159C32.7543 29.8346 31.7883 29.6217 30.8299 29.386C30.6853 29.348 30.6245 29.5685 30.7691 29.6065C31.7123 29.8802 32.6631 30.1691 33.6215 30.3972C33.804 30.4429 33.8801 30.1691 33.6975 30.1159Z" fill="#B3B3B3"/>
<path d="M32.8838 31.3248C32.0623 31.1271 31.2256 30.975 30.3965 30.8154C30.2519 30.785 30.1834 31.0055 30.3355 31.0435C31.157 31.2488 31.971 31.4617 32.8001 31.6289C32.9979 31.667 33.0815 31.3704 32.8838 31.3248Z" fill="#B3B3B3"/>
<path d="M24.4253 36.5711C24.6306 36.5331 24.8436 36.5331 25.0413 36.4723C25.2467 36.4115 25.4293 36.2822 25.6042 36.1605C27.2852 34.9896 29.1869 33.9936 31.233 33.9327C31.4688 33.9327 31.7198 33.9327 31.9328 34.0392C32.2067 34.176 32.3892 34.465 32.4576 34.7615C32.6174 35.4458 32.2675 36.1682 31.7503 36.6396C31.233 37.111 30.5636 37.3847 29.9171 37.6432C28.7077 38.1298 27.4982 38.6165 26.2964 39.1031C25.3684 39.4756 24.3795 39.8634 23.3907 39.6961C23.1473 39.1031 22.9344 38.4568 23.0865 37.8409C23.2386 37.2098 23.7863 36.6928 24.4253 36.5787V36.5711Z" fill="#F2E7D6"/>
<path d="M23.581 41.6046C25.0871 41.1408 26.6008 40.7074 28.1221 40.3121C27.3919 38.4036 26.654 36.4951 25.9238 34.5791C25.1023 34.944 24.2732 35.3014 23.4517 35.6664C23.4289 35.0505 23.4061 34.4422 23.3833 33.8567C23.2616 31.0815 23.1171 28.215 22.0369 25.7058C17.5491 15.2967 11.7073 19.1136 7.34884 25.9339C4.14652 30.937 1.73525 37.5596 1.24083 41.3385C0.525827 46.8206 1.22564 77.1736 4.77785 81.652C6.6034 83.9559 21.2459 85.8339 23.8549 76.9379C23.4137 66.9698 23.7331 53.0859 23.5886 41.6046H23.581Z" fill="#98B99D"/>
<path d="M21.9228 2.15802C22.5845 2.7815 23.0637 3.57986 23.5353 4.36302C24.0678 5.25262 24.6078 6.16504 24.7752 7.1839C24.8741 7.77697 24.836 8.38524 24.7676 8.97831C24.6459 10.0276 24.41 11.0693 24.0753 12.0805C23.9004 12.0805 23.7179 12.0805 23.5429 12.0805C23.6342 10.978 23.7255 9.88312 23.8091 8.78062C23.8396 8.44607 23.8624 8.11152 23.7863 7.78457C23.6037 6.971 22.7899 6.39314 21.9532 6.32471C21.1241 6.24867 20.295 6.59843 19.6332 7.10026C18.9638 7.60209 18.4313 8.25598 17.8837 8.88707C17.1154 9.77667 16.3168 10.6359 15.4877 11.4646C15.2215 11.7384 14.8335 12.0273 14.4912 11.8524C14.3467 11.784 14.2478 11.6395 14.1261 11.5407C13.7382 11.2289 13.0993 11.3582 12.8179 11.7764C12.5364 12.187 12.62 12.78 12.9547 13.1526C13.2894 13.5252 13.8219 13.6772 14.3163 13.6088C14.2174 15.0002 14.1185 16.3917 14.0273 17.7831C13.9968 18.1709 13.974 18.5587 13.8219 18.916C13.4948 19.7144 12.6048 20.1782 11.7453 20.2238C10.8858 20.2618 10.0415 19.9501 9.26561 19.5623C8.57342 19.2126 7.91169 18.7944 7.40206 18.2165C6.89243 17.6386 6.55772 16.8707 6.61857 16.1027C6.66421 15.4945 6.99127 14.8786 7.54654 14.6125C8.10181 14.3463 8.86242 14.544 9.12865 15.0915C9.36445 15.5933 9.21238 16.3004 9.66877 16.6198C10.0187 16.8555 10.5283 16.6654 10.7641 16.3156C10.9999 15.9659 11.0379 15.5249 11.0455 15.0991C11.0759 13.0386 10.6424 11.0008 10.5739 8.94029C10.5054 6.87976 10.8781 4.68236 12.2701 3.16167C12.7341 2.65224 13.3046 2.23405 13.8979 1.88429C15.1378 1.15436 16.545 0.690552 17.9826 0.690552C19.4202 0.690552 20.8731 1.18478 21.9151 2.16562L21.9228 2.15802Z" fill="#808080"/>
</svg>
