<svg width="42" height="107" viewBox="0 0 42 107" fill="none" xmlns="http://www.w3.org/2000/svg">
<path d="M40.3075 47.0992C40.2467 46.6734 40.1706 46.2552 40.0185 45.8522C39.9272 45.6089 39.7979 45.3732 39.6001 45.2135C39.2806 44.955 38.8318 44.9398 38.4287 44.9854C37.9343 45.0462 37.4551 45.1983 37.0139 45.4264L36.4054 46.3921C36.5195 47.1981 36.4054 47.4565 36.7553 48.8023C36.9226 49.4486 37.5996 50.1406 37.843 50.7641C38.0788 51.3724 38.4439 51.9273 38.7481 52.5052C39.0524 53.0907 39.3035 53.7066 39.4936 54.3377C39.5697 54.6114 39.6457 54.8927 39.8207 55.1208C39.9956 55.3413 40.3075 55.4934 40.5661 55.3793C40.8019 52.6269 40.7183 49.844 40.3075 47.1068V47.0992Z" fill="#F0E5DA"/>
<path d="M41.1974 54.8774C40.9616 54.6113 40.6041 54.5125 40.2543 54.4364C39.988 54.3756 39.699 54.33 39.4327 54.4212C38.9231 54.6037 38.7406 55.3185 39.0068 55.7899C39.2806 56.2613 39.8663 56.4818 40.414 56.4362C40.6345 56.4209 40.8475 56.3601 41.0301 56.2385C41.456 55.9419 41.5321 55.2652 41.1898 54.8774H41.1974Z" fill="#F0E5DA"/>
<path d="M23.1017 66.8378C22.98 65.7809 22.6225 64.6403 21.1925 63.8952C19.4126 62.9752 16.6058 62.9676 14.1185 63.0741C11.5628 63.1881 8.65706 63.4771 7.33354 64.6404C6.51204 65.3627 5.53843 68.4193 5.58407 69.2633C5.88832 75.1864 6.96845 81.1018 8.82442 86.9413C9.84369 90.1576 11.0988 93.351 12.0268 96.5749C12.4831 98.164 12.8634 99.7607 13.0992 101.357C13.1449 101.677 13.7534 102.635 14.1109 103.236C14.8183 103.213 14.9476 103.19 15.655 103.182C16.2331 102.756 16.3091 102.201 16.3624 101.677C17.1763 93.6703 18.6672 85.6791 20.8122 77.7411C21.5957 74.8366 23.444 69.7651 23.1093 66.8378H23.1017Z" fill="#585858"/>
<path d="M15.3508 65.0206C16.6895 64.2375 18.728 63.9105 20.6829 63.69C22.4019 63.5 24.1438 63.3707 25.9009 63.3099C28.3882 63.2186 31.3167 63.363 32.6859 64.4655C33.4921 65.1118 33.5302 65.9406 33.5454 66.7162C33.5834 68.4954 33.6139 70.2822 33.0814 72.031C32.7239 73.1943 32.123 74.3272 31.8567 75.4981C31.4916 77.1633 31.8263 78.8437 31.7731 80.5165C31.7274 81.8395 31.4308 83.1472 31.157 84.4626C30.5789 87.2683 30.9592 90.2261 30.6093 93.0393C30.2974 95.5333 30.0844 98.0272 29.9551 100.521C29.9247 101.046 29.7269 102.658 28.875 103.243C28.3806 103.228 27.8786 103.213 27.3841 103.198C26.7984 102.559 26.0835 101 26.0835 100.552C26.1291 95.7918 23.4745 91.1689 21.1545 86.5916C18.3705 81.1095 16.9101 75.6046 14.4151 70.0845C13.6393 68.3661 13.1069 66.336 15.3432 65.0206H15.3508Z" fill="#585858"/>
<path d="M31.02 52.0719C30.3887 50.9238 29.0272 50.422 27.7569 50.0875C22.9344 48.8405 17.8 48.8101 12.9547 50.0038C12.6276 50.0799 12.2854 50.1787 12.0648 50.4296C11.7985 50.7261 11.7757 51.1595 11.7681 51.5625C11.7453 52.5281 11.7377 53.547 12.1788 54.4062C12.8938 55.79 14.5368 56.3527 16.0277 56.8013C18.0967 57.4172 20.196 58.0407 22.3487 58.0635L23.7254 58.8086C25.4673 59.0367 27.3081 58.8086 28.8066 57.9038C30.305 56.999 31.4003 55.3338 31.3775 53.5774C31.3699 53.0528 31.2634 52.5281 31.0124 52.0643L31.02 52.0719Z" fill="#3C3D3D"/>
<path d="M3.41625 55.6228C3.37822 59.6374 3.81936 65.013 5.85028 67.6057C7.24987 69.3925 9.18954 69.8108 11.0075 70.1301C16.621 71.1262 22.2954 69.5903 27.9242 70.229C29.0119 70.3506 30.1225 70.4647 31.1798 70.0465C34.6636 68.6551 35.7969 63.8497 36.2381 58.436C37.341 45.0388 36.7705 48.9697 33.6214 36.3404C32.4501 31.6566 29.9704 28.2047 27.2321 25.3763C24.0982 22.1372 15.366 22.7226 11.7301 24.3878C8.43651 25.9009 7.55413 31.6871 6.13933 36.3404C2.57951 48.0877 3.53795 42.7502 3.40864 55.6228H3.41625Z" fill="#4A4E31"/>
<path d="M6.39795 57.2042C6.60332 56.5579 6.223 55.7899 5.58405 55.5542L4.54197 55.942C4.39745 56.6567 4.48113 57.4171 4.78539 58.0862C5.43954 58.2611 6.19257 57.8429 6.39034 57.2042H6.39795Z" fill="#F0E5DA"/>
<path d="M11.7833 103.699C11.2357 104.171 10.6804 104.673 10.6956 105.228C10.6956 105.342 10.726 105.456 10.8325 105.555C10.9923 105.699 11.2965 105.783 11.5932 105.851C13.2133 106.201 15.0997 106.193 16.6971 105.821C17.085 105.729 17.4653 105.615 17.7392 105.448C18.1347 105.205 18.264 104.87 18.3401 104.551C18.515 103.745 18.3705 102.916 17.9217 102.141C17.8381 102.004 17.7392 101.859 17.5262 101.768C17.3665 101.7 17.1611 101.669 16.9633 101.646C16.4004 101.57 15.8147 101.487 15.2366 101.525C13.5328 101.639 12.544 103.053 11.7833 103.715V103.699Z" fill="#585858"/>
<path d="M26.0758 102.673C25.5281 102.909 25.3532 103.296 25.201 103.661L24.7827 104.673C24.6306 105.045 24.5165 105.501 25.049 105.76C25.3532 105.904 25.7944 105.942 26.2051 105.973C26.6539 106.003 27.1027 106.041 27.5438 106.072C28.1371 106.117 28.7761 106.155 29.3085 106.011C29.7649 105.889 30.0616 105.646 30.2898 105.403C30.9059 104.749 31.7274 103.342 30.5332 102.726C29.6736 102.285 26.9734 102.3 26.0758 102.68V102.673Z" fill="#585858"/>
<path d="M4.54958 55.562C4.61803 55.8281 4.72453 56.1322 4.98315 56.2007C5.21895 56.2691 5.47754 56.0867 5.57643 55.8586C5.67531 55.6304 5.66012 55.372 5.64491 55.121C5.43193 51.7831 5.37108 48.3996 6.03284 45.1149C6.18497 44.3545 6.37514 43.5942 6.32189 42.8186C6.26865 42.0507 5.91114 41.2448 5.22656 40.8874C4.81581 40.6745 4.32897 40.6365 3.86498 40.6973C3.59114 40.7353 3.31734 40.8114 3.08154 40.9634C2.60233 41.2752 1.58306 41.6478 1.50699 42.218C1.41572 42.8719 1.47656 43.5334 1.54502 44.1873C1.72757 45.9209 2.1155 48.4756 2.54146 50.1636C3.03588 52.1177 4.03994 53.6003 4.54196 55.5468L4.54958 55.562Z" fill="#F0E5DA"/>
<path d="M16.8492 26.3874C14.3543 23.0647 11.867 23.27 9.41014 26.3114C6.90001 29.4136 4.53438 32.6527 2.64038 36.1578C2.12314 37.1159 1.62872 38.1271 1.49941 39.2068C1.46138 39.5262 1.46899 39.8532 1.50702 40.1801C1.27883 40.2865 1.04303 40.4006 0.837651 40.5451C0.586638 40.7199 0.343249 40.9328 0.236758 41.2218C0.0770229 41.6552 0.267143 42.1342 0.480124 42.5524C0.677892 42.9401 0.921333 43.3355 1.32448 43.4876C1.90257 43.7005 2.50347 43.3279 3.07395 43.1074C3.56837 42.9173 4.10843 42.8337 4.64088 42.8718C5.15812 42.9098 5.66772 43.0542 6.18496 43.0314C6.7022 43.0086 7.26507 42.7501 7.4172 42.2558C7.5313 41.8909 7.45528 41.5639 7.27273 41.275C9.42535 39.7771 11.578 38.2793 13.723 36.7738C14.8868 35.9678 16.0581 35.1466 16.9785 34.0745C17.8989 33.0024 18.5683 31.6415 18.515 30.2272C18.4618 28.8054 17.7011 27.5127 16.8492 26.3798V26.3874Z" fill="#4A4E31"/>
<path d="M39.1285 44.0656C38.9536 43.9895 38.7634 43.9743 38.5733 43.982C37.9495 39.8609 36.8314 35.8386 35.0743 32.0597C34.1767 30.1208 33.0966 28.2276 31.5373 26.7753C30.518 25.8249 27.9927 23.9393 26.4866 24.6844C24.836 25.498 25.3837 28.5318 25.8629 29.8548C27.1255 33.3828 29.978 36.0591 32.1458 39.1157C33.4693 40.9786 34.5342 43.0011 35.4014 45.1072C35.2645 45.092 35.1352 45.1985 35.0743 45.3278C35.0135 45.457 35.0134 45.6014 35.0058 45.7459C35.0058 45.9816 35.0058 46.2478 35.1884 46.3999C35.3709 46.5596 35.6524 46.5291 35.8882 46.4683C36.588 46.2934 37.2574 45.9969 37.9191 45.708C38.2158 45.5711 38.52 45.4418 38.8167 45.3049C39.1285 45.1681 39.4936 44.9628 39.5088 44.6206C39.524 44.3849 39.3491 44.1644 39.1285 44.0656Z" fill="#4A4E31"/>
<path d="M17.5414 21.1944C18.2944 21.4073 19.0931 21.4529 19.8765 21.4605C22.0748 21.4909 24.4937 21.164 25.9541 19.5292C27.2852 18.039 27.4526 15.8644 27.5058 13.8647C27.5286 13.188 27.5362 12.4961 27.2624 11.8802C26.73 10.6864 25.3228 10.1846 24.0525 9.88047C21.8238 9.34823 19.4354 9.05928 17.2827 9.81963C12.1484 11.6369 12.1788 19.6661 17.5414 21.1944Z" fill="#F0E5DA"/>
<path d="M18.941 18.9971C19.5799 18.6169 20.3558 18.5637 21.1012 18.5333C21.2838 18.5257 21.4739 18.518 21.6261 18.6093C21.7402 18.6777 21.8162 18.7918 21.8923 18.8982C22.1205 19.2404 22.3182 19.5977 22.4171 19.9931C22.4628 20.1604 22.4856 20.3429 22.4324 20.5025C22.3791 20.6698 22.2345 20.8143 22.0596 20.8143C21.7553 20.8143 21.626 20.4417 21.4891 20.168C21.2381 19.689 20.6905 19.3772 20.1504 19.4153C19.6104 19.4533 19.1083 19.841 18.941 20.3505C18.7736 20.8371 18.2336 21.1716 18.0282 20.5329C17.8456 19.9627 18.5074 19.2404 18.941 18.9819V18.9971Z" fill="#776C62"/>
<path d="M33.4084 13.3856C33.3096 13.2108 33.2031 13.0359 33.1042 12.861C33.1726 12.4884 33.2411 12.1159 33.3019 11.7357C33.3704 11.3403 33.4465 10.9297 33.3552 10.542C33.2639 10.1542 32.9749 9.77399 32.5793 9.72077C33.1194 9.50787 33.3324 8.77033 33.0738 8.2457C32.8151 7.72106 32.1914 7.44735 31.6057 7.50057C32.0621 7.02916 32.161 6.2536 31.8415 5.68334C31.5144 5.11308 30.7918 4.80894 30.1529 4.96861C30.518 4.52001 30.3507 3.80528 29.9475 3.39469C29.5444 2.98411 28.9663 2.78644 28.4186 2.61156C28.6012 2.00328 28.0383 1.43299 27.4754 1.14405C26.2204 0.490158 24.6686 0.436939 23.3679 1.0072C23.4592 0.558594 22.8127 0.315291 22.3715 0.44455C21.9303 0.573808 21.4967 0.870362 21.048 0.748706C20.6296 0.642258 20.3177 0.178431 19.8842 0.208845C19.6027 0.231655 19.3441 0.459744 19.0779 0.383709C18.9105 0.338089 18.7888 0.17842 18.6367 0.102385C18.0738 -0.186546 17.4729 0.589036 16.8492 0.513001C16.7047 0.497794 16.5678 0.436954 16.4308 0.452161C16.2483 0.474971 16.1114 0.611846 15.9592 0.703088C15.7463 0.824743 15.4953 0.862728 15.2519 0.908349C13.8599 1.15166 12.5135 1.65353 11.2965 2.37586C11.1215 2.4823 10.9466 2.58875 10.7564 2.65718C10.5358 2.73321 10.3076 2.75603 10.0794 2.80165C9.47852 2.93091 8.94607 3.28062 8.42123 3.61517C8.10176 3.82047 7.76711 4.041 7.55413 4.36034C7.44003 4.53522 7.35633 4.7405 7.1966 4.86976C6.95319 5.05985 6.58048 5.03702 6.39032 5.28033C6.17734 5.55406 6.36749 5.96466 6.28382 6.29921C6.17733 6.7098 5.69051 6.8999 5.46992 7.26487C5.25694 7.62223 5.33304 8.07843 5.41672 8.48901C5.55363 9.15811 5.77422 9.92607 6.41316 10.1618C6.29146 10.5952 6.68695 11.0894 7.13573 11.0666C7.40957 11.9486 7.88878 12.7698 8.52011 13.4389C8.64942 13.5757 8.78637 13.7126 8.83962 13.8874C8.90047 14.0775 8.8472 14.2828 8.86241 14.4805C8.88523 14.8531 9.12104 15.1724 9.34924 15.469C9.58504 15.7731 10.0186 16.1 10.2924 15.8263C10.4446 16.2293 10.9085 16.4954 11.3345 16.427C11.3573 16.906 11.943 17.2558 12.369 17.0505C12.4222 17.6664 12.9243 18.1378 13.3959 18.5484C13.9055 18.997 14.4532 19.4532 15.1149 19.5824C14.6966 18.9133 14.2782 18.2366 14.0957 17.4687C13.8903 16.6323 13.9892 15.7579 14.0804 14.9063C14.1869 13.9255 14.301 13.1575 15.0161 12.4732C15.7843 11.7433 16.3852 10.7168 17.5033 10.4811C17.8 10.4203 18.1347 10.4051 18.3553 10.1922C18.4389 10.1085 18.5074 9.99448 18.6215 9.94886C18.728 9.90324 18.8497 9.92605 18.9638 9.94886C20.2493 10.2454 21.5347 10.5495 22.8202 10.8461C22.9876 10.8841 23.1625 10.9297 23.3071 11.0285C23.4059 11.097 23.4972 11.2034 23.6113 11.2415C23.7406 11.2795 23.8775 11.2414 24.0145 11.2338C24.8816 11.1654 25.3152 12.2908 26.091 12.6861C26.0302 12.9599 26.2356 13.2184 26.4105 13.4389C26.8365 13.9711 27.1407 14.6098 27.2928 15.2713C27.3841 15.6819 27.3993 16.1761 27.0799 16.4498C27.2776 16.5258 27.4754 16.6019 27.6732 16.6779C27.3157 17.0277 27.1635 17.5599 27.27 18.0466C28.3045 18.6092 29.415 16.9973 30.5788 17.2254C30.518 16.7996 31.1493 16.7159 31.5829 16.6855C32.5109 16.6247 33.3856 15.6362 33.0129 14.7846C33.3019 14.9443 33.6746 14.6478 33.7127 14.3208C33.7507 13.9939 33.5834 13.6822 33.4161 13.3932L33.4084 13.3856Z" fill="#776C62"/>
<path d="M21.6489 23.8631C21.5043 23.7643 21.337 23.7263 21.1697 23.6882C19.7625 23.3917 18.302 23.3461 16.8796 23.5666C16.5753 23.6122 16.2026 23.7414 16.1798 24.0532C16.1722 24.152 16.2103 24.2585 16.2331 24.3573C16.4613 25.1177 16.3776 25.9389 16.5145 26.7297C16.6514 27.528 17.0165 28.2579 17.374 28.9803C18.0586 30.3641 18.7508 31.7479 19.656 33.0025C19.6864 33.0405 19.7168 33.0785 19.7625 33.0861C19.8538 33.1013 19.8994 32.9797 19.9146 32.8884C20.082 31.7783 20.409 30.691 20.8882 29.6646L21.124 28.9879C21.162 27.7713 21.5347 26.5927 21.8694 25.4218C21.9455 25.1557 22.0216 24.8744 22.014 24.6007C22.0064 24.3193 21.8923 24.0304 21.6641 23.8707L21.6489 23.8631Z" fill="white"/>
<path d="M19.7701 33.0101C19.7701 32.8428 19.5267 32.8504 19.5115 33.0101C19.0095 38.3629 19.1236 43.845 19.0019 49.2207C18.8802 54.5203 19.0171 59.9264 17.8381 65.1271C17.7848 65.3628 18.1499 65.4692 18.2032 65.2259C19.3518 60.1544 19.2681 54.8929 19.4202 49.7225C19.5799 44.1796 19.9983 38.5454 19.7701 33.0101Z" fill="#DFDFDF"/>
<path d="M20.7518 52.8931C20.5006 52.7409 20.0971 52.9845 20.2417 53.3423C20.4549 53.8599 21.1476 53.5478 21.1096 53.0606C21.0943 52.8398 20.866 52.7942 20.7442 52.8931H20.7518Z" fill="#DFDFDF"/>
<path d="M19.9224 60.0558C19.6864 60.1243 19.7245 60.5582 20.0062 60.6267C20.1813 60.6724 20.3715 60.5734 20.4477 60.4211C20.5466 60.2232 20.4629 60.0177 20.3259 59.8655C20.1584 59.6904 19.9148 59.8731 19.93 60.0558H19.9224Z" fill="#DFDFDF"/>
<path d="M20.4852 45.8981C20.4395 45.9514 20.4167 46.0275 20.3939 46.0884C20.3634 46.1874 20.4471 46.294 20.5461 46.294C20.7821 46.294 20.942 46.0884 20.9115 45.86C20.8659 45.5175 20.4243 45.6469 20.4776 45.8981H20.4852Z" fill="#DFDFDF"/>
<path d="M20.2113 37.9302C20.3407 38.052 20.5615 38.0367 20.6833 37.9073C20.8356 37.7323 20.7595 37.4811 20.6072 37.3364C20.5387 37.2679 20.4321 37.2527 20.3484 37.306C20.2342 37.3745 20.1809 37.481 20.1961 37.5952C20.12 37.679 20.0895 37.816 20.2113 37.9302Z" fill="#DFDFDF"/>
</svg>
