<svg width="57" height="84" viewBox="0 0 57 84" fill="none" xmlns="http://www.w3.org/2000/svg">
<path d="M34.7442 60.449C35.2462 55.9554 36.2274 51.5911 36.8739 47.1203C36.9728 46.4283 37.0717 45.7288 37.1782 45.0369C36.4404 45.0597 35.695 45.0901 34.9572 45.1358C33.5652 44.8696 32.1656 44.6491 30.7584 44.4438C30.2716 44.3754 29.1534 51.8268 29.1838 52.6251C29.4272 59.7192 30.0814 66.8208 29.6478 73.9072C29.5641 75.3442 28.2635 75.4583 27.0312 75.7016C26.7878 75.7472 26.5292 75.7928 26.3314 75.9449C26.1336 76.0969 26.0043 76.3783 26.126 76.5988C26.2325 76.7889 26.4683 76.8497 26.6889 76.8953C28.3243 77.2222 29.9977 77.3972 31.6711 77.4048C31.77 77.4048 31.8765 77.4048 31.9602 77.3516C32.0286 77.306 32.0667 77.2299 32.1048 77.1615C32.3406 76.6749 32.3938 76.1122 32.2645 75.5875C32.2873 75.5875 32.3101 75.5951 32.3253 75.6027C33.664 70.8658 34.1888 65.954 34.6833 61.0726C34.7061 60.8673 34.729 60.6619 34.7518 60.4643L34.7442 60.449Z" fill="#808080"/>
<path d="M3.44351 74.044C3.13164 74.6903 2.88065 75.367 2.7057 76.0665C2.3406 77.5188 2.32539 79.1688 3.19253 80.3853C3.92275 81.4194 5.15494 81.9668 6.37197 82.3242C7.80199 82.7424 9.39935 82.9324 10.7533 82.3089C12.1605 81.655 13.0657 80.218 13.5373 78.743C13.9785 77.3667 14.1077 75.8156 13.484 74.5154C12.8527 73.1924 11.5139 72.3028 10.0915 71.9683C8.66913 71.6337 7.16309 71.8086 5.7559 72.204C5.20823 72.3561 4.65296 72.5461 4.227 72.9263C3.8847 73.2304 3.64889 73.641 3.45112 74.0516L3.44351 74.044Z" fill="#494947"/>
<path d="M5.57332 75.4809C5.39837 75.8383 5.26143 76.2109 5.17015 76.5987C4.97239 77.397 4.96476 78.3094 5.43636 78.9861C5.8395 79.5563 6.51652 79.8605 7.18588 80.0582C7.97695 80.2863 8.85164 80.3927 9.60468 80.0506C10.3805 79.6932 10.8826 78.8949 11.1412 78.0813C11.3846 77.321 11.453 76.4693 11.1107 75.747C10.7608 75.0171 10.0231 74.5229 9.23959 74.3404C8.45612 74.1579 7.627 74.2568 6.84354 74.4697C6.53928 74.5533 6.23503 74.6598 5.99923 74.8727C5.80907 75.04 5.67981 75.268 5.57332 75.4961V75.4809Z" fill="#999999"/>
<path d="M48.7172 76.8647C38.5549 76.9864 28.4079 76.8115 18.2457 76.5986C17.9871 73.1391 16.8081 69.8087 13.1418 68.7062C8.50184 67.3072 4.50843 68.1739 0.659565 71.5879C0.233603 71.9681 0.697653 72.8501 1.19207 72.5612C4.37157 70.7287 6.89691 69.573 10.51 70.1205C14.6327 70.7516 15.804 74.1579 15.7888 77.8912C15.7888 78.6287 16.405 79.123 17.0743 79.1534C27.6321 79.6172 38.205 79.6627 48.7704 79.5639C50.4666 79.5487 50.3982 76.8419 48.7019 76.8571L48.7172 76.8647Z" fill="#714F4E"/>
<path d="M45.6212 74.9639C45.3094 75.6102 45.0584 76.2869 44.8834 76.9864C44.5183 78.4387 44.5031 80.0886 45.3703 81.3052C46.1005 82.3393 47.3328 82.8868 48.5498 83.2441C49.9798 83.6623 51.5771 83.86 52.931 83.2289C54.3382 82.575 55.2434 81.1379 55.715 79.6628C56.1562 78.2866 56.2855 76.7355 55.6618 75.4354C55.0305 74.1124 53.6917 73.2228 52.2693 72.8882C50.8469 72.5537 49.3408 72.7285 47.9336 73.1239C47.386 73.2759 46.8307 73.466 46.4047 73.8462C46.0624 74.1503 45.8266 74.561 45.6289 74.9716L45.6212 74.9639Z" fill="#494947"/>
<path d="M47.7511 76.4011C47.5761 76.7585 47.4392 77.131 47.3479 77.5188C47.1501 78.3171 47.1425 79.2296 47.6141 79.9063C48.0172 80.4765 48.6942 80.7806 49.3636 80.9783C50.1547 81.2064 51.0295 81.3129 51.7825 80.9708C52.5584 80.6134 53.0603 79.815 53.3189 79.0014C53.5623 78.2411 53.6309 77.3895 53.2886 76.6672C52.9387 75.9373 52.2008 75.4431 51.4173 75.2606C50.6339 75.0781 49.8048 75.1769 49.0214 75.3898C48.7171 75.4734 48.4128 75.5799 48.177 75.7928C47.9868 75.9601 47.8575 76.1881 47.7511 76.4162V76.4011Z" fill="#999999"/>
<path d="M16.869 30.1949C15.5074 30.5599 14.1459 30.94 12.7843 31.2898C11.4988 31.6243 9.96993 31.7764 8.71486 32.2631C7.96943 31.9057 6.80556 32.1718 6.7295 33.1451C6.11337 40.9766 5.81678 48.8006 5.8396 56.6245C5.84721 60.1981 5.9537 63.7641 6.12865 67.3225C6.29599 70.5996 5.90043 74.7131 7.6271 77.6176C7.7488 77.8229 8.12154 77.8153 8.22042 77.572C9.23969 75.002 8.69202 72.1279 8.59313 69.4819C8.441 65.2468 8.38774 60.9964 8.38013 56.7461C8.37252 49.1503 8.69964 41.5316 9.27773 33.9282C9.32337 33.9282 9.36134 33.9358 9.40698 33.9358C10.1981 33.9358 11.0196 33.8142 11.803 33.7153C13.659 33.4948 15.5226 33.0918 17.3177 32.5672C19.0216 32.073 18.626 29.7083 16.869 30.1797V30.1949Z" fill="#714F4E"/>
<path d="M40.1142 58.2667C39.7415 57.8181 39.1938 56.8525 39.1482 56.3355C39.1178 55.9705 39.2775 55.6208 39.4296 55.2938C40.6467 52.6858 41.8713 50.0854 43.0884 47.4774C43.2177 47.2037 39.5438 46.4054 39.2091 46.3674C37.7791 46.2077 36.3491 46.2989 34.9191 46.0936C34.7974 46.0784 34.6757 46.0556 34.5616 46.1088C34.3638 46.1924 34.2953 46.4358 34.2573 46.6487C33.7172 49.5988 33.1696 52.5414 32.6295 55.4915C32.4546 56.4419 32.2797 57.3999 32.2949 58.3732C32.3101 59.1107 32.4166 60.0612 32.8425 60.6922C33.2533 61.2929 34.1813 61.4526 34.8582 61.7187C36.5849 62.403 38.3115 63.0722 40.0306 63.7641C43.5143 65.1631 46.9677 66.6381 50.2917 68.3945C51.5696 69.0712 51.136 70.2954 50.8545 71.5195C50.8013 71.7629 50.7329 72.0137 50.7861 72.2571C50.8394 72.5004 51.0448 72.7361 51.2958 72.7132C51.5164 72.698 51.6684 72.5003 51.7977 72.3255C52.7714 70.972 53.6157 69.5198 54.3155 67.9991C54.3612 67.9079 54.3992 67.8091 54.3839 67.7102C54.3687 67.6342 54.3231 67.5657 54.2698 67.5049C53.9275 67.0943 53.4256 66.8131 52.9007 66.7142C52.9159 66.699 52.9235 66.6761 52.9387 66.6609C53.068 66.4708 52.3911 66.0147 52.2922 65.931C50.2993 64.3419 48.0021 63.0721 45.8267 61.7491C44.5184 60.9584 43.21 60.1752 41.9017 59.3845C41.3997 59.0879 40.5782 58.7838 40.1903 58.3504C40.1675 58.3276 40.1447 58.2971 40.1142 58.2667Z" fill="#808080"/>
<path d="M34.9799 16.8204C35.7177 16.4098 36.4023 15.8396 37.3836 15.8016C38.593 15.7636 39.4145 16.562 39.9013 17.2767C43.8643 23.0477 45.6214 41.9119 44.4576 48.1771C39.4221 48.2152 31.8005 47.1583 26.7726 47.1355C26.4835 42.2617 26.9932 26.1803 27.442 21.3141C27.5713 19.9455 27.769 18.5009 29.0012 17.3756C30.9409 17.9382 33.3749 17.7101 34.9799 16.8129V16.8204Z" fill="#537082"/>
<path d="M35.4134 7.88633C35.2689 7.36169 35.094 6.83703 34.8506 6.35041C33.991 4.64724 31.4885 2.45744 29.4956 3.72722C29.0316 4.02375 28.6817 4.46479 28.3546 4.90579C28.0199 5.36199 27.7004 5.83337 27.457 6.3428C26.993 7.30084 26.7801 8.44899 26.9474 9.51347C27.0996 10.5019 27.6168 11.46 28.096 12.3191C28.735 13.4597 29.564 14.623 30.8039 15.0335C32.4545 15.581 34.3409 14.5241 35.1472 12.9806C35.9535 11.4371 35.8698 9.56669 35.421 7.88633H35.4134Z" fill="#E0CDB3"/>
<path d="M41.3161 9.77202C40.7608 8.63911 40.2055 7.50622 39.6426 6.3733C38.8059 4.67773 37.9236 2.92133 36.4708 1.758C33.7553 -0.408979 29.6858 0.19927 27.0464 2.39667C26.2934 3.02015 25.6163 3.78814 25.2664 4.72337C24.6047 6.52538 25.2817 8.57067 26.0804 10.3347C26.8714 12.1063 27.807 13.9463 27.6472 15.8776C28.1493 15.7787 28.5068 15.2769 28.6133 14.7523C28.7198 14.2276 28.6361 13.6878 28.5525 13.1556C28.3167 11.6729 28.096 10.1674 28.309 8.68473C28.5144 7.20966 29.2142 5.7422 30.4388 4.98186C33.4662 7.38455 35.5808 11.0038 36.2273 14.8892C37.1173 14.4634 38.1214 14.2885 39.1026 14.3721C39.5057 14.4101 39.9241 14.4862 40.3196 14.4025C41.1639 14.2277 41.955 13.3533 42.7309 13.7563C42.5788 12.3344 41.9398 11.0266 41.3161 9.74923V9.77202Z" fill="#F4D787"/>
<path d="M34.6148 24.9562C34.4702 24.8193 34.3029 24.7052 34.1127 24.652C33.3521 24.4467 32.7131 25.2223 32.3024 25.8914C30.918 28.1724 29.526 30.4687 28.4003 32.879C28.1873 32.7573 27.9287 32.7193 27.6777 32.6813C24.8481 32.2479 22.4901 31.9589 19.3639 31.6168C19.2574 31.6016 19.1432 31.5788 19.0215 31.5484C18.3065 31.2899 17.5535 30.8716 17.1199 30.5066C16.9906 30.4002 16.8689 30.2861 16.7244 30.2253C16.5722 30.1569 16.3897 30.1493 16.2528 30.2481C16.1235 30.347 16.0779 30.5675 16.2072 30.674C15.8421 30.5675 15.4693 30.4535 15.0966 30.4915C14.7239 30.5219 14.336 30.7347 14.2143 31.0921C14.047 31.5711 14.4044 32.0806 14.8151 32.3847C15.7279 33.0691 17.2416 33.51 18.451 33.5177C19.0291 33.7686 19.6909 33.9282 20.0865 34.0499C21.8664 34.5897 23.6539 35.1295 25.4338 35.6694C26.2781 35.9279 27.1377 36.1788 28.0124 36.1636C28.4916 36.156 28.948 36.042 29.3891 35.8519C32.0742 34.6885 33.953 30.5067 34.8049 28.1876C35.2005 27.1079 35.4439 25.7469 34.6224 24.9485L34.6148 24.9562Z" fill="#E0CDB3"/>
<path d="M32.8729 22.5992C31.6711 24.5913 30.4693 26.5757 29.2674 28.5679C28.8947 29.1913 28.5068 29.8224 27.9439 30.2862C27.381 30.75 26.6052 31.0086 25.9131 30.7653C25.586 30.6512 25.1828 30.4459 24.9394 30.6892C24.8253 30.8033 24.8024 30.9858 24.7872 31.1454C24.6047 33.1071 24.4297 35.0764 24.2472 37.0381C26.3238 36.8024 28.3927 36.559 30.4693 36.3233C30.7584 36.2929 31.0702 36.2473 31.2984 36.0572C31.4657 35.9128 31.5646 35.7075 31.6635 35.5022C33.0555 32.4608 34.4474 29.4194 35.8394 26.3704C36.2882 25.3896 36.7066 24.135 35.9992 23.3138C35.2766 22.4775 33.9607 22.736 32.8654 22.5916L32.8729 22.5992Z" fill="#537082"/>
</svg>
