<svg width="41" height="104" viewBox="0 0 41 104" fill="none" xmlns="http://www.w3.org/2000/svg">
<path d="M18.7009 20.7723C17.7577 19.5938 17.1036 18.2024 16.1375 17.0466C14.8368 15.4879 13.4448 14.3626 12.5777 12.5226C12.1669 13.1537 10.8206 13.7848 10.4099 14.4082C11.9692 16.5372 13.5437 18.3392 14.1978 21.2742C14.5021 22.6276 15.9702 24.6501 16.6699 25.8514C17.0427 26.4977 17.5523 27.0528 18.0848 27.5698C19.241 28.6875 20.6025 29.676 22.1846 29.9573C24.5807 30.3907 26.9311 28.8092 26.8778 26.2468C26.8322 23.943 23.7135 24.1559 22.139 23.4411C20.8079 22.8329 19.6061 21.9281 18.6933 20.7799L18.7009 20.7723Z" fill="#EDEDED"/>
<path d="M22.1695 18.8791C22.9225 19.1908 23.6451 19.3885 24.1775 19.3961C24.7937 19.4037 25.3718 19.0996 25.9118 18.8031C27.03 18.1948 28.209 17.5181 28.7795 16.3776C29.1142 15.7085 29.1978 14.9557 29.2663 14.2106C29.4336 12.3401 29.5097 10.4697 29.4945 8.59163C29.4945 7.62599 29.4412 6.61474 28.9088 5.80878C28.0188 4.45536 26.1629 4.21965 24.5427 4.12081C22.9453 4.02196 21.2491 3.94593 19.8343 4.69867C18.351 5.48943 18.7009 6.65275 18.5792 8.10501C18.4347 9.92223 18.3434 11.7395 18.3282 13.5567C18.3282 14.5908 18.351 15.678 18.8835 16.5677C19.3779 17.3888 20.8079 18.3088 22.1619 18.8715L22.1695 18.8791Z" fill="#EADDD0"/>
<path d="M31.358 77.1671C31.107 70.1035 31.6319 62.903 31.5863 55.7938C31.7536 53.3303 31.4797 50.8211 30.8028 48.5021C30.7571 48.3576 30.7115 48.2131 30.6278 48.0991C30.3692 47.7569 29.9204 47.9394 29.5705 48.1219C26.2465 49.8631 22.3216 49.4525 19.2866 46.9966C18.6857 48.1523 18.5184 49.5742 18.3662 50.9504C18.1304 53.1706 17.8642 55.3832 17.8033 57.6186C17.8033 57.6186 17.8033 57.6262 17.8033 57.6338C17.7881 58.1128 17.7805 58.5918 17.7881 59.0709C17.8262 61.8537 18.2521 64.591 18.5792 67.3282C18.7922 69.115 18.9823 70.917 19.0052 72.7266C19.0204 74.2093 18.853 75.5627 19.1193 77.015C19.7582 80.5886 19.7658 84.4816 20.0321 88.1312C20.3211 92.0394 20.6101 95.9552 20.8459 99.871C20.8535 100.023 20.8612 100.183 20.8764 100.342C21.0285 100.396 23.4017 101.088 23.4017 100.312C23.5919 92.7085 23.782 85.1127 23.9722 77.5092C24.0483 74.3082 23.8733 63.5037 24.5047 60.4623C24.7709 60.4927 25.0295 60.5307 25.2957 60.5611C26.7409 70.6205 28.4524 88.2377 29.8976 98.2971C30.0269 99.1791 30.1791 100.137 30.6355 100.707C31.0918 101.278 31.9513 101.118 32.0883 100.236C31.6623 92.5489 31.6167 84.8694 31.3428 77.1823L31.358 77.1671Z" fill="#4A4E31"/>
<path d="M24.4666 100.266C24.4438 100.183 24.4134 100.092 24.3905 100C24.0939 98.8522 23.9494 97.666 23.9494 96.4875C23.9494 95.9477 23.9798 95.4002 23.8505 94.8756C23.1659 94.8832 21.2415 94.7615 20.5569 94.7691C20.4961 94.7691 20.4352 94.7691 20.3895 94.8071C20.3363 94.8452 20.3287 94.9136 20.3135 94.9744C20.0168 96.6092 21.0285 98.4112 20.6557 100.023C20.5112 100.669 19.9027 100.905 19.3475 101.232C18.8606 101.521 17.9174 102.228 17.3393 102.228C17.0047 102.365 16.6624 102.494 16.4114 102.753C16.168 103.011 16.0691 103.452 16.2973 103.726C16.495 103.969 16.8525 103.992 17.1644 103.992C19.5528 104.015 21.9489 103.817 24.3069 103.384C24.4514 103.361 24.5959 103.331 24.7024 103.224C24.7861 103.141 24.8241 103.026 24.8545 102.92C25.1284 101.886 24.7404 101.156 24.4666 100.244V100.266Z" fill="#494949"/>
<path d="M33.1836 100.89C33.1075 100.631 32.9402 100.418 32.8489 100.175C32.7576 99.9242 32.8033 99.6049 32.8033 99.3311C32.8033 98.0918 32.8033 96.8524 32.8109 95.6206C32.8109 95.2481 32.7804 94.8071 32.461 94.617C32.2404 94.4877 31.9665 94.5257 31.7155 94.5714C30.9853 94.693 30.2627 94.8223 29.5325 94.9439C29.3423 94.9743 29.1293 95.02 29.0228 95.1796C28.9163 95.3393 28.9468 95.5522 28.9848 95.7347C29.1978 96.9284 29.2815 98.1374 29.2358 99.3463C29.2206 99.6961 29.1978 100.038 29.2358 100.388C28.3991 101.103 27.4711 101.719 26.4823 102.198C26.1932 102.342 25.889 102.479 25.6836 102.73C25.4783 102.981 25.4174 103.376 25.6456 103.612C25.8434 103.817 26.1552 103.817 26.4367 103.802C28.5817 103.673 30.7191 103.338 32.8033 102.806C32.925 102.775 33.0619 102.737 33.1456 102.639C33.214 102.563 33.2368 102.456 33.2596 102.357C33.3509 101.871 33.3205 101.369 33.176 100.897L33.1836 100.89Z" fill="#494949"/>
<path d="M22.1543 21.449C22.4661 21.3426 22.7704 21.2285 23.0747 21.1069C24.6036 20.5214 26.14 19.9359 27.6689 19.3428C27.8971 19.2592 28.1405 19.168 28.3763 19.2136C28.5589 19.2516 28.7186 19.3657 28.8632 19.4873C31.7232 21.7912 32.499 25.5397 33.2825 28.9536C36.0589 41.0127 36.9336 53.4671 35.8687 65.7695C29.0381 66.9328 22.1238 67.6932 15.1943 68.0429C15.5823 68.0277 16.3734 59.5955 16.4646 58.7667C16.9895 53.8929 17.2709 48.9963 17.2253 44.0997C17.1797 39.1802 17.4383 34.2836 17.7958 29.3794C17.9403 27.3949 18.1076 25.4104 18.2902 23.4259C18.3586 22.6503 20.6026 21.8444 21.173 21.7227C21.5077 21.6543 21.8348 21.5555 22.1619 21.4414L22.1543 21.449Z" fill="#EBEFEB"/>
<path d="M39.9229 28.1628C39.3904 27.5698 38.5385 27.1896 38.3559 26.414C38.2114 25.7982 38.5689 25.1823 39.0025 24.7185C39.4285 24.2547 39.9533 23.8669 40.2575 23.3194C40.8889 22.1941 40.288 20.567 39.0709 20.126C38.5765 19.9435 38.0288 19.9435 37.542 19.7458C37.0552 19.5405 36.6292 19.0083 36.8194 18.5141C37.0248 18.0046 37.8159 17.6929 37.6409 17.1683C37.5877 17.0162 37.4584 16.9097 37.3291 16.8109C36.9031 16.4915 36.4391 16.233 35.9447 16.0429C35.5568 15.8909 35.146 15.7844 34.8113 15.5335C33.9594 14.8872 33.9442 13.5946 33.2901 12.7354C32.1719 11.2528 29.5477 11.5113 28.6121 9.91455C28.3002 9.38231 28.247 8.73602 27.9503 8.19618C27.2277 6.88839 25.4554 6.69069 23.9645 6.72871C22.6714 6.76672 21.3783 6.85797 20.0852 7.01764C19.2181 7.12409 18.1912 7.38261 17.887 8.20378L17.6664 9.48115C17.3849 9.86893 17.7501 10.4012 18.1304 10.6901C20.6025 12.5606 24.3601 11.9979 26.7333 13.99C27.7373 14.834 28.3611 16.0429 28.7338 17.2975C28.9163 17.8982 29.038 18.5369 28.9696 19.1604C28.8175 20.567 27.7602 21.6695 26.9615 22.8328C25.9879 24.247 25.3413 25.897 25.0979 27.6002C24.9762 28.4594 24.9914 29.4402 25.5999 30.0561C26.1704 30.6339 27.144 30.7556 27.5776 31.4475C28.1253 32.3219 27.4483 33.4472 27.4787 34.4813C27.5015 35.4621 28.2545 36.3746 29.213 36.5799C29.9888 36.7471 30.7875 36.4962 31.5786 36.405C32.3697 36.3213 33.3128 36.481 33.6856 37.1881C33.9518 37.6823 33.8529 38.3058 34.0811 38.8229C34.4082 39.5756 35.3514 39.895 36.1577 39.7657C36.9639 39.6364 37.6713 39.165 38.3483 38.7012C38.7134 38.4503 39.1166 38.1461 39.1622 37.7051C39.1926 37.3934 39.0329 37.0969 38.858 36.8384C38.3027 36.0248 37.4812 35.158 37.7702 34.2152C37.9604 33.5917 38.5765 33.2191 39.0785 32.8009C39.7555 32.2383 40.288 31.4855 40.4857 30.634C40.6835 29.7824 40.5009 28.8243 39.9152 28.1704L39.9229 28.1628Z" fill="#EDDDB2"/>
<path d="M20.1537 2.52406C20.9828 1.63446 22.0933 1.02618 23.2723 0.714434C25.5391 0.113762 28.1177 0.630805 29.8443 2.21993C30.2703 2.6153 30.643 3.07151 30.856 3.60375C31.0385 4.06756 31.0918 4.56939 31.1222 5.07122C31.145 5.49701 31.1602 5.93041 31.0462 6.34099C30.856 7.0253 30.3312 7.66399 30.4833 8.3559C30.6506 9.10104 31.4797 9.4356 32.1719 9.76254C32.8641 10.0819 33.5183 10.5001 34.104 10.9943C34.2561 11.1236 34.4158 11.268 34.4919 11.4581C34.5679 11.6482 34.5451 11.8915 34.3854 12.0208C34.2789 12.1044 34.1268 12.1196 33.9898 12.1348C29.8976 12.4238 25.8358 11.4049 21.8424 10.4773C19.6973 9.98305 17.5067 9.50403 15.6051 8.39392C15.1335 8.1202 14.6771 7.79325 14.4108 7.32183C14.1446 6.85042 14.137 6.19653 14.5173 5.81635C14.9813 5.35254 15.7496 5.4666 16.3885 5.61867C17.3013 5.83156 18.3814 6.40942 18.7998 5.29171C19.1877 4.26525 19.3931 3.36804 20.1689 2.53166L20.1537 2.52406Z" fill="#BE475A"/>
<path d="M7.58785 16.3776C5.67863 18.1644 3.32825 19.4646 0.802904 20.1261C0.673595 20.1641 0.536686 20.1945 0.430196 20.2857C0.331312 20.377 0.270471 20.5367 0.346536 20.6507C0.392174 20.7191 0.468207 20.7572 0.551878 20.7876C1.07672 20.9853 1.66242 20.9625 2.21769 20.9396C6.68268 20.7724 11.1553 20.7724 15.6203 20.9548C15.9702 20.9701 16.3353 20.9853 16.67 20.8712C16.8677 20.8028 17.0731 20.6203 16.997 20.4302C16.9742 20.3694 16.9134 20.3162 16.8601 20.2782C15.5518 19.1985 13.8252 18.7955 12.3343 17.9971C11.2922 17.4345 10.3642 16.6893 9.44382 15.9442C9.11675 15.6781 8.76687 15.3663 8.75166 14.9405C8.74405 14.644 8.91139 14.3627 8.94182 14.0661C9.00267 13.4046 8.33331 12.8648 7.67155 12.7811C7.23038 12.7203 6.76637 12.8116 6.42408 13.0929C6.08179 13.3742 5.90682 13.8684 6.06656 14.279C6.12741 14.4387 6.23391 14.5832 6.36322 14.6972C6.63705 14.9405 7.02499 15.0774 7.37489 14.9633C7.72479 14.8493 7.97581 14.4539 7.86171 14.1042C7.74762 13.7544 7.22275 13.6099 6.98695 13.8836C7.11626 13.6708 7.49661 13.7392 7.58028 13.9749C7.66395 14.2106 7.489 14.4843 7.24559 14.5528C6.97937 14.6288 6.66749 14.4767 6.56861 14.2182C6.46972 13.9749 6.56861 13.6784 6.75877 13.4883C6.94893 13.2982 7.22273 13.2221 7.48896 13.2069C7.68673 13.1993 7.88449 13.2222 8.05944 13.321C8.52344 13.5871 8.6756 14.4083 8.61475 14.9025C8.53868 15.4956 8.01382 15.9898 7.60307 16.3776H7.58785Z" stroke="#1E1E1E" stroke-width="0.3" stroke-miterlimit="10"/>
<path d="M6.02858 16.9783C7.78567 17.1988 9.55799 17.2444 11.3227 17.1151C11.6117 19.3962 13.0645 21.4947 15.0955 22.5668C15.4225 22.7417 15.8181 22.9774 15.7877 23.35C15.7801 23.4792 15.7116 23.5933 15.6584 23.6997C14.0686 26.6803 13.521 30.1246 13.559 33.5005C13.597 36.8765 14.2055 40.222 14.8065 43.5447C14.0458 43.9021 13.1862 43.9477 12.3419 43.9705C8.65279 44.0922 4.94845 44.0389 1.31257 43.4307C1.16805 43.4078 1.01593 43.3774 0.901837 43.2862C0.597579 43.0429 0.749716 42.5639 0.909451 42.2141C2.88713 37.8802 2.79586 32.9227 2.67415 28.1553C2.65133 27.4026 2.63613 26.6422 2.49161 25.8971C2.37751 25.2888 1.51794 23.8594 1.73853 23.3804C1.85263 23.1294 2.51438 22.7265 2.73497 22.4984C3.03923 22.179 3.34349 21.8521 3.64014 21.5175C4.21823 20.856 4.75832 20.1565 5.19189 19.3962C5.29077 19.2137 6.21113 17.0011 6.02858 16.9783Z" fill="#B3DCC8"/>
<path d="M12.2963 13.5186C12.243 13.1689 11.9768 12.8951 11.7182 12.6594C11.5812 12.5378 11.4519 12.4085 11.3074 12.2945C10.562 11.709 9.59598 11.4125 8.65278 11.4961C8.38655 11.5189 8.10512 11.5797 7.89975 11.7546C7.7324 11.8991 7.64111 12.112 7.60308 12.3325C7.59548 12.3857 7.58787 12.4313 7.60308 12.4846C7.64111 12.667 7.86171 12.7279 8.03666 12.7583C8.22682 12.7887 8.4246 12.8191 8.57673 12.9332C8.72886 13.0472 8.8201 13.2677 8.72882 13.435C8.68318 13.511 8.60712 13.5642 8.59191 13.6555C8.56149 13.8 8.70602 13.914 8.84294 13.9672C9.35257 14.1421 9.92305 13.8684 10.4555 13.9824C10.6152 14.0204 10.775 14.0889 10.9347 14.1345C11.0944 14.1801 11.277 14.1877 11.4215 14.1117C11.5737 14.0889 11.7258 14.0661 11.8779 14.0357C12.03 13.9976 12.1974 13.9444 12.2735 13.8075C12.3191 13.7239 12.3191 13.6251 12.3115 13.5338L12.2963 13.5186Z" fill="#EADDD0"/>
<path d="M7.87689 30.3527C7.86928 29.9497 7.85408 29.5467 7.74759 29.1589C7.61068 28.6495 7.30641 28.2009 6.9337 27.8283C6.6979 27.5926 6.40124 27.3797 6.07416 27.3949C5.77751 27.4025 5.51129 27.6002 5.35916 27.8511C5.20703 28.1021 5.14618 28.3986 5.12336 28.6875C5.02447 29.9193 5.73188 32.1167 7.22275 32.1547C7.48897 32.1547 7.79323 32.0787 7.8845 31.8353C7.91493 31.7441 7.91491 31.6453 7.91491 31.554C7.90731 31.151 7.89211 30.7481 7.8845 30.3451L7.87689 30.3527Z" fill="#EADDD0"/>
<path d="M20.4808 39.013C19.3854 40.4728 17.9859 42.0316 16.1679 42.0316C14.9737 42.0316 13.9012 41.3244 12.9504 40.6021C11.0564 39.1422 9.33733 37.4619 7.83886 35.5914C6.88805 34.4129 5.99811 32.801 6.71312 31.4628C6.81961 31.2575 6.97935 31.0598 7.19994 30.9837C7.71718 30.8089 8.17355 31.3487 8.47021 31.8049C9.95346 34.0403 12.0604 35.85 14.4869 36.9829C14.7911 37.1273 15.1106 37.2566 15.4453 37.2642C16.3277 37.2794 16.959 36.4582 17.4382 35.7131C19.317 32.7782 21.0513 29.752 22.641 26.6422C22.9453 26.0415 23.2571 25.4256 23.7668 24.9846C24.5502 24.3003 25.7749 24.1558 26.6952 24.6577C29.6922 26.2696 26.8322 29.5923 25.6988 31.4095C24.071 34.0175 22.3291 36.5571 20.4808 39.013Z" fill="#EDEDED"/>
</svg>
