<svg width="42" height="109" viewBox="0 0 42 109" fill="none" xmlns="http://www.w3.org/2000/svg">
<path d="M18.1084 3.51294C19.3178 4.43295 20.048 5.83957 20.7174 7.20059C21.5541 8.89616 22.368 10.6526 22.4897 12.5382C22.581 13.9297 22.2995 15.4199 22.9385 16.6593C20.5653 17.5641 18.2225 18.5753 15.933 19.6854C12.6698 16.1574 10.3954 11.717 9.45225 7.00289C9.42182 6.84322 9.3914 6.68355 9.45225 6.53148C9.5131 6.36421 9.67282 6.25016 9.81734 6.15131C11.8559 4.8055 14.2138 4.02997 16.5414 3.27723C16.7848 3.19359 17.0434 3.11752 17.3021 3.14033C17.6063 3.17074 17.8726 3.33802 18.116 3.5205L18.1084 3.51294Z" fill="#E8DBCE"/>
<path d="M15.8872 39.2947C15.9253 38.6256 15.9025 38.2606 15.3244 37.8272C15.0429 37.6143 14.7006 37.5155 14.3736 37.3862C13.6586 37.1049 13.2554 36.7248 12.6545 36.2838C12.2361 35.9796 11.8406 35.7667 11.3918 35.6755C11.3309 35.6146 11.2777 35.5538 11.2245 35.493C10.9583 35.2193 10.5019 35.2269 10.2281 35.493C9.70324 36.0024 8.95015 36.8236 9.32287 37.6144C9.49021 37.9641 9.90856 38.2378 10.2661 38.4811C10.3041 38.5571 10.3649 38.6256 10.441 38.694C11.8634 39.8269 12.5404 41.5909 13.9324 42.7618C14.0237 42.8379 14.1226 42.8835 14.2215 42.914C14.2063 43.0432 14.2291 43.1952 14.3127 43.3397C14.3964 43.4842 14.4801 43.6287 14.5637 43.7731C14.8832 44.3282 15.9709 44.138 15.872 43.4157C15.6818 41.9939 15.7959 40.7089 15.872 39.2947H15.8872Z" fill="#C0B8A5"/>
<path d="M40.9962 101.955C37.8547 90.0552 32.5378 72.1794 29.3963 60.28C26.3461 61.0252 24.7031 66.3324 21.7746 67.4577C20.8619 67.8075 18.694 65.6253 18.8994 66.7734C19.0439 67.5642 21.478 70.7347 21.8735 71.4723C24.5814 76.521 27.4339 81.5773 29.6854 86.8769C30.3395 88.4128 30.8567 90.0019 31.4576 91.5606C32.4693 94.2066 33.7016 96.769 35.0023 99.2858C35.5119 100.274 36.8887 101.955 36.9875 103.034C37.0712 103.954 35.9379 104.874 35.2229 105.513C34.9871 105.726 34.7284 105.939 34.5991 106.235C34.4698 106.532 34.5231 106.927 34.7969 107.087C35.0403 107.231 35.3446 107.14 35.6108 107.049C37.6341 106.342 39.5889 105.445 41.4449 104.372C41.559 104.312 41.6731 104.236 41.7264 104.122C41.772 104.03 41.772 103.924 41.7568 103.817C41.696 103.125 41.3841 102.472 40.9049 101.977C40.9277 101.97 40.9581 101.955 40.9809 101.947L40.9962 101.955Z" fill="#444748"/>
<path d="M26.2245 105.422C27.3882 92.1767 28.514 72.0655 29.6778 58.8203C26.3082 58.4629 22.6951 63.2532 19.3102 63.3368C18.2605 63.3596 16.8457 60.3486 16.6403 61.5956C16.4958 62.4472 17.8118 66.5683 17.9411 67.4579C18.8463 73.5787 19.8959 79.7603 20.2458 85.9647C20.3447 87.7667 20.299 89.5687 20.3371 91.3707C20.3979 94.4349 20.7174 97.4839 21.1129 100.518C21.2727 101.704 22.0561 103.916 21.7595 105.057C21.5085 106.023 20.0253 106.54 19.0592 106.935C18.7398 107.064 18.3974 107.194 18.1616 107.444C17.9258 107.695 17.8269 108.121 18.0475 108.387C18.2377 108.623 18.58 108.646 18.8843 108.646C21.1967 108.669 23.5166 108.471 25.7909 108.06C25.9278 108.037 26.0724 108.007 26.1712 107.908C26.2473 107.832 26.2853 107.718 26.3157 107.612C26.5059 106.889 26.4374 106.106 26.1256 105.429C26.156 105.429 26.1865 105.429 26.2169 105.429L26.2245 105.422Z" fill="#444748"/>
<path d="M19.082 21.4645C19.3711 21.3657 19.6601 21.2592 19.9416 21.1452C21.3716 20.5977 22.7939 20.0503 24.2239 19.5028C24.4369 19.4192 24.6652 19.3356 24.8858 19.3888C25.0607 19.4268 25.2052 19.5332 25.3421 19.6397C28.0044 21.7914 30.0201 32.9913 30.5677 37.7283C31.8913 49.179 32.8649 51.3081 31.876 62.7741C25.5094 63.8614 22.4593 57.0411 16.0014 57.3604C16.3589 57.3452 15.1266 55.7864 15.2103 55.0185C15.6971 50.4792 14.5486 47.1489 14.5029 42.5793C14.4573 37.9944 15.3396 34.6641 15.6666 30.0868C15.8036 28.2392 16.2904 27.4408 16.4577 25.6008C16.5262 24.8785 17.6444 21.8447 18.1692 21.7306C18.4811 21.6622 18.7853 21.571 19.0895 21.4721L19.082 21.4645Z" fill="#DBDBDB"/>
<path d="M15.0734 26.3155C15.0582 26.7261 15.6286 27.228 15.8568 27.5397C15.9709 27.6994 16.2219 27.7374 16.336 27.5397C16.7772 26.7337 17.1423 25.8973 17.3857 25.0153C17.3857 25.0001 17.3857 24.9925 17.3857 24.9773C17.6139 24.9545 17.69 24.5971 17.4238 24.5287C16.8913 24.3918 16.3665 24.3158 15.8188 24.293C15.72 24.293 15.5982 24.369 15.583 24.4755C15.5297 24.8252 15.4614 25.175 15.3625 25.5172C15.294 25.7529 15.081 26.0798 15.0734 26.3231V26.3155Z" fill="#1A1A1A"/>
<path d="M14.2214 38.3898C14.2366 42.4576 14.3964 46.5027 15.2407 50.3957C15.3396 50.8595 15.8264 50.791 15.8112 50.2816C15.7503 46.4799 15.7199 42.6782 15.7199 38.8764C15.7807 38.7776 15.8187 38.6408 15.7883 38.4659C15.7655 38.3443 15.7503 38.2225 15.7275 38.1009C15.7275 35.9719 15.7427 33.843 15.7655 31.714C15.8872 30.3454 15.9937 28.9615 15.8948 27.5549C15.8644 27.0911 15.4004 26.7489 15.2407 27.2888C14.191 30.794 14.2138 34.6185 14.229 38.3974L14.2214 38.3898Z" fill="#1A1A1A"/>
<path d="M34.5307 60.6148C32.9409 52.8821 33.055 44.9745 32.2868 37.1505C31.5718 29.8512 29.6321 25.1751 26.5515 18.5221C25.9126 17.1459 24.8781 16.1498 23.8208 16.8037C21.7823 17.1231 22.0789 17.0851 21.4703 17.4272C20.9987 17.5565 20.5424 17.853 20.1089 18.1876C19.759 18.4233 19.4546 18.6818 19.1884 18.9555C19.0591 19.062 18.9374 19.1608 18.8233 19.2444C17.6747 20.096 16.4881 20.9704 15.4917 21.9969C15.3091 22.1794 15.4537 22.4607 15.6895 22.4759C16.3284 22.5291 16.8761 22.8561 17.439 23.107C17.4238 23.2286 17.4085 23.3503 17.3933 23.472C17.3401 23.5252 17.2868 23.586 17.2412 23.6392C18.1007 24.2171 18.7549 25.0611 18.9222 26.0952C19.5459 29.9957 18.8537 33.4781 18.5419 37.3558C18.2224 41.3324 18.0855 45.3243 17.6747 49.3009C17.6367 49.6735 17.5607 50.0384 17.4618 50.3881C17.477 50.3881 17.4922 50.3881 17.515 50.3881C16.8152 54.9198 16.336 59.4895 15.2939 63.9603C15.2863 63.9983 15.2712 64.0363 15.2635 64.0744C15.8112 65.5114 17.3401 66.4847 18.8766 66.5531C23.6611 66.7812 27.9359 65.7471 32.4541 64.2797C34.0743 63.7474 34.8806 62.242 34.5459 60.5996L34.5307 60.6148Z" fill="#C0B8A5"/>
<path d="M14.4876 80.4064C14.4648 80.9615 14.9364 81.661 15.5068 81.7446C18.3136 82.1552 20.9683 82.2541 23.7751 82.3682C26.3613 82.467 29.5332 83.349 31.9977 82.4137C32.1498 82.3529 32.2715 82.2769 32.378 82.1781C32.4921 82.1553 32.6062 82.1325 32.7203 82.0945C33.1842 81.9576 33.5266 81.5242 33.5266 81.0376C33.557 80.8171 33.595 80.589 33.6255 80.3685C33.7091 80.186 33.7472 79.973 33.7167 79.7221C33.4505 77.4411 33.3212 75.1676 33.093 72.8866C33.1082 72.7117 33.093 72.5369 33.0398 72.3696C32.9941 71.9742 32.9637 71.5788 32.9104 71.191C32.8496 70.6892 32.5301 70.3547 32.1498 70.195C31.9748 70.0582 31.7542 69.9593 31.4728 69.9593C30.0808 69.9365 28.6964 69.9137 27.3045 69.8909C27.3045 68.2181 25.9353 66.4769 24.2011 66.3324C22.5885 66.1956 21.942 68.2485 21.8431 69.792C19.9795 69.7616 18.1082 69.7312 16.2447 69.6932C15.6133 69.6856 15.2179 70.1038 15.0886 70.6284C14.9516 70.8033 14.8603 71.0314 14.8527 71.3127L14.4952 80.3988L14.4876 80.4064ZM26.4678 69.8757L22.7025 69.8149C22.8318 69.4499 23.0069 69.1077 23.2503 68.8188C23.3111 68.796 23.3567 68.7504 23.3795 68.6743C23.4632 68.5907 23.5545 68.5146 23.6609 68.4462C24.1554 68.1117 24.9617 68.1193 25.6159 68.393C25.7376 68.5375 25.8516 68.6972 25.9505 68.8568C26.1559 69.1762 26.3156 69.5259 26.4678 69.8833V69.8757Z" fill="#1A1A1A"/>
<path d="M25.3953 61.2989C24.9085 61.2837 24.3989 61.162 23.9121 60.9644C23.9121 61.6335 23.9045 62.3026 23.8893 62.9641C23.8893 63.0477 23.874 63.1237 23.8664 63.2073C23.798 64.0969 23.5927 64.9713 23.2656 65.7697C23.1895 65.9598 23.1058 66.1727 23.1667 66.3628C23.2732 66.6593 23.6154 66.5604 23.8436 66.416C23.5393 67.3588 23.585 68.4613 23.9653 69.3129C24.1174 69.4118 24.2848 69.4726 24.4521 69.4118C24.6271 69.3433 24.6575 69.024 24.8629 68.9632C27.7914 68.142 26.3689 64.8801 26.1331 62.7435C26.1407 62.7435 26.1484 62.7435 26.1636 62.7359C26.2092 62.2341 26.2549 61.7399 26.3082 61.2381C26.0115 61.2837 25.7072 61.3065 25.3801 61.2989H25.3953Z" fill="#E8DBCE"/>
<path d="M10.0227 35.3105C9.96947 35.2269 9.90098 35.1584 9.8021 35.0976C9.73364 35.0596 9.65755 35.0139 9.58148 34.9759C9.4826 34.8086 9.41421 34.3069 9.36096 34.1852C9.23165 33.9039 9.07186 33.7062 8.82845 33.5237C8.39489 33.1968 7.94615 33.0447 7.54301 32.6569C6.78236 31.9346 5.29153 32.3831 4.5385 32.9078C3.3671 33.729 4.48521 34.801 5.25346 35.3637C6.31075 36.1468 7.53535 36.5803 8.82084 36.7247C9.10228 36.2001 9.49787 35.7287 10.0151 35.3105H10.0227Z" fill="#E8DBCE"/>
<path d="M7.20077 29.9652C7.1171 29.8587 7.02575 29.7446 6.94208 29.6382C6.91926 29.6078 6.88885 29.5697 6.86603 29.5393C5.97608 28.4748 4.86554 27.6765 3.63329 27.6765C2.33259 27.6765 0.727658 28.1859 0.240845 29.4633C1.20686 30.9916 2.50755 32.1549 3.92996 33.265C4.50044 33.7136 5.20025 34.2839 5.94568 34.4055C6.01414 34.436 6.075 34.474 6.14346 34.5044C6.47814 34.3523 6.79755 34.1699 7.12463 33.9874C7.62665 33.7061 8.41013 33.3639 8.75242 32.8317C8.42534 31.9345 7.89287 30.8852 7.20829 29.9652H7.20077Z" fill="#666666"/>
<path d="M4.93402 32.9459C5.20785 33.2044 5.45127 33.4857 5.70989 33.7518C6.64548 33.5237 7.6191 33.1968 7.98421 32.3832C7.39091 31.2731 6.18154 29.798 6.04462 29.6232C5.80882 29.3342 5.57296 29.0377 5.32195 28.7487C4.66019 27.9808 3.77784 28.1252 2.84986 28.2545C2.3098 28.3305 0.60597 28.8096 1.63284 29.6308C1.74694 29.722 1.86861 29.8133 1.98271 29.9121C2.95633 30.931 3.91476 31.9802 4.94163 32.9459H4.93402Z" fill="#F0F0F0"/>
<path d="M4.51574 30.8245C4.21122 30.8245 4.21122 31.2964 4.51574 31.2964C4.82026 31.2964 4.82026 30.8245 4.51574 30.8245Z" fill="#CACACA"/>
<path d="M5.57319 30.353H5.45898C5.15446 30.353 5.15446 30.825 5.45898 30.825H5.57319C5.87771 30.825 5.87771 30.353 5.57319 30.353Z" fill="#CACACA"/>
<path d="M6.26501 31.0676C5.72495 31.3566 5.16209 31.5923 4.5764 31.7748C4.28735 31.866 4.40908 32.3146 4.69813 32.2234C5.32186 32.0333 5.92276 31.7824 6.50085 31.4707C6.76708 31.3262 6.53123 30.9232 6.26501 31.0676Z" fill="#CACACA"/>
<path d="M6.10536 32.018C5.83152 32.1321 5.55772 32.2462 5.28389 32.3602C5.01006 32.4743 5.1317 32.9304 5.40553 32.8088C5.67936 32.6947 5.95325 32.5807 6.22709 32.4667C6.50092 32.3526 6.37919 31.8963 6.10536 32.018Z" fill="#CACACA"/>
<path d="M22.5277 5.91544C22.5277 5.91544 22.5505 5.86223 22.5505 5.83182C22.5886 5.76339 22.619 5.67974 22.6418 5.58089C22.6798 5.3756 22.619 5.12469 22.4973 4.87378C22.3072 4.2579 21.8432 3.73324 21.2499 3.71804C21.0673 3.67242 20.8847 3.66484 20.7097 3.69525C20.6337 3.65723 20.5577 3.62682 20.4816 3.60401C20.3447 3.44434 20.2077 3.29224 20.0556 3.14017C19.9719 2.92727 19.8351 2.72199 19.6525 2.53951C19.5232 1.79437 18.9222 1.29253 18.1464 1.29253C17.9638 1.29253 17.7889 1.33055 17.6292 1.38377C17.1272 1.10244 16.5338 0.988424 15.9101 0.988424C15.72 0.965614 15.545 0.973193 15.3928 1.01121C14.2214 1.11766 13.0121 1.52826 12.145 1.88563C10.4944 2.56994 8.73722 3.60401 7.99939 5.26917C7.90051 5.33 7.80162 5.41362 7.71034 5.54288C7.34523 6.08273 7.71799 6.81264 8.12873 7.18521C8.42539 7.45133 8.82091 7.58819 9.25447 7.65662C9.45224 7.99877 10.0303 8.15846 10.3954 7.86192C10.4867 7.8011 10.5704 7.72509 10.6616 7.64905C10.8518 7.62624 11.042 7.60341 11.2245 7.5806C13.187 7.8087 15.1267 7.67943 17.0663 7.32967C17.363 7.54257 17.6824 7.70225 18.0475 7.76308C18.1083 7.77068 18.1617 7.76308 18.2149 7.76308C18.2149 7.93035 18.2225 8.10524 18.2301 8.29533C18.2605 9.1165 18.4507 9.89966 18.6865 10.6752C18.7093 10.736 18.7321 10.7892 18.7702 10.8425C18.6561 11.0478 18.5419 11.2455 18.4278 11.4508C18.3974 11.504 18.3975 11.5572 18.4051 11.6104C18.0171 11.4127 17.477 11.3443 17.1956 11.3443C16.3512 11.3443 14.9974 11.6256 14.6094 12.4696C14.5562 12.5913 14.6094 12.7053 14.7007 12.7585C14.6247 12.7738 14.5562 12.7737 14.4801 12.7966C14.4116 12.7129 14.3127 12.6369 14.1758 12.5685C13.1946 12.0818 11.7114 12.5532 10.7986 12.9866C10.7149 13.0247 10.6845 13.0931 10.6921 13.1691C10.4487 13.4428 10.3802 13.8459 10.6616 14.1956C11.3462 15.0244 13.012 14.3933 13.7955 14.0435C14.1606 13.8839 14.5334 13.5493 14.5942 13.2147C14.8148 13.1615 15.0505 13.1463 15.2863 13.1691C15.5526 13.3744 16.0318 13.4201 16.3817 13.382C16.9978 13.3136 18.6865 13.1387 18.8538 12.3404C18.9071 12.1047 18.8158 11.9222 18.6484 11.7777C18.7017 11.7701 18.755 11.7397 18.793 11.6789C18.9071 11.4736 19.0288 11.2683 19.1429 11.063C19.4167 11.0782 19.7058 10.8957 19.7286 10.5535C19.7742 9.67913 19.5916 9.0785 20.261 8.55386C21.2346 7.78592 21.6758 9.15453 21.7518 10.1126C21.7518 10.1278 21.7518 10.1354 21.7518 10.1506C21.7442 10.2342 21.7518 10.3026 21.767 10.3711C21.767 10.4395 21.767 10.5003 21.767 10.5611C21.729 11.1618 22.7407 11.2987 22.8244 10.7056C22.8244 10.6676 22.8244 10.622 22.832 10.584C22.9461 10.4851 23.0298 10.3407 23.0526 10.1506C23.2047 8.77435 23.121 7.22324 22.5277 5.92305V5.91544ZM13.978 13.2223C13.978 13.2223 13.9553 13.2528 13.9401 13.2756C13.9401 13.4961 13.8259 13.6253 13.613 13.6557C13.4152 13.785 13.1338 13.8382 12.9056 13.9067C12.7383 13.9523 12.5709 13.9979 12.4036 14.0359C12.2362 14.0815 12.0688 14.1043 11.9015 14.1272C11.4603 14.2716 11.3006 13.9979 11.4375 13.2984C11.5592 13.2984 11.6277 13.2223 11.6429 13.1311C11.8635 13.0551 12.0841 12.9943 12.3123 12.9486C12.5785 12.8954 13.6662 12.7129 13.9172 12.9486C13.9781 12.9486 14.0161 12.9714 14.0466 12.9943C13.9553 13.0551 13.9476 13.1539 13.9933 13.2376L13.978 13.2223ZM17.9411 12.5685C17.8118 12.6749 17.4542 12.7358 17.2868 12.7814C17.226 12.7966 15.3092 13.2071 15.5526 12.6597C15.6439 12.4468 15.4081 12.2643 15.256 12.3556C15.8721 11.8081 17.1652 11.6713 17.8193 11.8537C17.941 11.8994 18.0627 11.9526 18.1768 11.9982C18.1008 12.1883 18.0171 12.3708 17.9411 12.5608V12.5685Z" fill="#1A1A1A"/>
</svg>
