<svg width="35" height="116" viewBox="0 0 35 116" fill="none" xmlns="http://www.w3.org/2000/svg">
<path d="M15.0945 28.2792C14.8511 28.2184 14.6077 28.2108 14.4023 28.2792C13.5808 28.5606 13.7329 29.8455 13.9915 30.8644C14.8511 34.3012 15.7258 37.7607 16.9201 41.1671C16.6386 41.1823 16.38 41.3039 16.1442 41.4332C13.4059 42.855 11.1848 44.1172 8.27909 45.828C8.18021 45.8888 8.05854 45.9344 7.93684 45.9801C7.11534 46.1701 6.11126 46.2158 5.43429 46.1093C5.23652 46.0789 5.03118 46.0409 4.84862 46.0637C4.66607 46.0941 4.49869 46.2082 4.47587 46.3982C4.45305 46.5959 4.61279 46.8621 4.81055 46.9001C4.41502 47.0217 4.00427 47.151 3.72284 47.4399C3.4414 47.7288 3.30451 48.2231 3.51749 48.6945C3.80654 49.3332 4.55195 49.6525 5.16047 49.7133C6.52963 49.8502 8.18022 49.3256 9.19188 48.5272C9.89167 48.4132 10.5915 48.1546 11.0251 48.0178C12.9875 47.4171 14.95 46.8164 16.9124 46.2158C17.8404 45.9344 18.7836 45.6379 19.5062 45.0296C19.8942 44.7027 20.1832 44.2693 20.381 43.7675C21.5828 40.6881 19.453 34.8258 18.1143 31.7084C17.4905 30.2561 16.4865 28.591 15.0945 28.264V28.2792Z" fill="#F2E7D6"/>
<path d="M2.15594 32.9706C2.15594 32.9706 0.231504 24.4243 1.39529 23.7932C2.56668 23.1545 3.73809 23.5195 4.2173 26.9715C4.69651 30.4234 5.93634 34.3316 2.14832 32.9706H2.15594Z" fill="#666666"/>
<path d="M33.7683 64.1371C33.8064 63.8254 33.852 63.5213 33.8901 63.2095C34.0346 62.1146 34.1411 60.8753 33.4413 60.0237C33.2055 59.7347 30.5356 59.902 30.0488 59.8488C29.0448 59.7423 28.2384 59.4838 27.3028 59.2025C25.5001 58.6551 23.1193 58.5638 21.2633 58.9364C19.6127 59.2633 18.1371 59.423 16.4485 59.5903C15.8856 59.6435 15.3303 59.7956 14.7903 59.9476C12.8202 60.4951 12.9419 60.5407 13.2537 62.5404C13.5124 64.2436 13.7253 65.962 13.8927 67.6803C14.2121 70.9574 13.9383 74.3638 14.3643 77.6105C14.7674 80.6975 15.0261 83.8149 15.2543 86.9399C15.8171 94.5661 16.418 102.192 17.2167 109.803C16.707 110.305 16.2507 110.891 15.8171 111.491C15.1782 112.381 14.5544 113.453 14.7142 114.601C15.8627 115.118 17.1254 114.381 18.1979 113.658L19.6051 112.708C22.8074 110.556 21.5144 104.914 21.6361 101.006C21.8034 95.8663 21.9631 90.734 22.1305 85.5941C22.1609 84.522 21.6665 73.2765 23.1574 73.3525C24.0321 73.3981 24.4048 88.9776 24.4657 90.6428C24.6178 94.9767 24.6634 99.3183 24.6102 103.652C24.5645 107.348 23.3703 111.339 26.4966 113.445L27.9038 114.396C28.9763 115.118 30.2389 115.856 31.3875 115.339C31.5472 114.198 30.9235 113.119 30.2846 112.229C29.8586 111.628 29.4022 111.043 28.885 110.541C28.6492 110.313 29.2197 107.233 29.2577 106.785C29.3946 105.378 29.5163 103.972 29.638 102.565C29.9119 99.3259 30.1629 96.0868 30.3759 92.8402C31.0224 83.2294 32.4676 73.6719 33.7455 64.1295L33.7683 64.1371Z" fill="#A78E41"/>
<path d="M28.6492 21.0256C28.0178 21.5046 27.3485 21.9228 26.6334 22.2345C23.8191 23.4739 20.3734 22.896 18.0458 20.7975C16.1594 21.4894 14.8131 23.2914 14.1209 25.2987C13.4287 27.306 13.2993 29.473 13.1852 31.6096C12.63 41.6005 12.0823 51.599 11.527 61.59C11.4966 62.0918 11.4738 62.6164 11.6792 63.0651C12.0975 63.9775 13.2081 64.1599 14.1589 64.2208C20.5407 64.6086 26.9529 64.4489 33.3119 63.757C33.5782 63.7266 33.8444 63.6961 34.0726 63.5441C34.567 63.2171 34.6279 62.4872 34.6431 61.8637C34.7952 52.367 34.3388 42.8627 33.2891 33.442C32.9012 29.9901 32.422 26.4849 31.0452 23.337C30.7638 22.6983 30.4291 22.0444 29.8814 21.6491C29.3338 21.2537 29.1816 20.615 28.6492 21.0256Z" fill="#67302D"/>
<path d="M21.7274 21.4894C22.4196 21.7403 23.1574 21.9228 23.88 21.7935C24.5874 21.6719 25.2263 21.2613 25.7664 20.7671C27.5159 19.1779 28.345 16.7828 28.7557 14.4334C29.098 12.4869 29.2045 10.4492 28.6492 8.56352C27.5311 4.78461 23.3703 2.23745 20.0311 5.11156C18.5022 6.42695 18.0306 8.57873 17.6427 10.5784C16.7604 15.1557 16.8364 19.695 21.7274 21.4894Z" fill="#EDD5BE"/>
<path d="M28.8698 2.86093C28.4058 1.85727 27.4474 1.12734 26.1619 0.671135C19.9626 -1.54147 14.0144 4.54889 15.6194 10.8141C15.7867 11.4756 16.4865 11.6429 17.0494 11.5213C20.206 10.8445 23.2182 10.0918 25.7739 8.38103C25.1274 10.6773 24.9905 12.8062 27.6071 14.403C27.9951 14.6387 28.6872 14.5322 28.9611 14.1292C30.8931 11.2855 31.9276 5.25601 28.8622 2.84572L28.8698 2.86093Z" fill="#1D1E1E"/>
<path d="M22.4727 25.2911C22.3206 25.101 22.1457 24.9414 21.9403 24.8653C21.134 24.5764 20.4646 25.6561 20.0311 26.5989C18.5706 29.7695 17.1026 32.963 15.916 36.3237C15.6878 36.1564 15.414 36.0956 15.1553 36.0424C12.1736 35.4417 9.68629 35.0387 6.39269 34.5673C6.2786 34.5521 6.15692 34.5141 6.03521 34.4761C5.28217 34.1187 4.4911 33.5332 4.03471 33.0314C3.9054 32.887 3.7685 32.7273 3.61637 32.636C3.45663 32.5448 3.25885 32.5296 3.12193 32.6665C2.98501 32.8033 2.93937 33.1075 3.06868 33.2595C2.68836 33.1075 2.29284 32.9554 1.8973 33.001C1.50177 33.0466 1.09099 33.3432 0.961677 33.845C0.786728 34.5141 1.16706 35.2212 1.59303 35.6394C2.55904 36.5898 4.14878 37.1981 5.42666 37.2209C6.03518 37.5631 6.73498 37.7988 7.14573 37.9661C9.02452 38.7188 10.9033 39.4715 12.7821 40.2167C13.6721 40.574 14.5772 40.9314 15.5052 40.9086C16.0072 40.8934 16.4941 40.7413 16.9581 40.4752C19.7877 38.8481 21.773 33.0314 22.6705 29.8076C23.0889 28.3097 23.3475 26.4088 22.4804 25.2911H22.4727Z" fill="#F2E7D6"/>
<path d="M15.0793 34.438L25.0438 38.8252C25.0438 38.8252 29.775 27.5189 21.8338 24.3102C13.9003 21.1016 15.0793 34.438 15.0793 34.438Z" fill="#67302D"/>
</svg>
