<svg width="32" height="110" viewBox="0 0 32 110" fill="none" xmlns="http://www.w3.org/2000/svg">
<path d="M8.99289 47.3316C9.65465 49.3009 9.69268 51.5059 9.08416 53.498C9.02331 53.6881 8.96246 53.8858 8.98528 54.0835C9.03091 54.4713 9.37321 54.7298 9.70028 54.9047C11.3433 55.7867 13.2601 55.8779 15.1008 55.8855C18.0674 55.8855 21.0339 55.7183 23.9852 55.3685C24.3275 54.9503 24.0993 54.3268 23.9395 53.8022C23.4679 52.2282 23.8254 50.5327 23.9852 48.8904C24.0004 48.7003 24.0156 48.5026 23.9319 48.3353C23.8559 48.1833 23.7114 48.0844 23.5668 47.9931C21.4827 46.6853 19.0638 45.9783 16.6374 45.9783C15.6485 45.9783 14.6673 46.0923 13.6937 46.2444C12.1039 46.4953 10.5294 46.8602 8.97766 47.324L8.99289 47.3316Z" fill="#A08B75"/>
<path d="M3.85847 21.2214C4.23119 21.8829 4.59628 22.5445 4.88533 23.244C5.00703 23.5329 5.41018 23.3504 5.32651 23.0615C5.11353 22.3391 4.90814 21.6016 4.64191 20.8945C4.44415 20.3775 3.60742 20.75 3.86604 21.2214H3.85847Z" fill="#666666"/>
<path d="M1.27991 27.8897C1.59938 27.8213 1.89603 27.654 2.18508 27.5019C2.48933 27.3422 2.87725 27.213 3.12065 26.9697C3.24236 26.848 3.23473 26.5667 3.00654 26.5591C2.67185 26.5591 2.34479 26.6959 2.02532 26.7948C1.67543 26.9012 1.30271 26.9924 0.983243 27.1901C0.656165 27.3954 0.899575 27.9657 1.27229 27.8897H1.27991Z" fill="#666666"/>
<path d="M0.983249 24.1641C1.33315 24.3846 1.72867 24.5138 2.1166 24.6583C2.45889 24.78 2.80119 24.932 3.17391 24.9244C3.34886 24.9244 3.43254 24.6811 3.32605 24.5595C3.12068 24.3161 2.824 24.1793 2.54256 24.0272C2.16985 23.8295 1.78955 23.5938 1.3788 23.4798C0.975658 23.3657 0.580115 23.9132 0.990863 24.1717L0.983249 24.1641Z" fill="#666666"/>
<path d="M15.7854 22.3088C16.3407 22.438 16.9263 22.4684 17.512 22.3696C20.7448 21.8145 21.8173 17.8379 21.9314 15.382C22.0455 12.9717 21.9314 10.4778 20.8437 8.28038C19.9994 6.57721 18.4476 5.55075 16.3635 5.48232C15.9375 5.46711 15.5116 5.52797 15.1008 5.61161C10.1262 6.61526 10.2023 13.2911 10.826 16.8951C11.1911 19.0013 13.2525 21.7081 15.7854 22.3088Z" fill="#A08B75"/>
<path d="M14.7813 105.217C13.4578 105.11 12.119 105.164 10.8031 105.384C9.79146 106.137 8.68096 106.76 7.51717 107.232C7.17488 107.369 6.81738 107.505 6.56636 107.771C6.31535 108.038 6.21645 108.486 6.45225 108.768C6.65762 109.011 7.02272 109.041 7.34219 109.041C9.79147 109.064 12.2483 108.859 14.6596 108.418C14.8041 108.395 14.9563 108.357 15.0628 108.258C15.1464 108.174 15.1845 108.061 15.2149 107.946C15.4583 107.034 15.3062 106.015 14.7889 105.217H14.7813Z" fill="#333333"/>
<path d="M26.1074 104.38C24.9208 104.517 23.7494 104.799 22.6236 105.224C21.863 106.068 20.9958 106.806 20.045 107.429C19.7712 107.612 19.4746 107.787 19.2996 108.068C19.1247 108.349 19.117 108.76 19.368 108.965C19.5886 109.148 19.9157 109.11 20.1972 109.057C22.365 108.654 24.4948 108.038 26.5409 107.232C26.6626 107.186 26.792 107.125 26.868 107.019C26.9289 106.928 26.9441 106.821 26.9517 106.715C27.0126 105.863 26.6931 104.996 26.0998 104.38H26.1074Z" fill="#333333"/>
<path d="M22.0075 9.10139C21.1328 6.77474 18.6987 5.22364 16.219 5.06396C15.5801 5.02595 14.9335 5.06395 14.3174 5.23883C12.6212 5.73305 11.3813 7.24614 10.7652 8.9037C10.1414 10.5536 10.0502 12.3481 9.95888 14.1121C9.94367 14.3554 9.93605 14.6139 10.0502 14.8268C10.1642 15.0397 10.4457 15.1918 10.6587 15.0701C10.9325 13.443 11.2215 11.7778 11.9898 10.318C12.7656 8.85811 14.1272 7.60353 15.7626 7.40584C17.2687 7.22336 18.79 7.9609 19.8169 9.07861C20.8437 10.2039 21.2925 11.4053 21.4066 12.8347C21.4826 13.7243 21.901 14.8724 22.3194 13.3061C22.654 12.0363 22.4563 10.3103 21.9999 9.09378L22.0075 9.10139Z" fill="#FBAE17"/>
<path d="M19.4137 5.05643C18.9116 5.34536 18.3031 5.36819 17.725 5.36059C16.6449 5.34538 15.5572 5.24652 14.4923 5.05643C13.9294 4.95759 13.3513 4.82832 12.8645 4.52418C12.3777 4.22004 11.9897 3.69543 11.9897 3.12517C11.9897 2.58533 12.3168 2.09869 12.7048 1.72612C13.7164 0.752875 15.1769 0.34232 16.5841 0.380338C17.4056 0.403148 18.2423 0.570422 18.9497 0.996215C19.6571 1.42201 20.22 2.12152 20.3493 2.93509C20.4862 3.74865 20.1287 4.65345 19.4137 5.05643Z" fill="#FBAE17"/>
<path d="M25.0348 81.4103C24.7078 74.1718 25.3924 66.7888 25.3315 59.5047C25.5445 56.9804 25.1946 54.4104 24.3122 52.0382C24.259 51.8937 24.1981 51.7416 24.084 51.6275C23.7417 51.2778 23.1637 51.4603 22.7073 51.6504C18.3792 53.4372 13.2601 53.0114 9.31232 50.4946C8.52886 51.6808 8.30827 53.1406 8.1181 54.5472C7.80624 56.8207 7.46392 59.0941 7.38025 61.3827V61.3903C7.36504 61.8846 7.34986 62.3788 7.36507 62.8655C7.41832 65.7167 7.96597 68.5224 8.39954 71.3281C8.68098 73.1605 8.92436 75.0006 8.94718 76.8634C8.97 78.3841 8.74942 79.7679 9.09171 81.2582C9.92842 84.923 9.92842 88.9073 10.2859 92.6482C10.6662 96.6552 11.039 100.662 11.3508 104.677C11.3661 104.836 11.3737 104.996 11.3889 105.156C11.5942 105.209 14.6825 105.924 14.6825 105.118C14.9335 97.3318 15.1769 89.5383 15.4279 81.7524C15.5344 78.4753 15.6409 75.1526 16.4776 72.0276C16.8199 72.0656 17.1621 72.096 17.5044 72.134C19.3908 82.4367 21.2697 92.747 23.1561 103.05C23.3234 103.954 23.5212 104.935 24.1221 105.521C24.723 106.106 25.8411 105.939 26.0161 105.034C25.4608 97.157 25.4 89.2874 25.0425 81.4103H25.0348Z" fill="#4D4D4D"/>
<path d="M11.8453 22.225C12.3701 22.5139 12.9254 22.7648 13.5187 22.9473C15.8614 23.6925 18.7215 23.3427 20.6611 22.0881C22.2281 22.4987 23.3538 23.5784 23.9319 24.7797C24.51 25.9811 24.6089 27.2813 24.7078 28.5587C25.1642 34.5426 25.6281 40.5265 26.0845 46.5104C26.1074 46.8069 26.1302 47.1263 25.9552 47.3924C25.6053 47.9399 24.6773 48.0463 23.8939 48.0843C18.5846 48.3124 13.2524 48.2211 7.95834 47.803C7.73776 47.7877 7.5096 47.765 7.32704 47.6738C6.91629 47.4761 6.86301 47.0426 6.8554 46.67C6.7337 40.9827 7.10644 35.2953 7.98119 29.6459C8.30066 27.5778 8.70381 25.4793 9.84478 23.5936C10.0806 23.2058 10.3544 22.818 10.8108 22.5823C11.2672 22.3466 11.3889 21.9665 11.8377 22.2098L11.8453 22.225Z" fill="#AFD9C4"/>
<path d="M17.3448 26.3234C13.6024 26.1105 9.83719 25.8976 6.12524 26.4603C5.91226 30.4597 5.9503 34.4744 6.22413 38.4662C11.8377 37.9339 17.7327 37.9415 23.3614 37.9491C23.3614 34.3603 23.0876 30.2392 23.0876 26.6504C21.1708 26.5439 19.254 26.4299 17.3371 26.3234H17.3448Z" fill="#B3B3B3"/>
<path d="M6.84025 40.4353C6.51318 40.9828 6.17089 41.4466 5.84381 41.6747C5.42545 41.9636 4.80173 41.88 4.46704 41.4998C3.57709 40.4886 5.18963 37.3027 5.58517 36.2687C6.31539 34.3754 7.19776 32.5429 8.08011 30.7105C8.39197 30.0566 8.90157 29.2963 9.61658 29.418C9.79153 29.4484 9.95888 29.532 10.1034 29.646C10.9249 30.2999 10.826 31.5622 10.5674 32.5734C10.0806 34.4439 9.29713 36.2382 8.26266 37.8654C7.89755 38.4432 7.38793 39.5381 6.84787 40.4277L6.84025 40.4353Z" fill="#A08B75"/>
<path d="M31.5156 32.5658C31.508 32.3301 31.4167 32.102 31.3254 31.8815C30.2757 29.418 28.6708 27.1825 26.6703 25.3957C25.8868 24.6962 24.8067 24.0347 23.8559 24.4605C23.6885 24.5365 23.5364 24.643 23.4299 24.7874C22.9963 25.3653 23.4451 26.1713 23.8787 26.7415C25.3467 28.6804 26.83 30.6345 28.5034 32.3985C28.3285 32.5429 28.2068 32.7483 28.0927 32.946C26.7768 35.2042 25.0881 37.2495 24.046 39.6446C23.8711 40.0399 23.7189 40.4657 23.7798 40.8915C23.8406 41.3173 24.1982 41.7356 24.6317 41.7052C24.9816 41.6823 25.2555 41.401 25.4837 41.1349C26.5334 39.9412 27.5754 38.755 28.6251 37.5612C29.6064 36.4435 30.6104 35.2574 30.9907 33.8355C31.2493 33.4173 31.546 33.022 31.5232 32.5506L31.5156 32.5658Z" fill="#A08B75"/>
<path d="M24.936 12.4851C24.6926 12.0289 24.4112 11.5803 23.9928 11.2762C23.8787 11.1925 23.7494 11.1241 23.6125 11.0709C23.757 9.29171 22.829 7.52771 21.9314 5.93858C21.5968 5.34552 21.2545 4.73722 20.7677 4.25821C19.6952 3.18612 18.0902 2.86678 16.5765 2.79075C14.6141 2.6995 12.5527 2.97321 10.9173 4.0529C10.0958 4.59274 9.38082 5.36832 9.11459 6.31115C8.96246 6.85859 8.96245 7.44405 8.96245 8.01431C8.96245 8.97235 8.97008 9.9304 8.97768 10.8884C8.59736 11.1926 8.3235 11.6183 8.09531 12.0517C7.65413 12.8729 7.28142 13.7549 7.24339 14.6825C7.20536 15.6102 7.54765 16.5986 8.29308 17.1461C8.59734 17.3666 8.94725 17.511 9.30475 17.6327C9.82199 17.8 10.4229 17.914 10.8717 17.6022C11.427 17.2221 11.4422 16.4313 11.3965 15.7622C11.3281 14.7966 11.2292 13.831 11.2368 12.8653C11.2368 12.4547 11.252 12.0365 11.1607 11.6412C11.0695 11.2382 10.8489 10.8504 10.4837 10.6527C10.2327 10.5158 9.93611 10.5006 9.65467 10.5614C9.60142 9.69465 9.66225 8.82788 9.96651 8.01431C10.5902 6.31114 12.2104 5.07177 13.9903 4.72962C15.7702 4.38746 17.6566 4.88167 19.1551 5.90053C20.9122 7.09427 22.1597 9.00274 22.5704 11.0861C22.5704 11.0861 22.5628 11.0861 22.5552 11.0861C22.1901 11.2762 21.9695 11.6716 21.8782 12.0746C21.7869 12.4776 21.8021 12.8881 21.8021 13.2987C21.8021 14.2644 21.7109 15.23 21.6424 16.1956C21.5968 16.8647 21.612 17.6555 22.1672 18.0357C22.616 18.3398 23.2169 18.2333 23.7342 18.066C24.0917 17.9444 24.4492 17.8076 24.7458 17.5795C25.4989 17.0244 25.8336 16.0436 25.7955 15.116C25.7575 14.1883 25.3924 13.2987 24.9436 12.4851H24.936Z" fill="#1A5E73"/>
</svg>
