<svg width="41" height="108" viewBox="0 0 41 108" fill="none" xmlns="http://www.w3.org/2000/svg">
<path d="M7.9643 48.3337C5.56826 46.585 3.14942 47.9156 0.935943 49.3754C-0.0376828 50.0141 0.837078 51.7857 1.8107 51.1394C3.39285 50.0977 5.51503 48.5618 7.21127 50.227C7.76654 50.7744 8.0099 51.6337 8.11639 52.5309C8.09357 52.6145 8.08603 52.7133 8.08603 52.8122V103.854C8.08603 105.177 9.82023 105.177 9.82023 103.854V55.0856C9.88108 54.9488 9.92673 54.7891 9.92673 54.599C9.95715 52.4396 9.70618 49.5883 7.97191 48.3185L7.9643 48.3337Z" fill="#998675"/>
<path d="M16.7117 3.215C17.9515 4.01336 18.7806 5.31355 19.5412 6.59093C20.492 8.17245 21.4352 9.82242 21.7243 11.6549C21.9373 13.0083 21.8156 14.4909 22.5382 15.6467C20.3552 16.7568 18.2253 17.9581 16.1488 19.2507C12.7031 16.0953 10.1244 11.9438 8.7857 7.41212C8.74006 7.26005 8.69447 7.10039 8.74011 6.94832C8.78574 6.78104 8.92259 6.65176 9.0519 6.54531C10.8698 5.03983 13.0453 4.06658 15.1904 3.11615C15.4186 3.01731 15.6543 2.91089 15.8977 2.91089C16.1868 2.91089 16.4606 3.04772 16.704 3.20739L16.7117 3.215Z" fill="#F2E7D6"/>
<path d="M31.5138 103.299C32.8221 87.9858 34.0924 64.7421 35.4007 49.4287C31.6051 49.0182 27.5432 54.5535 23.7324 54.6447C22.5458 54.6751 20.9637 51.1927 20.7279 52.6298C20.5682 53.6182 22.0438 58.378 22.1959 59.4121C23.2151 66.4909 24.3942 73.6305 24.7897 80.8081C24.9038 82.8915 24.8506 84.9749 24.8886 87.0582C24.9571 90.6014 25.4211 94.1142 25.7634 97.6346C26.0068 100.136 27.7791 101.778 27.5509 102.949C27.4824 103.307 24.5311 104.599 23.451 105.048C23.0935 105.2 22.7132 105.344 22.447 105.633C22.1807 105.922 22.0742 106.417 22.3252 106.721C22.5458 106.987 22.9261 107.017 23.2684 107.025C25.8698 107.055 28.4788 106.827 31.0422 106.348C31.1943 106.318 31.3617 106.287 31.4682 106.173C31.5595 106.082 31.5975 105.953 31.6279 105.831C31.8485 104.995 31.7648 104.09 31.4149 103.307C31.4453 103.307 31.4834 103.307 31.5138 103.307V103.299Z" fill="#333333"/>
<path d="M18.309 19.4178C18.6209 19.2582 18.9251 19.0833 19.2294 18.916C20.7507 18.0644 22.2796 17.2128 23.8009 16.3688C24.0291 16.2396 24.2725 16.1104 24.5312 16.1104C24.7365 16.1104 24.9191 16.1788 25.094 16.2548C28.5474 17.7223 31.8105 20.4747 33.2557 23.3716C38.3521 33.6211 39.7212 45.0871 40.7785 56.363C33.7197 58.8493 26.5088 60.9859 19.2067 62.7499C19.6098 62.651 18.9632 54.9107 18.91 54.1504C18.5981 49.6643 18.0276 45.2011 17.1073 40.8139C16.1793 36.4039 15.586 31.9483 15.0915 27.4699C14.8938 25.6527 14.7112 23.8431 14.5515 22.0182C14.4907 21.3035 16.7346 20.1098 17.3127 19.8817C17.6549 19.7448 17.9896 19.5927 18.309 19.4178Z" fill="#506C80"/>
<path d="M2.79192 50.0749C3.23309 49.3221 4.03179 48.7823 4.90653 48.6759C4.67834 48.501 4.41969 48.1969 4.58703 47.9688C4.69352 47.8243 4.89891 47.8091 5.08147 47.8091C5.84972 47.7863 6.61802 47.6114 7.31781 47.292C7.37866 47.2616 7.44713 47.2312 7.51559 47.2084C11.722 44.9046 14.7188 42.8288 18.4612 39.8407C17.9211 38.4264 18.7731 36.2974 18.621 34.792C18.4004 32.625 18.1874 30.4504 17.9668 28.2834C17.8832 27.4546 17.8223 26.5346 18.3015 25.8579C19.1534 24.6566 21.1996 25.0671 22.0667 26.2533C22.9339 27.4394 22.9642 29.0285 22.9642 30.496C22.9642 34.3509 22.9566 38.1983 22.949 42.0532C22.949 42.4942 22.9338 42.9732 22.6676 43.323C22.4546 43.5967 22.1199 43.7488 21.8004 43.8857C17.4952 45.7333 13.1823 47.581 8.87708 49.4286C8.87708 49.421 8.86193 49.4134 8.85433 49.4058C7.37107 50.5843 5.39338 51.1318 3.51458 50.8504C3.31682 50.82 3.10385 50.7744 2.95933 50.63C2.83002 50.4931 2.7843 50.2878 2.7843 50.0977L2.79192 50.0749Z" fill="#F2E7D6"/>
<path d="M24.0747 34.4043C24.0747 34.4043 27.0793 22.9991 21.7471 23.1132C16.4074 23.2272 17.2213 32.5642 17.5407 35.1266C17.5407 35.1266 23.6715 35.6968 24.0747 34.3966V34.4043Z" fill="#7E9FC2"/>
<path d="M9.14328 1.75507C10.8015 0.65257 12.224 0.416856 13.5779 0.797028C13.981 0.91108 14.3918 0.903499 14.7873 0.819861C14.7873 0.819861 14.7949 0.819861 14.8025 0.819861C18.0505 0.143154 20.8421 -0.66281 22.9186 2.10485C23.9988 3.5495 23.5804 5.31348 22.3405 6.40838C22.371 6.47681 22.4014 6.55284 22.4166 6.64408C22.6524 7.65534 22.8806 8.70463 22.7817 9.7463C22.6752 10.8488 21.7777 12.0425 20.5454 11.6776C18.8948 11.1833 18.4917 8.62861 18.0657 7.10032C17.2062 6.75816 16.4227 6.18028 15.7077 5.56441C14.6427 5.56441 13.8517 5.54918 12.7868 5.54157C11.3872 6.94821 9.04443 7.78462 7.46228 7.09271C4.49577 5.79252 7.44704 2.88799 9.14328 1.76268V1.75507Z" fill="#808080"/>
</svg>
