<svg width="30" height="111" viewBox="0 0 30 111" fill="none" xmlns="http://www.w3.org/2000/svg">
<path d="M11.9841 49.4475C12.6382 51.394 12.6686 53.561 12.0753 55.5303C12.0221 55.7204 11.9536 55.9105 11.9764 56.1082C12.0221 56.4883 12.3643 56.7393 12.6838 56.9141C14.304 57.7885 16.1904 57.8722 18.0083 57.8798C20.9368 57.8798 23.8577 57.7201 26.7633 57.3703C27.098 56.9598 26.8699 56.3439 26.7177 55.8268C26.2538 54.2757 26.6036 52.603 26.7633 50.9834C26.7785 50.801 26.7938 50.6033 26.7177 50.436C26.6417 50.2839 26.4971 50.1927 26.3602 50.1014C24.3064 48.8089 21.918 48.1169 19.5296 48.1169C18.556 48.1169 17.59 48.231 16.624 48.3831C15.057 48.634 13.4977 48.9913 11.9764 49.4475H11.9841Z" fill="#F2E7D6"/>
<path d="M18.6777 24.7744C19.2254 24.9037 19.8035 24.9341 20.3816 24.8353C23.5687 24.2878 24.626 20.3644 24.7401 17.9541C24.8542 15.5742 24.7401 13.1183 23.6676 10.9514C22.8309 9.27099 21.302 8.25973 19.2558 8.1913C18.8375 8.1761 18.4191 8.23692 18.0084 8.32056C13.1022 9.30901 13.1782 15.8936 13.7944 19.4444C14.1519 21.5201 16.1904 24.189 18.6854 24.782L18.6777 24.7744Z" fill="#F2E7D6"/>
<path d="M17.689 106.504C16.3807 106.397 15.0648 106.451 13.7717 106.671C12.7752 107.416 11.6799 108.025 10.5313 108.496C10.1966 108.633 9.84673 108.762 9.59572 109.028C9.35232 109.294 9.24581 109.735 9.48161 110.009C9.68698 110.252 10.0369 110.275 10.3564 110.283C12.7752 110.306 15.1941 110.1 17.5673 109.667C17.7118 109.644 17.8639 109.606 17.9628 109.507C18.0465 109.424 18.0845 109.31 18.1149 109.196C18.3583 108.291 18.1985 107.287 17.6965 106.504H17.689Z" fill="#333333"/>
<path d="M28.8552 105.683C27.6838 105.819 26.5276 106.101 25.4246 106.511C24.6716 107.34 23.8197 108.07 22.8841 108.686C22.6103 108.861 22.3213 109.043 22.1539 109.317C21.979 109.591 21.9713 110.001 22.2224 110.207C22.4429 110.389 22.7624 110.344 23.0438 110.298C25.1812 109.895 27.2806 109.294 29.3039 108.496C29.4256 108.45 29.555 108.397 29.6234 108.283C29.6843 108.199 29.6995 108.085 29.6995 107.986C29.7527 107.15 29.4409 106.291 28.8628 105.683H28.8552Z" fill="#333333"/>
<path d="M27.7978 83.032C27.4783 75.9 28.1553 68.6235 28.0945 61.4382C28.3074 58.9519 27.9652 56.4123 27.0905 54.0781C27.0372 53.9336 26.9763 53.7815 26.8698 53.6751C26.5352 53.3329 25.957 53.5154 25.5159 53.6979C21.2486 55.4543 16.2056 55.0437 12.3111 52.5574C11.5428 53.7283 11.3222 55.1654 11.132 56.5492C10.8278 58.7922 10.4931 61.0276 10.4095 63.2858C10.4095 63.2858 10.4095 63.2934 10.4095 63.301C10.3943 63.7877 10.379 64.2667 10.3942 64.7533C10.4475 67.559 10.9876 70.3266 11.4136 73.0943C11.6874 74.8963 11.9308 76.7211 11.9536 78.546C11.9688 80.0438 11.7634 81.4125 12.0981 82.8799C12.9196 86.4916 12.9272 90.4225 13.2771 94.1102C13.6498 98.0564 14.0225 102.01 14.3268 105.964C14.342 106.124 14.3496 106.276 14.3648 106.435C14.5626 106.489 17.6051 107.188 17.6051 106.397C17.8485 98.7179 18.092 91.046 18.3354 83.3666C18.4419 80.1351 18.5484 76.858 19.3699 73.7786C19.7046 73.809 20.0468 73.847 20.3815 73.8774C22.2375 84.0356 24.0935 94.1939 25.9495 104.352C26.1092 105.249 26.3146 106.215 26.9003 106.785C27.486 107.355 28.5889 107.203 28.7638 106.306C28.2162 98.543 28.1553 90.7799 27.8054 83.0168L27.7978 83.032Z" fill="#AA6A64"/>
<path d="M14.7909 24.706C15.3081 25.0025 15.8558 25.2686 16.4415 25.4587C18.7539 26.2267 21.5759 25.8693 23.4851 24.5615C25.0292 24.9873 26.1397 26.1126 26.7026 27.3596C27.2731 28.6066 27.372 29.96 27.4709 31.2906C27.9197 37.5102 28.376 43.7298 28.8247 49.9418C28.8476 50.2536 28.8628 50.5805 28.6955 50.8618C28.3532 51.4321 27.4404 51.5462 26.6645 51.5766C21.4313 51.8199 16.1752 51.721 10.9572 51.2876C10.7442 51.2724 10.5161 51.2496 10.3335 51.1584C9.93037 50.9531 9.87714 50.5045 9.86953 50.1167C9.74783 44.2088 10.1205 38.2933 10.98 32.4311C11.2995 30.2793 11.6875 28.1047 12.8208 26.143C13.049 25.7477 13.3229 25.3371 13.7793 25.0938C14.2356 24.8505 14.3497 24.4551 14.7909 24.706Z" fill="#FCEE9F"/>
<path d="M24.2229 15.4373C24.2609 15.8707 24.2913 16.2433 24.5423 16.5626C26.4287 14.8366 24.4586 9.86397 23.1579 8.29006C22.694 7.72741 22.1311 7.21798 21.4541 6.95186C20.8456 6.71615 20.1762 6.69334 19.5297 6.67053C18.343 6.63251 17.1032 6.60209 16.0155 7.08871C14.9278 7.57534 14.1215 8.52577 13.3532 9.44579C13.0642 9.79554 12.7675 10.1453 12.5773 10.5635C12.2579 11.2478 12.2579 12.031 12.2579 12.7913C12.2579 13.354 12.5926 18.2202 13.5891 17.6119C14.0835 17.3078 14.5399 13.7037 14.9278 12.9586C15.6885 11.5215 17.0347 10.2898 18.6473 10.0845C20.1305 9.90199 21.6366 10.6319 22.6407 11.7344C23.6523 12.8445 24.0935 14.0231 24.2076 15.4373H24.2229Z" fill="#333333"/>
<path d="M12.585 3.18057C12.3415 2.84602 12.083 2.46585 12.159 2.06287C12.2199 1.72832 12.4937 1.4774 12.7448 1.2493C13.1631 0.876729 13.6346 0.488952 14.1975 0.466141C14.5778 0.450934 14.9354 0.610607 15.3081 0.686642C15.833 0.79309 16.3958 0.732263 16.8826 0.511763C17.1717 0.374901 17.4607 0.184814 17.7802 0.184814C18.4192 0.184814 18.7842 0.914745 18.8983 1.53823C19.8111 1.43178 20.701 2.3518 20.5489 3.26421C20.3892 4.20704 19.3623 5.04342 19.7427 5.91782C19.9024 6.28278 20.2751 6.50328 20.5793 6.7694C20.8836 7.03552 21.1346 7.46131 20.9597 7.82628C20.7999 8.14562 20.4044 8.23687 20.0545 8.27488C19.0277 8.38133 17.9856 8.3053 16.9891 8.05438C16.8674 8.02397 16.7304 7.98595 16.6468 7.88711C16.4566 7.68182 16.5632 7.33966 16.4262 7.09635C16.3122 6.89866 16.0611 6.81502 15.9394 6.61733C15.7721 6.34361 15.9394 5.97864 15.8558 5.67451C15.7569 5.33235 15.3841 5.15747 15.0342 5.08904C14.6843 5.02821 14.3192 5.02821 13.9997 4.86854C13.7107 4.71647 13.5054 4.45035 13.3152 4.18423C13.0718 3.84968 12.8284 3.51512 12.585 3.18057Z" fill="#333333"/>
<path d="M3.18333 16.4562C2.87147 15.7719 2.58245 15.0648 2.1641 14.4337C1.97393 14.1448 1.50994 14.4109 1.6925 14.715C2.08043 15.3613 2.51393 15.9772 2.86383 16.6463C2.97793 16.8592 3.27461 16.6691 3.18333 16.4562Z" fill="#666666"/>
<path d="M2.30103 17.2851C1.70012 17.1178 1.09928 17.0493 0.475555 17.1254C0.125658 17.171 0.110446 17.7108 0.475555 17.688C1.06125 17.65 1.65451 17.6348 2.24021 17.7032C2.48362 17.7261 2.514 17.3535 2.29342 17.2927L2.30103 17.2851Z" fill="#666666"/>
<path d="M2.53691 18.5624C1.73823 18.6992 0.931983 19.0642 0.194157 19.3759C-0.125314 19.5128 -0.00364756 20.0298 0.346249 19.9082C1.12211 19.6345 1.99682 19.3607 2.69662 18.9121C2.89438 18.7905 2.75751 18.5244 2.54452 18.5548L2.53691 18.5624Z" fill="#666666"/>
<path d="M12.0678 15.924C12.5546 15.962 12.8512 16.4639 13.0642 16.9049C13.9389 18.6841 14.8897 20.4177 15.9318 22.098C16.4643 22.9572 18.8223 25.3143 17.4531 26.0898C15.6884 27.0783 13.8248 27.8919 11.8927 28.5001C11.5505 28.5001 11.3223 28.1656 11.1549 27.869C9.51955 25.033 7.83852 22.1741 5.9217 19.5205C5.73154 19.2619 5.57179 18.9122 5.71631 18.6308C5.81519 18.4484 6.01297 18.3495 6.19552 18.2583C7.84612 17.4751 9.48911 16.692 11.1397 15.9088C11.482 15.9544 11.7179 15.9088 12.0602 15.9392L12.0678 15.924Z" fill="#666666"/>
<path d="M7.76254 24.7744C6.97147 29.2224 7.77777 33.754 8.81985 38.1944C8.94155 38.7267 9.32186 39.4034 10.0369 39.3426C10.3107 39.3198 10.5389 39.1905 10.7215 39.0384C11.619 38.3237 11.7635 37.2592 11.832 36.2784C12.0754 32.4386 11.6951 28.5685 10.691 24.7744C10.5161 24.1053 10.052 23.2765 9.13926 23.2993C8.25691 23.3221 7.87664 24.1205 7.76254 24.7744Z" fill="#F2E7D6"/>
<path d="M19.6969 29.8535C19.5904 30.3173 19.7578 30.7963 19.948 31.2373C21.1346 34.043 23.1655 36.4837 25.706 38.1641C25.9722 38.3389 26.2537 38.5138 26.5579 38.6051C27.2501 38.818 28.0489 38.5823 28.5205 38.0348C28.9921 37.4874 29.0985 36.6586 28.779 36.0123C28.6421 35.731 28.4368 35.4953 28.239 35.2519C27.6609 34.5676 27.0904 33.8909 26.5123 33.2142C25.63 32.1725 24.7552 31.1309 23.7968 30.1652C23.2035 29.5646 22.5417 28.9715 21.7202 28.7966C20.8987 28.6217 19.8947 29.0323 19.7045 29.8535H19.6969Z" fill="#F2E7D6"/>
</svg>
