<svg width="37" height="115" viewBox="0 0 37 115" fill="none" xmlns="http://www.w3.org/2000/svg">
<path d="M6.40925 23.4689C6.4625 23.294 6.53094 23.1039 6.66025 22.9595C6.78196 22.8302 6.94171 22.7694 7.07862 22.7466C7.56544 23.0507 7.82405 23.6894 7.7632 24.4421C7.93054 24.2216 8.18916 23.9707 8.33368 24.0924C8.42496 24.1684 8.39453 24.3509 8.37171 24.503C8.26522 25.1721 8.27282 25.826 8.39452 26.4038C8.40213 26.4571 8.41736 26.5103 8.43257 26.5635C9.43662 29.9394 11.1709 32.2889 12.7074 35.1934C13.6126 34.2962 14.3428 33.0644 14.9665 31.8783C16.001 29.9014 17.3854 26.9361 19.4771 26.8372C20.0704 26.8068 20.3367 27.5139 20.215 28.2287C20.0933 28.9434 19.6901 29.6581 19.2946 30.3424C17.6136 33.2545 15.4077 35.9462 13.3235 38.5694C12.8519 39.17 11.8783 40.7515 11.2241 40.7363C10.5243 40.7135 10.395 39.2232 10.1516 38.6986C10.0832 38.5541 10.0451 38.3793 10.0147 38.2044C9.35294 34.646 7.23836 31.559 6.57659 27.993C6.57659 27.993 6.59181 27.9778 6.59941 27.9701C5.97568 26.7992 5.89202 25.1341 6.39405 23.4689H6.40925Z" fill="#F0DCCE"/>
<path d="M19.4696 23.2332C18.6481 22.3816 17.1192 22.4653 16.2977 23.3245C15.8641 23.7807 15.6207 24.3813 15.4609 24.9896C14.7535 27.6888 15.4305 30.7682 13.9929 33.1557C13.9092 33.2926 13.8103 33.437 13.6582 33.5055C13.354 33.6347 13.0345 33.3914 12.8063 33.1633C12.4792 32.8364 12.1521 32.4714 12.0457 32.0152C11.9392 31.559 12.1445 31.0039 12.5857 30.8671C12.3879 30.4717 12.1902 30.0763 11.9924 29.6809C11.3687 29.43 10.7221 29.9699 10.2657 30.4641C9.46707 31.3233 8.6836 32.4106 7.69477 33.0417C7.32205 33.2774 7.04821 33.2546 6.92651 33.7868C6.90369 33.9009 7.00256 34.9501 7.2764 34.7981C7.56544 34.6308 7.90775 34.5548 8.24243 34.5776C8.43259 36.9955 9.03349 39.3753 10.0147 41.588C10.2505 42.1126 10.5244 42.6524 11.0036 42.9718C11.6882 43.4204 12.6009 43.2835 13.3616 42.987C14.3124 42.6068 15.1719 41.9909 15.8261 41.2002C16.7617 40.0749 17.2713 38.6682 17.682 37.2616C18.0776 35.931 18.4046 34.5776 18.7241 33.2242C19.2718 30.9583 19.8118 28.6925 20.0857 26.3734C20.215 25.2785 20.2302 24.0316 19.4619 23.2332H19.4696Z" fill="#537082"/>
<path d="M14.2287 46.9864C14.9589 49.1457 14.9893 51.5637 14.3352 53.7458C14.2743 53.9511 14.2059 54.1716 14.2287 54.3845C14.2743 54.8103 14.6546 55.0916 15.0121 55.2817C16.8149 56.2474 18.9142 56.3538 20.93 56.3538C24.1855 56.3538 27.4335 56.1713 30.6738 55.7912C31.0465 55.335 30.7955 54.6506 30.6206 54.0728C30.1033 52.3468 30.4913 50.4916 30.6738 48.6896C30.6966 48.4843 30.7118 48.2637 30.6206 48.0813C30.5369 47.914 30.3772 47.8075 30.225 47.7087C27.9431 46.2716 25.2884 45.5037 22.6338 45.4961C21.5537 45.4961 20.4736 45.6178 19.4087 45.785C17.6668 46.0588 15.9325 46.4541 14.2363 46.9712L14.2287 46.9864Z" fill="#EADDD0"/>
<path d="M20.4204 110.346C19.2261 110.247 18.0243 110.3 16.8453 110.498C15.9325 111.175 14.9361 111.737 13.8864 112.163C13.5821 112.285 13.2627 112.406 13.0345 112.65C12.8063 112.893 12.715 113.296 12.928 113.547C13.1106 113.767 13.4376 113.79 13.7267 113.798C15.9325 113.821 18.1384 113.631 20.3062 113.235C20.4356 113.212 20.5725 113.182 20.6714 113.091C20.7474 113.015 20.7855 112.908 20.8083 112.809C21.0289 111.988 20.8843 111.068 20.4279 110.354L20.4204 110.346Z" fill="#537082"/>
<path d="M32.9558 109.95C31.792 110.087 30.651 110.361 29.5557 110.772C28.8103 111.593 27.9583 112.323 27.0303 112.931C26.7641 113.106 26.4751 113.281 26.3077 113.554C26.1404 113.828 26.1252 114.231 26.3762 114.436C26.5968 114.611 26.9087 114.573 27.1901 114.52C29.3123 114.125 31.3889 113.524 33.397 112.733C33.5187 112.688 33.648 112.634 33.7164 112.528C33.7773 112.444 33.7849 112.338 33.7925 112.231C33.8457 111.403 33.5415 110.551 32.9558 109.95Z" fill="#537082"/>
<path d="M31.8148 84.3421C31.4573 76.4041 32.2103 68.314 32.1419 60.3304C32.3777 57.5628 31.9973 54.7419 31.0237 52.1415C30.9629 51.9818 30.8944 51.8145 30.7803 51.6929C30.4076 51.3051 29.7687 51.5104 29.2742 51.7157C24.5278 53.6698 18.9219 53.2136 14.5862 50.4459C13.7343 51.7461 13.4833 53.3428 13.2779 54.8863C12.9356 57.3803 12.5629 59.8742 12.4716 62.3757C12.4716 62.3757 12.4716 62.3833 12.4716 62.3909C12.4488 62.9308 12.4412 63.4706 12.4488 64.0105C12.5096 67.1355 13.1105 70.2073 13.5821 73.2867C13.8864 75.294 14.1602 77.3165 14.183 79.3542C14.2059 81.0194 13.9701 82.5401 14.3428 84.1748C15.2632 88.1894 15.2632 92.5614 15.6511 96.6673C16.0694 101.062 16.4802 105.449 16.8149 109.852C16.8301 110.027 16.8453 110.201 16.8529 110.376C17.0735 110.437 20.4584 111.213 20.4584 110.338C20.7322 101.8 20.9984 93.2609 21.2723 84.7223C21.3864 81.1258 21.508 77.4838 22.4208 74.0622L23.5466 74.1763C25.6079 85.475 27.6769 96.7737 29.7382 108.072C29.9208 109.068 29.472 110.247 30.1262 110.886C30.7803 111.524 32.6819 111.243 32.8721 110.247C32.2636 101.617 32.1951 92.9796 31.8072 84.3421H31.8148Z" fill="#537082"/>
<path d="M30.5293 37.7253C29.9664 34.1441 29.434 30.6617 29.4948 27.0349C29.0841 26.2365 28.5897 25.461 28.3615 24.5942C28.1181 23.6818 28.1257 22.7389 28.2246 21.8037C28.2778 21.3171 28.3463 20.8305 28.4528 20.3514C28.506 20.0853 28.6885 19.728 28.5744 19.4771C26.2697 20.8913 23.2804 21.3475 20.6029 20.8153C20.2226 20.7392 19.827 20.6252 19.5 20.4275C19.2718 20.283 19.0512 19.8648 18.823 19.7888C18.1917 19.5835 17.6972 20.6632 17.5603 21.0662C14.8448 28.8901 12.0989 36.9574 12.6922 45.1767C12.8215 46.9863 13.2323 48.9784 14.7612 50.0733C14.8296 49.1685 15.9325 48.7199 16.8681 48.5222C20.7931 47.6706 24.8929 47.549 28.8711 48.1573C29.6394 48.2713 30.4913 48.4994 31.077 48.9404C31.29 45.1995 31.1226 41.451 30.5369 37.7405L30.5293 37.7253Z" fill="#537082"/>
<path d="M35.9527 62.0716C35.7093 59.0379 35.1769 56.0269 34.3554 53.0844C33.6327 50.4916 33.5719 48.355 33.0471 45.7242C32.6135 43.5344 31.579 40.8884 31.4421 38.6606C31.0542 32.327 30.5521 25.9325 30.1566 19.5988C27.5476 19.3555 27.6161 19.5836 27.6845 21.9863C27.7378 23.9252 27.7986 25.8716 27.8519 27.8105C24.9082 28.4036 21.896 28.6925 18.8762 28.6773C18.5796 28.6773 18.3438 21.0206 18.0776 20.3363C17.7505 19.4771 17.4995 19.6444 16.465 19.7281C15.3316 19.8117 15.1947 21.3552 15.1871 22.6554C15.1415 28.4112 12.5857 33.4142 12.2967 39.1701C12.1141 42.8805 11.8631 44.8118 11.3002 48.4767C10.6613 52.651 10.7145 58.6501 9.64201 62.756C9.54312 63.1742 9.45184 63.5999 9.35296 64.0181C9.04109 65.2803 8.6988 66.5425 8.2272 67.759C8.13592 68.0632 8.04465 68.3749 7.95337 68.679C7.8621 68.968 7.70996 69.1885 7.5198 69.3558C7.38288 69.6143 7.24597 69.8728 7.09384 70.1313C11.9239 69.9032 16.754 69.6675 21.5917 69.4394C23.9497 69.3253 26.3078 69.2113 28.6658 69.1048C30.4761 69.0212 32.5526 68.9984 34.3325 68.7018C36.257 68.3749 36.1049 67.356 36.0972 65.6909C36.0972 64.4819 36.044 63.2806 35.9451 62.0716H35.9527Z" fill="#E0C74E"/>
<path d="M22.0633 4.81002C21.5385 5.0001 21.1201 5.41829 20.7626 5.84409C19.1044 7.80578 18.108 10.3149 17.9787 12.8849C17.9482 13.5008 17.9635 14.1318 18.1688 14.7097C18.3818 15.3332 18.8002 15.873 19.2337 16.3749C20.2606 17.5382 21.4624 18.5419 22.7859 19.3478C23.0141 19.4847 23.2576 19.6215 23.5238 19.6443C23.8509 19.6748 24.1703 19.5379 24.4594 19.3934C25.2733 19.0057 26.0643 18.5723 26.8402 18.1008C27.54 17.675 28.2398 17.2036 28.6733 16.5117C29.1982 15.6829 29.2819 14.6565 29.3275 13.6832C29.3579 12.9609 29.3807 12.2386 29.3883 11.5087C29.3883 10.984 29.3883 10.4594 29.2895 9.94994C29.0765 8.87025 28.4375 7.91222 27.6389 7.16708C26.8402 6.41434 25.8818 5.85168 24.9082 5.34986C24.0258 4.89365 22.9989 4.46026 22.0633 4.81002Z" fill="#F0DCCE"/>
<path d="M13.5441 23.1343C13.4833 22.9519 13.43 22.7542 13.4909 22.5793C13.5517 22.4044 13.7038 22.2828 13.8636 22.1991C14.6851 22.2371 15.4838 22.6781 15.9478 23.3472C15.9934 23.0811 16.1303 22.739 16.4041 22.777C16.5715 22.7998 16.6704 22.9747 16.754 23.1191C17.1039 23.7502 17.5907 24.3129 18.1612 24.7615C18.2145 24.7995 18.2677 24.8451 18.321 24.8831C22.0253 27.3543 24.4365 29.6733 28.468 31.4905C28.9396 30.2892 28.9472 28.8749 28.8635 27.5595C28.7114 25.3622 28.2702 22.1383 30.8032 21.0814C31.5182 20.7849 32.3625 21.2715 32.7352 21.9482C33.1079 22.6249 33.1231 23.4385 33.1307 24.214C33.1611 27.5291 32.3777 30.8899 31.7007 34.1441C31.5486 34.8817 31.4953 36.7141 30.6738 37.003C29.7915 37.3072 28.544 36.0678 27.8595 35.7333C27.6693 35.6344 27.4943 35.5051 27.327 35.3683C23.9117 32.5778 20.4964 29.7874 17.0811 26.9969C17.0811 26.9893 17.0887 26.9817 17.0963 26.9665C15.4685 26.2365 14.1526 24.8299 13.5669 23.1419L13.5441 23.1343Z" fill="#F0DCCE"/>
<path d="M29.6241 20.9446C29.7915 20.7393 29.9664 20.534 30.1794 20.3819C30.7803 19.9561 31.6094 20.0322 32.2864 20.3135C33.4197 20.7773 34.3249 21.8114 34.5151 23.0203C34.6064 23.621 34.5227 24.2369 34.4466 24.8375C34.0435 27.7649 33.6251 30.7074 32.796 33.5435C32.4309 34.7904 31.9821 36.0526 32.0506 37.3452C32.0734 37.695 32.0734 38.136 31.7539 38.2728C31.5029 38.3793 31.2291 38.212 31.0085 38.0523C28.6125 36.3111 26.1175 34.7144 23.539 33.2622C23.4477 33.2165 23.3564 33.1633 23.2575 33.1633C22.9533 33.1557 22.8163 33.5435 22.5501 33.6879C22.1926 33.8856 21.7362 33.5435 21.6526 33.1481C21.5689 32.7527 21.7362 32.3497 21.9036 31.9772C22.4284 30.791 22.9457 29.6049 23.4705 28.4263C23.6683 27.9777 24.0029 27.4455 24.4898 27.5063C25.0146 27.5748 25.1667 28.3351 24.8625 28.7609C25.7372 29.3996 26.7641 29.833 27.8366 30.0231C28.1865 29.4604 27.7681 28.4644 27.8746 27.8105C28.3843 24.5942 27.829 24.024 28.3614 22.5641C28.8254 21.2943 28.7418 21.9406 29.6469 20.9446H29.6241Z" fill="#537082"/>
<path d="M19.6064 23.1268C19.1424 22.6401 18.4503 22.4728 17.7885 22.3512C15.4609 21.9254 13.0801 21.857 10.7145 21.7809C8.80528 21.7201 6.88845 21.6593 4.97923 21.819C3.94475 21.9026 2.90267 22.0623 1.92144 22.4044C1.41181 22.5793 0.89457 22.8302 0.613131 23.2864C0.514248 23.4461 0.445779 23.6438 0.483812 23.8263C0.544663 24.138 0.879357 24.3205 1.18362 24.4193C2.56799 24.8907 4.18055 24.8299 5.62578 24.8299C7.47415 24.8299 9.32252 24.8147 11.1709 24.7919C13.9092 24.7539 16.678 24.693 19.325 24.0087C19.5076 23.9631 19.7129 23.8947 19.7966 23.7274C19.8955 23.5221 19.7662 23.2864 19.614 23.1191L19.6064 23.1268Z" fill="#998675"/>
<path d="M13.5593 22.0319C13.468 21.8038 13.2475 21.6517 13.0193 21.5909C12.7835 21.5224 12.54 21.53 12.2966 21.5376C11.2926 21.5681 10.2962 21.6365 9.2921 21.6593C8.79008 21.6745 8.28805 21.6821 7.79363 21.6593C7.47416 21.6517 7.0558 21.5225 6.73633 21.5757C6.34079 21.6441 6.02893 22.1155 5.95286 22.4881C5.93004 22.6173 5.92243 22.7542 5.97568 22.8759C6.02132 22.9899 6.11259 23.0736 6.21148 23.142C6.44728 23.2941 6.73634 23.3321 7.01017 23.3625C8.78247 23.5602 10.5852 23.6134 12.3271 23.2712C12.6541 23.2028 12.9964 23.1192 13.2551 22.9139C13.5137 22.701 13.681 22.336 13.5593 22.0243V22.0319Z" fill="#CBB190"/>
<path d="M5.80075 21.3931C5.77032 21.6136 5.91484 21.8265 6.105 21.9406C6.29516 22.0546 6.53097 22.0623 6.75156 22.0547C6.8048 22.0547 6.86565 22.0546 6.9189 22.0698C7.02539 22.1231 7.02538 22.2751 7.07863 22.3816C7.20033 22.6097 7.54262 22.5793 7.7632 22.45C7.98379 22.3208 8.19677 22.1307 8.45539 22.1307C8.66837 22.1307 8.85094 22.2599 9.03349 22.374C9.21605 22.488 9.42903 22.5793 9.62679 22.5033C9.86259 22.412 9.96147 22.1231 10.1897 22.0242C10.357 21.9558 10.5548 22.009 10.7145 22.0927C10.8819 22.1687 11.034 22.2751 11.2165 22.3132C11.498 22.3664 11.8022 22.2219 11.962 21.9862C11.9924 21.9406 12.0228 21.895 12.0761 21.8798C12.0989 21.8798 12.1293 21.8798 12.1521 21.8798C12.3499 21.933 12.502 22.1535 12.6922 22.1155C12.8215 22.0851 12.8976 21.9482 13.0193 21.8874C13.2246 21.7885 13.5137 21.9406 13.6734 21.7733C13.7495 21.6973 13.7495 21.568 13.719 21.4692C13.6354 21.1802 13.3083 21.0206 13.0117 21.013C12.715 21.0054 12.426 21.1118 12.1369 21.203C11.5588 21.3855 10.9427 21.492 10.357 21.3399C10.0756 21.2639 9.80934 21.1346 9.52029 21.089C8.82811 20.9902 8.1283 21.4312 7.44372 21.3095C7.08622 21.2487 5.90724 20.6708 5.80075 21.3855V21.3931Z" fill="#82B68D"/>
<path d="M13.217 19.8573C13.1258 19.6672 12.928 19.5456 12.7302 19.4847C12.5248 19.4315 12.3119 19.4315 12.0989 19.4315C10.996 19.4467 9.893 19.4695 8.79768 19.4999C8.27283 19.5152 7.74039 19.5608 7.21554 19.538C6.94171 19.5228 6.61465 19.3859 6.34842 19.4847C5.854 19.6596 5.80075 20.2299 6.00612 20.6329C6.11261 20.8534 6.23432 21.0663 6.37124 21.264C6.47773 21.416 6.60704 21.5757 6.77438 21.6517C6.9189 21.7202 7.08622 21.7201 7.25357 21.7278C7.89251 21.7354 8.53145 21.7506 9.178 21.7582C9.91582 21.7658 10.6613 21.781 11.3991 21.6897C11.8022 21.6365 12.213 21.5605 12.5933 21.4008C12.8063 21.3096 13.0117 21.1955 13.141 21.0054C13.2855 20.7925 13.3159 20.5188 13.3083 20.2527C13.3083 20.1158 13.2931 19.979 13.2322 19.8497L13.217 19.8573Z" fill="#D9924E"/>
<path d="M13.7571 19.3403C13.6734 19.0437 13.5289 18.7396 13.2703 18.5723C13.1181 18.4735 12.9356 18.4279 12.753 18.405C12.3803 18.3594 12 18.405 11.6273 18.4355C10.6156 18.5343 9.59637 18.6027 8.57711 18.6408C8.07508 18.6636 7.57305 18.6788 7.07102 18.6788C6.77437 18.6788 6.4549 18.5571 6.16585 18.6331C5.80835 18.7244 5.33674 19.1198 5.56493 19.5304C5.65621 19.6976 5.85399 19.7813 6.05176 19.7965C6.24192 19.8117 6.43208 19.7737 6.62224 19.7661C6.66788 19.7661 6.71351 19.7661 6.75915 19.7813C6.87325 19.8269 6.90367 19.9714 6.89606 20.0854C6.88846 20.2071 6.85043 20.3287 6.88086 20.4428C6.94171 20.6709 7.22315 20.7545 7.45134 20.7317C7.69475 20.7013 7.93055 20.5948 8.0979 20.42C8.22721 20.2907 8.3565 20.1158 8.53906 20.1234C8.72922 20.1234 8.85094 20.3287 8.98025 20.4732C9.22365 20.7317 9.60398 20.8305 9.96149 20.7773C10.3114 20.7241 10.6308 20.5416 10.9047 20.3135C10.9503 20.2755 10.996 20.2375 11.0492 20.2299C11.1633 20.2071 11.2546 20.2983 11.3458 20.3667C11.5664 20.534 11.8631 20.5872 12.1293 20.5112C12.3955 20.4352 12.6237 20.2375 12.7226 19.979C12.7378 20.0702 12.8291 20.131 12.9204 20.1462C13.0117 20.1614 13.103 20.1386 13.1942 20.1082C13.43 20.0474 13.7038 19.9485 13.7723 19.7128C13.8103 19.5912 13.7799 19.4619 13.7495 19.3327L13.7571 19.3403Z" fill="#82B68D"/>
<path d="M12.753 17.7207C12.3955 17.4698 11.9468 17.3862 11.5284 17.333C11.1405 17.2873 10.7602 17.1733 10.3646 17.1277C9.49749 17.0288 8.60753 17.0973 7.77082 17.333C7.30683 17.4622 6.85043 17.6523 6.42447 17.8804C6.19627 18.0097 5.95287 18.1693 5.89962 18.4279C5.84638 18.6484 5.96049 18.8841 6.12783 19.0361C6.29517 19.1882 6.50815 19.2794 6.72113 19.3631C7.45135 19.6444 8.20438 19.8725 8.97263 20.0018C10.2277 20.2071 11.5892 20.131 12.677 19.4771C12.89 19.3479 13.1029 19.1882 13.2094 18.9601C13.4148 18.5267 13.1562 17.9869 12.7607 17.7131L12.753 17.7207Z" fill="#CBB190"/>
<path d="M34.6292 4.81763C34.112 2.88635 31.4269 0.468455 29.5405 2.28568C29.4492 2.36932 29.3807 2.46056 29.3123 2.5594C29.183 2.29328 29.0537 2.06519 28.97 1.93593C28.3995 1.08434 27.4791 0.483665 26.4751 0.293579C27.1749 1.10715 27.8062 1.97394 28.3919 2.87115C27.4867 2.29329 26.4903 1.87509 25.433 1.6698C23.1587 1.2212 20.679 1.79906 18.9066 3.29694C17.5907 4.41465 16.6932 5.98857 16.2976 7.67653C15.9021 9.3569 15.9934 11.1361 16.4346 12.8012C16.8225 14.2687 17.5147 15.7058 18.5796 16.8007C18.9523 17.1884 19.8498 18.2301 20.0933 17.4698C20.3062 16.8311 19.6825 15.8274 19.4543 15.2648C18.9219 13.9722 18.7469 12.5579 18.648 11.1665C18.61 10.6495 18.5796 10.1172 18.7165 9.6154C18.8306 9.20482 19.0284 8.94631 19.2718 8.75622C19.6065 8.4901 20.04 8.34563 20.466 8.0643C21.2799 7.52446 22.0709 6.91618 22.7251 6.18625C22.9837 7.03023 23.6683 7.67652 24.4213 8.14033C25.1744 8.60414 26.0111 8.91589 26.7793 9.34168C27.0151 9.47094 27.2585 9.62301 27.4183 9.84351C27.5856 10.0716 27.6541 10.3529 27.7073 10.6343C28.1409 12.7252 28.1713 14.8922 27.7986 16.9908C30.1338 15.3484 31.7311 12.7024 32.1038 9.87393C32.2332 10.1705 32.3549 10.467 32.4385 10.7863C32.6667 11.6607 32.6363 12.5808 32.6059 13.4856C33.1079 12.748 33.0623 11.7824 32.9938 10.8928C32.9482 10.3301 32.8873 9.3949 32.4994 8.83225C32.9253 8.77902 33.3209 8.58134 33.648 8.30001C34.6064 7.47123 34.9487 6.04939 34.6216 4.82524L34.6292 4.81763Z" fill="#A78E41"/>
</svg>
