<svg width="40" height="105" viewBox="0 0 40 105" fill="none" xmlns="http://www.w3.org/2000/svg">
<path d="M7.9387 76.6842C8.30381 69.4685 7.53556 62.1084 7.60401 54.8471C7.36061 52.3304 7.75615 49.768 8.7526 47.4033C8.81345 47.2589 8.8819 47.1068 9.0036 46.9927C9.38392 46.643 10.0381 46.8255 10.5477 47.0155C15.4158 48.7947 21.1587 48.3766 25.6009 45.8674C26.4756 47.0536 26.7266 48.5058 26.9472 49.9049C27.2971 52.1707 27.6775 54.4365 27.7763 56.7175C27.7763 56.7175 27.7763 56.7251 27.7763 56.7327C27.7992 57.2194 27.8067 57.7136 27.7991 58.2002C27.7383 61.0439 27.1222 63.842 26.6354 66.6401C26.3235 68.4649 26.0421 70.3049 26.0192 72.1526C25.9964 73.6656 26.2398 75.0495 25.8519 76.5321C24.9087 80.1818 24.9087 84.1584 24.5131 87.8917C24.0872 91.8835 23.6689 95.8829 23.319 99.8823C23.3038 100.042 23.2885 100.202 23.2809 100.361C23.0527 100.415 19.5842 101.122 19.5842 100.323C19.3027 92.5602 19.0289 84.7895 18.7475 77.0263C18.6334 73.7569 18.8996 62.7167 17.964 59.6069C17.5761 59.6373 17.1957 59.6753 16.8078 59.7057C14.6932 69.9856 12.1831 87.9829 10.0685 98.2552C9.88594 99.16 9.65775 100.133 8.98078 100.719C8.31141 101.304 7.05636 101.137 6.85098 100.24C7.47471 92.3853 7.54317 84.5386 7.94631 76.6842H7.9387Z" fill="#97A8B2"/>
<path d="M19.4625 100.422C20.9533 100.316 22.4594 100.369 23.9351 100.589C25.0684 101.342 26.3159 101.958 27.6318 102.429C28.0121 102.566 28.4152 102.696 28.6967 102.962C28.9781 103.228 29.0922 103.676 28.826 103.958C28.5978 104.201 28.1871 104.231 27.8296 104.231C25.076 104.254 22.3149 104.049 19.607 103.608C19.4473 103.585 19.2723 103.547 19.1582 103.448C19.0669 103.365 19.0213 103.251 18.9833 103.137C18.7094 102.224 18.8844 101.213 19.4625 100.414V100.422Z" fill="#97A8B2"/>
<path d="M6.73689 99.5934C8.07562 99.7302 9.39153 100.012 10.6466 100.43C11.4985 101.266 12.4797 102.011 13.5446 102.627C13.8565 102.81 14.1836 102.985 14.3814 103.266C14.5791 103.547 14.5867 103.958 14.3053 104.163C14.0543 104.346 13.6892 104.308 13.3697 104.254C10.9356 103.851 8.53961 103.243 6.23486 102.437C6.09794 102.391 5.95341 102.331 5.86974 102.224C5.80128 102.141 5.78607 102.026 5.77847 101.92C5.71761 101.068 6.06752 100.202 6.73689 99.5934Z" fill="#97A8B2"/>
<path d="M36.0141 27.6495C35.9304 27.5202 35.7707 27.467 35.6262 27.4138C35.2078 27.2769 34.7895 27.1401 34.3711 27.0032C34.2038 26.95 34.0136 26.8891 33.8463 26.9424C33.6789 26.9956 33.5572 27.14 33.4431 27.2769C32.751 28.1133 31.9447 28.8508 31.0623 29.4743C30.7733 29.6796 30.4614 29.8697 30.1039 29.9077C29.3889 29.9837 28.788 29.3983 28.3088 28.8584C26.9777 27.3606 25.677 25.8475 24.4067 24.304C23.7525 23.5132 23.0603 22.7376 22.4594 21.9013C22.0259 21.3006 21.8889 20.525 20.999 20.5479C19.9949 20.5707 19.1278 21.4223 18.892 22.3955C18.6486 23.3688 18.9376 24.418 19.4549 25.2772C19.9721 26.144 20.7023 26.8511 21.4249 27.5506C22.9082 28.9953 24.3915 30.44 25.8747 31.877C26.7723 32.7514 27.6927 33.641 28.826 34.1732C29.9594 34.7131 31.359 34.8423 32.4315 34.1884C33.1313 33.7703 33.6105 33.0707 34.044 32.3788C34.8731 31.0634 35.611 29.672 36.0369 28.1741C36.0902 27.9916 36.1282 27.7787 36.0293 27.6191L36.0141 27.6495Z" fill="#65627D"/>
<path d="M29.1455 64.6631C28.8184 63.1044 28.6891 61.5305 28.5674 59.9641C28.3088 56.7175 28.0501 53.4708 27.7915 50.2165C27.472 46.1791 24.1709 41.2977 24.0111 37.2526C23.821 32.3332 23.859 27.3225 21.9422 22.616C21.8128 22.2891 21.6531 21.9469 21.288 21.7416C20.9305 21.5363 20.4437 21.5135 19.9949 21.4679C18.0096 21.2702 16.2526 20.5023 14.8834 19.4226C12.9894 17.9247 12.031 18.3125 11.2247 20.3654C9.16334 25.5738 10.3576 35.2377 8.30382 40.4461C7.79418 41.7311 7.28454 43.0237 6.98028 44.3391C6.69884 45.5708 6.59997 46.8178 6.50109 48.0572C5.89257 55.6454 2.02848 58.7704 1.41996 66.3586C1.27544 68.1303 1.25263 70.1376 2.92605 71.3845C4.43973 72.5098 6.79774 72.6011 8.91994 72.6163C13.3545 72.6619 17.7891 72.6999 22.2236 72.7456C23.7221 72.7608 28.4077 73.5515 29.3813 72.6923C29.9594 72.1829 30.1343 71.4834 30.1952 70.8143C30.3777 68.7461 29.5867 66.7084 29.1455 64.6631Z" fill="#65627D"/>
<path d="M12.8753 14.7085C13.3241 16.5941 14.5411 18.4114 16.3667 19.0577C17.8271 19.5747 19.4853 19.2782 20.8316 18.5254C21.425 18.1985 21.9726 17.7803 22.3606 17.2252C22.7941 16.6094 22.9919 15.8642 23.182 15.1343C23.608 13.5224 24.0264 11.9104 24.4523 10.2985C24.6881 9.41649 24.9163 8.48127 24.6881 7.59927C24.4447 6.64884 23.6917 5.88849 22.8093 5.4627C21.927 5.0369 20.9305 4.90004 19.9569 4.86963C18.6714 4.83161 17.3783 4.96087 16.1233 5.26501C15.2941 5.4627 14.465 5.74403 13.8033 6.29148C12.7079 7.19629 12.7156 8.32921 12.7003 9.60658C12.6851 11.3402 12.4569 12.9977 12.8677 14.7161L12.8753 14.7085Z" fill="#E2CFC5"/>
<path d="M27.1982 6.87694C27.5177 5.43989 26.643 3.83556 25.2586 3.32613C24.536 3.06001 23.7297 3.07522 23.0451 2.73306C22.0791 2.24644 21.5238 1.13634 20.5274 0.702945C20.36 0.62691 20.1699 0.57369 19.9949 0.611707C19.7895 0.649724 19.6222 0.794189 19.4473 0.908241C17.7815 1.98033 15.4311 0.109876 13.6512 0.976669C12.8449 1.37205 12.3885 2.23124 11.9853 3.0296C11.5518 3.89639 11.1182 4.76318 10.8368 5.69081C10.5553 6.61843 10.426 7.61449 9.91639 8.44326C9.66537 8.85385 9.32309 9.2036 9.08729 9.62179C8.31143 10.9676 8.82105 12.8989 10.1674 13.682C10.5173 13.8873 10.9128 14.0242 11.2019 14.2979C11.6507 14.7313 11.7495 15.408 12.0234 15.9783C12.2972 16.5409 13.0046 17.0428 13.5218 16.6854C13.4762 15.6437 13.4534 14.5412 13.9858 13.6516C14.1456 13.3779 14.3585 13.1422 14.4955 12.8533C14.7693 12.2678 14.6704 11.5302 14.2597 11.0436C14.9062 11.1577 15.5604 11.2717 16.2069 11.3858C16.2449 10.4354 16.3667 9.31765 17.1806 8.83103C17.7206 8.50408 18.3976 8.56491 19.0289 8.64095C21.8205 8.96029 25.9964 10.4506 27.183 6.88455L27.1982 6.87694Z" fill="#443B36"/>
<path d="M4.12788 16.2368C3.29117 15.7045 2.46207 15.1419 1.82313 14.3891C0.476787 12.8076 0.0660377 9.9259 0.134496 7.89578C0.202954 5.77442 1.07771 3.65305 2.64464 2.20079C5.06349 -0.0498278 11.8408 -1.41085 12.7916 3.06759C13.1568 4.79357 12.4037 5.59953 10.7607 5.26498C8.47877 4.80117 6.43265 5.33341 5.65679 7.86536C5.12434 9.61415 5.5503 11.5074 6.20445 13.2182C6.47828 13.9405 8.69176 17.7726 7.39106 17.9551C6.99552 18.0084 6.6152 17.7879 6.27291 17.575C5.6796 17.2024 5.0863 16.8298 4.493 16.4649C4.3713 16.3888 4.24959 16.3128 4.12788 16.2368Z" fill="#443B36"/>
<path d="M11.4301 22.7606C10.852 23.6654 10.7759 24.8059 10.8444 25.878C10.9128 26.9957 11.1258 28.0906 11.3388 29.1931C12.1223 33.2914 12.9057 37.3972 14.1075 41.389C14.4803 42.6284 15.0127 43.997 16.1993 44.514C17.0056 44.8638 17.964 44.7269 18.7551 44.3544C19.5462 43.9818 20.2231 43.3887 20.8849 42.8033L25.9204 38.3476C26.5821 37.7622 27.2667 37.1311 27.5101 36.2871C27.7915 35.2911 27.3124 34.1353 26.4072 33.6335C26.3311 33.5955 26.2551 33.5575 26.1714 33.5499C26.0041 33.5499 25.8747 33.6715 25.7606 33.7932C24.612 34.9793 23.4711 36.1731 22.3225 37.3592C21.8281 37.8686 21.3184 38.3933 20.6643 38.6594C20.0101 38.9255 19.1734 38.8875 18.6942 38.3629C18.3291 37.9523 18.253 37.3668 18.1998 36.8194C17.926 34.0441 17.6521 31.2764 17.3783 28.5012C17.1957 26.6155 16.96 24.555 15.857 22.9583C14.7313 21.3387 12.6851 20.8217 11.4453 22.7606H11.4301Z" fill="#65627D"/>
<path d="M31.4275 24.7526C30.3169 24.7602 29.2064 24.8134 28.0958 24.897C28.2099 24.8894 28.4533 27.7407 28.4761 28.0068C28.6131 29.9077 28.5979 31.8162 28.6283 33.7246C28.6283 34.2037 28.6435 34.6751 28.6587 35.1541C28.6663 35.4202 28.6055 35.8992 28.8108 36.1197C29.0466 36.363 29.5486 36.2414 29.8377 36.211C30.3169 36.1729 30.7885 36.0969 31.2525 35.9981C31.3362 35.9829 31.4198 35.9601 31.4731 35.8916C31.5187 35.8308 31.5263 35.7472 31.5263 35.6711C31.5644 34.2949 31.5187 32.9187 31.5644 31.55C31.6328 29.2766 31.9523 26.9652 31.4198 24.7602L31.4275 24.7526Z" fill="#EDEDED"/>
<path d="M29.8909 29.961C29.7464 28.5163 29.716 27.0489 29.3128 25.6498C29.2976 25.5966 29.2748 25.5358 29.2292 25.5054C29.1835 25.4826 29.1303 25.4902 29.0847 25.5054C27.8752 25.7563 26.6658 25.9996 25.4488 26.2505C25.7835 27.5659 26.179 28.8585 26.5745 30.1587C26.9853 31.5045 27.396 32.8503 27.8144 34.1885C28.0426 34.9184 28.2784 35.656 28.6207 36.3403C28.6511 36.4011 28.6891 36.4695 28.75 36.4999C28.7956 36.5228 28.8565 36.5304 28.9097 36.5304C29.3813 36.5304 29.8529 36.4847 30.3093 36.3707L30.9406 36.1122C30.5679 34.0668 30.1191 32.0367 29.9062 29.9686L29.8909 29.961Z" fill="#EDEDED"/>
<path d="M31.7545 31.9455C31.686 31.6489 31.6175 31.3448 31.4122 31.1167C31.0927 30.7517 30.5526 30.7061 30.0734 30.6833C29.7996 30.6681 29.5258 30.6605 29.2596 30.6452C29.0162 30.6376 28.7651 30.6225 28.537 30.7061C28.0654 30.8734 27.8219 31.3828 27.4568 31.7326C27.2438 31.9302 26.9928 32.0899 26.8255 32.3256C26.4528 32.8275 26.7798 33.4129 26.5669 33.9376C26.3615 34.4394 25.6845 34.7739 25.6237 35.3366C25.6008 35.5723 25.7454 35.7852 25.8823 35.9753C25.9812 36.1121 26.0877 36.2566 26.2398 36.325C26.4756 36.4315 26.757 36.3326 27.0004 36.2338C27.9284 35.8536 28.8488 35.4811 29.7768 35.1009C30.0735 34.9792 30.3701 34.8576 30.6287 34.6751C30.9482 34.447 31.1992 34.1276 31.4274 33.8007C31.6023 33.5574 31.7697 33.2913 31.8381 33.0023C31.9142 32.6602 31.8381 32.3028 31.7545 31.953V31.9455Z" fill="#E2CFC5"/>
<path d="M39.2773 17.8639C39.2545 17.7878 39.1936 17.7346 39.1252 17.6814C38.5547 17.2252 37.9081 16.8526 37.2236 16.5941C36.3032 17.9779 35.9609 19.6507 35.36 21.1942C34.721 22.8289 33.7854 24.3268 33.0857 25.9387C32.9107 26.3341 33.8539 26.7675 34.181 26.547C34.5841 26.2733 34.8808 25.3913 35.1014 24.9655C35.6871 23.8706 36.3184 22.7757 36.9878 21.7264C37.7941 20.4719 38.8894 19.4302 39.2697 18.0616C39.2849 17.9931 39.3001 17.9247 39.2849 17.8563L39.2773 17.8639Z" fill="#EDEDED"/>
<path d="M36.2652 21.734C36.3108 21.7492 36.3565 21.7568 36.3945 21.7492C36.4553 21.7416 36.5086 21.7036 36.5466 21.658C36.6455 21.5591 36.7292 21.4451 36.8053 21.331C36.9726 21.0953 37.1323 20.8596 37.2997 20.6163C37.3225 20.5859 37.3453 20.5403 37.3301 20.5099C37.3225 20.4947 37.2997 20.4795 37.2845 20.4719C36.9954 20.2894 36.7064 20.1145 36.4173 19.9472C36.3565 19.9092 36.288 19.8712 36.2119 19.8788C36.0902 19.894 36.0142 20.0156 35.9685 20.1221C35.8088 20.4642 35.5882 20.8824 35.5502 21.255C35.5121 21.582 36.037 21.658 36.2652 21.7188V21.734Z" fill="#E58E6C"/>
<path d="M36.965 19.8104C37.1475 19.9549 37.3909 20.0613 37.6039 19.9777C37.718 19.9321 37.8017 19.8408 37.8854 19.742C38.1592 19.4074 38.3722 19.0273 38.5851 18.6471C38.6384 18.5482 38.6916 18.4266 38.6384 18.3353C38.608 18.2897 38.5623 18.2593 38.5167 18.2289C38.2429 18.0616 37.9766 17.8943 37.7028 17.7271C37.6343 17.6815 37.5659 17.6434 37.4822 17.6206C37.4214 17.6054 37.3529 17.6054 37.2845 17.613C37.1171 17.6206 36.9118 17.6434 36.8205 17.7879C36.7901 17.8335 36.7748 17.8867 36.7596 17.9324C36.6455 18.3353 36.4934 18.7459 36.4173 19.1489C36.3945 19.2782 36.4173 19.3542 36.5162 19.4455C36.6607 19.5671 36.8129 19.6964 36.9574 19.8104H36.965Z" fill="#DD7E58"/>
<path d="M36.0446 22.8821C36.151 22.7529 36.2651 22.6008 36.2423 22.4412C36.2195 22.2663 36.0445 22.1598 35.8924 22.0762C35.7707 22.0153 35.649 21.9545 35.5273 21.8937C35.4969 21.8785 35.4589 21.8633 35.4284 21.8633C35.3676 21.8633 35.3371 21.9241 35.3067 21.9773C35.0785 22.3879 34.8427 22.8061 34.6145 23.2167C34.5841 23.2699 34.5537 23.3231 34.5765 23.384C34.5841 23.4144 34.6145 23.4372 34.6373 23.46C34.7971 23.6045 35.2078 24.0455 35.4284 23.8402C35.5501 23.7261 35.6186 23.498 35.7099 23.3612C35.8164 23.1939 35.9305 23.0342 36.0522 22.8821H36.0446Z" fill="#F4A07A"/>
<path d="M35.109 24.6614C35.1622 24.5777 35.2231 24.4713 35.1927 24.3724C35.1698 24.304 35.1014 24.2584 35.0329 24.2128C34.8884 24.1215 34.7515 24.0303 34.6069 23.9391C34.5233 23.8858 34.432 23.8326 34.3331 23.8402C34.1886 23.8554 34.1049 24.0075 34.0441 24.1443C33.8463 24.5777 33.1769 25.5053 33.93 25.7487C34.4928 25.9311 34.8656 25.0035 35.1014 24.6538L35.109 24.6614Z" fill="#F4D0C1"/>
<path d="M36.4629 25.992C36.5922 25.8931 36.7596 25.8627 36.9117 25.8019C37.3681 25.6118 37.6419 25.1556 37.8701 24.7222C37.9994 24.4713 38.1287 24.2204 38.1744 23.9391C38.2124 23.6653 38.1592 23.3536 37.9538 23.1635C37.8625 23.0798 37.756 23.019 37.6419 22.9658C37.3605 22.8213 37.0714 22.6845 36.7672 22.6541C36.4553 22.6237 36.1206 22.7073 35.9153 22.943C35.786 23.1027 35.7251 23.3156 35.7555 23.5133C35.7707 23.6045 35.8011 23.6881 35.7859 23.7794C35.7783 23.863 35.7327 23.9314 35.687 23.9999C35.2839 24.6386 34.8275 25.2697 34.7058 26.0072C34.6374 26.4178 34.6754 26.8512 34.5004 27.2313C34.8351 27.3682 35.1698 27.5127 35.5045 27.6495C35.7327 27.1933 35.9685 26.7447 36.2271 26.2961C36.2956 26.1821 36.364 26.068 36.4629 25.9844V25.992Z" fill="#E2CFC5"/>
</svg>
