<svg width="41" height="100" viewBox="0 0 41 100" fill="none" xmlns="http://www.w3.org/2000/svg">
<path d="M37.2319 61.527C37.4297 61.1012 37.559 60.6373 37.6655 60.1811C38.1827 58.037 38.3196 55.8092 38.1447 53.6118C38.0306 52.1519 38.0078 49.6124 36.4485 48.814C35.5433 48.3502 34.3034 48.5099 33.6037 49.2474C32.5996 49.217 31.5423 49.2854 30.5458 49.3082L25.518 49.4071C24.2781 49.4299 22.8177 49.2778 21.5018 49.4071L10.2975 49.2322C9.7346 49.2246 9.2782 49.4603 8.95873 49.8177C7.66564 49.8177 6.40297 50.8517 6.86696 52.2736C7.93947 55.5583 9.01958 58.8354 10.0921 62.1201C10.7691 64.1882 13.9866 63.3442 13.4161 61.2152C13.1195 60.1127 12.8228 59.0026 12.5262 57.9001C12.7163 58.0218 12.9141 58.1206 13.1423 58.189C14.9983 58.7745 16.9835 57.5047 18.2766 56.0069C18.3375 56.0297 18.3983 56.0525 18.4592 56.0753C18.7634 56.4783 19.2655 56.752 19.9653 56.7596C20.2087 56.7596 20.4521 56.7748 20.6955 56.7824C20.84 56.8204 20.9769 56.8585 21.1214 56.8889C21.1747 56.9041 21.228 56.9117 21.2888 56.9269C21.4409 57.71 22.0799 58.4399 23.0459 58.516C25.6853 58.7137 28.7888 58.995 31.3978 58.4552C31.8085 58.3716 32.1888 58.2347 32.5311 58.037C32.5692 58.0674 32.6072 58.1054 32.6528 58.1282C32.6224 58.44 32.592 58.7593 32.5616 59.0711C32.4855 59.4208 32.4018 59.763 32.3029 60.1127C31.9074 61.4814 32.6148 62.5002 33.6188 62.9488C34.6837 63.5495 35.9997 63.2454 36.7451 62.3101C36.9353 62.0668 37.0874 61.8007 37.2167 61.527H37.2319Z" fill="#5E625E"/>
<path d="M29.5646 98.1529C29.9221 98.4419 29.4353 98.67 29.2071 98.6928C28.7887 98.7308 28.3476 98.708 27.9368 98.6092C27.8303 98.5864 27.7162 98.5483 27.6325 98.4875C27.5641 98.4343 27.5108 98.3583 27.4652 98.2898C27.3283 98.0921 27.0088 97.7804 26.9556 97.5523C26.91 97.3622 27.0316 97.1797 27.1229 97.0124C27.3131 96.6474 27.6477 96.2749 27.6325 95.8415C28.5453 95.9403 29.4201 95.6362 30.1731 95.8719C30.234 96.1836 30.4774 96.4346 30.3633 96.6703C30.4393 96.5106 32.6376 97.0505 32.9038 97.0961C33.3221 97.1797 33.7481 97.2405 34.1741 97.2786C34.5088 97.309 35.1401 97.1569 35.3303 97.4763C35.3987 97.5903 35.4215 97.7272 35.4291 97.8564C35.4291 97.9553 35.4368 98.0617 35.4063 98.1529C35.3455 98.3126 35.1934 98.4343 35.026 98.4951C33.2157 99.1414 31.413 98.1226 29.5722 98.1454L29.5646 98.1529Z" fill="#5E625E"/>
<path d="M28.7203 56.8889C30.7969 56.8357 32.8734 56.7824 34.95 56.7292C35.0793 56.4707 38.1143 57.2767 38.1143 57.5656C38.2512 66.6745 35.1325 75.236 33.3374 84.1701C32.5616 88.025 30.3177 91.8571 30.3024 95.7805C29.4505 95.7805 28.5986 95.7805 27.7467 95.7805C27.4576 83.501 24.5063 71.2822 24.2173 59.0026C24.2021 58.3792 26.8947 57.6112 27.3892 57.2159C27.7543 56.9269 28.2563 56.9041 28.7279 56.8889H28.7203Z" fill="#5E625E"/>
<path d="M7.83296 94.6324C6.67678 94.6172 5.53581 94.2219 4.63824 93.5148C6.66156 90.0552 8.69248 86.588 10.7158 83.1285C11.3547 82.0336 12.0013 80.9311 12.4349 79.7449C12.9749 78.2851 13.1879 76.7415 13.3933 75.2056C14.2072 69.2597 2.48564 50.4564 15.835 57.3604C16.2914 57.5961 15.9795 56.3491 16.2457 55.9157C17.0139 54.6763 18.8547 54.7296 20.3304 54.9425C20.6574 54.9881 21.0073 55.0489 21.2203 55.2846C21.4637 55.5583 24.202 55.2086 24.5367 55.3759C27.0468 56.6609 25.7537 59.9075 25.3582 64.6216C25.2213 66.2792 22.9926 75.16 22.4754 76.7492C21.5626 79.5548 19.2274 84.2462 17.0216 86.2611C10.3964 92.2906 8.89786 92.7012 7.82535 94.6173L7.83296 94.6324Z" fill="#5E625E"/>
<path d="M5.52822 96.6778C5.72599 97.0579 5.20875 97.0807 5.00337 97.0123C4.62305 96.8907 4.25035 96.7082 3.93088 96.4725C3.84721 96.4117 3.76356 96.3432 3.71031 96.252C3.67228 96.1835 3.65705 96.0999 3.64183 96.0163C3.6038 95.7958 3.44406 95.4004 3.4897 95.1875C3.52773 95.005 3.7027 94.891 3.84722 94.7769C4.15909 94.5336 4.70673 94.085 4.86646 93.7048C5.6195 94.1306 6.77568 94.6324 7.33856 95.1191C7.02669 95.3396 7.00386 95.5297 6.8061 95.6969C6.93541 95.5829 8.63929 96.8755 8.84467 97.0199C9.17935 97.248 9.52163 97.4609 9.87913 97.651C10.1606 97.8031 10.7691 97.9095 10.8071 98.2593C10.8223 98.3809 10.7843 98.5102 10.7387 98.6242C10.7082 98.7155 10.6626 98.8067 10.6018 98.8752C10.4877 98.9968 10.3051 99.0425 10.1377 99.0272C8.30457 98.9132 7.13317 97.3545 5.5206 96.6854L5.52822 96.6778Z" fill="#5E625E"/>
<path d="M34.8054 18.5904C34.1132 17.5867 33.2993 16.6895 32.5539 15.7542C32.0519 15.3285 31.527 14.9407 30.9413 14.5909C28.3247 13.0474 25.1528 12.2567 22.0874 12.3631C18.7025 12.4772 16.5423 14.6137 14.6331 17.1761C11.3243 21.6241 9.10322 26.7793 7.02665 31.8432C4.79796 37.2796 3.07891 42.9138 1.8923 48.6468C0.766545 54.1137 6.32687 52.3953 9.84105 52.9427C12.7847 53.3989 12.1838 52.342 15.1884 52.4865C15.2492 52.4865 20.4596 52.555 20.5205 52.5626C21.0682 52.6918 22.6807 52.8591 23.3273 52.9504C25.168 53.2165 26.4003 53.2697 28.2562 53.4294C31.8769 53.7487 29.2147 53.5738 32.843 53.4142C34.8054 53.3305 40.921 53.8551 40.8525 52.1748C40.4722 42.4424 37.9317 30.4213 35.9616 20.7802C35.5813 20.0046 35.2314 19.2215 34.7978 18.5904H34.8054Z" fill="#506C80"/>
<path d="M32.8506 52.1823C32.8126 49.9621 32.8049 47.7191 32.6452 45.5217C32.5311 44.0086 32.2116 42.488 32.166 40.9749C32.0595 36.945 31.8161 32.9076 31.2456 28.9006C30.7512 25.3954 30.0894 21.913 29.2603 18.4458C28.8268 16.621 28.8572 12.9029 26.9556 11.5951C26.309 11.6103 25.2441 11.5875 24.6052 11.5951C24.4759 11.5647 23.7228 11.5951 23.5631 11.5951C23.3882 11.5951 22.6199 11.5495 22.4754 11.5799C21.6691 11.5799 21.9429 11.5951 21.1443 11.5951C20.8552 12.8877 20.8628 15.0927 20.6042 16.3853C20.6498 16.5754 20.6726 16.7731 20.6574 16.9936C20.1554 24.7111 20.9161 32.4514 20.3456 40.1689C20.2163 41.9405 19.9729 43.7045 19.6838 45.4609C19.41 47.1412 18.3679 49.4831 18.6569 51.1558C18.7026 51.4144 18.7787 51.6273 18.8775 51.7946C19.0449 52.1519 19.448 52.4485 20.1326 52.5093C20.2543 52.5321 20.3912 52.5397 20.5205 52.5473C22.2548 52.7374 23.9663 53.0872 25.7157 53.2392C27.9825 53.4293 30.2415 53.3 32.4855 53.5966C32.5539 53.6042 32.6376 53.6118 32.6985 53.589C32.843 53.5281 32.8582 53.3456 32.8582 53.1936C32.8582 52.859 32.843 52.5169 32.843 52.1823H32.8506Z" fill="#F0F0F0"/>
<path d="M26.3547 4.27307C24.9551 5.12466 24.0195 6.5237 23.1599 7.89232C22.0874 9.58789 21.0301 11.3519 20.7031 13.3212C20.4673 14.7735 20.5053 14.34 22.3385 17.1153C24.8182 18.3014 22.4526 16.9176 24.8182 18.3014C34.7522 20.9474 33.8774 13.6329 35.3759 8.78191C35.4291 8.62224 35.4748 8.44734 35.4291 8.28767C35.3759 8.10519 35.2238 7.97597 35.0717 7.85431C32.9951 6.24238 30.523 5.2007 28.0813 4.18183C27.8227 4.07539 27.5565 3.9613 27.2751 3.9613C26.948 3.9613 26.6361 4.11341 26.3547 4.28068V4.27307Z" fill="#E8DBCE"/>
<path d="M38.4489 6.3868C38.1523 5.86217 37.6807 5.8774 37.2015 5.93823C37.1482 5.90021 37.1026 5.86218 37.0417 5.83177C36.8135 5.71011 36.5853 5.68732 36.3495 5.71013C35.6878 5.03343 34.9043 4.44796 34.0524 3.99936C33.885 3.51274 33.6949 3.0413 33.2461 2.73716C32.8125 2.44062 32.242 2.44826 31.6716 2.57752C31.6183 1.48262 31.0403 0.592979 29.6179 0.828686C29.2908 0.88191 29.0473 0.973186 28.8648 1.10244C28.705 1.11005 28.5377 1.12526 28.378 1.15567C28.1498 1.01881 27.8835 0.91994 27.5793 0.889526C26.735 0.805888 26.0352 1.28492 25.8222 2.04527C25.6092 2.22014 25.4419 2.41781 25.3278 2.63831C25.1529 2.78278 24.9855 2.92725 24.8182 3.07932C24.7269 3.10213 24.6432 3.12493 24.5595 3.15534C24.3694 3.10972 24.1716 3.10214 23.9738 3.13255C23.3273 3.09454 22.7796 3.60397 22.5134 4.22745C22.3613 4.47836 22.2624 4.7293 22.2852 4.9574C22.2928 5.06385 22.3232 5.15508 22.3537 5.23111C22.3917 5.55806 22.5439 5.85458 22.8177 6.06747C22.7568 6.25756 22.7036 6.44764 22.6579 6.63773C21.9201 7.61858 21.555 8.73629 21.5702 10.0669C21.5702 10.0973 21.5702 10.1353 21.5702 10.1657C21.5702 10.219 21.5702 10.2646 21.5702 10.3178C21.6006 10.9489 22.7112 10.9109 22.7264 10.2722C22.7492 9.35979 23.4034 7.24602 24.5519 8.3105C25.2213 8.92638 24.9627 9.54227 24.9246 10.4623C24.9018 11.0858 25.7918 11.3138 26.0428 10.7132C26.3699 9.91481 26.6589 9.11646 26.773 8.25727C26.8034 8.05958 26.8263 7.8695 26.8491 7.69462C26.91 7.70983 26.9632 7.71745 27.0316 7.70984C27.8151 7.65662 28.4617 7.208 29.0398 6.65295C29.0626 6.65295 29.0778 6.65295 29.1006 6.65295C29.093 6.73659 29.0854 6.81264 29.0778 6.90388C29.055 7.28405 29.4581 7.60339 29.8384 7.42091C30.2492 7.22322 30.5762 7.02551 30.8729 6.7822C31.1467 7.26882 31.6336 7.55774 32.128 7.29923C32.5692 7.70981 33.1092 7.86951 33.8242 8.03679C34.1741 8.12042 34.5924 8.22686 35.0488 8.3105C35.1325 8.39414 35.2162 8.47778 35.3151 8.55381C35.6878 8.89597 36.3191 8.78951 36.5701 8.44736C37.0417 8.42454 37.4905 8.3181 37.8328 8.06718C38.3196 7.71742 38.7988 6.97991 38.4566 6.37924L38.4489 6.3868Z" fill="#8A6239"/>
<path d="M21.0834 54.8436C21.5779 52.8971 22.0951 48.814 19.874 47.6735C16.9379 46.1604 12.9445 45.8487 9.68898 45.7574C9.55967 45.7574 9.45318 45.7803 9.3543 45.8259C8.28179 45.7499 7.17125 45.7499 6.17481 46.0616C6.10635 46.0616 6.03026 46.0464 5.9618 46.0388C5.30765 45.9779 4.94253 46.7079 5.19354 47.2249C5.65754 48.1829 6.07591 49.1866 6.39538 50.2131C6.39538 50.2131 6.39538 50.2207 6.39538 50.2283C6.41059 50.5704 6.44861 50.8898 6.52467 51.2015C6.50185 51.3536 6.47906 51.5057 6.45624 51.6577C6.4106 51.9391 6.63116 52.2356 6.905 52.3648C7.01149 52.6918 7.34619 52.9503 7.82539 52.9047C9.03482 52.7831 10.2594 52.6766 11.4765 52.6233C14.4354 53.0035 17.3182 53.9007 19.9881 55.2465C20.3912 55.4518 20.9693 55.3302 21.091 54.8436H21.0834Z" fill="#E3E3E3"/>
<path d="M20.5738 55.4443C21.0682 53.4978 21.5854 49.4148 19.3643 48.2742C16.4283 46.7612 12.4349 46.4494 9.17934 46.3582C9.05003 46.3582 8.94354 46.381 8.84465 46.4266C7.77214 46.3506 6.66156 46.3506 5.66512 46.6623C5.59666 46.6623 5.52062 46.6471 5.45216 46.6395C4.79801 46.5787 4.43289 47.3086 4.6839 47.8256C5.14789 48.7836 5.56626 49.7873 5.88573 50.8138C5.88573 50.8138 5.88573 50.8214 5.88573 50.829C5.90095 51.1711 5.93897 51.4905 6.01503 51.8022C5.99221 51.9543 5.96942 52.1064 5.9466 52.2584C5.90096 52.5398 6.12152 52.8363 6.39535 52.9656C6.50184 53.2925 6.83654 53.551 7.31575 53.5054C8.52518 53.3838 9.74981 53.2773 10.9668 53.2241C13.9257 53.6043 16.8086 54.5015 19.4785 55.8473C19.8816 56.0526 20.4597 55.9309 20.5814 55.4443H20.5738Z" fill="#EDEDED"/>
<path d="M20.4064 55.5582C20.7411 53.5813 20.9161 49.4679 18.6037 48.5022C15.5535 47.2248 11.5449 47.2249 8.28936 47.3845C8.16005 47.3845 8.05357 47.4225 7.96229 47.4758C6.88217 47.4834 5.77923 47.5746 4.81321 47.9624C4.74475 47.9624 4.66871 47.9624 4.60025 47.9624C3.93849 47.9548 3.63423 48.7075 3.93088 49.2093C4.47094 50.1294 4.97298 51.095 5.37612 52.0911C5.37612 52.0911 5.37612 52.0986 5.37612 52.1062C5.42176 52.4408 5.48259 52.7602 5.58908 53.0643C5.58147 53.2164 5.56628 53.3761 5.55867 53.5205C5.53585 53.8019 5.77924 54.0832 6.06068 54.1896C6.18999 54.509 6.5475 54.7371 7.0191 54.6534C8.22092 54.4405 9.42274 54.2352 10.6322 54.0908C13.6139 54.2352 16.5576 54.9043 19.3339 56.0448C19.7523 56.2197 20.3152 56.0449 20.3989 55.5582H20.4064Z" fill="white"/>
<path d="M14.9526 49.0802C15.1123 49.3843 15.2797 49.696 15.3329 50.0306C15.3861 50.3651 15.3025 50.7453 15.0439 50.9734C14.7776 51.2015 14.3136 51.2091 14.1007 50.9354C14.055 51.019 13.9637 51.0875 13.8649 51.1027C13.2031 50.7681 12.9825 49.9774 12.7467 49.2931C12.5641 48.7608 12.3283 48.2514 12.0469 47.7648C11.8111 47.3542 11.5297 46.9056 11.6362 46.4418C11.7122 46.1072 11.9937 45.8487 12.3055 45.6814C12.6174 45.5142 12.9673 45.4305 13.302 45.3088C13.8192 45.9931 14.3441 46.6775 14.8613 47.3618C14.945 47.4758 15.0363 47.5899 15.0515 47.7268C15.0743 47.8636 15.0058 48.0233 14.8689 48.0613C14.7168 47.9472 14.5266 47.894 14.3365 47.9093C14.5418 48.297 14.7472 48.6848 14.9526 49.0726V49.0802Z" fill="#E8DBCE"/>
<path d="M18.6113 13.1995C21.1823 11.504 14.5571 18.4231 12.5033 21.6318C10.6398 24.5363 8.38822 27.1899 7.24725 30.5886C6.69959 32.2234 6.85932 33.9646 7.7721 35.6069C9.59765 38.8764 11.4993 42.1078 13.4846 45.2785C12.8304 45.7271 12.1762 46.1757 11.5297 46.6319C8.57078 43.0051 5.61946 39.3782 2.66815 35.7514C2.09767 35.0519 1.51201 34.3219 1.23818 33.4627C0.971957 32.6264 0.774163 31.6987 1.11645 30.9384C9.83345 11.5648 14.4962 15.914 18.6265 13.1919L18.6113 13.1995Z" fill="#506C80"/>
</svg>
