<svg width="44" height="112" viewBox="0 0 44 112" fill="none" xmlns="http://www.w3.org/2000/svg">
<path d="M1.33508 24.0685C0.703742 24.4335 0.726599 25.2319 1.37315 25.5892C5.95223 28.1212 10.3107 30.6912 14.4486 33.2915C14.9811 33.6261 15.6124 33.9758 16.2285 33.8086C16.6317 33.6945 16.9283 33.3828 17.2022 33.0938L20.7848 29.2009C21.1347 28.8207 21.051 28.2352 20.6098 27.9463C16.5784 25.2699 12.1895 22.814 7.45069 20.5862C7.05516 20.4037 6.58356 20.4569 6.26409 20.7078C4.75801 21.9168 3.10738 23.0421 1.33508 24.0762V24.0685Z" fill="#666666"/>
<path d="M3.89846 24.4638C3.46489 24.7224 3.48013 25.2774 3.92891 25.5283C7.11601 27.3076 10.1814 29.1324 13.1175 31.0028C13.4978 31.2461 13.9466 31.497 14.3954 31.383C14.6844 31.307 14.8974 31.0865 15.0952 30.8812L17.7042 28.1211C17.9628 27.8474 17.902 27.4292 17.5825 27.2163C14.6616 25.2926 11.5125 23.5438 8.1581 21.9775C7.88426 21.8483 7.54956 21.8863 7.32897 22.0688C6.27928 22.928 5.13071 23.7339 3.90607 24.4638H3.89846Z" fill="white"/>
<path d="M7.74738 22.814C7.6485 22.776 7.5496 22.738 7.45072 22.7532C7.35944 22.7684 7.27576 22.8216 7.20731 22.8825C7.04757 23.0041 6.89542 23.1258 6.7585 23.2626C6.61398 23.4071 6.48468 23.5592 6.34016 23.696C6.22606 23.8025 6.09677 23.9013 5.97506 24.0002C5.69363 24.2131 5.41977 24.4336 5.13833 24.6465C4.97098 24.7757 4.82647 24.8517 4.71998 24.9962C4.68195 25.0494 4.65152 25.1103 4.62109 25.1863C4.85689 25.3688 5.10793 25.5209 5.35894 25.6729C5.50347 25.7566 5.71642 25.9619 5.89897 25.9086C6.01307 25.8782 6.11196 25.7262 6.18802 25.6425C6.20323 25.6273 6.22606 25.6045 6.24127 25.5893C6.30973 25.749 6.3782 25.9086 6.43905 26.0683C6.47708 25.8554 6.46946 25.6349 6.46946 25.422C6.46946 25.3992 6.46946 25.3764 6.46946 25.3536C6.49988 25.3232 6.5303 25.2927 6.56073 25.2547C6.91823 24.8822 7.28338 24.5096 7.64088 24.137C7.7854 23.985 7.91468 23.8709 8.08202 23.7493C8.13527 23.7112 8.54602 23.2322 8.56123 23.2398C8.295 23.0954 8.03639 22.9281 7.75495 22.814H7.74738Z" fill="#CCCCCC"/>
<path d="M12.6916 25.1407C12.5623 25.1407 12.4253 25.1179 12.296 25.1102C12.4177 24.9506 12.547 24.7985 12.6611 24.6312C12.4329 24.54 12.2123 24.4411 11.9841 24.3499C11.9537 24.3347 11.9233 24.3195 11.8852 24.3271C11.8168 24.3271 11.7636 24.3879 11.7255 24.4488C11.4289 24.8365 10.9573 25.1939 10.6606 25.5817C10.4172 25.901 10.3488 25.9923 10.0065 26.4713C10.1814 26.5549 10.6302 26.8514 10.8051 26.9351C10.8356 26.7982 10.9421 26.6842 11.0409 26.5853C11.406 26.2128 11.7408 25.8174 12.0678 25.4068C12.1667 25.3916 12.258 25.3764 12.3493 25.346C12.4786 25.3003 12.5927 25.2319 12.684 25.1407H12.6916Z" fill="#B8CDD8"/>
<path d="M8.96439 24.8669C8.83508 24.7985 8.69815 24.7225 8.56884 24.654C8.54602 24.6464 8.53084 24.6312 8.50802 24.6312C8.47759 24.6312 8.44713 24.654 8.42431 24.6768C7.86144 25.1863 7.30617 25.787 6.76611 26.3192C6.8726 26.3876 7.24534 26.6005 7.35944 26.6614C7.38986 26.6766 7.42029 26.6994 7.45071 26.6918C7.50396 26.6918 7.54197 26.6386 7.5724 26.6005C7.59521 26.5701 7.61044 26.5473 7.63326 26.5169C7.69411 26.6614 7.75496 26.8058 7.81581 26.9503C7.85384 26.7374 7.84622 26.5169 7.84622 26.304C7.84622 26.2812 7.84622 26.2584 7.84622 26.2356C8.20372 25.7642 8.56885 25.3003 8.96439 24.8593V24.8669Z" fill="#CCCCCC"/>
<path d="M12.4482 27.6042C12.2732 27.4977 12.0983 27.3913 11.9233 27.2924C11.9005 27.2772 11.8777 27.262 11.8472 27.2696C11.8244 27.2696 11.8092 27.2924 11.7864 27.3076C11.5126 27.5738 11.2311 27.8475 10.9573 28.1136C10.7519 28.3113 10.5466 28.5166 10.4401 28.7751C10.6226 28.9044 10.8052 29.026 11.0029 29.1325C11.0258 29.1477 11.0562 29.1629 11.0866 29.1629C11.117 29.1629 11.1474 29.1477 11.1779 29.1248C11.2539 29.0716 11.3148 29.0108 11.3756 28.9424C11.4441 29.0108 11.505 29.0716 11.5734 29.1401C11.5962 29.1629 11.6191 29.1781 11.6419 29.1705C11.6267 29.0108 11.6115 28.8511 11.5963 28.6915C11.9005 28.3493 12.1896 27.9919 12.4482 27.6118V27.6042Z" fill="#CCCCCC"/>
<path d="M15.8026 27.072C15.9167 26.8819 16.0384 26.6918 16.1525 26.5093C15.871 26.3952 15.582 26.2812 15.3006 26.1747C15.2777 26.1671 15.2473 26.1519 15.2245 26.1595C15.194 26.1595 15.1712 26.1824 15.1484 26.2052C14.403 26.9047 13.9922 27.8931 13.3152 28.6611C13.3 28.6839 13.2772 28.7067 13.2772 28.7371C13.2772 28.7599 13.2925 28.7751 13.3077 28.7903C13.5511 29.0412 13.8173 29.277 14.0911 29.4899C14.479 29.0337 14.8518 28.5698 15.2093 28.0908C15.3462 27.9083 15.4831 27.7183 15.5211 27.4978C15.7113 27.4978 15.8938 27.4825 16.084 27.4445C16.0992 27.3685 16.0079 27.3153 15.9319 27.2925C15.8558 27.2696 15.7646 27.224 15.7722 27.148C15.7722 27.1252 15.7874 27.1024 15.8026 27.0796V27.072Z" fill="#B8CDD8"/>
<path d="M29.9582 106.878C31.6088 106.87 33.2594 106.863 34.9176 106.855C36.2259 91.937 37.2528 74.7456 38.5687 59.8276C33.5484 59.2954 28.513 59.3562 23.4699 59.5767C21.7965 70.8298 26.4668 84.0446 27.9653 95.3205C28.4825 99.2059 28.6651 103.182 29.9582 106.878Z" fill="#BE9F3E"/>
<path d="M34.4308 106.642C32.8714 106.513 31.2893 106.581 29.7452 106.84C28.551 107.729 27.2503 108.459 25.8735 109.014C25.4704 109.174 25.052 109.334 24.7554 109.645C24.4587 109.957 24.337 110.489 24.6185 110.816C24.8619 111.105 25.2878 111.136 25.6605 111.143C28.5434 111.174 31.4338 110.93 34.2786 110.413C34.446 110.383 34.6286 110.345 34.7503 110.223C34.8492 110.124 34.8948 109.988 34.9328 109.858C35.2219 108.779 35.0393 107.585 34.4308 106.642Z" fill="#BE9F3E"/>
<path d="M31.9739 20.7002C32.5139 19.9475 32.8638 18.959 32.9399 17.7653C33.0768 15.5603 32.9627 13.2869 32.0575 11.272C31.0154 8.95291 28.3684 6.64905 25.6225 7.24212C22.405 7.93403 22.6103 12.0855 22.8309 14.8456C23.0058 17.0354 23.7893 19.2632 25.4171 20.7459C27.8436 22.9661 30.5591 22.6771 31.9739 20.7078V20.7002Z" fill="#A88B71"/>
<path d="M32.1412 17.0202C32.628 17.4536 33.3963 17.4612 33.8908 17.043C34.3852 16.6248 34.5525 15.8188 34.2786 15.2105C35.1001 14.5034 35.2675 13.074 34.6362 12.1692C35.4348 11.8802 35.412 10.6789 35.2294 9.79688C35.161 9.46993 35.1002 9.13537 35.0317 8.80842C34.9557 8.42825 34.8796 8.04047 34.7731 7.6679C34.6362 7.17368 34.446 6.67946 34.0961 6.3373C33.8603 6.1168 33.3126 6.19285 33.442 6.49699C33.7158 5.74425 33.191 4.88504 32.5064 4.5581C31.8218 4.23875 31.0383 4.3072 30.2929 4.38323C30.0723 3.96504 29.5703 3.82057 29.1215 3.85098C28.6727 3.88139 28.2468 4.05628 27.798 4.0943C26.9613 4.17033 26.155 3.79777 25.3259 3.6457C24.4968 3.49363 23.4927 3.65329 23.0896 4.44405C22.9907 4.64174 23.082 5.02191 23.2721 4.91546C22.656 4.90025 21.979 5.1968 21.7356 5.80507C21.4922 6.41335 21.9182 7.28014 22.5343 7.22691C21.9105 7.13567 21.188 7.41701 20.9522 8.04049C20.7164 8.67157 21.264 9.53076 21.8725 9.34828C21.7128 9.21902 21.4694 9.43191 21.477 9.6448C21.477 9.8577 21.6444 10.0326 21.8117 10.1542C22.6712 10.7701 23.9719 10.4964 24.5424 9.56877C24.7173 10.0934 25.3335 10.3139 25.8431 10.1923C26.3527 10.0706 26.7711 9.70564 27.1666 9.34828C27.9425 9.85771 28.9922 9.85771 29.768 9.34828C29.8517 9.86532 30.4602 10.1923 30.8938 9.95655C30.8634 10.4964 30.8329 11.0362 30.8101 11.5761C31.0231 11.5837 31.2361 11.5913 31.4491 11.5989C30.9166 11.9411 30.6047 12.6406 30.6808 13.3021C30.8862 13.4921 31.1828 13.3021 31.4338 13.2032C32.0804 12.9371 32.9019 13.4693 32.978 14.2145C33.0616 14.9596 32.3771 15.6743 31.6925 15.5831C32.301 15.6059 32.6204 16.602 32.1488 17.0202H32.1412Z" fill="#C69C6D"/>
<path d="M30.2396 22.8901C27.7371 22.8444 25.5693 24.8441 24.6185 27.1556C21.5759 34.5613 22.0855 44.3242 21.5987 52.1785C21.0206 61.5764 20.5186 70.9895 20.1003 80.3949C20.0318 82.0145 20.7696 83.1246 21.4542 84.4095C28.7107 84.0598 35.9977 83.1018 43.2087 82.2046C43.2999 71.803 41.9612 61.3863 39.2228 51.3421C37.9906 46.8257 36.4769 42.3093 36.3476 37.6331C36.264 34.6602 36.7432 31.634 36.1042 28.7295C35.4653 25.825 33.2214 22.9433 30.2472 22.8824L30.2396 22.8901Z" fill="#ACB18F"/>
<path d="M39.4205 7.66792C39.7933 7.91884 39.5651 8.58033 39.1315 8.70959C38.6979 8.83885 38.2415 8.59555 37.8916 8.31422C38.0894 8.41307 38.1351 8.7248 37.9677 8.87687C37.3288 8.89968 36.6823 8.61836 36.2715 8.12414C36.4312 8.10133 36.5225 8.33704 36.4312 8.4663C36.3399 8.59556 36.1498 8.62596 35.99 8.61836C35.4728 8.58794 34.986 8.2382 34.7882 7.75157C35.1914 7.72116 35.3055 8.39025 34.986 8.61836C34.6589 8.85406 34.1949 8.72482 33.8602 8.51192C33.7613 8.45109 33.6625 8.36746 33.6549 8.2534C33.8831 8.29903 33.9363 8.64118 33.7766 8.80085C33.6092 8.96053 33.3278 8.93772 33.1452 8.80085C32.9551 8.6716 32.8486 8.45108 32.7725 8.23818C32.8029 8.36744 32.7801 8.5043 32.7041 8.61836C32.2933 8.51191 31.9891 8.08613 32.0195 7.66034C31.9662 7.5843 32.1108 7.47784 32.164 7.55388C31.7685 7.21933 31.4794 6.76313 31.3501 6.26131C30.947 6.39056 30.4601 6.13964 30.3384 5.72905C30.0418 5.71385 29.7604 5.55418 29.593 5.31087C29.4485 5.47815 29.1747 5.48574 28.9845 5.37169C28.7944 5.25764 28.6802 5.04475 28.627 4.83185C28.6042 4.73301 28.5966 4.61134 28.6651 4.53531C28.7335 4.45927 28.9084 4.5125 28.8856 4.61135C28.3912 4.47448 28.0489 3.93464 28.1326 3.42521C28.2847 3.46323 28.414 3.56206 28.4901 3.69892C28.1478 3.58487 27.9729 3.12106 28.1706 2.81692C28.3608 2.51278 28.8552 2.45956 29.1062 2.72568C28.9465 2.45956 28.9313 2.10981 29.0682 1.82848C29.2051 1.82848 29.3344 1.82847 29.4713 1.82087C29.1367 1.59277 29.266 0.976889 29.6539 0.87044C30.0418 0.763992 30.4678 1.15937 30.4145 1.56236C30.1255 1.31905 30.2396 0.763993 30.6047 0.657545C30.9698 0.5587 31.3577 0.976901 31.236 1.33426C31.3121 1.08335 31.6011 0.923667 31.8597 0.992098C32.1107 1.06053 32.2781 1.35706 32.2096 1.60798C32.3313 1.32665 32.5824 1.04532 32.8942 1.06053C33.2061 1.07573 33.4191 1.53955 33.1605 1.70682C33.13 1.28103 33.7005 1.02253 34.096 1.1746C34.4916 1.32667 34.7426 1.72203 34.9556 2.087C35.0468 1.85129 35.3359 1.70683 35.5793 1.78286C35.8227 1.8589 35.9901 2.13262 35.9368 2.37593C35.7999 2.15543 35.952 1.81327 36.2106 1.77525C36.4693 1.73724 36.7203 2.01858 36.6518 2.2695C36.8876 2.01858 37.2908 1.94254 37.595 2.09461C37.9069 2.24668 38.0894 2.61164 38.0362 2.94619C38.1046 2.73329 38.3557 2.62685 38.5762 2.64206C38.7968 2.65726 39.0022 2.77131 39.1924 2.87776C39.4206 3.00702 39.664 3.15149 39.7552 3.4024C39.8389 3.65332 39.6259 3.98785 39.3749 3.91182C39.7172 3.98025 40.1052 4.08671 40.2573 4.39845C40.417 4.71019 40.0443 5.18922 39.7628 4.97632C40.1736 5.02955 40.5919 5.31847 40.6528 5.72905C40.7136 6.13964 40.2573 6.57304 39.877 6.39816C40.204 6.51982 40.3942 6.9228 40.2725 7.24974C40.1584 7.57669 39.7552 7.77439 39.4282 7.66034L39.4205 7.66792Z" fill="#C69C6D"/>
<path d="M29.3876 35.6562C28.6879 35.2228 27.9501 34.8655 27.1818 34.5841C27.0829 34.5461 26.9688 34.5157 26.8775 34.5537C26.7786 34.5993 26.733 34.7134 26.695 34.8198C26.1093 36.5306 25.6909 38.3022 25.4475 40.0966C24.2305 38.9941 22.9298 37.9905 21.6215 37.0096C18.3355 34.5385 14.9887 32.151 11.5886 29.8396C11.0181 29.4518 10.4248 29.0564 9.74022 28.9652C9.05564 28.8739 8.27214 29.1857 8.04395 29.832C12.9957 35.9223 19.0809 41.0927 25.8963 45.0008C26.3983 45.2898 26.6037 45.3506 26.9764 45.7612C27.1133 45.9133 27.3643 45.9209 27.5469 45.822C27.7295 45.7232 27.8588 45.5559 27.9729 45.3886C28.8552 44.0656 29.1291 42.4385 29.3725 40.8722C29.5398 39.8153 29.6919 38.8268 30.1255 37.846C30.2472 37.5571 30.3993 37.2682 30.3993 36.9564C30.3993 36.3785 29.8745 35.9527 29.3876 35.6562Z" fill="#A88B71"/>
</svg>
