<?xml version="1.0" encoding="UTF-8"?>
<svg id="Layer_1" xmlns="http://www.w3.org/2000/svg" version="1.1" viewBox="0 0 1366 768">
  <!-- Generator: Adobe Illustrator 29.8.2, SVG Export Plug-In . SVG Version: 2.1.1 Build 3)  -->
  <defs>
    <style>
      .st0 {
        font-family: Sailec-Bold, Sailec-Bold;
        font-size: 49.99px;
        font-weight: 700;
      }

      .st0, .st1 {
        fill: #3db5e9;
      }
    </style>
  </defs>
  <text class="st0" transform="translate(647.73 510.96)"><tspan x="0" y="0">Obeying</tspan><tspan x="18.05" y="59.99">the law</tspan></text>
  <g id="muq66Y.tif">
    <path class="st1" d="M794.97,397.03c68.91,15.74,132.22,74.72,110.48,151.09-7.24,25.43-21.76,40.95-39.42,59.33-.3.32-.85.49-1.01.7-.81,1.01-.85,4.7-.71,6.02.7,6.97,14.64,28.25,19.3,34.61,2.09,2.85,4.74,5.41,6.65,8.39,1.5,2.34,3.57,5.48.03,7.12s-19.3-.41-23.86-1.16c-20.82-3.43-40.63-12.22-59.03-22.16-33.38,4.29-68.4,7.51-100.91-1.13-65.9-17.51-123.26-75.02-104.15-147.82,3.07-11.68,8.22-23.21,14.82-33.29,36.18-55.26,115.59-75.92,177.82-61.71ZM861.95,626.87c-2.01-4.79-5.45-10.12-6.87-15.07-1.37-4.76.81-6.08,4.05-9.08,6.08-5.64,12.14-9.63,17.71-16.14,41.33-48.36,30.73-112.54-17.08-151.52-60.43-49.26-162.06-47.1-219.12,6.57-50.42,47.43-45.56,117.65,6.91,161.1,45.51,37.69,105.52,40.37,161.7,31.13,15.12,7.35,30.02,16.44,46.65,20.06,7.47,1.63,15.21,1.96,22.82,2.41l-16.78-29.45Z"/>
  </g>
</svg>